{
 "cells": [
  {
   "cell_type": "code",
   "execution_count": 9,
   "metadata": {
    "collapsed": true
   },
   "outputs": [],
   "source": [
    "from mido import MidiFile\n",
    "import numpy as np\n",
    "mid = MidiFile('d_e1m1.mid')"
   ]
  },
  {
   "cell_type": "code",
   "execution_count": 38,
   "metadata": {},
   "outputs": [],
   "source": [
    "def splitMessage(msg):#command,channel,note,velocity,time):\n",
    "    channel = msg[1].split(\"=\")#channel.split(\"=\")[1]\n",
    "    note = msg[2].split(\"=\")[1]\n",
    "    velocity = msg[3].split(\"=\")[1]\n",
    "    time = msg[4].split(\"=\")[1]\n",
    "    return [msg[0],channel,note,velocity,time]"
   ]
  },
  {
   "cell_type": "code",
   "execution_count": 15,
   "metadata": {},
   "outputs": [
    {
     "name": "stdout",
     "output_type": "stream",
     "text": [
      "Track 0: \n",
      "<meta message copyright text='QMUS2MID (C) S.BACQUET' time=0>\n",
      "<meta message key_signature key='C' time=0>\n",
      "<meta message set_tempo tempo=631578 time=0>\n",
      "<meta message end_of_track time=0>\n",
      "Track 1: Quick MUS->MID ! for WinTex\n",
      "<meta message track_name name='Quick MUS->MID ! for WinTex' time=0>\n",
      "program_change channel=0 program=30 time=0\n",
      "control_change channel=0 control=7 value=100 time=0\n",
      "control_change channel=0 control=10 value=24 time=0\n",
      "control_change channel=0 control=7 value=100 time=0\n",
      "control_change channel=0 control=10 value=24 time=0\n",
      "note_on channel=0 note=40 velocity=108 time=1221\n",
      "note_on channel=0 note=40 velocity=0 time=6\n",
      "note_on channel=0 note=40 velocity=114 time=13\n",
      "note_on channel=0 note=52 velocity=114 time=20\n",
      "note_on channel=0 note=40 velocity=0 time=2\n",
      "note_on channel=0 note=52 velocity=0 time=16\n",
      "note_on channel=0 note=40 velocity=110 time=1\n",
      "note_on channel=0 note=40 velocity=0 time=6\n",
      "note_on channel=0 note=40 velocity=110 time=13\n",
      "note_on channel=0 note=50 velocity=111 time=19\n",
      "note_on channel=0 note=40 velocity=0 time=2\n",
      "note_on channel=0 note=50 velocity=0 time=15\n",
      "note_on channel=0 note=40 velocity=104 time=2\n",
      "note_on channel=0 note=40 velocity=0 time=6\n",
      "note_on channel=0 note=40 velocity=111 time=13\n",
      "note_on channel=0 note=48 velocity=116 time=19\n",
      "note_on channel=0 note=40 velocity=0 time=0\n",
      "note_on channel=0 note=48 velocity=0 time=18\n",
      "note_on channel=0 note=40 velocity=108 time=1\n",
      "note_on channel=0 note=40 velocity=0 time=6\n",
      "note_on channel=0 note=40 velocity=110 time=13\n",
      "note_on channel=0 note=46 velocity=110 time=19\n",
      "note_on channel=0 note=40 velocity=0 time=2\n",
      "note_on channel=0 note=46 velocity=0 time=17\n",
      "note_on channel=0 note=40 velocity=110 time=0\n",
      "note_on channel=0 note=40 velocity=0 time=8\n",
      "note_on channel=0 note=40 velocity=111 time=12\n",
      "note_on channel=0 note=47 velocity=110 time=19\n",
      "note_on channel=0 note=47 velocity=0 time=18\n",
      "note_on channel=0 note=48 velocity=117 time=1\n",
      "note_on channel=0 note=40 velocity=0 time=13\n",
      "note_on channel=0 note=48 velocity=0 time=4\n",
      "note_on channel=0 note=40 velocity=111 time=2\n",
      "note_on channel=0 note=40 velocity=0 time=4\n",
      "note_on channel=0 note=40 velocity=111 time=15\n",
      "note_on channel=0 note=52 velocity=114 time=19\n",
      "note_on channel=0 note=40 velocity=0 time=4\n",
      "note_on channel=0 note=52 velocity=0 time=13\n",
      "note_on channel=0 note=40 velocity=106 time=2\n",
      "note_on channel=0 note=40 velocity=0 time=6\n",
      "note_on channel=0 note=40 velocity=108 time=13\n",
      "note_on channel=0 note=50 velocity=106 time=19\n",
      "note_on channel=0 note=40 velocity=0 time=3\n",
      "note_on channel=0 note=50 velocity=0 time=16\n",
      "note_on channel=0 note=40 velocity=114 time=0\n",
      "note_on channel=0 note=40 velocity=0 time=6\n",
      "note_on channel=0 note=40 velocity=106 time=13\n",
      "note_on channel=0 note=48 velocity=117 time=20\n",
      "note_on channel=0 note=40 velocity=0 time=0\n",
      "note_on channel=0 note=48 velocity=0 time=15\n",
      "note_on channel=0 note=40 velocity=111 time=4\n",
      "note_on channel=0 note=40 velocity=0 time=7\n",
      "note_on channel=0 note=40 velocity=114 time=12\n",
      "note_on channel=0 note=46 velocity=114 time=19\n",
      "pitchwheel channel=0 pitch=-256 time=8\n",
      "pitchwheel channel=0 pitch=128 time=2\n",
      "pitchwheel channel=0 pitch=512 time=1\n",
      "pitchwheel channel=0 pitch=896 time=1\n",
      "pitchwheel channel=0 pitch=1408 time=1\n",
      "pitchwheel channel=0 pitch=1664 time=1\n",
      "pitchwheel channel=0 pitch=1536 time=1\n",
      "pitchwheel channel=0 pitch=768 time=1\n",
      "pitchwheel channel=0 pitch=0 time=1\n",
      "pitchwheel channel=0 pitch=384 time=10\n",
      "pitchwheel channel=0 pitch=512 time=2\n",
      "pitchwheel channel=0 pitch=1408 time=1\n",
      "pitchwheel channel=0 pitch=1152 time=1\n",
      "pitchwheel channel=0 pitch=1280 time=1\n",
      "pitchwheel channel=0 pitch=2048 time=2\n",
      "pitchwheel channel=0 pitch=1920 time=1\n",
      "pitchwheel channel=0 pitch=1536 time=1\n",
      "pitchwheel channel=0 pitch=896 time=1\n",
      "pitchwheel channel=0 pitch=0 time=1\n",
      "pitchwheel channel=0 pitch=128 time=11\n",
      "pitchwheel channel=0 pitch=768 time=1\n",
      "pitchwheel channel=0 pitch=1152 time=1\n",
      "pitchwheel channel=0 pitch=1024 time=1\n",
      "pitchwheel channel=0 pitch=1280 time=1\n",
      "pitchwheel channel=0 pitch=1536 time=1\n",
      "pitchwheel channel=0 pitch=2048 time=1\n",
      "pitchwheel channel=0 pitch=1536 time=1\n",
      "pitchwheel channel=0 pitch=768 time=1\n",
      "pitchwheel channel=0 pitch=128 time=1\n",
      "pitchwheel channel=0 pitch=768 time=13\n",
      "pitchwheel channel=0 pitch=1152 time=1\n",
      "pitchwheel channel=0 pitch=1408 time=1\n",
      "pitchwheel channel=0 pitch=1920 time=1\n",
      "pitchwheel channel=0 pitch=1792 time=1\n",
      "pitchwheel channel=0 pitch=1664 time=1\n",
      "pitchwheel channel=0 pitch=512 time=3\n",
      "pitchwheel channel=0 pitch=0 time=1\n",
      "pitchwheel channel=0 pitch=512 time=11\n",
      "pitchwheel channel=0 pitch=640 time=1\n",
      "pitchwheel channel=0 pitch=1152 time=1\n",
      "note_on channel=0 note=40 velocity=0 time=0\n",
      "pitchwheel channel=0 pitch=1280 time=1\n",
      "pitchwheel channel=0 pitch=1536 time=1\n",
      "pitchwheel channel=0 pitch=0 time=0\n",
      "note_on channel=0 note=40 velocity=108 time=0\n",
      "note_on channel=0 note=46 velocity=0 time=3\n",
      "note_on channel=0 note=40 velocity=0 time=4\n",
      "note_on channel=0 note=40 velocity=107 time=12\n",
      "note_on channel=0 note=52 velocity=113 time=19\n",
      "note_on channel=0 note=40 velocity=0 time=9\n",
      "note_on channel=0 note=52 velocity=0 time=10\n",
      "note_on channel=0 note=40 velocity=105 time=1\n",
      "note_on channel=0 note=40 velocity=0 time=6\n",
      "note_on channel=0 note=40 velocity=111 time=13\n",
      "note_on channel=0 note=50 velocity=110 time=19\n",
      "note_on channel=0 note=40 velocity=0 time=3\n",
      "note_on channel=0 note=40 velocity=111 time=16\n",
      "note_on channel=0 note=50 velocity=0 time=0\n",
      "note_on channel=0 note=40 velocity=0 time=8\n",
      "note_on channel=0 note=40 velocity=114 time=11\n",
      "note_on channel=0 note=48 velocity=118 time=19\n",
      "note_on channel=0 note=40 velocity=0 time=1\n",
      "note_on channel=0 note=48 velocity=0 time=17\n",
      "note_on channel=0 note=40 velocity=106 time=1\n",
      "note_on channel=0 note=40 velocity=0 time=6\n",
      "note_on channel=0 note=40 velocity=108 time=13\n",
      "note_on channel=0 note=46 velocity=115 time=19\n",
      "note_on channel=0 note=40 velocity=0 time=1\n",
      "note_on channel=0 note=40 velocity=111 time=18\n",
      "note_on channel=0 note=46 velocity=0 time=3\n",
      "note_on channel=0 note=40 velocity=0 time=3\n",
      "note_on channel=0 note=40 velocity=111 time=13\n",
      "note_on channel=0 note=47 velocity=110 time=20\n",
      "note_on channel=0 note=47 velocity=0 time=18\n",
      "note_on channel=0 note=48 velocity=111 time=1\n",
      "note_on channel=0 note=40 velocity=0 time=10\n",
      "note_on channel=0 note=48 velocity=0 time=8\n",
      "note_on channel=0 note=40 velocity=110 time=1\n",
      "note_on channel=0 note=40 velocity=0 time=6\n",
      "note_on channel=0 note=40 velocity=108 time=13\n",
      "note_on channel=0 note=52 velocity=117 time=19\n",
      "note_on channel=0 note=40 velocity=0 time=14\n",
      "note_on channel=0 note=40 velocity=111 time=5\n",
      "note_on channel=0 note=52 velocity=0 time=2\n",
      "note_on channel=0 note=40 velocity=0 time=5\n",
      "note_on channel=0 note=40 velocity=108 time=12\n",
      "note_on channel=0 note=50 velocity=110 time=19\n",
      "note_on channel=0 note=40 velocity=0 time=5\n",
      "note_on channel=0 note=50 velocity=0 time=14\n",
      "note_on channel=0 note=40 velocity=114 time=0\n",
      "note_on channel=0 note=40 velocity=0 time=6\n",
      "note_on channel=0 note=40 velocity=115 time=13\n",
      "note_on channel=0 note=40 velocity=0 time=12\n",
      "note_on channel=0 note=63 velocity=112 time=7\n",
      "note_on channel=0 note=63 velocity=0 time=10\n",
      "note_on channel=0 note=60 velocity=105 time=0\n",
      "note_on channel=0 note=60 velocity=0 time=10\n",
      "note_on channel=0 note=59 velocity=112 time=0\n",
      "note_on channel=0 note=59 velocity=0 time=9\n",
      "note_on channel=0 note=63 velocity=103 time=0\n",
      "note_on channel=0 note=63 velocity=0 time=10\n",
      "note_on channel=0 note=66 velocity=111 time=0\n",
      "note_on channel=0 note=66 velocity=0 time=9\n",
      "note_on channel=0 note=64 velocity=102 time=0\n",
      "note_on channel=0 note=64 velocity=0 time=10\n",
      "note_on channel=0 note=63 velocity=113 time=0\n",
      "note_on channel=0 note=63 velocity=0 time=9\n",
      "note_on channel=0 note=59 velocity=103 time=0\n",
      "note_on channel=0 note=59 velocity=0 time=10\n",
      "note_on channel=0 note=63 velocity=111 time=0\n",
      "note_on channel=0 note=63 velocity=0 time=9\n",
      "note_on channel=0 note=64 velocity=101 time=0\n",
      "note_on channel=0 note=64 velocity=0 time=10\n",
      "note_on channel=0 note=66 velocity=112 time=0\n",
      "note_on channel=0 note=66 velocity=0 time=9\n",
      "note_on channel=0 note=67 velocity=103 time=0\n",
      "note_on channel=0 note=67 velocity=0 time=10\n",
      "note_on channel=0 note=66 velocity=110 time=0\n",
      "note_on channel=0 note=66 velocity=0 time=10\n",
      "note_on channel=0 note=64 velocity=100 time=0\n",
      "note_on channel=0 note=64 velocity=0 time=9\n",
      "note_on channel=0 note=63 velocity=113 time=0\n",
      "note_on channel=0 note=63 velocity=0 time=10\n",
      "note_on channel=0 note=59 velocity=103 time=0\n",
      "note_on channel=0 note=59 velocity=0 time=9\n",
      "note_on channel=0 note=40 velocity=108 time=0\n",
      "note_on channel=0 note=40 velocity=0 time=6\n",
      "note_on channel=0 note=40 velocity=114 time=13\n",
      "note_on channel=0 note=52 velocity=114 time=19\n",
      "note_on channel=0 note=40 velocity=0 time=3\n",
      "note_on channel=0 note=52 velocity=0 time=16\n",
      "note_on channel=0 note=40 velocity=110 time=0\n",
      "note_on channel=0 note=40 velocity=0 time=6\n",
      "note_on channel=0 note=40 velocity=110 time=14\n",
      "note_on channel=0 note=50 velocity=111 time=19\n",
      "note_on channel=0 note=40 velocity=0 time=2\n",
      "note_on channel=0 note=50 velocity=0 time=15\n",
      "note_on channel=0 note=40 velocity=104 time=2\n",
      "note_on channel=0 note=40 velocity=0 time=6\n",
      "note_on channel=0 note=40 velocity=111 time=13\n",
      "note_on channel=0 note=48 velocity=116 time=19\n",
      "note_on channel=0 note=40 velocity=0 time=0\n",
      "note_on channel=0 note=48 velocity=0 time=18\n",
      "note_on channel=0 note=40 velocity=108 time=1\n",
      "note_on channel=0 note=40 velocity=0 time=6\n",
      "note_on channel=0 note=40 velocity=110 time=13\n",
      "note_on channel=0 note=46 velocity=110 time=19\n",
      "note_on channel=0 note=40 velocity=0 time=2\n",
      "note_on channel=0 note=46 velocity=0 time=16\n",
      "note_on channel=0 note=40 velocity=110 time=1\n",
      "note_on channel=0 note=40 velocity=0 time=8\n",
      "note_on channel=0 note=40 velocity=111 time=11\n",
      "note_on channel=0 note=47 velocity=110 time=19\n",
      "note_on channel=0 note=47 velocity=0 time=19\n",
      "note_on channel=0 note=48 velocity=117 time=1\n",
      "note_on channel=0 note=40 velocity=0 time=12\n",
      "note_on channel=0 note=48 velocity=0 time=4\n",
      "note_on channel=0 note=40 velocity=111 time=3\n",
      "note_on channel=0 note=40 velocity=0 time=3\n",
      "note_on channel=0 note=40 velocity=111 time=16\n",
      "note_on channel=0 note=52 velocity=114 time=19\n",
      "note_on channel=0 note=40 velocity=0 time=4\n",
      "note_on channel=0 note=52 velocity=0 time=13\n",
      "note_on channel=0 note=40 velocity=106 time=2\n",
      "note_on channel=0 note=40 velocity=0 time=6\n",
      "note_on channel=0 note=40 velocity=108 time=13\n",
      "note_on channel=0 note=50 velocity=106 time=19\n",
      "note_on channel=0 note=40 velocity=0 time=3\n",
      "note_on channel=0 note=50 velocity=0 time=16\n",
      "note_on channel=0 note=40 velocity=114 time=0\n",
      "note_on channel=0 note=40 velocity=0 time=6\n",
      "note_on channel=0 note=40 velocity=106 time=13\n",
      "note_on channel=0 note=48 velocity=117 time=19\n",
      "note_on channel=0 note=40 velocity=0 time=1\n",
      "note_on channel=0 note=48 velocity=0 time=15\n",
      "note_on channel=0 note=40 velocity=111 time=3\n",
      "note_on channel=0 note=40 velocity=0 time=7\n",
      "note_on channel=0 note=40 velocity=114 time=13\n",
      "note_on channel=0 note=46 velocity=114 time=19\n",
      "pitchwheel channel=0 pitch=-256 time=7\n",
      "pitchwheel channel=0 pitch=-384 time=1\n",
      "pitchwheel channel=0 pitch=128 time=2\n",
      "pitchwheel channel=0 pitch=512 time=1\n",
      "pitchwheel channel=0 pitch=896 time=1\n",
      "pitchwheel channel=0 pitch=1408 time=1\n",
      "pitchwheel channel=0 pitch=1664 time=1\n",
      "pitchwheel channel=0 pitch=1536 time=1\n",
      "pitchwheel channel=0 pitch=768 time=1\n",
      "pitchwheel channel=0 pitch=0 time=1\n",
      "pitchwheel channel=0 pitch=384 time=10\n",
      "pitchwheel channel=0 pitch=512 time=2\n",
      "pitchwheel channel=0 pitch=1024 time=1\n",
      "pitchwheel channel=0 pitch=1152 time=1\n",
      "pitchwheel channel=0 pitch=1408 time=1\n",
      "pitchwheel channel=0 pitch=2048 time=2\n",
      "pitchwheel channel=0 pitch=1920 time=1\n",
      "pitchwheel channel=0 pitch=1536 time=1\n",
      "pitchwheel channel=0 pitch=384 time=1\n",
      "pitchwheel channel=0 pitch=128 time=12\n",
      "pitchwheel channel=0 pitch=768 time=1\n",
      "pitchwheel channel=0 pitch=1152 time=1\n",
      "pitchwheel channel=0 pitch=1024 time=1\n",
      "pitchwheel channel=0 pitch=1280 time=1\n",
      "pitchwheel channel=0 pitch=1920 time=1\n",
      "pitchwheel channel=0 pitch=1536 time=1\n",
      "pitchwheel channel=0 pitch=1280 time=1\n",
      "pitchwheel channel=0 pitch=768 time=1\n",
      "pitchwheel channel=0 pitch=128 time=1\n",
      "pitchwheel channel=0 pitch=768 time=12\n",
      "pitchwheel channel=0 pitch=1024 time=1\n",
      "pitchwheel channel=0 pitch=1408 time=2\n",
      "pitchwheel channel=0 pitch=1920 time=1\n",
      "pitchwheel channel=0 pitch=1792 time=1\n",
      "pitchwheel channel=0 pitch=1664 time=1\n",
      "pitchwheel channel=0 pitch=512 time=2\n",
      "pitchwheel channel=0 pitch=128 time=1\n",
      "pitchwheel channel=0 pitch=512 time=12\n",
      "pitchwheel channel=0 pitch=640 time=1\n",
      "pitchwheel channel=0 pitch=1152 time=1\n",
      "note_on channel=0 note=40 velocity=0 time=0\n",
      "pitchwheel channel=0 pitch=1280 time=1\n",
      "pitchwheel channel=0 pitch=1408 time=1\n",
      "pitchwheel channel=0 pitch=0 time=0\n",
      "note_on channel=0 note=40 velocity=108 time=0\n",
      "note_on channel=0 note=46 velocity=0 time=3\n",
      "note_on channel=0 note=40 velocity=0 time=4\n",
      "note_on channel=0 note=40 velocity=107 time=12\n",
      "note_on channel=0 note=52 velocity=113 time=19\n",
      "note_on channel=0 note=40 velocity=0 time=9\n",
      "note_on channel=0 note=52 velocity=0 time=10\n",
      "note_on channel=0 note=40 velocity=105 time=0\n",
      "note_on channel=0 note=40 velocity=0 time=7\n",
      "note_on channel=0 note=40 velocity=111 time=12\n",
      "note_on channel=0 note=50 velocity=110 time=20\n",
      "note_on channel=0 note=40 velocity=0 time=2\n",
      "note_on channel=0 note=40 velocity=111 time=17\n",
      "note_on channel=0 note=50 velocity=0 time=0\n",
      "note_on channel=0 note=40 velocity=0 time=7\n",
      "note_on channel=0 note=40 velocity=114 time=12\n",
      "note_on channel=0 note=48 velocity=118 time=19\n",
      "note_on channel=0 note=40 velocity=0 time=1\n",
      "note_on channel=0 note=48 velocity=0 time=17\n",
      "note_on channel=0 note=40 velocity=106 time=1\n",
      "note_on channel=0 note=40 velocity=0 time=6\n",
      "note_on channel=0 note=40 velocity=108 time=13\n",
      "note_on channel=0 note=46 velocity=115 time=19\n",
      "note_on channel=0 note=40 velocity=0 time=1\n",
      "note_on channel=0 note=40 velocity=111 time=18\n",
      "note_on channel=0 note=46 velocity=0 time=3\n",
      "note_on channel=0 note=40 velocity=0 time=3\n",
      "note_on channel=0 note=40 velocity=111 time=13\n",
      "note_on channel=0 note=47 velocity=110 time=19\n",
      "note_on channel=0 note=47 velocity=0 time=19\n",
      "note_on channel=0 note=48 velocity=111 time=0\n",
      "note_on channel=0 note=40 velocity=0 time=11\n",
      "note_on channel=0 note=48 velocity=0 time=8\n",
      "note_on channel=0 note=40 velocity=110 time=1\n",
      "note_on channel=0 note=40 velocity=0 time=6\n",
      "note_on channel=0 note=40 velocity=108 time=13\n",
      "note_on channel=0 note=52 velocity=117 time=19\n",
      "note_on channel=0 note=40 velocity=0 time=14\n",
      "note_on channel=0 note=40 velocity=111 time=5\n",
      "note_on channel=0 note=52 velocity=0 time=2\n",
      "note_on channel=0 note=40 velocity=0 time=5\n",
      "note_on channel=0 note=40 velocity=108 time=12\n",
      "note_on channel=0 note=50 velocity=110 time=19\n",
      "note_on channel=0 note=40 velocity=0 time=5\n",
      "note_on channel=0 note=50 velocity=0 time=14\n",
      "note_on channel=0 note=40 velocity=114 time=0\n",
      "note_on channel=0 note=40 velocity=0 time=6\n",
      "note_on channel=0 note=40 velocity=115 time=13\n",
      "note_on channel=0 note=40 velocity=0 time=11\n",
      "note_on channel=0 note=67 velocity=112 time=8\n",
      "note_on channel=0 note=67 velocity=0 time=10\n",
      "note_on channel=0 note=64 velocity=105 time=0\n",
      "note_on channel=0 note=64 velocity=0 time=9\n",
      "note_on channel=0 note=59 velocity=112 time=0\n",
      "note_on channel=0 note=59 velocity=0 time=10\n",
      "note_on channel=0 note=64 velocity=103 time=0\n",
      "note_on channel=0 note=64 velocity=0 time=9\n",
      "note_on channel=0 note=67 velocity=111 time=0\n",
      "note_on channel=0 note=67 velocity=0 time=10\n",
      "note_on channel=0 note=64 velocity=102 time=0\n",
      "note_on channel=0 note=64 velocity=0 time=10\n",
      "note_on channel=0 note=67 velocity=113 time=0\n",
      "note_on channel=0 note=67 velocity=0 time=9\n",
      "note_on channel=0 note=71 velocity=103 time=0\n",
      "note_on channel=0 note=71 velocity=0 time=10\n",
      "note_on channel=0 note=67 velocity=111 time=0\n",
      "note_on channel=0 note=67 velocity=0 time=9\n",
      "note_on channel=0 note=64 velocity=101 time=0\n",
      "note_on channel=0 note=64 velocity=0 time=10\n",
      "note_on channel=0 note=67 velocity=112 time=0\n",
      "note_on channel=0 note=67 velocity=0 time=9\n",
      "note_on channel=0 note=64 velocity=103 time=0\n",
      "note_on channel=0 note=64 velocity=0 time=10\n",
      "note_on channel=0 note=67 velocity=110 time=0\n",
      "note_on channel=0 note=67 velocity=0 time=9\n",
      "note_on channel=0 note=71 velocity=100 time=0\n",
      "note_on channel=0 note=71 velocity=0 time=10\n",
      "note_on channel=0 note=76 velocity=113 time=0\n",
      "note_on channel=0 note=76 velocity=0 time=9\n",
      "note_on channel=0 note=79 velocity=103 time=0\n",
      "note_on channel=0 note=79 velocity=0 time=10\n",
      "note_on channel=0 note=45 velocity=108 time=0\n",
      "note_on channel=0 note=45 velocity=0 time=5\n",
      "note_on channel=0 note=45 velocity=114 time=14\n",
      "note_on channel=0 note=57 velocity=114 time=19\n",
      "note_on channel=0 note=45 velocity=0 time=3\n",
      "note_on channel=0 note=57 velocity=0 time=16\n",
      "note_on channel=0 note=45 velocity=110 time=0\n",
      "note_on channel=0 note=45 velocity=0 time=6\n",
      "note_on channel=0 note=45 velocity=110 time=13\n",
      "note_on channel=0 note=55 velocity=111 time=19\n",
      "note_on channel=0 note=45 velocity=0 time=3\n",
      "note_on channel=0 note=55 velocity=0 time=15\n",
      "note_on channel=0 note=45 velocity=104 time=2\n",
      "note_on channel=0 note=45 velocity=0 time=6\n",
      "note_on channel=0 note=45 velocity=111 time=13\n",
      "note_on channel=0 note=53 velocity=116 time=19\n",
      "note_on channel=0 note=45 velocity=0 time=0\n",
      "note_on channel=0 note=53 velocity=0 time=18\n",
      "note_on channel=0 note=45 velocity=108 time=1\n",
      "note_on channel=0 note=45 velocity=0 time=6\n",
      "note_on channel=0 note=45 velocity=110 time=13\n",
      "note_on channel=0 note=51 velocity=110 time=19\n",
      "note_on channel=0 note=45 velocity=0 time=1\n",
      "note_on channel=0 note=51 velocity=0 time=17\n",
      "note_on channel=0 note=45 velocity=110 time=1\n",
      "note_on channel=0 note=45 velocity=0 time=8\n",
      "note_on channel=0 note=45 velocity=111 time=11\n",
      "note_on channel=0 note=52 velocity=110 time=19\n",
      "note_on channel=0 note=52 velocity=0 time=19\n",
      "note_on channel=0 note=53 velocity=117 time=0\n",
      "note_on channel=0 note=45 velocity=0 time=13\n",
      "note_on channel=0 note=53 velocity=0 time=4\n",
      "note_on channel=0 note=45 velocity=111 time=2\n",
      "note_on channel=0 note=45 velocity=0 time=4\n",
      "note_on channel=0 note=45 velocity=111 time=16\n",
      "note_on channel=0 note=57 velocity=114 time=19\n",
      "note_on channel=0 note=45 velocity=0 time=4\n",
      "note_on channel=0 note=57 velocity=0 time=13\n",
      "note_on channel=0 note=45 velocity=106 time=2\n",
      "note_on channel=0 note=45 velocity=0 time=6\n",
      "note_on channel=0 note=45 velocity=108 time=13\n",
      "note_on channel=0 note=55 velocity=106 time=19\n",
      "note_on channel=0 note=45 velocity=0 time=2\n",
      "note_on channel=0 note=55 velocity=0 time=17\n",
      "note_on channel=0 note=45 velocity=114 time=0\n",
      "note_on channel=0 note=45 velocity=0 time=6\n",
      "note_on channel=0 note=45 velocity=106 time=13\n",
      "note_on channel=0 note=53 velocity=117 time=19\n",
      "note_on channel=0 note=45 velocity=0 time=1\n",
      "note_on channel=0 note=53 velocity=0 time=15\n",
      "note_on channel=0 note=45 velocity=111 time=3\n",
      "note_on channel=0 note=45 velocity=0 time=7\n",
      "note_on channel=0 note=45 velocity=114 time=12\n",
      "note_on channel=0 note=51 velocity=114 time=19\n",
      "pitchwheel channel=0 pitch=-256 time=8\n",
      "pitchwheel channel=0 pitch=-384 time=1\n",
      "pitchwheel channel=0 pitch=128 time=2\n",
      "pitchwheel channel=0 pitch=768 time=1\n",
      "pitchwheel channel=0 pitch=896 time=1\n",
      "pitchwheel channel=0 pitch=1536 time=1\n",
      "pitchwheel channel=0 pitch=1920 time=1\n",
      "pitchwheel channel=0 pitch=1536 time=1\n",
      "pitchwheel channel=0 pitch=768 time=1\n",
      "pitchwheel channel=0 pitch=0 time=1\n",
      "pitchwheel channel=0 pitch=384 time=9\n",
      "pitchwheel channel=0 pitch=640 time=1\n",
      "pitchwheel channel=0 pitch=384 time=1\n",
      "pitchwheel channel=0 pitch=1024 time=1\n",
      "pitchwheel channel=0 pitch=1152 time=2\n",
      "pitchwheel channel=0 pitch=1408 time=1\n",
      "pitchwheel channel=0 pitch=2048 time=1\n",
      "pitchwheel channel=0 pitch=1920 time=2\n",
      "pitchwheel channel=0 pitch=1280 time=1\n",
      "pitchwheel channel=0 pitch=128 time=1\n",
      "pitchwheel channel=0 pitch=384 time=12\n",
      "pitchwheel channel=0 pitch=768 time=1\n",
      "pitchwheel channel=0 pitch=1152 time=1\n",
      "pitchwheel channel=0 pitch=1024 time=1\n",
      "pitchwheel channel=0 pitch=1280 time=1\n",
      "pitchwheel channel=0 pitch=1920 time=1\n",
      "pitchwheel channel=0 pitch=1536 time=1\n",
      "pitchwheel channel=0 pitch=1280 time=1\n",
      "pitchwheel channel=0 pitch=384 time=1\n",
      "pitchwheel channel=0 pitch=0 time=1\n",
      "pitchwheel channel=0 pitch=768 time=12\n",
      "pitchwheel channel=0 pitch=1024 time=1\n",
      "pitchwheel channel=0 pitch=1408 time=2\n",
      "pitchwheel channel=0 pitch=1920 time=1\n",
      "pitchwheel channel=0 pitch=1536 time=1\n",
      "pitchwheel channel=0 pitch=1792 time=1\n",
      "pitchwheel channel=0 pitch=512 time=2\n",
      "pitchwheel channel=0 pitch=0 time=1\n",
      "pitchwheel channel=0 pitch=512 time=12\n",
      "pitchwheel channel=0 pitch=1024 time=1\n",
      "pitchwheel channel=0 pitch=1152 time=0\n",
      "note_on channel=0 note=45 velocity=0 time=0\n",
      "pitchwheel channel=0 pitch=1280 time=2\n",
      "pitchwheel channel=0 pitch=1408 time=1\n",
      "pitchwheel channel=0 pitch=0 time=0\n",
      "note_on channel=0 note=45 velocity=108 time=0\n",
      "note_on channel=0 note=51 velocity=0 time=3\n",
      "note_on channel=0 note=45 velocity=0 time=3\n",
      "note_on channel=0 note=45 velocity=107 time=13\n",
      "note_on channel=0 note=57 velocity=113 time=19\n",
      "note_on channel=0 note=45 velocity=0 time=8\n",
      "note_on channel=0 note=57 velocity=0 time=11\n",
      "note_on channel=0 note=45 velocity=105 time=0\n",
      "note_on channel=0 note=45 velocity=0 time=7\n",
      "note_on channel=0 note=45 velocity=111 time=12\n",
      "note_on channel=0 note=55 velocity=110 time=19\n",
      "note_on channel=0 note=45 velocity=0 time=3\n",
      "note_on channel=0 note=45 velocity=111 time=16\n",
      "note_on channel=0 note=55 velocity=0 time=1\n",
      "note_on channel=0 note=45 velocity=0 time=7\n",
      "note_on channel=0 note=45 velocity=114 time=12\n",
      "note_on channel=0 note=53 velocity=118 time=19\n",
      "note_on channel=0 note=45 velocity=0 time=1\n",
      "note_on channel=0 note=53 velocity=0 time=17\n",
      "note_on channel=0 note=45 velocity=106 time=1\n",
      "note_on channel=0 note=45 velocity=0 time=6\n",
      "note_on channel=0 note=45 velocity=108 time=13\n",
      "note_on channel=0 note=51 velocity=115 time=19\n",
      "note_on channel=0 note=45 velocity=0 time=1\n",
      "note_on channel=0 note=45 velocity=111 time=18\n",
      "note_on channel=0 note=51 velocity=0 time=2\n",
      "note_on channel=0 note=45 velocity=0 time=4\n",
      "note_on channel=0 note=45 velocity=111 time=13\n",
      "note_on channel=0 note=52 velocity=110 time=19\n",
      "note_on channel=0 note=52 velocity=0 time=19\n",
      "note_on channel=0 note=53 velocity=111 time=0\n",
      "note_on channel=0 note=45 velocity=0 time=11\n",
      "note_on channel=0 note=53 velocity=0 time=8\n",
      "note_on channel=0 note=45 velocity=110 time=0\n",
      "note_on channel=0 note=45 velocity=0 time=7\n",
      "note_on channel=0 note=45 velocity=108 time=12\n",
      "note_on channel=0 note=57 velocity=117 time=20\n",
      "note_on channel=0 note=45 velocity=0 time=14\n",
      "note_on channel=0 note=45 velocity=111 time=5\n",
      "note_on channel=0 note=57 velocity=0 time=2\n",
      "note_on channel=0 note=45 velocity=0 time=4\n",
      "note_on channel=0 note=45 velocity=108 time=13\n",
      "note_on channel=0 note=55 velocity=110 time=19\n",
      "note_on channel=0 note=45 velocity=0 time=5\n",
      "note_on channel=0 note=55 velocity=0 time=14\n",
      "note_on channel=0 note=45 velocity=114 time=0\n",
      "note_on channel=0 note=45 velocity=0 time=5\n",
      "note_on channel=0 note=45 velocity=115 time=14\n",
      "note_on channel=0 note=45 velocity=0 time=11\n",
      "note_on channel=0 note=69 velocity=112 time=8\n",
      "note_on channel=0 note=69 velocity=0 time=10\n",
      "note_on channel=0 note=65 velocity=105 time=0\n",
      "note_on channel=0 note=65 velocity=0 time=9\n",
      "note_on channel=0 note=64 velocity=112 time=0\n",
      "note_on channel=0 note=64 velocity=0 time=10\n",
      "note_on channel=0 note=69 velocity=103 time=0\n",
      "note_on channel=0 note=69 velocity=0 time=9\n",
      "note_on channel=0 note=64 velocity=111 time=0\n",
      "note_on channel=0 note=64 velocity=0 time=10\n",
      "note_on channel=0 note=60 velocity=102 time=0\n",
      "note_on channel=0 note=60 velocity=0 time=9\n",
      "note_on channel=0 note=64 velocity=113 time=0\n",
      "note_on channel=0 note=64 velocity=0 time=10\n",
      "note_on channel=0 note=69 velocity=103 time=0\n",
      "note_on channel=0 note=69 velocity=0 time=9\n",
      "note_on channel=0 note=72 velocity=111 time=0\n",
      "note_on channel=0 note=72 velocity=0 time=10\n",
      "note_on channel=0 note=69 velocity=101 time=0\n",
      "note_on channel=0 note=69 velocity=0 time=10\n",
      "note_on channel=0 note=64 velocity=112 time=0\n",
      "note_on channel=0 note=64 velocity=0 time=9\n",
      "note_on channel=0 note=69 velocity=103 time=0\n",
      "note_on channel=0 note=69 velocity=0 time=10\n",
      "note_on channel=0 note=64 velocity=110 time=0\n",
      "note_on channel=0 note=64 velocity=0 time=9\n",
      "note_on channel=0 note=69 velocity=100 time=0\n",
      "note_on channel=0 note=69 velocity=0 time=10\n",
      "note_on channel=0 note=64 velocity=113 time=0\n",
      "note_on channel=0 note=64 velocity=0 time=9\n",
      "note_on channel=0 note=60 velocity=103 time=0\n",
      "note_on channel=0 note=60 velocity=0 time=10\n",
      "note_on channel=0 note=40 velocity=108 time=0\n",
      "note_on channel=0 note=40 velocity=0 time=5\n",
      "note_on channel=0 note=40 velocity=114 time=14\n",
      "note_on channel=0 note=52 velocity=114 time=19\n",
      "note_on channel=0 note=40 velocity=0 time=3\n",
      "note_on channel=0 note=52 velocity=0 time=15\n",
      "note_on channel=0 note=40 velocity=110 time=1\n",
      "note_on channel=0 note=40 velocity=0 time=6\n",
      "note_on channel=0 note=40 velocity=110 time=13\n",
      "note_on channel=0 note=50 velocity=111 time=19\n",
      "note_on channel=0 note=40 velocity=0 time=3\n",
      "note_on channel=0 note=50 velocity=0 time=14\n",
      "note_on channel=0 note=40 velocity=104 time=2\n",
      "note_on channel=0 note=40 velocity=0 time=7\n",
      "note_on channel=0 note=40 velocity=111 time=12\n",
      "note_on channel=0 note=48 velocity=116 time=20\n",
      "note_on channel=0 note=40 velocity=0 time=0\n",
      "note_on channel=0 note=48 velocity=0 time=18\n",
      "note_on channel=0 note=40 velocity=108 time=1\n",
      "note_on channel=0 note=40 velocity=0 time=6\n",
      "note_on channel=0 note=40 velocity=110 time=13\n",
      "note_on channel=0 note=46 velocity=110 time=19\n",
      "note_on channel=0 note=40 velocity=0 time=1\n",
      "note_on channel=0 note=46 velocity=0 time=17\n",
      "note_on channel=0 note=40 velocity=110 time=1\n",
      "note_on channel=0 note=40 velocity=0 time=8\n",
      "note_on channel=0 note=40 velocity=111 time=11\n",
      "note_on channel=0 note=47 velocity=110 time=19\n",
      "note_on channel=0 note=47 velocity=0 time=18\n",
      "note_on channel=0 note=48 velocity=117 time=1\n",
      "note_on channel=0 note=40 velocity=0 time=13\n",
      "note_on channel=0 note=48 velocity=0 time=4\n",
      "note_on channel=0 note=40 velocity=111 time=2\n",
      "note_on channel=0 note=40 velocity=0 time=4\n",
      "note_on channel=0 note=40 velocity=111 time=15\n",
      "note_on channel=0 note=52 velocity=114 time=19\n",
      "note_on channel=0 note=40 velocity=0 time=4\n",
      "note_on channel=0 note=52 velocity=0 time=14\n",
      "note_on channel=0 note=40 velocity=106 time=2\n",
      "note_on channel=0 note=40 velocity=0 time=5\n",
      "note_on channel=0 note=40 velocity=108 time=14\n",
      "note_on channel=0 note=50 velocity=106 time=19\n",
      "note_on channel=0 note=40 velocity=0 time=2\n",
      "note_on channel=0 note=50 velocity=0 time=16\n",
      "note_on channel=0 note=40 velocity=114 time=1\n",
      "note_on channel=0 note=40 velocity=0 time=6\n",
      "note_on channel=0 note=40 velocity=106 time=13\n",
      "note_on channel=0 note=48 velocity=117 time=19\n",
      "note_on channel=0 note=40 velocity=0 time=1\n",
      "note_on channel=0 note=48 velocity=0 time=15\n",
      "note_on channel=0 note=40 velocity=111 time=3\n",
      "note_on channel=0 note=40 velocity=0 time=7\n",
      "note_on channel=0 note=40 velocity=114 time=12\n",
      "note_on channel=0 note=46 velocity=114 time=19\n",
      "pitchwheel channel=0 pitch=-256 time=8\n",
      "pitchwheel channel=0 pitch=0 time=1\n",
      "pitchwheel channel=0 pitch=128 time=1\n",
      "pitchwheel channel=0 pitch=512 time=1\n",
      "pitchwheel channel=0 pitch=768 time=1\n",
      "pitchwheel channel=0 pitch=896 time=1\n",
      "pitchwheel channel=0 pitch=1536 time=1\n",
      "pitchwheel channel=0 pitch=1920 time=1\n",
      "pitchwheel channel=0 pitch=1536 time=1\n",
      "pitchwheel channel=0 pitch=768 time=1\n",
      "pitchwheel channel=0 pitch=384 time=10\n",
      "pitchwheel channel=0 pitch=640 time=1\n",
      "pitchwheel channel=0 pitch=384 time=1\n",
      "pitchwheel channel=0 pitch=1024 time=1\n",
      "pitchwheel channel=0 pitch=1152 time=1\n",
      "pitchwheel channel=0 pitch=1280 time=1\n",
      "pitchwheel channel=0 pitch=1408 time=1\n",
      "pitchwheel channel=0 pitch=2048 time=1\n",
      "pitchwheel channel=0 pitch=1920 time=2\n",
      "pitchwheel channel=0 pitch=1280 time=1\n",
      "pitchwheel channel=0 pitch=128 time=1\n",
      "pitchwheel channel=0 pitch=384 time=12\n",
      "pitchwheel channel=0 pitch=896 time=1\n",
      "pitchwheel channel=0 pitch=1280 time=1\n",
      "pitchwheel channel=0 pitch=1536 time=2\n",
      "pitchwheel channel=0 pitch=1920 time=1\n",
      "pitchwheel channel=0 pitch=1536 time=1\n",
      "pitchwheel channel=0 pitch=1280 time=1\n",
      "pitchwheel channel=0 pitch=384 time=1\n",
      "pitchwheel channel=0 pitch=0 time=1\n",
      "pitchwheel channel=0 pitch=768 time=12\n",
      "pitchwheel channel=0 pitch=1152 time=1\n",
      "pitchwheel channel=0 pitch=1408 time=1\n",
      "pitchwheel channel=0 pitch=1664 time=1\n",
      "pitchwheel channel=0 pitch=1792 time=1\n",
      "pitchwheel channel=0 pitch=1536 time=1\n",
      "pitchwheel channel=0 pitch=1664 time=1\n",
      "pitchwheel channel=0 pitch=512 time=2\n",
      "pitchwheel channel=0 pitch=0 time=1\n",
      "pitchwheel channel=0 pitch=512 time=12\n",
      "pitchwheel channel=0 pitch=1024 time=1\n",
      "pitchwheel channel=0 pitch=1152 time=0\n",
      "note_on channel=0 note=40 velocity=0 time=0\n",
      "pitchwheel channel=0 pitch=1280 time=2\n",
      "pitchwheel channel=0 pitch=0 time=1\n",
      "note_on channel=0 note=40 velocity=108 time=0\n",
      "note_on channel=0 note=46 velocity=0 time=3\n",
      "note_on channel=0 note=40 velocity=0 time=3\n",
      "note_on channel=0 note=40 velocity=107 time=13\n",
      "note_on channel=0 note=52 velocity=113 time=19\n",
      "note_on channel=0 note=40 velocity=0 time=8\n",
      "note_on channel=0 note=52 velocity=0 time=10\n",
      "note_on channel=0 note=40 velocity=105 time=1\n",
      "note_on channel=0 note=40 velocity=0 time=6\n",
      "note_on channel=0 note=40 velocity=111 time=13\n",
      "note_on channel=0 note=50 velocity=110 time=19\n",
      "note_on channel=0 note=40 velocity=0 time=3\n",
      "note_on channel=0 note=40 velocity=111 time=16\n",
      "note_on channel=0 note=50 velocity=0 time=0\n",
      "note_on channel=0 note=40 velocity=0 time=8\n",
      "note_on channel=0 note=40 velocity=114 time=11\n",
      "note_on channel=0 note=48 velocity=118 time=19\n",
      "note_on channel=0 note=40 velocity=0 time=2\n",
      "note_on channel=0 note=48 velocity=0 time=17\n",
      "note_on channel=0 note=40 velocity=106 time=1\n",
      "note_on channel=0 note=40 velocity=0 time=6\n",
      "note_on channel=0 note=40 velocity=108 time=13\n",
      "note_on channel=0 note=46 velocity=115 time=19\n",
      "note_on channel=0 note=40 velocity=0 time=1\n",
      "note_on channel=0 note=40 velocity=111 time=18\n",
      "note_on channel=0 note=46 velocity=0 time=2\n",
      "note_on channel=0 note=40 velocity=0 time=4\n",
      "note_on channel=0 note=40 velocity=111 time=13\n",
      "note_on channel=0 note=47 velocity=110 time=19\n",
      "note_on channel=0 note=47 velocity=0 time=19\n",
      "note_on channel=0 note=48 velocity=111 time=0\n",
      "note_on channel=0 note=40 velocity=0 time=11\n",
      "note_on channel=0 note=48 velocity=0 time=8\n",
      "note_on channel=0 note=40 velocity=110 time=0\n",
      "note_on channel=0 note=40 velocity=0 time=7\n",
      "note_on channel=0 note=40 velocity=108 time=12\n",
      "note_on channel=0 note=52 velocity=117 time=19\n",
      "note_on channel=0 note=40 velocity=0 time=14\n",
      "note_on channel=0 note=40 velocity=111 time=5\n",
      "note_on channel=0 note=52 velocity=0 time=3\n",
      "note_on channel=0 note=40 velocity=0 time=4\n",
      "note_on channel=0 note=40 velocity=108 time=13\n",
      "note_on channel=0 note=50 velocity=110 time=19\n",
      "note_on channel=0 note=40 velocity=0 time=5\n",
      "note_on channel=0 note=50 velocity=0 time=14\n",
      "note_on channel=0 note=40 velocity=114 time=0\n",
      "note_on channel=0 note=40 velocity=0 time=5\n",
      "note_on channel=0 note=40 velocity=115 time=14\n",
      "note_on channel=0 note=40 velocity=0 time=19\n",
      "note_on channel=0 note=48 velocity=117 time=0\n",
      "note_on channel=0 note=40 velocity=111 time=19\n",
      "note_on channel=0 note=40 velocity=0 time=7\n",
      "note_on channel=0 note=48 velocity=0 time=3\n",
      "note_on channel=0 note=40 velocity=114 time=9\n",
      "note_on channel=0 note=46 velocity=114 time=19\n",
      "pitchwheel channel=0 pitch=-256 time=8\n",
      "pitchwheel channel=0 pitch=0 time=1\n",
      "pitchwheel channel=0 pitch=128 time=1\n",
      "pitchwheel channel=0 pitch=512 time=1\n",
      "pitchwheel channel=0 pitch=768 time=1\n",
      "pitchwheel channel=0 pitch=1280 time=1\n",
      "pitchwheel channel=0 pitch=1536 time=1\n",
      "pitchwheel channel=0 pitch=1792 time=1\n",
      "pitchwheel channel=0 pitch=1408 time=1\n",
      "pitchwheel channel=0 pitch=256 time=1\n",
      "pitchwheel channel=0 pitch=384 time=10\n",
      "pitchwheel channel=0 pitch=640 time=1\n",
      "pitchwheel channel=0 pitch=384 time=1\n",
      "pitchwheel channel=0 pitch=1024 time=1\n",
      "pitchwheel channel=0 pitch=1152 time=1\n",
      "pitchwheel channel=0 pitch=1280 time=1\n",
      "pitchwheel channel=0 pitch=1408 time=1\n",
      "pitchwheel channel=0 pitch=2048 time=1\n",
      "pitchwheel channel=0 pitch=1920 time=2\n",
      "pitchwheel channel=0 pitch=1280 time=1\n",
      "pitchwheel channel=0 pitch=128 time=1\n",
      "pitchwheel channel=0 pitch=384 time=11\n",
      "pitchwheel channel=0 pitch=768 time=1\n",
      "pitchwheel channel=0 pitch=896 time=1\n",
      "pitchwheel channel=0 pitch=1280 time=1\n",
      "pitchwheel channel=0 pitch=1536 time=2\n",
      "pitchwheel channel=0 pitch=1920 time=1\n",
      "pitchwheel channel=0 pitch=1536 time=1\n",
      "pitchwheel channel=0 pitch=896 time=1\n",
      "pitchwheel channel=0 pitch=384 time=1\n",
      "pitchwheel channel=0 pitch=0 time=1\n",
      "pitchwheel channel=0 pitch=768 time=12\n",
      "pitchwheel channel=0 pitch=1152 time=1\n",
      "pitchwheel channel=0 pitch=1408 time=1\n",
      "pitchwheel channel=0 pitch=1664 time=1\n",
      "pitchwheel channel=0 pitch=1792 time=1\n",
      "pitchwheel channel=0 pitch=1536 time=1\n",
      "pitchwheel channel=0 pitch=1664 time=1\n",
      "pitchwheel channel=0 pitch=512 time=2\n",
      "pitchwheel channel=0 pitch=0 time=1\n",
      "pitchwheel channel=0 pitch=512 time=12\n",
      "pitchwheel channel=0 pitch=1024 time=1\n",
      "pitchwheel channel=0 pitch=1152 time=0\n",
      "note_on channel=0 note=40 velocity=0 time=0\n",
      "pitchwheel channel=0 pitch=1280 time=2\n",
      "pitchwheel channel=0 pitch=0 time=1\n",
      "note_on channel=0 note=46 velocity=0 time=0\n",
      "note_on channel=0 note=49 velocity=108 time=0\n",
      "note_on channel=0 note=49 velocity=0 time=5\n",
      "note_on channel=0 note=49 velocity=114 time=14\n",
      "note_on channel=0 note=61 velocity=114 time=19\n",
      "note_on channel=0 note=49 velocity=0 time=2\n",
      "note_on channel=0 note=61 velocity=0 time=16\n",
      "note_on channel=0 note=49 velocity=110 time=1\n",
      "note_on channel=0 note=49 velocity=0 time=6\n",
      "note_on channel=0 note=49 velocity=110 time=13\n",
      "note_on channel=0 note=59 velocity=111 time=19\n",
      "note_on channel=0 note=49 velocity=0 time=2\n",
      "note_on channel=0 note=59 velocity=0 time=15\n",
      "note_on channel=0 note=49 velocity=104 time=2\n",
      "note_on channel=0 note=49 velocity=0 time=7\n",
      "note_on channel=0 note=49 velocity=111 time=12\n",
      "note_on channel=0 note=57 velocity=116 time=19\n",
      "note_on channel=0 note=49 velocity=0 time=1\n",
      "note_on channel=0 note=57 velocity=0 time=18\n",
      "note_on channel=0 note=49 velocity=108 time=0\n",
      "note_on channel=0 note=49 velocity=0 time=7\n",
      "note_on channel=0 note=49 velocity=110 time=13\n",
      "note_on channel=0 note=55 velocity=110 time=19\n",
      "note_on channel=0 note=49 velocity=0 time=1\n",
      "note_on channel=0 note=55 velocity=0 time=17\n",
      "note_on channel=0 note=49 velocity=110 time=1\n",
      "note_on channel=0 note=49 velocity=0 time=8\n",
      "note_on channel=0 note=49 velocity=111 time=11\n",
      "note_on channel=0 note=56 velocity=110 time=19\n",
      "note_on channel=0 note=56 velocity=0 time=18\n",
      "note_on channel=0 note=57 velocity=117 time=1\n",
      "note_on channel=0 note=49 velocity=0 time=13\n",
      "note_on channel=0 note=57 velocity=0 time=4\n",
      "note_on channel=0 note=47 velocity=111 time=2\n",
      "note_on channel=0 note=47 velocity=0 time=4\n",
      "note_on channel=0 note=47 velocity=111 time=15\n",
      "note_on channel=0 note=59 velocity=114 time=19\n",
      "note_on channel=0 note=47 velocity=0 time=4\n",
      "note_on channel=0 note=59 velocity=0 time=14\n",
      "note_on channel=0 note=47 velocity=106 time=1\n",
      "note_on channel=0 note=47 velocity=0 time=6\n",
      "note_on channel=0 note=47 velocity=108 time=13\n",
      "note_on channel=0 note=57 velocity=106 time=20\n",
      "note_on channel=0 note=47 velocity=0 time=2\n",
      "note_on channel=0 note=57 velocity=0 time=16\n",
      "note_on channel=0 note=47 velocity=114 time=1\n",
      "note_on channel=0 note=47 velocity=0 time=6\n",
      "note_on channel=0 note=47 velocity=106 time=13\n",
      "note_on channel=0 note=55 velocity=117 time=19\n",
      "note_on channel=0 note=47 velocity=0 time=1\n",
      "note_on channel=0 note=55 velocity=0 time=15\n",
      "note_on channel=0 note=46 velocity=111 time=3\n",
      "note_on channel=0 note=46 velocity=0 time=9\n",
      "note_on channel=0 note=45 velocity=114 time=10\n",
      "note_on channel=0 note=53 velocity=114 time=19\n",
      "pitchwheel channel=0 pitch=-256 time=8\n",
      "pitchwheel channel=0 pitch=0 time=1\n",
      "pitchwheel channel=0 pitch=128 time=1\n",
      "pitchwheel channel=0 pitch=512 time=1\n",
      "pitchwheel channel=0 pitch=768 time=1\n",
      "pitchwheel channel=0 pitch=1280 time=1\n",
      "pitchwheel channel=0 pitch=1536 time=1\n",
      "pitchwheel channel=0 pitch=1792 time=1\n",
      "pitchwheel channel=0 pitch=1408 time=1\n",
      "pitchwheel channel=0 pitch=256 time=1\n",
      "pitchwheel channel=0 pitch=384 time=10\n",
      "pitchwheel channel=0 pitch=640 time=1\n",
      "pitchwheel channel=0 pitch=512 time=1\n",
      "pitchwheel channel=0 pitch=1408 time=1\n",
      "pitchwheel channel=0 pitch=1152 time=1\n",
      "pitchwheel channel=0 pitch=1280 time=1\n",
      "pitchwheel channel=0 pitch=1408 time=1\n",
      "pitchwheel channel=0 pitch=2048 time=1\n",
      "pitchwheel channel=0 pitch=1920 time=2\n",
      "pitchwheel channel=0 pitch=896 time=1\n",
      "pitchwheel channel=0 pitch=0 time=1\n",
      "pitchwheel channel=0 pitch=128 time=11\n",
      "pitchwheel channel=0 pitch=768 time=1\n",
      "pitchwheel channel=0 pitch=896 time=1\n",
      "pitchwheel channel=0 pitch=1280 time=1\n",
      "pitchwheel channel=0 pitch=1536 time=2\n",
      "pitchwheel channel=0 pitch=1920 time=1\n",
      "pitchwheel channel=0 pitch=1536 time=1\n",
      "pitchwheel channel=0 pitch=896 time=1\n",
      "pitchwheel channel=0 pitch=384 time=1\n",
      "pitchwheel channel=0 pitch=0 time=1\n",
      "pitchwheel channel=0 pitch=768 time=12\n",
      "pitchwheel channel=0 pitch=1152 time=1\n",
      "pitchwheel channel=0 pitch=1408 time=1\n",
      "pitchwheel channel=0 pitch=1664 time=1\n",
      "pitchwheel channel=0 pitch=1792 time=1\n",
      "pitchwheel channel=0 pitch=1536 time=1\n",
      "pitchwheel channel=0 pitch=1664 time=1\n",
      "pitchwheel channel=0 pitch=512 time=2\n",
      "pitchwheel channel=0 pitch=0 time=1\n",
      "pitchwheel channel=0 pitch=512 time=12\n",
      "pitchwheel channel=0 pitch=1024 time=1\n",
      "pitchwheel channel=0 pitch=1152 time=0\n",
      "note_on channel=0 note=45 velocity=0 time=0\n",
      "pitchwheel channel=0 pitch=1280 time=2\n",
      "pitchwheel channel=0 pitch=0 time=1\n",
      "note_on channel=0 note=40 velocity=108 time=0\n",
      "note_on channel=0 note=53 velocity=0 time=2\n",
      "note_on channel=0 note=40 velocity=0 time=4\n",
      "note_on channel=0 note=40 velocity=107 time=13\n",
      "note_on channel=0 note=52 velocity=113 time=19\n",
      "note_on channel=0 note=40 velocity=0 time=8\n",
      "note_on channel=0 note=52 velocity=0 time=10\n",
      "note_on channel=0 note=40 velocity=105 time=1\n",
      "note_on channel=0 note=40 velocity=0 time=6\n",
      "note_on channel=0 note=40 velocity=111 time=13\n",
      "note_on channel=0 note=50 velocity=110 time=19\n",
      "note_on channel=0 note=40 velocity=0 time=3\n",
      "note_on channel=0 note=40 velocity=111 time=16\n",
      "note_on channel=0 note=50 velocity=0 time=0\n",
      "note_on channel=0 note=40 velocity=0 time=8\n",
      "note_on channel=0 note=40 velocity=114 time=11\n",
      "note_on channel=0 note=48 velocity=118 time=19\n",
      "note_on channel=0 note=40 velocity=0 time=2\n",
      "note_on channel=0 note=48 velocity=0 time=17\n",
      "note_on channel=0 note=40 velocity=106 time=0\n",
      "note_on channel=0 note=40 velocity=0 time=7\n",
      "note_on channel=0 note=40 velocity=108 time=12\n",
      "note_on channel=0 note=46 velocity=115 time=20\n",
      "note_on channel=0 note=40 velocity=0 time=0\n",
      "note_on channel=0 note=40 velocity=111 time=19\n",
      "note_on channel=0 note=46 velocity=0 time=2\n",
      "note_on channel=0 note=40 velocity=0 time=4\n",
      "note_on channel=0 note=40 velocity=111 time=13\n",
      "note_on channel=0 note=47 velocity=110 time=19\n",
      "note_on channel=0 note=47 velocity=0 time=19\n",
      "note_on channel=0 note=48 velocity=111 time=0\n",
      "note_on channel=0 note=40 velocity=0 time=11\n",
      "note_on channel=0 note=48 velocity=0 time=7\n",
      "note_on channel=0 note=40 velocity=110 time=1\n",
      "note_on channel=0 note=40 velocity=0 time=7\n",
      "note_on channel=0 note=40 velocity=108 time=12\n",
      "note_on channel=0 note=52 velocity=117 time=19\n",
      "note_on channel=0 note=40 velocity=0 time=14\n",
      "note_on channel=0 note=40 velocity=111 time=5\n",
      "note_on channel=0 note=52 velocity=0 time=3\n",
      "note_on channel=0 note=40 velocity=0 time=4\n",
      "note_on channel=0 note=40 velocity=108 time=12\n",
      "note_on channel=0 note=50 velocity=110 time=19\n",
      "note_on channel=0 note=40 velocity=0 time=5\n",
      "note_on channel=0 note=50 velocity=0 time=15\n",
      "note_on channel=0 note=40 velocity=114 time=0\n",
      "note_on channel=0 note=40 velocity=0 time=5\n",
      "note_on channel=0 note=40 velocity=115 time=14\n",
      "note_on channel=0 note=40 velocity=0 time=19\n",
      "note_on channel=0 note=67 velocity=112 time=0\n",
      "note_on channel=0 note=67 velocity=0 time=9\n",
      "note_on channel=0 note=71 velocity=105 time=0\n",
      "note_on channel=0 note=71 velocity=0 time=10\n",
      "note_on channel=0 note=64 velocity=112 time=0\n",
      "note_on channel=0 note=64 velocity=0 time=9\n",
      "note_on channel=0 note=59 velocity=103 time=0\n",
      "note_on channel=0 note=59 velocity=0 time=10\n",
      "note_on channel=0 note=67 velocity=111 time=0\n",
      "note_on channel=0 note=67 velocity=0 time=9\n",
      "note_on channel=0 note=64 velocity=102 time=0\n",
      "note_on channel=0 note=64 velocity=0 time=10\n",
      "note_on channel=0 note=71 velocity=113 time=0\n",
      "note_on channel=0 note=71 velocity=0 time=10\n",
      "note_on channel=0 note=67 velocity=103 time=0\n",
      "note_on channel=0 note=67 velocity=0 time=9\n",
      "note_on channel=0 note=71 velocity=111 time=0\n",
      "note_on channel=0 note=71 velocity=0 time=10\n",
      "note_on channel=0 note=67 velocity=101 time=0\n",
      "note_on channel=0 note=67 velocity=0 time=9\n",
      "note_on channel=0 note=64 velocity=112 time=0\n",
      "note_on channel=0 note=64 velocity=0 time=10\n",
      "note_on channel=0 note=59 velocity=103 time=0\n",
      "note_on channel=0 note=59 velocity=0 time=9\n",
      "note_on channel=0 note=67 velocity=110 time=0\n",
      "note_on channel=0 note=67 velocity=0 time=10\n",
      "note_on channel=0 note=71 velocity=100 time=0\n",
      "note_on channel=0 note=71 velocity=0 time=9\n",
      "note_on channel=0 note=76 velocity=113 time=0\n",
      "note_on channel=0 note=76 velocity=0 time=10\n",
      "note_on channel=0 note=79 velocity=103 time=0\n",
      "note_on channel=0 note=79 velocity=0 time=9\n",
      "note_on channel=0 note=40 velocity=108 time=0\n",
      "note_on channel=0 note=40 velocity=0 time=6\n",
      "note_on channel=0 note=40 velocity=114 time=14\n",
      "note_on channel=0 note=52 velocity=114 time=19\n",
      "note_on channel=0 note=40 velocity=0 time=2\n",
      "note_on channel=0 note=52 velocity=0 time=16\n",
      "note_on channel=0 note=40 velocity=110 time=1\n",
      "note_on channel=0 note=40 velocity=0 time=6\n",
      "note_on channel=0 note=40 velocity=110 time=13\n",
      "note_on channel=0 note=50 velocity=111 time=19\n",
      "note_on channel=0 note=40 velocity=0 time=2\n",
      "note_on channel=0 note=50 velocity=0 time=15\n",
      "note_on channel=0 note=40 velocity=104 time=2\n",
      "note_on channel=0 note=40 velocity=0 time=6\n",
      "note_on channel=0 note=40 velocity=111 time=13\n",
      "note_on channel=0 note=48 velocity=116 time=19\n",
      "note_on channel=0 note=40 velocity=0 time=0\n",
      "note_on channel=0 note=48 velocity=0 time=18\n",
      "note_on channel=0 note=40 velocity=108 time=1\n",
      "note_on channel=0 note=40 velocity=0 time=6\n",
      "note_on channel=0 note=40 velocity=110 time=13\n",
      "note_on channel=0 note=46 velocity=110 time=19\n",
      "note_on channel=0 note=40 velocity=0 time=2\n",
      "note_on channel=0 note=46 velocity=0 time=17\n",
      "note_on channel=0 note=40 velocity=110 time=1\n",
      "note_on channel=0 note=40 velocity=0 time=7\n",
      "note_on channel=0 note=40 velocity=111 time=12\n",
      "note_on channel=0 note=47 velocity=110 time=19\n",
      "note_on channel=0 note=47 velocity=0 time=18\n",
      "note_on channel=0 note=48 velocity=117 time=1\n",
      "note_on channel=0 note=40 velocity=0 time=13\n",
      "note_on channel=0 note=48 velocity=0 time=4\n",
      "note_on channel=0 note=40 velocity=111 time=2\n",
      "note_on channel=0 note=40 velocity=0 time=4\n",
      "note_on channel=0 note=40 velocity=111 time=15\n",
      "note_on channel=0 note=52 velocity=114 time=19\n",
      "note_on channel=0 note=40 velocity=0 time=4\n",
      "note_on channel=0 note=52 velocity=0 time=13\n",
      "note_on channel=0 note=40 velocity=106 time=2\n",
      "note_on channel=0 note=40 velocity=0 time=6\n",
      "note_on channel=0 note=40 velocity=108 time=13\n",
      "note_on channel=0 note=50 velocity=106 time=19\n",
      "note_on channel=0 note=40 velocity=0 time=3\n",
      "note_on channel=0 note=50 velocity=0 time=16\n",
      "note_on channel=0 note=40 velocity=114 time=0\n",
      "note_on channel=0 note=40 velocity=0 time=7\n",
      "note_on channel=0 note=40 velocity=106 time=13\n",
      "note_on channel=0 note=48 velocity=117 time=19\n",
      "note_on channel=0 note=40 velocity=0 time=1\n",
      "note_on channel=0 note=48 velocity=0 time=15\n",
      "note_on channel=0 note=40 velocity=111 time=3\n",
      "note_on channel=0 note=40 velocity=0 time=7\n",
      "note_on channel=0 note=40 velocity=114 time=12\n",
      "note_on channel=0 note=46 velocity=114 time=19\n",
      "pitchwheel channel=0 pitch=-256 time=8\n",
      "pitchwheel channel=0 pitch=128 time=2\n",
      "pitchwheel channel=0 pitch=512 time=1\n",
      "pitchwheel channel=0 pitch=896 time=1\n",
      "pitchwheel channel=0 pitch=1408 time=1\n",
      "pitchwheel channel=0 pitch=1536 time=1\n",
      "pitchwheel channel=0 pitch=1792 time=1\n",
      "pitchwheel channel=0 pitch=1408 time=1\n",
      "pitchwheel channel=0 pitch=256 time=1\n",
      "pitchwheel channel=0 pitch=384 time=10\n",
      "pitchwheel channel=0 pitch=640 time=1\n",
      "pitchwheel channel=0 pitch=512 time=1\n",
      "pitchwheel channel=0 pitch=1408 time=1\n",
      "pitchwheel channel=0 pitch=1152 time=1\n",
      "pitchwheel channel=0 pitch=1280 time=1\n",
      "pitchwheel channel=0 pitch=2048 time=2\n",
      "pitchwheel channel=0 pitch=1920 time=1\n",
      "pitchwheel channel=0 pitch=1536 time=1\n",
      "pitchwheel channel=0 pitch=896 time=1\n",
      "pitchwheel channel=0 pitch=0 time=1\n",
      "pitchwheel channel=0 pitch=128 time=11\n",
      "pitchwheel channel=0 pitch=768 time=1\n",
      "pitchwheel channel=0 pitch=1152 time=1\n",
      "pitchwheel channel=0 pitch=1024 time=1\n",
      "pitchwheel channel=0 pitch=1280 time=1\n",
      "pitchwheel channel=0 pitch=1536 time=1\n",
      "pitchwheel channel=0 pitch=2048 time=1\n",
      "pitchwheel channel=0 pitch=1920 time=1\n",
      "pitchwheel channel=0 pitch=896 time=1\n",
      "pitchwheel channel=0 pitch=384 time=1\n",
      "pitchwheel channel=0 pitch=0 time=1\n",
      "pitchwheel channel=0 pitch=768 time=12\n",
      "pitchwheel channel=0 pitch=1152 time=1\n",
      "pitchwheel channel=0 pitch=1408 time=1\n",
      "pitchwheel channel=0 pitch=1920 time=1\n",
      "pitchwheel channel=0 pitch=1792 time=1\n",
      "pitchwheel channel=0 pitch=1664 time=1\n",
      "pitchwheel channel=0 pitch=512 time=3\n",
      "pitchwheel channel=0 pitch=0 time=1\n",
      "pitchwheel channel=0 pitch=512 time=12\n",
      "pitchwheel channel=0 pitch=1024 time=1\n",
      "pitchwheel channel=0 pitch=1152 time=0\n",
      "note_on channel=0 note=40 velocity=0 time=0\n",
      "pitchwheel channel=0 pitch=1280 time=1\n",
      "pitchwheel channel=0 pitch=1536 time=1\n",
      "pitchwheel channel=0 pitch=0 time=0\n",
      "note_on channel=0 note=40 velocity=108 time=0\n",
      "note_on channel=0 note=46 velocity=0 time=3\n",
      "note_on channel=0 note=40 velocity=0 time=4\n",
      "note_on channel=0 note=40 velocity=107 time=12\n",
      "note_on channel=0 note=52 velocity=113 time=20\n",
      "note_on channel=0 note=40 velocity=0 time=8\n",
      "note_on channel=0 note=52 velocity=0 time=10\n",
      "note_on channel=0 note=40 velocity=105 time=1\n",
      "note_on channel=0 note=40 velocity=0 time=6\n",
      "note_on channel=0 note=40 velocity=111 time=13\n",
      "note_on channel=0 note=50 velocity=110 time=19\n",
      "note_on channel=0 note=40 velocity=0 time=3\n",
      "note_on channel=0 note=40 velocity=111 time=16\n",
      "note_on channel=0 note=50 velocity=0 time=0\n",
      "note_on channel=0 note=40 velocity=0 time=8\n",
      "note_on channel=0 note=40 velocity=114 time=11\n",
      "note_on channel=0 note=48 velocity=118 time=19\n",
      "note_on channel=0 note=40 velocity=0 time=1\n",
      "note_on channel=0 note=48 velocity=0 time=18\n",
      "note_on channel=0 note=40 velocity=106 time=0\n",
      "note_on channel=0 note=40 velocity=0 time=7\n",
      "note_on channel=0 note=40 velocity=108 time=12\n",
      "note_on channel=0 note=46 velocity=115 time=19\n",
      "note_on channel=0 note=40 velocity=0 time=1\n",
      "note_on channel=0 note=40 velocity=111 time=18\n",
      "note_on channel=0 note=46 velocity=0 time=3\n",
      "note_on channel=0 note=40 velocity=0 time=4\n",
      "note_on channel=0 note=40 velocity=111 time=13\n",
      "note_on channel=0 note=47 velocity=110 time=19\n",
      "note_on channel=0 note=47 velocity=0 time=18\n",
      "note_on channel=0 note=48 velocity=111 time=1\n",
      "note_on channel=0 note=40 velocity=0 time=10\n",
      "note_on channel=0 note=48 velocity=0 time=8\n",
      "note_on channel=0 note=40 velocity=110 time=1\n",
      "note_on channel=0 note=40 velocity=0 time=6\n",
      "note_on channel=0 note=40 velocity=108 time=13\n",
      "note_on channel=0 note=52 velocity=117 time=19\n",
      "note_on channel=0 note=40 velocity=0 time=14\n",
      "note_on channel=0 note=40 velocity=111 time=5\n",
      "note_on channel=0 note=52 velocity=0 time=2\n",
      "note_on channel=0 note=40 velocity=0 time=5\n",
      "note_on channel=0 note=40 velocity=108 time=12\n",
      "note_on channel=0 note=50 velocity=110 time=19\n",
      "note_on channel=0 note=40 velocity=0 time=5\n",
      "note_on channel=0 note=50 velocity=0 time=14\n",
      "note_on channel=0 note=40 velocity=114 time=0\n",
      "note_on channel=0 note=40 velocity=0 time=6\n",
      "note_on channel=0 note=40 velocity=115 time=13\n",
      "note_on channel=0 note=40 velocity=0 time=12\n",
      "note_on channel=0 note=66 velocity=112 time=8\n",
      "note_on channel=0 note=66 velocity=0 time=9\n",
      "note_on channel=0 note=64 velocity=105 time=0\n",
      "note_on channel=0 note=64 velocity=0 time=10\n",
      "note_on channel=0 note=63 velocity=112 time=0\n",
      "note_on channel=0 note=63 velocity=0 time=9\n",
      "note_on channel=0 note=59 velocity=103 time=0\n",
      "note_on channel=0 note=59 velocity=0 time=10\n",
      "note_on channel=0 note=69 velocity=111 time=0\n",
      "note_on channel=0 note=69 velocity=0 time=9\n",
      "note_on channel=0 note=66 velocity=102 time=0\n",
      "note_on channel=0 note=66 velocity=0 time=10\n",
      "note_on channel=0 note=63 velocity=113 time=0\n",
      "note_on channel=0 note=63 velocity=0 time=9\n",
      "note_on channel=0 note=59 velocity=103 time=0\n",
      "note_on channel=0 note=59 velocity=0 time=10\n",
      "note_on channel=0 note=71 velocity=111 time=0\n",
      "note_on channel=0 note=71 velocity=0 time=9\n",
      "note_on channel=0 note=69 velocity=101 time=0\n",
      "note_on channel=0 note=69 velocity=0 time=10\n",
      "note_on channel=0 note=66 velocity=112 time=0\n",
      "note_on channel=0 note=66 velocity=0 time=10\n",
      "note_on channel=0 note=63 velocity=103 time=0\n",
      "note_on channel=0 note=63 velocity=0 time=9\n",
      "note_on channel=0 note=75 velocity=110 time=0\n",
      "note_on channel=0 note=75 velocity=0 time=10\n",
      "note_on channel=0 note=73 velocity=100 time=0\n",
      "note_on channel=0 note=73 velocity=0 time=9\n",
      "note_on channel=0 note=71 velocity=113 time=0\n",
      "note_on channel=0 note=71 velocity=0 time=10\n",
      "note_on channel=0 note=69 velocity=103 time=0\n",
      "note_on channel=0 note=69 velocity=0 time=9\n",
      "note_on channel=0 note=40 velocity=108 time=0\n",
      "note_on channel=0 note=40 velocity=0 time=6\n",
      "note_on channel=0 note=40 velocity=114 time=13\n",
      "note_on channel=0 note=52 velocity=114 time=19\n",
      "note_on channel=0 note=40 velocity=0 time=3\n",
      "note_on channel=0 note=52 velocity=0 time=16\n",
      "note_on channel=0 note=40 velocity=110 time=1\n",
      "note_on channel=0 note=40 velocity=0 time=5\n",
      "note_on channel=0 note=40 velocity=110 time=14\n",
      "note_on channel=0 note=50 velocity=111 time=19\n",
      "note_on channel=0 note=40 velocity=0 time=2\n",
      "note_on channel=0 note=50 velocity=0 time=15\n",
      "note_on channel=0 note=40 velocity=104 time=2\n",
      "note_on channel=0 note=40 velocity=0 time=6\n",
      "note_on channel=0 note=40 velocity=111 time=13\n",
      "note_on channel=0 note=48 velocity=116 time=19\n",
      "note_on channel=0 note=40 velocity=0 time=0\n",
      "note_on channel=0 note=48 velocity=0 time=18\n",
      "note_on channel=0 note=40 velocity=108 time=1\n",
      "note_on channel=0 note=40 velocity=0 time=6\n",
      "note_on channel=0 note=40 velocity=110 time=13\n",
      "note_on channel=0 note=46 velocity=110 time=19\n",
      "note_on channel=0 note=40 velocity=0 time=2\n",
      "note_on channel=0 note=46 velocity=0 time=17\n",
      "note_on channel=0 note=40 velocity=110 time=0\n",
      "note_on channel=0 note=40 velocity=0 time=8\n",
      "note_on channel=0 note=40 velocity=111 time=11\n",
      "note_on channel=0 note=47 velocity=110 time=20\n",
      "note_on channel=0 note=47 velocity=0 time=18\n",
      "note_on channel=0 note=48 velocity=117 time=1\n",
      "note_on channel=0 note=40 velocity=0 time=13\n",
      "note_on channel=0 note=48 velocity=0 time=3\n",
      "note_on channel=0 note=40 velocity=111 time=3\n",
      "note_on channel=0 note=40 velocity=0 time=3\n",
      "note_on channel=0 note=40 velocity=111 time=16\n",
      "note_on channel=0 note=52 velocity=114 time=19\n",
      "note_on channel=0 note=40 velocity=0 time=4\n",
      "note_on channel=0 note=52 velocity=0 time=13\n",
      "note_on channel=0 note=40 velocity=106 time=2\n",
      "note_on channel=0 note=40 velocity=0 time=6\n",
      "note_on channel=0 note=40 velocity=108 time=13\n",
      "note_on channel=0 note=50 velocity=106 time=19\n",
      "note_on channel=0 note=40 velocity=0 time=3\n",
      "note_on channel=0 note=50 velocity=0 time=16\n",
      "note_on channel=0 note=40 velocity=114 time=0\n",
      "note_on channel=0 note=40 velocity=0 time=6\n",
      "note_on channel=0 note=40 velocity=106 time=13\n",
      "note_on channel=0 note=48 velocity=117 time=19\n",
      "note_on channel=0 note=40 velocity=0 time=1\n",
      "note_on channel=0 note=48 velocity=0 time=15\n",
      "note_on channel=0 note=40 velocity=111 time=4\n",
      "note_on channel=0 note=40 velocity=0 time=6\n",
      "note_on channel=0 note=40 velocity=114 time=13\n",
      "note_on channel=0 note=46 velocity=114 time=19\n",
      "pitchwheel channel=0 pitch=-256 time=7\n",
      "pitchwheel channel=0 pitch=-384 time=1\n",
      "pitchwheel channel=0 pitch=128 time=2\n",
      "pitchwheel channel=0 pitch=512 time=1\n",
      "pitchwheel channel=0 pitch=896 time=1\n",
      "pitchwheel channel=0 pitch=1408 time=1\n",
      "pitchwheel channel=0 pitch=1664 time=1\n",
      "pitchwheel channel=0 pitch=1536 time=1\n",
      "pitchwheel channel=0 pitch=768 time=1\n",
      "pitchwheel channel=0 pitch=0 time=1\n",
      "pitchwheel channel=0 pitch=384 time=10\n",
      "pitchwheel channel=0 pitch=512 time=2\n",
      "pitchwheel channel=0 pitch=1408 time=1\n",
      "pitchwheel channel=0 pitch=1152 time=1\n",
      "pitchwheel channel=0 pitch=1280 time=1\n",
      "pitchwheel channel=0 pitch=2048 time=2\n",
      "pitchwheel channel=0 pitch=1920 time=1\n",
      "pitchwheel channel=0 pitch=1536 time=1\n",
      "pitchwheel channel=0 pitch=384 time=1\n",
      "pitchwheel channel=0 pitch=128 time=12\n",
      "pitchwheel channel=0 pitch=768 time=1\n",
      "pitchwheel channel=0 pitch=1152 time=1\n",
      "pitchwheel channel=0 pitch=1024 time=1\n",
      "pitchwheel channel=0 pitch=1280 time=1\n",
      "pitchwheel channel=0 pitch=1536 time=1\n",
      "pitchwheel channel=0 pitch=2048 time=1\n",
      "pitchwheel channel=0 pitch=1536 time=1\n",
      "pitchwheel channel=0 pitch=768 time=1\n",
      "pitchwheel channel=0 pitch=128 time=1\n",
      "pitchwheel channel=0 pitch=768 time=12\n",
      "pitchwheel channel=0 pitch=1024 time=1\n",
      "pitchwheel channel=0 pitch=1408 time=2\n",
      "pitchwheel channel=0 pitch=1920 time=1\n",
      "pitchwheel channel=0 pitch=1792 time=1\n",
      "pitchwheel channel=0 pitch=1664 time=1\n",
      "pitchwheel channel=0 pitch=512 time=2\n",
      "pitchwheel channel=0 pitch=128 time=1\n",
      "pitchwheel channel=0 pitch=512 time=12\n",
      "pitchwheel channel=0 pitch=640 time=1\n",
      "pitchwheel channel=0 pitch=1152 time=1\n",
      "note_on channel=0 note=40 velocity=0 time=0\n",
      "pitchwheel channel=0 pitch=1280 time=1\n",
      "pitchwheel channel=0 pitch=1536 time=1\n",
      "pitchwheel channel=0 pitch=0 time=0\n",
      "note_on channel=0 note=40 velocity=108 time=0\n",
      "note_on channel=0 note=46 velocity=0 time=3\n",
      "note_on channel=0 note=40 velocity=0 time=4\n",
      "note_on channel=0 note=40 velocity=107 time=12\n",
      "note_on channel=0 note=52 velocity=113 time=19\n",
      "note_on channel=0 note=40 velocity=0 time=9\n",
      "note_on channel=0 note=52 velocity=0 time=10\n",
      "note_on channel=0 note=40 velocity=105 time=0\n",
      "note_on channel=0 note=40 velocity=0 time=7\n",
      "note_on channel=0 note=40 velocity=111 time=13\n",
      "note_on channel=0 note=50 velocity=110 time=19\n",
      "note_on channel=0 note=40 velocity=0 time=3\n",
      "note_on channel=0 note=40 velocity=111 time=16\n",
      "note_on channel=0 note=50 velocity=0 time=0\n",
      "note_on channel=0 note=40 velocity=0 time=7\n",
      "note_on channel=0 note=40 velocity=114 time=12\n",
      "note_on channel=0 note=48 velocity=118 time=19\n",
      "note_on channel=0 note=40 velocity=0 time=1\n",
      "note_on channel=0 note=48 velocity=0 time=17\n",
      "note_on channel=0 note=40 velocity=106 time=1\n",
      "note_on channel=0 note=40 velocity=0 time=6\n",
      "note_on channel=0 note=40 velocity=108 time=13\n",
      "note_on channel=0 note=46 velocity=115 time=19\n",
      "note_on channel=0 note=40 velocity=0 time=1\n",
      "note_on channel=0 note=40 velocity=111 time=18\n",
      "note_on channel=0 note=46 velocity=0 time=3\n",
      "note_on channel=0 note=40 velocity=0 time=3\n",
      "note_on channel=0 note=40 velocity=111 time=13\n",
      "note_on channel=0 note=47 velocity=110 time=19\n",
      "note_on channel=0 note=47 velocity=0 time=19\n",
      "note_on channel=0 note=48 velocity=111 time=1\n",
      "note_on channel=0 note=40 velocity=0 time=10\n",
      "note_on channel=0 note=48 velocity=0 time=8\n",
      "note_on channel=0 note=40 velocity=110 time=1\n",
      "note_on channel=0 note=40 velocity=0 time=6\n",
      "note_on channel=0 note=40 velocity=108 time=13\n",
      "note_on channel=0 note=52 velocity=117 time=19\n",
      "note_on channel=0 note=40 velocity=0 time=14\n",
      "note_on channel=0 note=40 velocity=111 time=5\n",
      "note_on channel=0 note=52 velocity=0 time=2\n",
      "note_on channel=0 note=40 velocity=0 time=5\n",
      "note_on channel=0 note=40 velocity=108 time=12\n",
      "note_on channel=0 note=50 velocity=110 time=19\n",
      "note_on channel=0 note=40 velocity=0 time=5\n",
      "note_on channel=0 note=50 velocity=0 time=14\n",
      "note_on channel=0 note=40 velocity=114 time=0\n",
      "note_on channel=0 note=40 velocity=0 time=6\n",
      "note_on channel=0 note=40 velocity=115 time=13\n",
      "note_on channel=0 note=40 velocity=0 time=12\n",
      "note_on channel=0 note=79 velocity=103 time=7\n",
      "note_on channel=0 note=79 velocity=0 time=10\n",
      "note_on channel=0 note=76 velocity=113 time=0\n",
      "note_on channel=0 note=76 velocity=0 time=9\n",
      "note_on channel=0 note=71 velocity=100 time=0\n",
      "note_on channel=0 note=71 velocity=0 time=10\n",
      "note_on channel=0 note=67 velocity=110 time=0\n",
      "note_on channel=0 note=67 velocity=0 time=10\n",
      "note_on channel=0 note=76 velocity=103 time=0\n",
      "note_on channel=0 note=76 velocity=0 time=9\n",
      "note_on channel=0 note=79 velocity=112 time=0\n",
      "note_on channel=0 note=79 velocity=0 time=10\n",
      "note_on channel=0 note=76 velocity=101 time=0\n",
      "note_on channel=0 note=76 velocity=0 time=9\n",
      "note_on channel=0 note=71 velocity=111 time=0\n",
      "note_on channel=0 note=71 velocity=0 time=10\n",
      "note_on channel=0 note=67 velocity=103 time=0\n",
      "note_on channel=0 note=67 velocity=0 time=9\n",
      "note_on channel=0 note=71 velocity=113 time=0\n",
      "note_on channel=0 note=71 velocity=0 time=10\n",
      "note_on channel=0 note=76 velocity=102 time=0\n",
      "note_on channel=0 note=76 velocity=0 time=9\n",
      "note_on channel=0 note=71 velocity=111 time=0\n",
      "note_on channel=0 note=71 velocity=0 time=10\n",
      "note_on channel=0 note=79 velocity=103 time=0\n",
      "note_on channel=0 note=79 velocity=0 time=9\n",
      "note_on channel=0 note=76 velocity=112 time=0\n",
      "note_on channel=0 note=76 velocity=0 time=10\n",
      "note_on channel=0 note=71 velocity=105 time=0\n",
      "note_on channel=0 note=71 velocity=0 time=10\n",
      "note_on channel=0 note=67 velocity=112 time=0\n",
      "note_on channel=0 note=67 velocity=0 time=9\n",
      "note_on channel=0 note=45 velocity=108 time=0\n",
      "note_on channel=0 note=45 velocity=0 time=5\n",
      "note_on channel=0 note=45 velocity=114 time=14\n",
      "note_on channel=0 note=57 velocity=114 time=19\n",
      "note_on channel=0 note=45 velocity=0 time=3\n",
      "note_on channel=0 note=57 velocity=0 time=16\n",
      "note_on channel=0 note=45 velocity=110 time=0\n",
      "note_on channel=0 note=45 velocity=0 time=6\n",
      "note_on channel=0 note=45 velocity=110 time=13\n",
      "note_on channel=0 note=55 velocity=111 time=20\n",
      "note_on channel=0 note=45 velocity=0 time=2\n",
      "note_on channel=0 note=55 velocity=0 time=15\n",
      "note_on channel=0 note=45 velocity=104 time=2\n",
      "note_on channel=0 note=45 velocity=0 time=6\n",
      "note_on channel=0 note=45 velocity=111 time=13\n",
      "note_on channel=0 note=53 velocity=116 time=19\n",
      "note_on channel=0 note=45 velocity=0 time=0\n",
      "note_on channel=0 note=53 velocity=0 time=18\n",
      "note_on channel=0 note=45 velocity=108 time=1\n",
      "note_on channel=0 note=45 velocity=0 time=6\n",
      "note_on channel=0 note=45 velocity=110 time=13\n",
      "note_on channel=0 note=51 velocity=110 time=19\n",
      "note_on channel=0 note=45 velocity=0 time=1\n",
      "note_on channel=0 note=51 velocity=0 time=17\n",
      "note_on channel=0 note=45 velocity=110 time=1\n",
      "note_on channel=0 note=45 velocity=0 time=8\n",
      "note_on channel=0 note=45 velocity=111 time=11\n",
      "note_on channel=0 note=52 velocity=110 time=19\n",
      "note_on channel=0 note=52 velocity=0 time=19\n",
      "note_on channel=0 note=53 velocity=117 time=0\n",
      "note_on channel=0 note=45 velocity=0 time=13\n",
      "note_on channel=0 note=53 velocity=0 time=4\n",
      "note_on channel=0 note=45 velocity=111 time=3\n",
      "note_on channel=0 note=45 velocity=0 time=3\n",
      "note_on channel=0 note=45 velocity=111 time=16\n",
      "note_on channel=0 note=57 velocity=114 time=19\n",
      "note_on channel=0 note=45 velocity=0 time=4\n",
      "note_on channel=0 note=57 velocity=0 time=13\n",
      "note_on channel=0 note=45 velocity=106 time=2\n",
      "note_on channel=0 note=45 velocity=0 time=6\n",
      "note_on channel=0 note=45 velocity=108 time=13\n",
      "note_on channel=0 note=55 velocity=106 time=19\n",
      "note_on channel=0 note=45 velocity=0 time=3\n",
      "note_on channel=0 note=55 velocity=0 time=16\n",
      "note_on channel=0 note=45 velocity=114 time=0\n",
      "note_on channel=0 note=45 velocity=0 time=6\n",
      "note_on channel=0 note=45 velocity=106 time=13\n",
      "note_on channel=0 note=53 velocity=117 time=19\n",
      "note_on channel=0 note=45 velocity=0 time=1\n",
      "note_on channel=0 note=53 velocity=0 time=15\n",
      "note_on channel=0 note=45 velocity=111 time=3\n",
      "note_on channel=0 note=45 velocity=0 time=7\n",
      "note_on channel=0 note=45 velocity=114 time=12\n",
      "note_on channel=0 note=51 velocity=114 time=20\n",
      "pitchwheel channel=0 pitch=-256 time=7\n",
      "pitchwheel channel=0 pitch=-384 time=1\n",
      "pitchwheel channel=0 pitch=128 time=2\n",
      "pitchwheel channel=0 pitch=768 time=1\n",
      "pitchwheel channel=0 pitch=896 time=1\n",
      "pitchwheel channel=0 pitch=1536 time=1\n",
      "pitchwheel channel=0 pitch=1920 time=1\n",
      "pitchwheel channel=0 pitch=1536 time=1\n",
      "pitchwheel channel=0 pitch=768 time=1\n",
      "pitchwheel channel=0 pitch=0 time=1\n",
      "pitchwheel channel=0 pitch=384 time=10\n",
      "pitchwheel channel=0 pitch=512 time=2\n",
      "pitchwheel channel=0 pitch=1024 time=1\n",
      "pitchwheel channel=0 pitch=1152 time=1\n",
      "pitchwheel channel=0 pitch=1408 time=1\n",
      "pitchwheel channel=0 pitch=2048 time=2\n",
      "pitchwheel channel=0 pitch=1920 time=1\n",
      "pitchwheel channel=0 pitch=1280 time=1\n",
      "pitchwheel channel=0 pitch=128 time=1\n",
      "pitchwheel channel=0 pitch=384 time=12\n",
      "pitchwheel channel=0 pitch=768 time=1\n",
      "pitchwheel channel=0 pitch=1152 time=1\n",
      "pitchwheel channel=0 pitch=1024 time=1\n",
      "pitchwheel channel=0 pitch=1280 time=1\n",
      "pitchwheel channel=0 pitch=1920 time=1\n",
      "pitchwheel channel=0 pitch=1536 time=1\n",
      "pitchwheel channel=0 pitch=1280 time=1\n",
      "pitchwheel channel=0 pitch=768 time=1\n",
      "pitchwheel channel=0 pitch=128 time=1\n",
      "pitchwheel channel=0 pitch=768 time=12\n",
      "pitchwheel channel=0 pitch=1024 time=1\n",
      "pitchwheel channel=0 pitch=1408 time=2\n",
      "pitchwheel channel=0 pitch=1920 time=1\n",
      "pitchwheel channel=0 pitch=1536 time=1\n",
      "pitchwheel channel=0 pitch=1792 time=1\n",
      "pitchwheel channel=0 pitch=512 time=2\n",
      "pitchwheel channel=0 pitch=0 time=1\n",
      "pitchwheel channel=0 pitch=512 time=12\n",
      "pitchwheel channel=0 pitch=640 time=1\n",
      "pitchwheel channel=0 pitch=1152 time=1\n",
      "note_on channel=0 note=45 velocity=0 time=0\n",
      "pitchwheel channel=0 pitch=1280 time=1\n",
      "pitchwheel channel=0 pitch=1408 time=1\n",
      "pitchwheel channel=0 pitch=0 time=0\n",
      "note_on channel=0 note=45 velocity=108 time=0\n",
      "note_on channel=0 note=51 velocity=0 time=3\n",
      "note_on channel=0 note=45 velocity=0 time=4\n",
      "note_on channel=0 note=45 velocity=107 time=12\n",
      "note_on channel=0 note=57 velocity=113 time=19\n",
      "note_on channel=0 note=45 velocity=0 time=8\n",
      "note_on channel=0 note=57 velocity=0 time=11\n",
      "note_on channel=0 note=45 velocity=105 time=0\n",
      "note_on channel=0 note=45 velocity=0 time=7\n",
      "note_on channel=0 note=45 velocity=111 time=12\n",
      "note_on channel=0 note=55 velocity=110 time=19\n",
      "note_on channel=0 note=45 velocity=0 time=3\n",
      "note_on channel=0 note=45 velocity=111 time=17\n",
      "note_on channel=0 note=55 velocity=0 time=0\n",
      "note_on channel=0 note=45 velocity=0 time=7\n",
      "note_on channel=0 note=45 velocity=114 time=12\n",
      "note_on channel=0 note=53 velocity=118 time=19\n",
      "note_on channel=0 note=45 velocity=0 time=1\n",
      "note_on channel=0 note=53 velocity=0 time=17\n",
      "note_on channel=0 note=45 velocity=106 time=1\n",
      "note_on channel=0 note=45 velocity=0 time=6\n",
      "note_on channel=0 note=45 velocity=108 time=13\n",
      "note_on channel=0 note=51 velocity=115 time=19\n",
      "note_on channel=0 note=45 velocity=0 time=1\n",
      "note_on channel=0 note=45 velocity=111 time=18\n",
      "note_on channel=0 note=51 velocity=0 time=2\n",
      "note_on channel=0 note=45 velocity=0 time=4\n",
      "note_on channel=0 note=45 velocity=111 time=13\n",
      "note_on channel=0 note=52 velocity=110 time=19\n",
      "note_on channel=0 note=52 velocity=0 time=19\n",
      "note_on channel=0 note=53 velocity=111 time=0\n",
      "note_on channel=0 note=45 velocity=0 time=11\n",
      "note_on channel=0 note=53 velocity=0 time=8\n",
      "note_on channel=0 note=45 velocity=110 time=0\n",
      "note_on channel=0 note=45 velocity=0 time=7\n",
      "note_on channel=0 note=45 velocity=108 time=13\n",
      "note_on channel=0 note=57 velocity=117 time=19\n",
      "note_on channel=0 note=45 velocity=0 time=14\n",
      "note_on channel=0 note=45 velocity=111 time=5\n",
      "note_on channel=0 note=57 velocity=0 time=2\n",
      "note_on channel=0 note=45 velocity=0 time=4\n",
      "note_on channel=0 note=45 velocity=108 time=13\n",
      "note_on channel=0 note=55 velocity=110 time=19\n",
      "note_on channel=0 note=45 velocity=0 time=5\n",
      "note_on channel=0 note=55 velocity=0 time=14\n",
      "note_on channel=0 note=45 velocity=114 time=0\n",
      "note_on channel=0 note=45 velocity=0 time=6\n",
      "note_on channel=0 note=45 velocity=115 time=13\n",
      "note_on channel=0 note=45 velocity=0 time=11\n",
      "note_on channel=0 note=69 velocity=112 time=8\n",
      "note_on channel=0 note=69 velocity=0 time=10\n",
      "note_on channel=0 note=65 velocity=105 time=0\n",
      "note_on channel=0 note=65 velocity=0 time=9\n",
      "note_on channel=0 note=64 velocity=112 time=0\n",
      "note_on channel=0 note=64 velocity=0 time=10\n",
      "note_on channel=0 note=69 velocity=103 time=0\n",
      "note_on channel=0 note=69 velocity=0 time=9\n",
      "note_on channel=0 note=64 velocity=111 time=0\n",
      "note_on channel=0 note=64 velocity=0 time=10\n",
      "note_on channel=0 note=60 velocity=102 time=0\n",
      "note_on channel=0 note=60 velocity=0 time=9\n",
      "note_on channel=0 note=64 velocity=113 time=0\n",
      "note_on channel=0 note=64 velocity=0 time=10\n",
      "note_on channel=0 note=69 velocity=103 time=0\n",
      "note_on channel=0 note=69 velocity=0 time=10\n",
      "note_on channel=0 note=72 velocity=111 time=0\n",
      "note_on channel=0 note=72 velocity=0 time=9\n",
      "note_on channel=0 note=69 velocity=101 time=0\n",
      "note_on channel=0 note=69 velocity=0 time=10\n",
      "note_on channel=0 note=64 velocity=112 time=0\n",
      "note_on channel=0 note=64 velocity=0 time=9\n",
      "note_on channel=0 note=69 velocity=103 time=0\n",
      "note_on channel=0 note=69 velocity=0 time=10\n",
      "note_on channel=0 note=64 velocity=110 time=0\n",
      "note_on channel=0 note=64 velocity=0 time=9\n",
      "note_on channel=0 note=69 velocity=100 time=0\n",
      "note_on channel=0 note=69 velocity=0 time=10\n",
      "note_on channel=0 note=64 velocity=113 time=0\n",
      "note_on channel=0 note=64 velocity=0 time=9\n",
      "note_on channel=0 note=60 velocity=103 time=0\n",
      "note_on channel=0 note=60 velocity=0 time=10\n",
      "note_on channel=0 note=40 velocity=108 time=0\n",
      "note_on channel=0 note=40 velocity=0 time=5\n",
      "note_on channel=0 note=40 velocity=114 time=14\n",
      "note_on channel=0 note=52 velocity=114 time=19\n",
      "note_on channel=0 note=40 velocity=0 time=3\n",
      "note_on channel=0 note=52 velocity=0 time=16\n",
      "note_on channel=0 note=40 velocity=110 time=0\n",
      "note_on channel=0 note=40 velocity=0 time=6\n",
      "note_on channel=0 note=40 velocity=110 time=13\n",
      "note_on channel=0 note=50 velocity=111 time=19\n",
      "note_on channel=0 note=40 velocity=0 time=3\n",
      "note_on channel=0 note=50 velocity=0 time=14\n",
      "note_on channel=0 note=40 velocity=104 time=2\n",
      "note_on channel=0 note=40 velocity=0 time=7\n",
      "note_on channel=0 note=40 velocity=111 time=13\n",
      "note_on channel=0 note=48 velocity=116 time=19\n",
      "note_on channel=0 note=40 velocity=0 time=0\n",
      "note_on channel=0 note=48 velocity=0 time=18\n",
      "note_on channel=0 note=40 velocity=108 time=1\n",
      "note_on channel=0 note=40 velocity=0 time=6\n",
      "note_on channel=0 note=40 velocity=110 time=13\n",
      "note_on channel=0 note=46 velocity=110 time=19\n",
      "note_on channel=0 note=40 velocity=0 time=1\n",
      "note_on channel=0 note=46 velocity=0 time=17\n",
      "note_on channel=0 note=40 velocity=110 time=1\n",
      "note_on channel=0 note=40 velocity=0 time=8\n",
      "note_on channel=0 note=40 velocity=111 time=11\n",
      "note_on channel=0 note=47 velocity=110 time=19\n",
      "note_on channel=0 note=47 velocity=0 time=18\n",
      "note_on channel=0 note=48 velocity=117 time=1\n",
      "note_on channel=0 note=40 velocity=0 time=13\n",
      "note_on channel=0 note=48 velocity=0 time=4\n",
      "note_on channel=0 note=40 velocity=111 time=2\n",
      "note_on channel=0 note=40 velocity=0 time=4\n",
      "note_on channel=0 note=40 velocity=111 time=15\n",
      "note_on channel=0 note=52 velocity=114 time=20\n",
      "note_on channel=0 note=40 velocity=0 time=3\n",
      "note_on channel=0 note=52 velocity=0 time=14\n",
      "note_on channel=0 note=40 velocity=106 time=2\n",
      "note_on channel=0 note=40 velocity=0 time=6\n",
      "note_on channel=0 note=40 velocity=108 time=13\n",
      "note_on channel=0 note=50 velocity=106 time=19\n",
      "note_on channel=0 note=40 velocity=0 time=2\n",
      "note_on channel=0 note=50 velocity=0 time=16\n",
      "note_on channel=0 note=40 velocity=114 time=1\n",
      "note_on channel=0 note=40 velocity=0 time=6\n",
      "note_on channel=0 note=40 velocity=106 time=13\n",
      "note_on channel=0 note=48 velocity=117 time=19\n",
      "note_on channel=0 note=40 velocity=0 time=1\n",
      "note_on channel=0 note=48 velocity=0 time=15\n",
      "note_on channel=0 note=40 velocity=111 time=3\n",
      "note_on channel=0 note=40 velocity=0 time=7\n",
      "note_on channel=0 note=40 velocity=114 time=12\n",
      "note_on channel=0 note=46 velocity=114 time=19\n",
      "pitchwheel channel=0 pitch=-256 time=8\n",
      "pitchwheel channel=0 pitch=0 time=1\n",
      "pitchwheel channel=0 pitch=128 time=1\n",
      "pitchwheel channel=0 pitch=512 time=1\n",
      "pitchwheel channel=0 pitch=768 time=1\n",
      "pitchwheel channel=0 pitch=896 time=1\n",
      "pitchwheel channel=0 pitch=1536 time=1\n",
      "pitchwheel channel=0 pitch=1920 time=1\n",
      "pitchwheel channel=0 pitch=1536 time=1\n",
      "pitchwheel channel=0 pitch=768 time=1\n",
      "pitchwheel channel=0 pitch=384 time=10\n",
      "pitchwheel channel=0 pitch=640 time=1\n",
      "pitchwheel channel=0 pitch=384 time=1\n",
      "pitchwheel channel=0 pitch=1024 time=1\n",
      "pitchwheel channel=0 pitch=1152 time=2\n",
      "pitchwheel channel=0 pitch=1408 time=1\n",
      "pitchwheel channel=0 pitch=2048 time=1\n",
      "pitchwheel channel=0 pitch=1920 time=2\n",
      "pitchwheel channel=0 pitch=1280 time=1\n",
      "pitchwheel channel=0 pitch=128 time=1\n",
      "pitchwheel channel=0 pitch=384 time=12\n",
      "pitchwheel channel=0 pitch=896 time=1\n",
      "pitchwheel channel=0 pitch=1280 time=1\n",
      "pitchwheel channel=0 pitch=1536 time=2\n",
      "pitchwheel channel=0 pitch=1920 time=1\n",
      "pitchwheel channel=0 pitch=1536 time=1\n",
      "pitchwheel channel=0 pitch=1280 time=1\n",
      "pitchwheel channel=0 pitch=384 time=1\n",
      "pitchwheel channel=0 pitch=0 time=1\n",
      "pitchwheel channel=0 pitch=768 time=12\n",
      "pitchwheel channel=0 pitch=1024 time=1\n",
      "pitchwheel channel=0 pitch=1408 time=2\n",
      "pitchwheel channel=0 pitch=1792 time=1\n",
      "pitchwheel channel=0 pitch=1536 time=1\n",
      "pitchwheel channel=0 pitch=1664 time=1\n",
      "pitchwheel channel=0 pitch=512 time=2\n",
      "pitchwheel channel=0 pitch=0 time=1\n",
      "pitchwheel channel=0 pitch=512 time=12\n",
      "pitchwheel channel=0 pitch=1024 time=1\n",
      "pitchwheel channel=0 pitch=1152 time=0\n",
      "note_on channel=0 note=40 velocity=0 time=0\n",
      "pitchwheel channel=0 pitch=1280 time=2\n",
      "pitchwheel channel=0 pitch=1408 time=1\n",
      "pitchwheel channel=0 pitch=0 time=0\n",
      "note_on channel=0 note=40 velocity=108 time=0\n",
      "note_on channel=0 note=46 velocity=0 time=3\n",
      "note_on channel=0 note=40 velocity=0 time=3\n",
      "note_on channel=0 note=40 velocity=107 time=13\n",
      "note_on channel=0 note=52 velocity=113 time=19\n",
      "note_on channel=0 note=40 velocity=0 time=8\n",
      "note_on channel=0 note=52 velocity=0 time=10\n",
      "note_on channel=0 note=40 velocity=105 time=1\n",
      "note_on channel=0 note=40 velocity=0 time=6\n",
      "note_on channel=0 note=40 velocity=111 time=13\n",
      "note_on channel=0 note=50 velocity=110 time=19\n",
      "note_on channel=0 note=40 velocity=0 time=3\n",
      "note_on channel=0 note=40 velocity=111 time=16\n",
      "note_on channel=0 note=50 velocity=0 time=1\n",
      "note_on channel=0 note=40 velocity=0 time=7\n",
      "note_on channel=0 note=40 velocity=114 time=11\n",
      "note_on channel=0 note=48 velocity=118 time=20\n",
      "note_on channel=0 note=40 velocity=0 time=1\n",
      "note_on channel=0 note=48 velocity=0 time=17\n",
      "note_on channel=0 note=40 velocity=106 time=1\n",
      "note_on channel=0 note=40 velocity=0 time=6\n",
      "note_on channel=0 note=40 velocity=108 time=13\n",
      "note_on channel=0 note=46 velocity=115 time=19\n",
      "note_on channel=0 note=40 velocity=0 time=1\n",
      "note_on channel=0 note=40 velocity=111 time=18\n",
      "note_on channel=0 note=46 velocity=0 time=2\n",
      "note_on channel=0 note=40 velocity=0 time=4\n",
      "note_on channel=0 note=40 velocity=111 time=13\n",
      "note_on channel=0 note=47 velocity=110 time=19\n",
      "note_on channel=0 note=47 velocity=0 time=19\n",
      "note_on channel=0 note=48 velocity=111 time=0\n",
      "note_on channel=0 note=40 velocity=0 time=11\n",
      "note_on channel=0 note=48 velocity=0 time=8\n",
      "note_on channel=0 note=40 velocity=110 time=0\n",
      "note_on channel=0 note=40 velocity=0 time=7\n",
      "note_on channel=0 note=40 velocity=108 time=12\n",
      "note_on channel=0 note=52 velocity=117 time=19\n",
      "note_on channel=0 note=40 velocity=0 time=15\n",
      "note_on channel=0 note=40 velocity=111 time=5\n",
      "note_on channel=0 note=52 velocity=0 time=2\n",
      "note_on channel=0 note=40 velocity=0 time=4\n",
      "note_on channel=0 note=40 velocity=108 time=13\n",
      "note_on channel=0 note=50 velocity=110 time=19\n",
      "note_on channel=0 note=40 velocity=0 time=5\n",
      "note_on channel=0 note=50 velocity=0 time=14\n",
      "note_on channel=0 note=40 velocity=114 time=0\n",
      "note_on channel=0 note=40 velocity=0 time=5\n",
      "note_on channel=0 note=40 velocity=115 time=14\n",
      "note_on channel=0 note=40 velocity=0 time=19\n",
      "note_on channel=0 note=48 velocity=117 time=0\n",
      "note_on channel=0 note=40 velocity=111 time=19\n",
      "note_on channel=0 note=40 velocity=0 time=7\n",
      "note_on channel=0 note=48 velocity=0 time=3\n",
      "note_on channel=0 note=40 velocity=114 time=9\n",
      "note_on channel=0 note=46 velocity=114 time=19\n",
      "pitchwheel channel=0 pitch=-256 time=8\n",
      "pitchwheel channel=0 pitch=0 time=1\n",
      "pitchwheel channel=0 pitch=128 time=1\n",
      "pitchwheel channel=0 pitch=512 time=1\n",
      "pitchwheel channel=0 pitch=768 time=1\n",
      "pitchwheel channel=0 pitch=896 time=1\n",
      "pitchwheel channel=0 pitch=1536 time=1\n",
      "pitchwheel channel=0 pitch=1920 time=1\n",
      "pitchwheel channel=0 pitch=1536 time=1\n",
      "pitchwheel channel=0 pitch=768 time=1\n",
      "pitchwheel channel=0 pitch=384 time=10\n",
      "pitchwheel channel=0 pitch=640 time=1\n",
      "pitchwheel channel=0 pitch=384 time=1\n",
      "pitchwheel channel=0 pitch=1024 time=1\n",
      "pitchwheel channel=0 pitch=1152 time=1\n",
      "pitchwheel channel=0 pitch=1280 time=1\n",
      "pitchwheel channel=0 pitch=1408 time=1\n",
      "pitchwheel channel=0 pitch=2048 time=1\n",
      "pitchwheel channel=0 pitch=1920 time=2\n",
      "pitchwheel channel=0 pitch=1280 time=1\n",
      "pitchwheel channel=0 pitch=128 time=1\n",
      "pitchwheel channel=0 pitch=384 time=12\n",
      "pitchwheel channel=0 pitch=896 time=1\n",
      "pitchwheel channel=0 pitch=1280 time=1\n",
      "pitchwheel channel=0 pitch=1536 time=2\n",
      "pitchwheel channel=0 pitch=1920 time=1\n",
      "pitchwheel channel=0 pitch=1536 time=1\n",
      "pitchwheel channel=0 pitch=1280 time=1\n",
      "pitchwheel channel=0 pitch=384 time=1\n",
      "pitchwheel channel=0 pitch=0 time=1\n",
      "pitchwheel channel=0 pitch=768 time=12\n",
      "pitchwheel channel=0 pitch=1152 time=1\n",
      "pitchwheel channel=0 pitch=1408 time=1\n",
      "pitchwheel channel=0 pitch=1664 time=1\n",
      "pitchwheel channel=0 pitch=1792 time=1\n",
      "pitchwheel channel=0 pitch=1536 time=1\n",
      "pitchwheel channel=0 pitch=1664 time=1\n",
      "pitchwheel channel=0 pitch=512 time=2\n",
      "pitchwheel channel=0 pitch=0 time=1\n",
      "pitchwheel channel=0 pitch=512 time=12\n",
      "pitchwheel channel=0 pitch=1024 time=1\n",
      "pitchwheel channel=0 pitch=1152 time=0\n",
      "note_on channel=0 note=40 velocity=0 time=0\n",
      "pitchwheel channel=0 pitch=1280 time=2\n",
      "pitchwheel channel=0 pitch=0 time=1\n",
      "note_on channel=0 note=46 velocity=0 time=0\n",
      "note_on channel=0 note=49 velocity=108 time=0\n",
      "note_on channel=0 note=49 velocity=0 time=5\n",
      "note_on channel=0 note=49 velocity=114 time=14\n",
      "note_on channel=0 note=61 velocity=114 time=19\n",
      "note_on channel=0 note=49 velocity=0 time=2\n",
      "note_on channel=0 note=61 velocity=0 time=16\n",
      "note_on channel=0 note=49 velocity=110 time=1\n",
      "note_on channel=0 note=49 velocity=0 time=6\n",
      "note_on channel=0 note=49 velocity=110 time=13\n",
      "note_on channel=0 note=59 velocity=111 time=19\n",
      "note_on channel=0 note=49 velocity=0 time=3\n",
      "note_on channel=0 note=59 velocity=0 time=14\n",
      "note_on channel=0 note=49 velocity=104 time=2\n",
      "note_on channel=0 note=49 velocity=0 time=7\n",
      "note_on channel=0 note=49 velocity=111 time=12\n",
      "note_on channel=0 note=57 velocity=116 time=19\n",
      "note_on channel=0 note=49 velocity=0 time=1\n",
      "note_on channel=0 note=57 velocity=0 time=18\n",
      "note_on channel=0 note=49 velocity=108 time=1\n",
      "note_on channel=0 note=49 velocity=0 time=6\n",
      "note_on channel=0 note=49 velocity=110 time=13\n",
      "note_on channel=0 note=55 velocity=110 time=19\n",
      "note_on channel=0 note=49 velocity=0 time=1\n",
      "note_on channel=0 note=55 velocity=0 time=17\n",
      "note_on channel=0 note=49 velocity=110 time=1\n",
      "note_on channel=0 note=49 velocity=0 time=8\n",
      "note_on channel=0 note=49 velocity=111 time=11\n",
      "note_on channel=0 note=56 velocity=110 time=19\n",
      "note_on channel=0 note=56 velocity=0 time=18\n",
      "note_on channel=0 note=57 velocity=117 time=1\n",
      "note_on channel=0 note=49 velocity=0 time=13\n",
      "note_on channel=0 note=57 velocity=0 time=4\n",
      "note_on channel=0 note=47 velocity=111 time=2\n",
      "note_on channel=0 note=47 velocity=0 time=4\n",
      "note_on channel=0 note=47 velocity=111 time=15\n",
      "note_on channel=0 note=59 velocity=114 time=19\n",
      "note_on channel=0 note=47 velocity=0 time=4\n",
      "note_on channel=0 note=59 velocity=0 time=14\n",
      "note_on channel=0 note=47 velocity=106 time=1\n",
      "note_on channel=0 note=47 velocity=0 time=6\n",
      "note_on channel=0 note=47 velocity=108 time=14\n",
      "note_on channel=0 note=57 velocity=106 time=19\n",
      "note_on channel=0 note=47 velocity=0 time=2\n",
      "note_on channel=0 note=57 velocity=0 time=16\n",
      "note_on channel=0 note=47 velocity=114 time=1\n",
      "note_on channel=0 note=47 velocity=0 time=6\n",
      "note_on channel=0 note=47 velocity=106 time=13\n",
      "note_on channel=0 note=55 velocity=117 time=19\n",
      "note_on channel=0 note=47 velocity=0 time=1\n",
      "note_on channel=0 note=55 velocity=0 time=15\n",
      "note_on channel=0 note=46 velocity=111 time=3\n",
      "note_on channel=0 note=46 velocity=0 time=10\n",
      "note_on channel=0 note=45 velocity=114 time=9\n",
      "note_on channel=0 note=53 velocity=114 time=19\n",
      "pitchwheel channel=0 pitch=-256 time=8\n",
      "pitchwheel channel=0 pitch=0 time=1\n",
      "pitchwheel channel=0 pitch=128 time=1\n",
      "pitchwheel channel=0 pitch=512 time=1\n",
      "pitchwheel channel=0 pitch=768 time=1\n",
      "pitchwheel channel=0 pitch=1280 time=1\n",
      "pitchwheel channel=0 pitch=1536 time=1\n",
      "pitchwheel channel=0 pitch=1792 time=1\n",
      "pitchwheel channel=0 pitch=1408 time=1\n",
      "pitchwheel channel=0 pitch=256 time=1\n",
      "pitchwheel channel=0 pitch=384 time=10\n",
      "pitchwheel channel=0 pitch=640 time=1\n",
      "pitchwheel channel=0 pitch=384 time=1\n",
      "pitchwheel channel=0 pitch=1024 time=1\n",
      "pitchwheel channel=0 pitch=1152 time=1\n",
      "pitchwheel channel=0 pitch=1280 time=1\n",
      "pitchwheel channel=0 pitch=1408 time=1\n",
      "pitchwheel channel=0 pitch=2048 time=1\n",
      "pitchwheel channel=0 pitch=1920 time=2\n",
      "pitchwheel channel=0 pitch=1280 time=1\n",
      "pitchwheel channel=0 pitch=128 time=1\n",
      "pitchwheel channel=0 pitch=384 time=11\n",
      "pitchwheel channel=0 pitch=768 time=1\n",
      "pitchwheel channel=0 pitch=896 time=1\n",
      "pitchwheel channel=0 pitch=1280 time=1\n",
      "pitchwheel channel=0 pitch=1536 time=2\n",
      "pitchwheel channel=0 pitch=1920 time=1\n",
      "pitchwheel channel=0 pitch=1536 time=1\n",
      "pitchwheel channel=0 pitch=896 time=1\n",
      "pitchwheel channel=0 pitch=384 time=1\n",
      "pitchwheel channel=0 pitch=0 time=1\n",
      "pitchwheel channel=0 pitch=768 time=12\n",
      "pitchwheel channel=0 pitch=1152 time=1\n",
      "pitchwheel channel=0 pitch=1408 time=1\n",
      "pitchwheel channel=0 pitch=1664 time=1\n",
      "pitchwheel channel=0 pitch=1792 time=1\n",
      "pitchwheel channel=0 pitch=1536 time=1\n",
      "pitchwheel channel=0 pitch=1664 time=1\n",
      "pitchwheel channel=0 pitch=512 time=2\n",
      "pitchwheel channel=0 pitch=0 time=1\n",
      "pitchwheel channel=0 pitch=512 time=12\n",
      "pitchwheel channel=0 pitch=1024 time=1\n",
      "pitchwheel channel=0 pitch=1152 time=0\n",
      "note_on channel=0 note=45 velocity=0 time=0\n",
      "pitchwheel channel=0 pitch=1280 time=2\n",
      "pitchwheel channel=0 pitch=0 time=1\n",
      "note_on channel=0 note=40 velocity=108 time=0\n",
      "note_on channel=0 note=53 velocity=0 time=3\n",
      "note_on channel=0 note=40 velocity=0 time=3\n",
      "note_on channel=0 note=40 velocity=107 time=13\n",
      "note_on channel=0 note=52 velocity=113 time=19\n",
      "note_on channel=0 note=40 velocity=0 time=8\n",
      "note_on channel=0 note=52 velocity=0 time=10\n",
      "note_on channel=0 note=40 velocity=105 time=1\n",
      "note_on channel=0 note=40 velocity=0 time=6\n",
      "note_on channel=0 note=40 velocity=111 time=13\n",
      "note_on channel=0 note=50 velocity=110 time=19\n",
      "note_on channel=0 note=40 velocity=0 time=3\n",
      "note_on channel=0 note=40 velocity=111 time=16\n",
      "note_on channel=0 note=50 velocity=0 time=0\n",
      "note_on channel=0 note=40 velocity=0 time=8\n",
      "note_on channel=0 note=40 velocity=114 time=11\n",
      "note_on channel=0 note=48 velocity=118 time=19\n",
      "note_on channel=0 note=40 velocity=0 time=2\n",
      "note_on channel=0 note=48 velocity=0 time=17\n",
      "note_on channel=0 note=40 velocity=106 time=0\n",
      "note_on channel=0 note=40 velocity=0 time=7\n",
      "note_on channel=0 note=40 velocity=108 time=13\n",
      "note_on channel=0 note=46 velocity=115 time=19\n",
      "note_on channel=0 note=40 velocity=0 time=1\n",
      "note_on channel=0 note=40 velocity=111 time=18\n",
      "note_on channel=0 note=46 velocity=0 time=2\n",
      "note_on channel=0 note=40 velocity=0 time=4\n",
      "note_on channel=0 note=40 velocity=111 time=13\n",
      "note_on channel=0 note=47 velocity=110 time=19\n",
      "note_on channel=0 note=47 velocity=0 time=19\n",
      "note_on channel=0 note=48 velocity=111 time=0\n",
      "note_on channel=0 note=40 velocity=0 time=11\n",
      "note_on channel=0 note=48 velocity=0 time=7\n",
      "note_on channel=0 note=40 velocity=110 time=1\n",
      "note_on channel=0 note=40 velocity=0 time=7\n",
      "note_on channel=0 note=40 velocity=108 time=12\n",
      "note_on channel=0 note=52 velocity=117 time=19\n",
      "note_on channel=0 note=40 velocity=0 time=14\n",
      "note_on channel=0 note=40 velocity=111 time=5\n",
      "note_on channel=0 note=52 velocity=0 time=3\n",
      "note_on channel=0 note=40 velocity=0 time=4\n",
      "note_on channel=0 note=40 velocity=108 time=12\n",
      "note_on channel=0 note=50 velocity=110 time=20\n",
      "note_on channel=0 note=40 velocity=0 time=4\n",
      "note_on channel=0 note=50 velocity=0 time=15\n",
      "note_on channel=0 note=40 velocity=114 time=0\n",
      "note_on channel=0 note=40 velocity=0 time=5\n",
      "note_on channel=0 note=40 velocity=115 time=14\n",
      "note_on channel=0 note=40 velocity=0 time=19\n",
      "note_on channel=0 note=71 velocity=112 time=0\n",
      "note_on channel=0 note=71 velocity=0 time=9\n",
      "note_on channel=0 note=69 velocity=105 time=0\n",
      "note_on channel=0 note=69 velocity=0 time=10\n",
      "note_on channel=0 note=66 velocity=112 time=0\n",
      "note_on channel=0 note=66 velocity=0 time=9\n",
      "note_on channel=0 note=63 velocity=103 time=0\n",
      "note_on channel=0 note=63 velocity=0 time=10\n",
      "note_on channel=0 note=59 velocity=111 time=0\n",
      "note_on channel=0 note=59 velocity=0 time=10\n",
      "note_on channel=0 note=57 velocity=102 time=0\n",
      "note_on channel=0 note=57 velocity=0 time=9\n",
      "note_on channel=0 note=54 velocity=113 time=0\n",
      "note_on channel=0 note=54 velocity=0 time=10\n",
      "note_on channel=0 note=51 velocity=103 time=0\n",
      "note_on channel=0 note=51 velocity=0 time=9\n",
      "note_on channel=0 note=75 velocity=111 time=0\n",
      "note_on channel=0 note=75 velocity=0 time=10\n",
      "note_on channel=0 note=73 velocity=101 time=0\n",
      "note_on channel=0 note=73 velocity=0 time=9\n",
      "note_on channel=0 note=71 velocity=112 time=0\n",
      "note_on channel=0 note=71 velocity=0 time=10\n",
      "note_on channel=0 note=69 velocity=103 time=0\n",
      "note_on channel=0 note=69 velocity=0 time=9\n",
      "note_on channel=0 note=66 velocity=110 time=0\n",
      "note_on channel=0 note=66 velocity=0 time=10\n",
      "note_on channel=0 note=63 velocity=100 time=0\n",
      "note_on channel=0 note=63 velocity=0 time=9\n",
      "note_on channel=0 note=59 velocity=113 time=0\n",
      "note_on channel=0 note=59 velocity=0 time=10\n",
      "note_on channel=0 note=57 velocity=103 time=0\n",
      "note_on channel=0 note=57 velocity=0 time=10\n",
      "<meta message end_of_track time=0>\n",
      "Track 2: \n",
      "program_change channel=1 program=29 time=0\n",
      "control_change channel=1 control=7 value=100 time=0\n",
      "control_change channel=1 control=10 value=104 time=0\n",
      "control_change channel=1 control=7 value=100 time=0\n",
      "control_change channel=1 control=10 value=104 time=0\n",
      "note_on channel=1 note=40 velocity=108 time=0\n",
      "note_on channel=1 note=40 velocity=0 time=6\n",
      "note_on channel=1 note=40 velocity=114 time=13\n",
      "note_on channel=1 note=52 velocity=114 time=19\n",
      "note_on channel=1 note=40 velocity=0 time=3\n",
      "note_on channel=1 note=52 velocity=0 time=16\n",
      "note_on channel=1 note=40 velocity=110 time=1\n",
      "note_on channel=1 note=40 velocity=0 time=6\n",
      "note_on channel=1 note=40 velocity=110 time=13\n",
      "note_on channel=1 note=50 velocity=111 time=19\n",
      "note_on channel=1 note=40 velocity=0 time=2\n",
      "note_on channel=1 note=50 velocity=0 time=15\n",
      "note_on channel=1 note=40 velocity=104 time=2\n",
      "note_on channel=1 note=40 velocity=0 time=6\n",
      "note_on channel=1 note=40 velocity=111 time=13\n",
      "note_on channel=1 note=48 velocity=116 time=19\n",
      "note_on channel=1 note=40 velocity=0 time=0\n",
      "note_on channel=1 note=48 velocity=0 time=18\n",
      "note_on channel=1 note=40 velocity=108 time=1\n",
      "note_on channel=1 note=40 velocity=0 time=6\n",
      "note_on channel=1 note=40 velocity=110 time=13\n",
      "note_on channel=1 note=46 velocity=110 time=19\n",
      "note_on channel=1 note=40 velocity=0 time=2\n",
      "note_on channel=1 note=46 velocity=0 time=17\n",
      "note_on channel=1 note=40 velocity=110 time=0\n",
      "note_on channel=1 note=40 velocity=0 time=8\n",
      "note_on channel=1 note=40 velocity=111 time=11\n",
      "note_on channel=1 note=47 velocity=110 time=20\n",
      "note_on channel=1 note=47 velocity=0 time=18\n",
      "note_on channel=1 note=48 velocity=117 time=1\n",
      "note_on channel=1 note=40 velocity=0 time=13\n",
      "note_on channel=1 note=48 velocity=0 time=4\n",
      "note_on channel=1 note=40 velocity=111 time=2\n",
      "note_on channel=1 note=40 velocity=0 time=4\n",
      "note_on channel=1 note=40 velocity=111 time=15\n",
      "note_on channel=1 note=52 velocity=114 time=19\n",
      "note_on channel=1 note=40 velocity=0 time=4\n",
      "note_on channel=1 note=52 velocity=0 time=13\n",
      "note_on channel=1 note=40 velocity=106 time=2\n",
      "note_on channel=1 note=40 velocity=0 time=6\n",
      "note_on channel=1 note=40 velocity=108 time=13\n",
      "note_on channel=1 note=50 velocity=106 time=19\n",
      "note_on channel=1 note=40 velocity=0 time=3\n",
      "note_on channel=1 note=50 velocity=0 time=16\n",
      "note_on channel=1 note=40 velocity=114 time=0\n",
      "note_on channel=1 note=40 velocity=0 time=6\n",
      "note_on channel=1 note=40 velocity=106 time=13\n",
      "note_on channel=1 note=40 velocity=0 time=19\n",
      "note_on channel=1 note=48 velocity=117 time=0\n",
      "note_on channel=1 note=48 velocity=0 time=16\n",
      "note_on channel=1 note=40 velocity=111 time=4\n",
      "note_on channel=1 note=40 velocity=0 time=7\n",
      "note_on channel=1 note=40 velocity=114 time=12\n",
      "note_on channel=1 note=46 velocity=114 time=19\n",
      "pitchwheel channel=1 pitch=-256 time=7\n",
      "pitchwheel channel=1 pitch=0 time=1\n",
      "pitchwheel channel=1 pitch=128 time=1\n",
      "pitchwheel channel=1 pitch=512 time=1\n",
      "pitchwheel channel=1 pitch=896 time=1\n",
      "pitchwheel channel=1 pitch=1408 time=1\n",
      "pitchwheel channel=1 pitch=1536 time=1\n",
      "pitchwheel channel=1 pitch=1792 time=1\n",
      "pitchwheel channel=1 pitch=1408 time=1\n",
      "pitchwheel channel=1 pitch=256 time=1\n",
      "pitchwheel channel=1 pitch=384 time=10\n",
      "pitchwheel channel=1 pitch=640 time=1\n",
      "pitchwheel channel=1 pitch=512 time=1\n",
      "pitchwheel channel=1 pitch=1408 time=1\n",
      "pitchwheel channel=1 pitch=1152 time=1\n",
      "pitchwheel channel=1 pitch=1280 time=1\n",
      "pitchwheel channel=1 pitch=1408 time=1\n",
      "pitchwheel channel=1 pitch=2048 time=1\n",
      "pitchwheel channel=1 pitch=1920 time=2\n",
      "pitchwheel channel=1 pitch=896 time=1\n",
      "pitchwheel channel=1 pitch=0 time=1\n",
      "pitchwheel channel=1 pitch=128 time=11\n",
      "pitchwheel channel=1 pitch=768 time=1\n",
      "pitchwheel channel=1 pitch=1152 time=1\n",
      "pitchwheel channel=1 pitch=1024 time=1\n",
      "pitchwheel channel=1 pitch=1280 time=1\n",
      "pitchwheel channel=1 pitch=1536 time=1\n",
      "pitchwheel channel=1 pitch=2048 time=1\n",
      "pitchwheel channel=1 pitch=1920 time=1\n",
      "pitchwheel channel=1 pitch=896 time=1\n",
      "pitchwheel channel=1 pitch=384 time=1\n",
      "pitchwheel channel=1 pitch=0 time=1\n",
      "pitchwheel channel=1 pitch=768 time=12\n",
      "pitchwheel channel=1 pitch=1152 time=1\n",
      "pitchwheel channel=1 pitch=1408 time=1\n",
      "pitchwheel channel=1 pitch=1664 time=1\n",
      "pitchwheel channel=1 pitch=1792 time=1\n",
      "pitchwheel channel=1 pitch=1536 time=1\n",
      "pitchwheel channel=1 pitch=1664 time=1\n",
      "pitchwheel channel=1 pitch=512 time=2\n",
      "pitchwheel channel=1 pitch=0 time=1\n",
      "pitchwheel channel=1 pitch=512 time=12\n",
      "pitchwheel channel=1 pitch=1024 time=1\n",
      "pitchwheel channel=1 pitch=1152 time=1\n",
      "note_on channel=1 note=40 velocity=0 time=0\n",
      "pitchwheel channel=1 pitch=1280 time=0\n",
      "pitchwheel channel=1 pitch=1536 time=1\n",
      "pitchwheel channel=1 pitch=0 time=1\n",
      "note_on channel=1 note=40 velocity=108 time=0\n",
      "note_on channel=1 note=46 velocity=0 time=3\n",
      "note_on channel=1 note=40 velocity=0 time=4\n",
      "note_on channel=1 note=40 velocity=107 time=12\n",
      "note_on channel=1 note=52 velocity=113 time=19\n",
      "note_on channel=1 note=40 velocity=0 time=9\n",
      "note_on channel=1 note=52 velocity=0 time=10\n",
      "note_on channel=1 note=40 velocity=105 time=0\n",
      "note_on channel=1 note=40 velocity=0 time=7\n",
      "note_on channel=1 note=40 velocity=111 time=13\n",
      "note_on channel=1 note=50 velocity=110 time=19\n",
      "note_on channel=1 note=40 velocity=0 time=3\n",
      "note_on channel=1 note=40 velocity=111 time=16\n",
      "note_on channel=1 note=50 velocity=0 time=0\n",
      "note_on channel=1 note=40 velocity=0 time=8\n",
      "note_on channel=1 note=40 velocity=114 time=11\n",
      "note_on channel=1 note=48 velocity=118 time=19\n",
      "note_on channel=1 note=40 velocity=0 time=1\n",
      "note_on channel=1 note=48 velocity=0 time=17\n",
      "note_on channel=1 note=40 velocity=106 time=1\n",
      "note_on channel=1 note=40 velocity=0 time=6\n",
      "note_on channel=1 note=40 velocity=108 time=13\n",
      "note_on channel=1 note=46 velocity=115 time=19\n",
      "note_on channel=1 note=40 velocity=0 time=1\n",
      "note_on channel=1 note=40 velocity=111 time=18\n",
      "note_on channel=1 note=46 velocity=0 time=3\n",
      "note_on channel=1 note=40 velocity=0 time=3\n",
      "note_on channel=1 note=40 velocity=111 time=13\n",
      "note_on channel=1 note=47 velocity=110 time=19\n",
      "note_on channel=1 note=47 velocity=0 time=19\n",
      "note_on channel=1 note=48 velocity=111 time=1\n",
      "note_on channel=1 note=40 velocity=0 time=10\n",
      "note_on channel=1 note=48 velocity=0 time=8\n",
      "note_on channel=1 note=40 velocity=110 time=1\n",
      "note_on channel=1 note=40 velocity=0 time=6\n",
      "note_on channel=1 note=40 velocity=108 time=13\n",
      "note_on channel=1 note=52 velocity=117 time=19\n",
      "note_on channel=1 note=40 velocity=0 time=14\n",
      "note_on channel=1 note=40 velocity=111 time=5\n",
      "note_on channel=1 note=52 velocity=0 time=2\n",
      "note_on channel=1 note=40 velocity=0 time=5\n",
      "note_on channel=1 note=40 velocity=108 time=12\n",
      "note_on channel=1 note=50 velocity=110 time=19\n",
      "note_on channel=1 note=40 velocity=0 time=5\n",
      "note_on channel=1 note=50 velocity=0 time=14\n",
      "note_on channel=1 note=40 velocity=114 time=0\n",
      "note_on channel=1 note=40 velocity=0 time=6\n",
      "note_on channel=1 note=40 velocity=115 time=13\n",
      "note_on channel=1 note=40 velocity=0 time=19\n",
      "note_on channel=1 note=48 velocity=117 time=0\n",
      "note_on channel=1 note=40 velocity=111 time=19\n",
      "note_on channel=1 note=40 velocity=0 time=7\n",
      "note_on channel=1 note=48 velocity=0 time=3\n",
      "note_on channel=1 note=40 velocity=114 time=10\n",
      "note_on channel=1 note=46 velocity=114 time=19\n",
      "pitchwheel channel=1 pitch=-256 time=7\n",
      "pitchwheel channel=1 pitch=128 time=2\n",
      "pitchwheel channel=1 pitch=512 time=1\n",
      "pitchwheel channel=1 pitch=896 time=1\n",
      "pitchwheel channel=1 pitch=1408 time=1\n",
      "pitchwheel channel=1 pitch=1536 time=1\n",
      "pitchwheel channel=1 pitch=1792 time=1\n",
      "pitchwheel channel=1 pitch=1408 time=1\n"
     ]
    },
    {
     "name": "stdout",
     "output_type": "stream",
     "text": [
      "pitchwheel channel=1 pitch=256 time=1\n",
      "pitchwheel channel=1 pitch=384 time=10\n",
      "pitchwheel channel=1 pitch=640 time=1\n",
      "pitchwheel channel=1 pitch=512 time=1\n",
      "pitchwheel channel=1 pitch=1408 time=1\n",
      "pitchwheel channel=1 pitch=1152 time=1\n",
      "pitchwheel channel=1 pitch=1280 time=1\n",
      "pitchwheel channel=1 pitch=2048 time=2\n",
      "pitchwheel channel=1 pitch=1920 time=1\n",
      "pitchwheel channel=1 pitch=1536 time=1\n",
      "pitchwheel channel=1 pitch=896 time=1\n",
      "pitchwheel channel=1 pitch=0 time=1\n",
      "pitchwheel channel=1 pitch=128 time=11\n",
      "pitchwheel channel=1 pitch=768 time=1\n",
      "pitchwheel channel=1 pitch=1152 time=1\n",
      "pitchwheel channel=1 pitch=1024 time=1\n",
      "pitchwheel channel=1 pitch=1280 time=1\n",
      "pitchwheel channel=1 pitch=1536 time=1\n",
      "pitchwheel channel=1 pitch=2048 time=1\n",
      "pitchwheel channel=1 pitch=1920 time=1\n",
      "pitchwheel channel=1 pitch=896 time=1\n",
      "pitchwheel channel=1 pitch=384 time=1\n",
      "pitchwheel channel=1 pitch=0 time=1\n",
      "pitchwheel channel=1 pitch=768 time=12\n",
      "pitchwheel channel=1 pitch=1152 time=1\n",
      "pitchwheel channel=1 pitch=1408 time=1\n",
      "pitchwheel channel=1 pitch=1920 time=1\n",
      "pitchwheel channel=1 pitch=1792 time=1\n",
      "pitchwheel channel=1 pitch=1664 time=1\n",
      "pitchwheel channel=1 pitch=512 time=3\n",
      "pitchwheel channel=1 pitch=0 time=1\n",
      "pitchwheel channel=1 pitch=512 time=12\n",
      "pitchwheel channel=1 pitch=1024 time=1\n",
      "pitchwheel channel=1 pitch=1152 time=1\n",
      "note_on channel=1 note=40 velocity=0 time=0\n",
      "pitchwheel channel=1 pitch=1280 time=0\n",
      "pitchwheel channel=1 pitch=1536 time=1\n",
      "pitchwheel channel=1 pitch=0 time=1\n",
      "note_on channel=1 note=46 velocity=0 time=0\n",
      "note_on channel=1 note=40 velocity=108 time=0\n",
      "note_on channel=1 note=40 velocity=0 time=5\n",
      "note_on channel=1 note=40 velocity=114 time=14\n",
      "note_on channel=1 note=52 velocity=114 time=19\n",
      "note_on channel=1 note=40 velocity=0 time=3\n",
      "note_on channel=1 note=52 velocity=0 time=16\n",
      "note_on channel=1 note=40 velocity=110 time=0\n",
      "note_on channel=1 note=40 velocity=0 time=6\n",
      "note_on channel=1 note=40 velocity=110 time=13\n",
      "note_on channel=1 note=50 velocity=111 time=20\n",
      "note_on channel=1 note=40 velocity=0 time=2\n",
      "note_on channel=1 note=50 velocity=0 time=15\n",
      "note_on channel=1 note=40 velocity=104 time=2\n",
      "note_on channel=1 note=40 velocity=0 time=6\n",
      "note_on channel=1 note=40 velocity=111 time=13\n",
      "note_on channel=1 note=48 velocity=116 time=19\n",
      "note_on channel=1 note=40 velocity=0 time=0\n",
      "note_on channel=1 note=48 velocity=0 time=18\n",
      "note_on channel=1 note=40 velocity=108 time=1\n",
      "note_on channel=1 note=40 velocity=0 time=6\n",
      "note_on channel=1 note=40 velocity=110 time=13\n",
      "note_on channel=1 note=46 velocity=110 time=19\n",
      "note_on channel=1 note=40 velocity=0 time=2\n",
      "note_on channel=1 note=46 velocity=0 time=16\n",
      "note_on channel=1 note=40 velocity=110 time=1\n",
      "note_on channel=1 note=40 velocity=0 time=8\n",
      "note_on channel=1 note=40 velocity=111 time=11\n",
      "note_on channel=1 note=47 velocity=110 time=19\n",
      "note_on channel=1 note=47 velocity=0 time=19\n",
      "note_on channel=1 note=48 velocity=117 time=0\n",
      "note_on channel=1 note=40 velocity=0 time=13\n",
      "note_on channel=1 note=48 velocity=0 time=4\n",
      "note_on channel=1 note=40 velocity=111 time=3\n",
      "note_on channel=1 note=40 velocity=0 time=3\n",
      "note_on channel=1 note=40 velocity=111 time=16\n",
      "note_on channel=1 note=52 velocity=114 time=19\n",
      "note_on channel=1 note=40 velocity=0 time=4\n",
      "note_on channel=1 note=52 velocity=0 time=13\n",
      "note_on channel=1 note=40 velocity=106 time=2\n",
      "note_on channel=1 note=40 velocity=0 time=6\n",
      "note_on channel=1 note=40 velocity=108 time=13\n",
      "note_on channel=1 note=50 velocity=106 time=19\n",
      "note_on channel=1 note=40 velocity=0 time=3\n",
      "note_on channel=1 note=50 velocity=0 time=16\n",
      "note_on channel=1 note=40 velocity=114 time=0\n",
      "note_on channel=1 note=40 velocity=0 time=6\n",
      "note_on channel=1 note=40 velocity=106 time=13\n",
      "note_on channel=1 note=48 velocity=117 time=19\n",
      "note_on channel=1 note=40 velocity=0 time=1\n",
      "note_on channel=1 note=48 velocity=0 time=15\n",
      "note_on channel=1 note=40 velocity=111 time=3\n",
      "note_on channel=1 note=40 velocity=0 time=7\n",
      "note_on channel=1 note=40 velocity=114 time=12\n",
      "note_on channel=1 note=46 velocity=114 time=20\n",
      "pitchwheel channel=1 pitch=-256 time=7\n",
      "pitchwheel channel=1 pitch=128 time=2\n",
      "pitchwheel channel=1 pitch=512 time=1\n",
      "pitchwheel channel=1 pitch=896 time=1\n",
      "pitchwheel channel=1 pitch=1408 time=1\n",
      "pitchwheel channel=1 pitch=1664 time=1\n",
      "pitchwheel channel=1 pitch=1536 time=1\n",
      "pitchwheel channel=1 pitch=768 time=1\n",
      "pitchwheel channel=1 pitch=0 time=1\n",
      "pitchwheel channel=1 pitch=384 time=10\n",
      "pitchwheel channel=1 pitch=512 time=2\n",
      "pitchwheel channel=1 pitch=1408 time=1\n",
      "pitchwheel channel=1 pitch=1152 time=1\n",
      "pitchwheel channel=1 pitch=1280 time=1\n",
      "pitchwheel channel=1 pitch=2048 time=2\n",
      "pitchwheel channel=1 pitch=1920 time=1\n",
      "pitchwheel channel=1 pitch=1536 time=1\n",
      "pitchwheel channel=1 pitch=896 time=1\n",
      "pitchwheel channel=1 pitch=0 time=1\n",
      "pitchwheel channel=1 pitch=128 time=11\n",
      "pitchwheel channel=1 pitch=768 time=1\n",
      "pitchwheel channel=1 pitch=1152 time=1\n",
      "pitchwheel channel=1 pitch=1024 time=1\n",
      "pitchwheel channel=1 pitch=1280 time=1\n",
      "pitchwheel channel=1 pitch=1536 time=1\n",
      "pitchwheel channel=1 pitch=2048 time=1\n",
      "pitchwheel channel=1 pitch=1536 time=1\n",
      "pitchwheel channel=1 pitch=768 time=1\n",
      "pitchwheel channel=1 pitch=128 time=1\n",
      "pitchwheel channel=1 pitch=768 time=13\n",
      "pitchwheel channel=1 pitch=1152 time=1\n",
      "pitchwheel channel=1 pitch=1408 time=1\n",
      "pitchwheel channel=1 pitch=1920 time=1\n",
      "pitchwheel channel=1 pitch=1792 time=1\n",
      "pitchwheel channel=1 pitch=1664 time=1\n",
      "pitchwheel channel=1 pitch=512 time=3\n",
      "pitchwheel channel=1 pitch=0 time=1\n",
      "pitchwheel channel=1 pitch=512 time=11\n",
      "pitchwheel channel=1 pitch=640 time=1\n",
      "pitchwheel channel=1 pitch=1152 time=1\n",
      "note_on channel=1 note=40 velocity=0 time=1\n",
      "pitchwheel channel=1 pitch=1280 time=0\n",
      "pitchwheel channel=1 pitch=1536 time=1\n",
      "pitchwheel channel=1 pitch=0 time=1\n",
      "note_on channel=1 note=40 velocity=108 time=0\n",
      "note_on channel=1 note=46 velocity=0 time=3\n",
      "note_on channel=1 note=40 velocity=0 time=4\n",
      "note_on channel=1 note=40 velocity=107 time=12\n",
      "note_on channel=1 note=52 velocity=113 time=19\n",
      "note_on channel=1 note=40 velocity=0 time=9\n",
      "note_on channel=1 note=52 velocity=0 time=10\n",
      "note_on channel=1 note=40 velocity=105 time=0\n",
      "note_on channel=1 note=40 velocity=0 time=7\n",
      "note_on channel=1 note=40 velocity=111 time=12\n",
      "note_on channel=1 note=50 velocity=110 time=19\n",
      "note_on channel=1 note=40 velocity=0 time=3\n",
      "note_on channel=1 note=40 velocity=111 time=17\n",
      "note_on channel=1 note=50 velocity=0 time=0\n",
      "note_on channel=1 note=40 velocity=0 time=7\n",
      "note_on channel=1 note=40 velocity=114 time=12\n",
      "note_on channel=1 note=48 velocity=118 time=19\n",
      "note_on channel=1 note=40 velocity=0 time=1\n",
      "note_on channel=1 note=48 velocity=0 time=17\n",
      "note_on channel=1 note=40 velocity=106 time=1\n",
      "note_on channel=1 note=40 velocity=0 time=6\n",
      "note_on channel=1 note=40 velocity=108 time=13\n",
      "note_on channel=1 note=46 velocity=115 time=19\n",
      "note_on channel=1 note=40 velocity=0 time=1\n",
      "note_on channel=1 note=40 velocity=111 time=18\n",
      "note_on channel=1 note=46 velocity=0 time=3\n",
      "note_on channel=1 note=40 velocity=0 time=3\n",
      "note_on channel=1 note=40 velocity=111 time=13\n",
      "note_on channel=1 note=47 velocity=110 time=19\n",
      "note_on channel=1 note=47 velocity=0 time=19\n",
      "note_on channel=1 note=48 velocity=111 time=0\n",
      "note_on channel=1 note=40 velocity=0 time=11\n",
      "note_on channel=1 note=48 velocity=0 time=8\n",
      "note_on channel=1 note=40 velocity=110 time=0\n",
      "note_on channel=1 note=40 velocity=0 time=7\n",
      "note_on channel=1 note=40 velocity=108 time=13\n",
      "note_on channel=1 note=52 velocity=117 time=19\n",
      "note_on channel=1 note=40 velocity=0 time=14\n",
      "note_on channel=1 note=40 velocity=111 time=5\n",
      "note_on channel=1 note=52 velocity=0 time=2\n",
      "note_on channel=1 note=40 velocity=0 time=5\n",
      "note_on channel=1 note=40 velocity=108 time=12\n",
      "note_on channel=1 note=50 velocity=110 time=19\n",
      "note_on channel=1 note=40 velocity=0 time=5\n",
      "note_on channel=1 note=50 velocity=0 time=14\n",
      "note_on channel=1 note=40 velocity=114 time=0\n",
      "note_on channel=1 note=40 velocity=0 time=6\n",
      "note_on channel=1 note=40 velocity=115 time=13\n",
      "note_on channel=1 note=40 velocity=0 time=11\n",
      "note_on channel=1 note=66 velocity=112 time=8\n",
      "note_on channel=1 note=66 velocity=0 time=10\n",
      "note_on channel=1 note=64 velocity=105 time=0\n",
      "note_on channel=1 note=64 velocity=0 time=9\n",
      "note_on channel=1 note=63 velocity=112 time=0\n",
      "note_on channel=1 note=63 velocity=0 time=10\n",
      "note_on channel=1 note=66 velocity=103 time=0\n",
      "note_on channel=1 note=66 velocity=0 time=9\n",
      "note_on channel=1 note=69 velocity=111 time=0\n",
      "note_on channel=1 note=69 velocity=0 time=10\n",
      "note_on channel=1 note=67 velocity=102 time=0\n",
      "note_on channel=1 note=67 velocity=0 time=9\n",
      "note_on channel=1 note=66 velocity=113 time=0\n",
      "note_on channel=1 note=66 velocity=0 time=10\n",
      "note_on channel=1 note=63 velocity=103 time=0\n",
      "note_on channel=1 note=63 velocity=0 time=10\n",
      "note_on channel=1 note=66 velocity=111 time=0\n",
      "note_on channel=1 note=66 velocity=0 time=9\n",
      "note_on channel=1 note=67 velocity=101 time=0\n",
      "note_on channel=1 note=67 velocity=0 time=10\n",
      "note_on channel=1 note=69 velocity=112 time=0\n",
      "note_on channel=1 note=69 velocity=0 time=9\n",
      "note_on channel=1 note=71 velocity=103 time=0\n",
      "note_on channel=1 note=71 velocity=0 time=10\n",
      "note_on channel=1 note=69 velocity=110 time=0\n",
      "note_on channel=1 note=69 velocity=0 time=9\n",
      "note_on channel=1 note=67 velocity=100 time=0\n",
      "note_on channel=1 note=67 velocity=0 time=10\n",
      "note_on channel=1 note=66 velocity=113 time=0\n",
      "note_on channel=1 note=66 velocity=0 time=9\n",
      "note_on channel=1 note=63 velocity=103 time=0\n",
      "note_on channel=1 note=63 velocity=0 time=10\n",
      "note_on channel=1 note=40 velocity=108 time=0\n",
      "note_on channel=1 note=40 velocity=0 time=5\n",
      "note_on channel=1 note=40 velocity=114 time=14\n",
      "note_on channel=1 note=52 velocity=114 time=19\n",
      "note_on channel=1 note=40 velocity=0 time=3\n",
      "note_on channel=1 note=52 velocity=0 time=16\n",
      "note_on channel=1 note=40 velocity=110 time=0\n",
      "note_on channel=1 note=40 velocity=0 time=6\n",
      "note_on channel=1 note=40 velocity=110 time=13\n",
      "note_on channel=1 note=50 velocity=111 time=19\n",
      "note_on channel=1 note=40 velocity=0 time=3\n",
      "note_on channel=1 note=50 velocity=0 time=14\n",
      "note_on channel=1 note=40 velocity=104 time=2\n",
      "note_on channel=1 note=40 velocity=0 time=7\n",
      "note_on channel=1 note=40 velocity=111 time=13\n",
      "note_on channel=1 note=48 velocity=116 time=19\n",
      "note_on channel=1 note=40 velocity=0 time=0\n",
      "note_on channel=1 note=48 velocity=0 time=18\n",
      "note_on channel=1 note=40 velocity=108 time=1\n",
      "note_on channel=1 note=40 velocity=0 time=6\n",
      "note_on channel=1 note=40 velocity=110 time=13\n",
      "note_on channel=1 note=46 velocity=110 time=19\n",
      "note_on channel=1 note=40 velocity=0 time=1\n",
      "note_on channel=1 note=46 velocity=0 time=17\n",
      "note_on channel=1 note=40 velocity=110 time=1\n",
      "note_on channel=1 note=40 velocity=0 time=8\n",
      "note_on channel=1 note=40 velocity=111 time=11\n",
      "note_on channel=1 note=47 velocity=110 time=19\n",
      "note_on channel=1 note=47 velocity=0 time=19\n",
      "note_on channel=1 note=48 velocity=117 time=0\n",
      "note_on channel=1 note=40 velocity=0 time=13\n",
      "note_on channel=1 note=48 velocity=0 time=4\n",
      "note_on channel=1 note=40 velocity=111 time=2\n",
      "note_on channel=1 note=40 velocity=0 time=4\n",
      "note_on channel=1 note=40 velocity=111 time=15\n",
      "note_on channel=1 note=52 velocity=114 time=20\n",
      "note_on channel=1 note=40 velocity=0 time=4\n",
      "note_on channel=1 note=52 velocity=0 time=13\n",
      "note_on channel=1 note=40 velocity=106 time=2\n",
      "note_on channel=1 note=40 velocity=0 time=6\n",
      "note_on channel=1 note=40 velocity=108 time=13\n",
      "note_on channel=1 note=50 velocity=106 time=19\n",
      "note_on channel=1 note=40 velocity=0 time=2\n",
      "note_on channel=1 note=50 velocity=0 time=17\n",
      "note_on channel=1 note=40 velocity=114 time=0\n",
      "note_on channel=1 note=40 velocity=0 time=6\n",
      "note_on channel=1 note=40 velocity=106 time=13\n",
      "note_on channel=1 note=48 velocity=117 time=19\n",
      "note_on channel=1 note=40 velocity=0 time=1\n",
      "note_on channel=1 note=48 velocity=0 time=15\n",
      "note_on channel=1 note=40 velocity=111 time=3\n",
      "note_on channel=1 note=40 velocity=0 time=7\n",
      "note_on channel=1 note=40 velocity=114 time=12\n",
      "note_on channel=1 note=46 velocity=114 time=19\n",
      "pitchwheel channel=1 pitch=-256 time=7\n",
      "pitchwheel channel=1 pitch=-384 time=1\n",
      "pitchwheel channel=1 pitch=128 time=2\n",
      "pitchwheel channel=1 pitch=512 time=1\n",
      "pitchwheel channel=1 pitch=896 time=1\n",
      "pitchwheel channel=1 pitch=1408 time=1\n",
      "pitchwheel channel=1 pitch=1664 time=1\n",
      "pitchwheel channel=1 pitch=1536 time=1\n",
      "pitchwheel channel=1 pitch=768 time=1\n",
      "pitchwheel channel=1 pitch=0 time=1\n",
      "pitchwheel channel=1 pitch=384 time=10\n",
      "pitchwheel channel=1 pitch=512 time=2\n",
      "pitchwheel channel=1 pitch=1024 time=1\n",
      "pitchwheel channel=1 pitch=1152 time=1\n",
      "pitchwheel channel=1 pitch=1408 time=1\n",
      "pitchwheel channel=1 pitch=2048 time=2\n",
      "pitchwheel channel=1 pitch=1920 time=1\n",
      "pitchwheel channel=1 pitch=1536 time=1\n",
      "pitchwheel channel=1 pitch=384 time=1\n",
      "pitchwheel channel=1 pitch=128 time=12\n",
      "pitchwheel channel=1 pitch=768 time=1\n",
      "pitchwheel channel=1 pitch=1152 time=1\n",
      "pitchwheel channel=1 pitch=1024 time=1\n",
      "pitchwheel channel=1 pitch=1280 time=1\n",
      "pitchwheel channel=1 pitch=1920 time=1\n",
      "pitchwheel channel=1 pitch=1536 time=1\n",
      "pitchwheel channel=1 pitch=1280 time=1\n",
      "pitchwheel channel=1 pitch=768 time=1\n",
      "pitchwheel channel=1 pitch=128 time=1\n",
      "pitchwheel channel=1 pitch=768 time=12\n",
      "pitchwheel channel=1 pitch=1024 time=1\n",
      "pitchwheel channel=1 pitch=1408 time=2\n",
      "pitchwheel channel=1 pitch=1920 time=1\n",
      "pitchwheel channel=1 pitch=1792 time=1\n",
      "pitchwheel channel=1 pitch=1664 time=1\n",
      "pitchwheel channel=1 pitch=512 time=2\n",
      "pitchwheel channel=1 pitch=128 time=1\n",
      "pitchwheel channel=1 pitch=512 time=12\n",
      "pitchwheel channel=1 pitch=640 time=1\n",
      "pitchwheel channel=1 pitch=1152 time=1\n",
      "note_on channel=1 note=40 velocity=0 time=0\n",
      "pitchwheel channel=1 pitch=1280 time=1\n",
      "pitchwheel channel=1 pitch=1408 time=1\n",
      "pitchwheel channel=1 pitch=0 time=1\n",
      "note_on channel=1 note=40 velocity=108 time=0\n",
      "note_on channel=1 note=46 velocity=0 time=3\n",
      "note_on channel=1 note=40 velocity=0 time=3\n",
      "note_on channel=1 note=40 velocity=107 time=13\n",
      "note_on channel=1 note=52 velocity=113 time=19\n",
      "note_on channel=1 note=40 velocity=0 time=8\n",
      "note_on channel=1 note=52 velocity=0 time=11\n",
      "note_on channel=1 note=40 velocity=105 time=0\n",
      "note_on channel=1 note=40 velocity=0 time=6\n",
      "note_on channel=1 note=40 velocity=111 time=13\n",
      "note_on channel=1 note=50 velocity=110 time=19\n",
      "note_on channel=1 note=40 velocity=0 time=3\n",
      "note_on channel=1 note=40 velocity=111 time=16\n",
      "note_on channel=1 note=50 velocity=0 time=1\n",
      "note_on channel=1 note=40 velocity=0 time=7\n",
      "note_on channel=1 note=40 velocity=114 time=11\n",
      "note_on channel=1 note=48 velocity=118 time=20\n",
      "note_on channel=1 note=40 velocity=0 time=1\n",
      "note_on channel=1 note=48 velocity=0 time=17\n",
      "note_on channel=1 note=40 velocity=106 time=1\n",
      "note_on channel=1 note=40 velocity=0 time=6\n",
      "note_on channel=1 note=40 velocity=108 time=13\n",
      "note_on channel=1 note=46 velocity=115 time=19\n",
      "note_on channel=1 note=40 velocity=0 time=1\n",
      "note_on channel=1 note=40 velocity=111 time=18\n",
      "note_on channel=1 note=46 velocity=0 time=2\n",
      "note_on channel=1 note=40 velocity=0 time=4\n",
      "note_on channel=1 note=40 velocity=111 time=13\n",
      "note_on channel=1 note=47 velocity=110 time=19\n",
      "note_on channel=1 note=47 velocity=0 time=19\n",
      "note_on channel=1 note=48 velocity=111 time=0\n",
      "note_on channel=1 note=40 velocity=0 time=11\n",
      "note_on channel=1 note=48 velocity=0 time=8\n",
      "note_on channel=1 note=40 velocity=110 time=0\n",
      "note_on channel=1 note=40 velocity=0 time=7\n",
      "note_on channel=1 note=40 velocity=108 time=12\n",
      "note_on channel=1 note=52 velocity=117 time=19\n",
      "note_on channel=1 note=40 velocity=0 time=15\n",
      "note_on channel=1 note=40 velocity=111 time=5\n",
      "note_on channel=1 note=52 velocity=0 time=2\n",
      "note_on channel=1 note=40 velocity=0 time=4\n",
      "note_on channel=1 note=40 velocity=108 time=13\n",
      "note_on channel=1 note=50 velocity=110 time=19\n",
      "note_on channel=1 note=40 velocity=0 time=5\n",
      "note_on channel=1 note=50 velocity=0 time=14\n",
      "note_on channel=1 note=40 velocity=114 time=0\n",
      "note_on channel=1 note=40 velocity=0 time=5\n",
      "note_on channel=1 note=40 velocity=115 time=14\n",
      "note_on channel=1 note=40 velocity=0 time=11\n",
      "note_on channel=1 note=71 velocity=112 time=8\n",
      "note_on channel=1 note=71 velocity=0 time=10\n",
      "note_on channel=1 note=67 velocity=105 time=0\n",
      "note_on channel=1 note=67 velocity=0 time=9\n",
      "note_on channel=1 note=64 velocity=112 time=0\n",
      "note_on channel=1 note=64 velocity=0 time=10\n",
      "note_on channel=1 note=67 velocity=103 time=0\n",
      "note_on channel=1 note=67 velocity=0 time=9\n",
      "note_on channel=1 note=71 velocity=111 time=0\n",
      "note_on channel=1 note=71 velocity=0 time=10\n",
      "note_on channel=1 note=67 velocity=102 time=0\n",
      "note_on channel=1 note=67 velocity=0 time=9\n",
      "note_on channel=1 note=71 velocity=113 time=0\n",
      "note_on channel=1 note=71 velocity=0 time=10\n",
      "note_on channel=1 note=76 velocity=103 time=0\n",
      "note_on channel=1 note=76 velocity=0 time=9\n",
      "note_on channel=1 note=71 velocity=111 time=0\n",
      "note_on channel=1 note=71 velocity=0 time=10\n",
      "note_on channel=1 note=67 velocity=101 time=0\n",
      "note_on channel=1 note=67 velocity=0 time=9\n",
      "note_on channel=1 note=71 velocity=112 time=0\n",
      "note_on channel=1 note=71 velocity=0 time=10\n",
      "note_on channel=1 note=67 velocity=103 time=0\n",
      "note_on channel=1 note=67 velocity=0 time=10\n",
      "note_on channel=1 note=71 velocity=110 time=0\n",
      "note_on channel=1 note=71 velocity=0 time=9\n",
      "note_on channel=1 note=76 velocity=100 time=0\n",
      "note_on channel=1 note=76 velocity=0 time=10\n",
      "note_on channel=1 note=79 velocity=113 time=0\n",
      "note_on channel=1 note=79 velocity=0 time=9\n",
      "note_on channel=1 note=83 velocity=103 time=0\n",
      "note_on channel=1 note=83 velocity=0 time=10\n",
      "note_on channel=1 note=45 velocity=108 time=0\n",
      "note_on channel=1 note=45 velocity=0 time=5\n",
      "note_on channel=1 note=45 velocity=114 time=14\n",
      "note_on channel=1 note=57 velocity=114 time=19\n",
      "note_on channel=1 note=45 velocity=0 time=3\n",
      "note_on channel=1 note=57 velocity=0 time=15\n",
      "note_on channel=1 note=45 velocity=110 time=1\n",
      "note_on channel=1 note=45 velocity=0 time=6\n",
      "note_on channel=1 note=45 velocity=110 time=13\n",
      "note_on channel=1 note=55 velocity=111 time=19\n",
      "note_on channel=1 note=45 velocity=0 time=3\n",
      "note_on channel=1 note=55 velocity=0 time=14\n",
      "note_on channel=1 note=45 velocity=104 time=2\n",
      "note_on channel=1 note=45 velocity=0 time=7\n",
      "note_on channel=1 note=45 velocity=111 time=12\n",
      "note_on channel=1 note=53 velocity=116 time=19\n",
      "note_on channel=1 note=45 velocity=0 time=1\n",
      "note_on channel=1 note=53 velocity=0 time=18\n",
      "note_on channel=1 note=45 velocity=108 time=1\n",
      "note_on channel=1 note=45 velocity=0 time=6\n",
      "note_on channel=1 note=45 velocity=110 time=13\n",
      "note_on channel=1 note=51 velocity=110 time=19\n",
      "note_on channel=1 note=45 velocity=0 time=1\n",
      "note_on channel=1 note=51 velocity=0 time=17\n",
      "note_on channel=1 note=45 velocity=110 time=1\n",
      "note_on channel=1 note=45 velocity=0 time=8\n",
      "note_on channel=1 note=45 velocity=111 time=11\n",
      "note_on channel=1 note=52 velocity=110 time=19\n",
      "note_on channel=1 note=52 velocity=0 time=18\n",
      "note_on channel=1 note=53 velocity=117 time=1\n",
      "note_on channel=1 note=45 velocity=0 time=13\n",
      "note_on channel=1 note=53 velocity=0 time=4\n",
      "note_on channel=1 note=45 velocity=111 time=2\n",
      "note_on channel=1 note=45 velocity=0 time=4\n",
      "note_on channel=1 note=45 velocity=111 time=15\n",
      "note_on channel=1 note=57 velocity=114 time=19\n",
      "note_on channel=1 note=45 velocity=0 time=4\n",
      "note_on channel=1 note=57 velocity=0 time=14\n",
      "note_on channel=1 note=45 velocity=106 time=1\n",
      "note_on channel=1 note=45 velocity=0 time=6\n",
      "note_on channel=1 note=45 velocity=108 time=14\n",
      "note_on channel=1 note=55 velocity=106 time=19\n",
      "note_on channel=1 note=45 velocity=0 time=2\n",
      "note_on channel=1 note=55 velocity=0 time=16\n",
      "note_on channel=1 note=45 velocity=114 time=1\n",
      "note_on channel=1 note=45 velocity=0 time=6\n",
      "note_on channel=1 note=45 velocity=106 time=13\n",
      "note_on channel=1 note=53 velocity=117 time=19\n",
      "note_on channel=1 note=45 velocity=0 time=1\n",
      "note_on channel=1 note=53 velocity=0 time=15\n",
      "note_on channel=1 note=45 velocity=111 time=3\n",
      "note_on channel=1 note=45 velocity=0 time=7\n",
      "note_on channel=1 note=45 velocity=114 time=12\n",
      "note_on channel=1 note=51 velocity=114 time=19\n",
      "pitchwheel channel=1 pitch=-256 time=7\n",
      "pitchwheel channel=1 pitch=-384 time=1\n",
      "pitchwheel channel=1 pitch=128 time=2\n",
      "pitchwheel channel=1 pitch=768 time=1\n",
      "pitchwheel channel=1 pitch=896 time=1\n",
      "pitchwheel channel=1 pitch=1536 time=1\n",
      "pitchwheel channel=1 pitch=1920 time=1\n",
      "pitchwheel channel=1 pitch=1536 time=1\n",
      "pitchwheel channel=1 pitch=768 time=1\n",
      "pitchwheel channel=1 pitch=0 time=1\n",
      "pitchwheel channel=1 pitch=384 time=9\n",
      "pitchwheel channel=1 pitch=640 time=1\n",
      "pitchwheel channel=1 pitch=384 time=1\n",
      "pitchwheel channel=1 pitch=1024 time=1\n",
      "pitchwheel channel=1 pitch=1152 time=2\n",
      "pitchwheel channel=1 pitch=1408 time=1\n",
      "pitchwheel channel=1 pitch=2048 time=1\n",
      "pitchwheel channel=1 pitch=1920 time=2\n",
      "pitchwheel channel=1 pitch=1280 time=1\n",
      "pitchwheel channel=1 pitch=128 time=1\n",
      "pitchwheel channel=1 pitch=384 time=12\n",
      "pitchwheel channel=1 pitch=768 time=1\n",
      "pitchwheel channel=1 pitch=1152 time=1\n",
      "pitchwheel channel=1 pitch=1024 time=1\n",
      "pitchwheel channel=1 pitch=1280 time=1\n",
      "pitchwheel channel=1 pitch=1920 time=1\n",
      "pitchwheel channel=1 pitch=1536 time=1\n",
      "pitchwheel channel=1 pitch=1280 time=1\n",
      "pitchwheel channel=1 pitch=384 time=1\n",
      "pitchwheel channel=1 pitch=0 time=1\n",
      "pitchwheel channel=1 pitch=768 time=12\n",
      "pitchwheel channel=1 pitch=1024 time=1\n",
      "pitchwheel channel=1 pitch=1408 time=2\n",
      "pitchwheel channel=1 pitch=1920 time=1\n",
      "pitchwheel channel=1 pitch=1536 time=1\n",
      "pitchwheel channel=1 pitch=1792 time=1\n",
      "pitchwheel channel=1 pitch=512 time=2\n",
      "pitchwheel channel=1 pitch=0 time=1\n",
      "pitchwheel channel=1 pitch=512 time=12\n",
      "pitchwheel channel=1 pitch=1024 time=1\n",
      "pitchwheel channel=1 pitch=1152 time=1\n",
      "note_on channel=1 note=45 velocity=0 time=0\n",
      "pitchwheel channel=1 pitch=1280 time=1\n",
      "pitchwheel channel=1 pitch=1408 time=1\n",
      "pitchwheel channel=1 pitch=0 time=1\n",
      "note_on channel=1 note=45 velocity=108 time=0\n",
      "note_on channel=1 note=51 velocity=0 time=3\n",
      "note_on channel=1 note=45 velocity=0 time=3\n",
      "note_on channel=1 note=45 velocity=107 time=13\n",
      "note_on channel=1 note=57 velocity=113 time=19\n",
      "note_on channel=1 note=45 velocity=0 time=8\n",
      "note_on channel=1 note=57 velocity=0 time=10\n",
      "note_on channel=1 note=45 velocity=105 time=1\n",
      "note_on channel=1 note=45 velocity=0 time=6\n",
      "note_on channel=1 note=45 velocity=111 time=13\n",
      "note_on channel=1 note=55 velocity=110 time=19\n",
      "note_on channel=1 note=45 velocity=0 time=3\n",
      "note_on channel=1 note=45 velocity=111 time=16\n",
      "note_on channel=1 note=55 velocity=0 time=0\n",
      "note_on channel=1 note=45 velocity=0 time=8\n",
      "note_on channel=1 note=45 velocity=114 time=11\n",
      "note_on channel=1 note=53 velocity=118 time=19\n",
      "note_on channel=1 note=45 velocity=0 time=2\n",
      "note_on channel=1 note=53 velocity=0 time=17\n",
      "note_on channel=1 note=45 velocity=106 time=0\n",
      "note_on channel=1 note=45 velocity=0 time=7\n",
      "note_on channel=1 note=45 velocity=108 time=13\n",
      "note_on channel=1 note=51 velocity=115 time=19\n",
      "note_on channel=1 note=45 velocity=0 time=1\n",
      "note_on channel=1 note=45 velocity=111 time=18\n",
      "note_on channel=1 note=51 velocity=0 time=2\n",
      "note_on channel=1 note=45 velocity=0 time=4\n",
      "note_on channel=1 note=45 velocity=111 time=13\n",
      "note_on channel=1 note=52 velocity=110 time=19\n",
      "note_on channel=1 note=52 velocity=0 time=19\n",
      "note_on channel=1 note=53 velocity=111 time=0\n",
      "note_on channel=1 note=45 velocity=0 time=11\n",
      "note_on channel=1 note=53 velocity=0 time=8\n",
      "note_on channel=1 note=45 velocity=110 time=0\n",
      "note_on channel=1 note=45 velocity=0 time=7\n",
      "note_on channel=1 note=45 velocity=108 time=12\n",
      "note_on channel=1 note=57 velocity=117 time=19\n",
      "note_on channel=1 note=45 velocity=0 time=14\n",
      "note_on channel=1 note=45 velocity=111 time=5\n",
      "note_on channel=1 note=57 velocity=0 time=3\n",
      "note_on channel=1 note=45 velocity=0 time=4\n",
      "note_on channel=1 note=45 velocity=108 time=12\n",
      "note_on channel=1 note=55 velocity=110 time=20\n",
      "note_on channel=1 note=45 velocity=0 time=5\n",
      "note_on channel=1 note=55 velocity=0 time=14\n",
      "note_on channel=1 note=45 velocity=114 time=0\n",
      "note_on channel=1 note=45 velocity=0 time=5\n",
      "note_on channel=1 note=45 velocity=115 time=14\n",
      "note_on channel=1 note=45 velocity=0 time=11\n",
      "note_on channel=1 note=64 velocity=112 time=8\n",
      "note_on channel=1 note=64 velocity=0 time=9\n",
      "note_on channel=1 note=62 velocity=105 time=0\n",
      "note_on channel=1 note=62 velocity=0 time=10\n",
      "note_on channel=1 note=60 velocity=112 time=0\n",
      "note_on channel=1 note=60 velocity=0 time=9\n",
      "note_on channel=1 note=64 velocity=103 time=0\n",
      "note_on channel=1 note=64 velocity=0 time=10\n",
      "note_on channel=1 note=60 velocity=111 time=0\n",
      "note_on channel=1 note=60 velocity=0 time=10\n",
      "note_on channel=1 note=57 velocity=102 time=0\n",
      "note_on channel=1 note=57 velocity=0 time=9\n",
      "note_on channel=1 note=60 velocity=113 time=0\n",
      "note_on channel=1 note=60 velocity=0 time=10\n",
      "note_on channel=1 note=64 velocity=103 time=0\n",
      "note_on channel=1 note=64 velocity=0 time=9\n",
      "note_on channel=1 note=69 velocity=111 time=0\n",
      "note_on channel=1 note=69 velocity=0 time=10\n",
      "note_on channel=1 note=64 velocity=101 time=0\n",
      "note_on channel=1 note=64 velocity=0 time=9\n",
      "note_on channel=1 note=60 velocity=112 time=0\n",
      "note_on channel=1 note=60 velocity=0 time=10\n",
      "note_on channel=1 note=64 velocity=103 time=0\n",
      "note_on channel=1 note=64 velocity=0 time=9\n",
      "note_on channel=1 note=60 velocity=110 time=0\n",
      "note_on channel=1 note=60 velocity=0 time=10\n",
      "note_on channel=1 note=64 velocity=100 time=0\n",
      "note_on channel=1 note=64 velocity=0 time=9\n",
      "note_on channel=1 note=60 velocity=113 time=0\n",
      "note_on channel=1 note=60 velocity=0 time=10\n",
      "note_on channel=1 note=57 velocity=103 time=0\n",
      "note_on channel=1 note=57 velocity=0 time=10\n",
      "note_on channel=1 note=40 velocity=108 time=0\n",
      "note_on channel=1 note=40 velocity=0 time=5\n",
      "note_on channel=1 note=40 velocity=114 time=14\n",
      "note_on channel=1 note=52 velocity=114 time=19\n",
      "note_on channel=1 note=40 velocity=0 time=2\n",
      "note_on channel=1 note=52 velocity=0 time=16\n",
      "note_on channel=1 note=40 velocity=110 time=1\n",
      "note_on channel=1 note=40 velocity=0 time=6\n",
      "note_on channel=1 note=40 velocity=110 time=13\n",
      "note_on channel=1 note=50 velocity=111 time=19\n",
      "note_on channel=1 note=40 velocity=0 time=2\n",
      "note_on channel=1 note=50 velocity=0 time=15\n",
      "note_on channel=1 note=40 velocity=104 time=2\n",
      "note_on channel=1 note=40 velocity=0 time=6\n",
      "note_on channel=1 note=40 velocity=111 time=13\n",
      "note_on channel=1 note=48 velocity=116 time=19\n",
      "note_on channel=1 note=40 velocity=0 time=0\n",
      "note_on channel=1 note=48 velocity=0 time=19\n",
      "note_on channel=1 note=40 velocity=108 time=0\n",
      "note_on channel=1 note=40 velocity=0 time=7\n",
      "note_on channel=1 note=40 velocity=110 time=12\n",
      "note_on channel=1 note=46 velocity=110 time=20\n",
      "note_on channel=1 note=40 velocity=0 time=1\n",
      "note_on channel=1 note=46 velocity=0 time=17\n",
      "note_on channel=1 note=40 velocity=110 time=1\n",
      "note_on channel=1 note=40 velocity=0 time=8\n",
      "note_on channel=1 note=40 velocity=111 time=11\n",
      "note_on channel=1 note=47 velocity=110 time=19\n",
      "note_on channel=1 note=47 velocity=0 time=18\n",
      "note_on channel=1 note=48 velocity=117 time=1\n",
      "note_on channel=1 note=40 velocity=0 time=13\n",
      "note_on channel=1 note=48 velocity=0 time=4\n",
      "note_on channel=1 note=40 velocity=111 time=2\n",
      "note_on channel=1 note=40 velocity=0 time=4\n",
      "note_on channel=1 note=40 velocity=111 time=15\n",
      "note_on channel=1 note=52 velocity=114 time=19\n",
      "note_on channel=1 note=40 velocity=0 time=4\n",
      "note_on channel=1 note=52 velocity=0 time=14\n",
      "note_on channel=1 note=40 velocity=106 time=1\n",
      "note_on channel=1 note=40 velocity=0 time=6\n",
      "note_on channel=1 note=40 velocity=108 time=13\n",
      "note_on channel=1 note=50 velocity=106 time=19\n",
      "note_on channel=1 note=40 velocity=0 time=3\n",
      "note_on channel=1 note=50 velocity=0 time=16\n",
      "note_on channel=1 note=40 velocity=114 time=1\n",
      "note_on channel=1 note=40 velocity=0 time=6\n",
      "note_on channel=1 note=40 velocity=106 time=13\n",
      "note_on channel=1 note=48 velocity=117 time=19\n",
      "note_on channel=1 note=40 velocity=0 time=1\n",
      "note_on channel=1 note=48 velocity=0 time=15\n",
      "note_on channel=1 note=40 velocity=111 time=3\n",
      "note_on channel=1 note=40 velocity=0 time=7\n",
      "note_on channel=1 note=40 velocity=114 time=12\n",
      "note_on channel=1 note=46 velocity=114 time=19\n",
      "pitchwheel channel=1 pitch=-256 time=7\n",
      "pitchwheel channel=1 pitch=0 time=1\n",
      "pitchwheel channel=1 pitch=128 time=1\n",
      "pitchwheel channel=1 pitch=512 time=1\n",
      "pitchwheel channel=1 pitch=768 time=1\n",
      "pitchwheel channel=1 pitch=896 time=1\n",
      "pitchwheel channel=1 pitch=1536 time=1\n",
      "pitchwheel channel=1 pitch=1920 time=1\n",
      "pitchwheel channel=1 pitch=1536 time=1\n",
      "pitchwheel channel=1 pitch=768 time=1\n",
      "pitchwheel channel=1 pitch=384 time=10\n",
      "pitchwheel channel=1 pitch=640 time=1\n",
      "pitchwheel channel=1 pitch=384 time=1\n",
      "pitchwheel channel=1 pitch=1024 time=1\n",
      "pitchwheel channel=1 pitch=1152 time=1\n",
      "pitchwheel channel=1 pitch=1280 time=1\n",
      "pitchwheel channel=1 pitch=1408 time=1\n",
      "pitchwheel channel=1 pitch=2048 time=1\n",
      "pitchwheel channel=1 pitch=1920 time=2\n",
      "pitchwheel channel=1 pitch=1280 time=1\n",
      "pitchwheel channel=1 pitch=128 time=1\n",
      "pitchwheel channel=1 pitch=384 time=12\n",
      "pitchwheel channel=1 pitch=896 time=1\n",
      "pitchwheel channel=1 pitch=1280 time=1\n",
      "pitchwheel channel=1 pitch=1536 time=2\n",
      "pitchwheel channel=1 pitch=1920 time=1\n",
      "pitchwheel channel=1 pitch=1536 time=1\n",
      "pitchwheel channel=1 pitch=1280 time=1\n",
      "pitchwheel channel=1 pitch=384 time=1\n",
      "pitchwheel channel=1 pitch=0 time=1\n",
      "pitchwheel channel=1 pitch=768 time=12\n",
      "pitchwheel channel=1 pitch=1152 time=1\n",
      "pitchwheel channel=1 pitch=1408 time=1\n",
      "pitchwheel channel=1 pitch=1664 time=1\n",
      "pitchwheel channel=1 pitch=1792 time=1\n",
      "pitchwheel channel=1 pitch=1536 time=1\n",
      "pitchwheel channel=1 pitch=1664 time=1\n",
      "pitchwheel channel=1 pitch=512 time=2\n",
      "pitchwheel channel=1 pitch=0 time=1\n",
      "pitchwheel channel=1 pitch=512 time=12\n",
      "pitchwheel channel=1 pitch=1024 time=1\n",
      "pitchwheel channel=1 pitch=1152 time=1\n",
      "note_on channel=1 note=40 velocity=0 time=0\n",
      "pitchwheel channel=1 pitch=1280 time=1\n",
      "pitchwheel channel=1 pitch=0 time=1\n",
      "note_on channel=1 note=40 velocity=108 time=0\n",
      "note_on channel=1 note=46 velocity=0 time=3\n",
      "note_on channel=1 note=40 velocity=0 time=4\n",
      "note_on channel=1 note=40 velocity=107 time=13\n",
      "note_on channel=1 note=52 velocity=113 time=19\n",
      "note_on channel=1 note=40 velocity=0 time=8\n",
      "note_on channel=1 note=52 velocity=0 time=10\n",
      "note_on channel=1 note=40 velocity=105 time=1\n",
      "note_on channel=1 note=40 velocity=0 time=6\n",
      "note_on channel=1 note=40 velocity=111 time=13\n",
      "note_on channel=1 note=50 velocity=110 time=19\n",
      "note_on channel=1 note=40 velocity=0 time=3\n",
      "note_on channel=1 note=40 velocity=111 time=16\n",
      "note_on channel=1 note=50 velocity=0 time=0\n",
      "note_on channel=1 note=40 velocity=0 time=8\n",
      "note_on channel=1 note=40 velocity=114 time=11\n",
      "note_on channel=1 note=48 velocity=118 time=19\n",
      "note_on channel=1 note=40 velocity=0 time=2\n",
      "note_on channel=1 note=48 velocity=0 time=17\n",
      "note_on channel=1 note=40 velocity=106 time=0\n",
      "note_on channel=1 note=40 velocity=0 time=7\n",
      "note_on channel=1 note=40 velocity=108 time=12\n",
      "note_on channel=1 note=46 velocity=115 time=19\n",
      "note_on channel=1 note=40 velocity=0 time=1\n",
      "note_on channel=1 note=40 velocity=111 time=19\n",
      "note_on channel=1 note=46 velocity=0 time=2\n",
      "note_on channel=1 note=40 velocity=0 time=4\n",
      "note_on channel=1 note=40 velocity=111 time=13\n",
      "note_on channel=1 note=47 velocity=110 time=19\n",
      "note_on channel=1 note=47 velocity=0 time=19\n",
      "note_on channel=1 note=48 velocity=111 time=0\n",
      "note_on channel=1 note=40 velocity=0 time=11\n",
      "note_on channel=1 note=48 velocity=0 time=7\n",
      "note_on channel=1 note=40 velocity=110 time=1\n",
      "note_on channel=1 note=40 velocity=0 time=6\n",
      "note_on channel=1 note=40 velocity=108 time=13\n",
      "note_on channel=1 note=52 velocity=117 time=19\n",
      "note_on channel=1 note=40 velocity=0 time=14\n",
      "note_on channel=1 note=40 velocity=111 time=5\n",
      "note_on channel=1 note=52 velocity=0 time=3\n",
      "note_on channel=1 note=40 velocity=0 time=4\n",
      "note_on channel=1 note=40 velocity=108 time=12\n",
      "note_on channel=1 note=50 velocity=110 time=19\n",
      "note_on channel=1 note=40 velocity=0 time=5\n",
      "note_on channel=1 note=50 velocity=0 time=14\n",
      "note_on channel=1 note=40 velocity=114 time=0\n",
      "note_on channel=1 note=40 velocity=0 time=6\n",
      "note_on channel=1 note=40 velocity=115 time=14\n",
      "note_on channel=1 note=40 velocity=0 time=19\n",
      "note_on channel=1 note=48 velocity=117 time=0\n",
      "note_on channel=1 note=40 velocity=111 time=19\n",
      "note_on channel=1 note=40 velocity=0 time=7\n",
      "note_on channel=1 note=48 velocity=0 time=2\n",
      "note_on channel=1 note=40 velocity=114 time=10\n",
      "note_on channel=1 note=46 velocity=114 time=19\n",
      "pitchwheel channel=1 pitch=-256 time=7\n",
      "pitchwheel channel=1 pitch=0 time=1\n",
      "pitchwheel channel=1 pitch=128 time=1\n",
      "pitchwheel channel=1 pitch=512 time=1\n",
      "pitchwheel channel=1 pitch=768 time=1\n",
      "pitchwheel channel=1 pitch=1280 time=1\n",
      "pitchwheel channel=1 pitch=1536 time=1\n",
      "pitchwheel channel=1 pitch=1792 time=1\n",
      "pitchwheel channel=1 pitch=1408 time=1\n",
      "pitchwheel channel=1 pitch=256 time=1\n",
      "pitchwheel channel=1 pitch=384 time=10\n",
      "pitchwheel channel=1 pitch=640 time=1\n",
      "pitchwheel channel=1 pitch=384 time=1\n",
      "pitchwheel channel=1 pitch=1024 time=1\n",
      "pitchwheel channel=1 pitch=1152 time=1\n",
      "pitchwheel channel=1 pitch=1280 time=1\n",
      "pitchwheel channel=1 pitch=1408 time=1\n",
      "pitchwheel channel=1 pitch=2048 time=1\n",
      "pitchwheel channel=1 pitch=1920 time=2\n",
      "pitchwheel channel=1 pitch=1280 time=1\n",
      "pitchwheel channel=1 pitch=128 time=1\n",
      "pitchwheel channel=1 pitch=384 time=11\n",
      "pitchwheel channel=1 pitch=768 time=1\n",
      "pitchwheel channel=1 pitch=896 time=1\n",
      "pitchwheel channel=1 pitch=1280 time=1\n",
      "pitchwheel channel=1 pitch=1536 time=2\n",
      "pitchwheel channel=1 pitch=1920 time=1\n",
      "pitchwheel channel=1 pitch=1536 time=1\n",
      "pitchwheel channel=1 pitch=896 time=1\n",
      "pitchwheel channel=1 pitch=384 time=1\n",
      "pitchwheel channel=1 pitch=0 time=1\n",
      "pitchwheel channel=1 pitch=768 time=12\n",
      "pitchwheel channel=1 pitch=1152 time=1\n",
      "pitchwheel channel=1 pitch=1408 time=1\n",
      "pitchwheel channel=1 pitch=1664 time=1\n",
      "pitchwheel channel=1 pitch=1792 time=1\n",
      "pitchwheel channel=1 pitch=1536 time=1\n",
      "pitchwheel channel=1 pitch=1664 time=1\n",
      "pitchwheel channel=1 pitch=512 time=2\n",
      "pitchwheel channel=1 pitch=0 time=1\n",
      "pitchwheel channel=1 pitch=512 time=12\n",
      "pitchwheel channel=1 pitch=1024 time=1\n",
      "pitchwheel channel=1 pitch=1152 time=1\n",
      "note_on channel=1 note=40 velocity=0 time=0\n",
      "pitchwheel channel=1 pitch=1280 time=1\n",
      "pitchwheel channel=1 pitch=0 time=1\n",
      "note_on channel=1 note=46 velocity=0 time=0\n",
      "note_on channel=1 note=49 velocity=108 time=0\n",
      "note_on channel=1 note=49 velocity=0 time=6\n",
      "note_on channel=1 note=49 velocity=114 time=13\n",
      "note_on channel=1 note=61 velocity=114 time=20\n",
      "note_on channel=1 note=49 velocity=0 time=2\n",
      "note_on channel=1 note=61 velocity=0 time=16\n",
      "note_on channel=1 note=49 velocity=110 time=1\n",
      "note_on channel=1 note=49 velocity=0 time=6\n",
      "note_on channel=1 note=49 velocity=110 time=13\n",
      "note_on channel=1 note=59 velocity=111 time=19\n",
      "note_on channel=1 note=49 velocity=0 time=2\n",
      "note_on channel=1 note=59 velocity=0 time=15\n",
      "note_on channel=1 note=49 velocity=104 time=2\n",
      "note_on channel=1 note=49 velocity=0 time=6\n",
      "note_on channel=1 note=49 velocity=111 time=13\n",
      "note_on channel=1 note=57 velocity=116 time=19\n",
      "note_on channel=1 note=49 velocity=0 time=0\n",
      "note_on channel=1 note=57 velocity=0 time=18\n",
      "note_on channel=1 note=49 velocity=108 time=1\n",
      "note_on channel=1 note=49 velocity=0 time=6\n",
      "note_on channel=1 note=49 velocity=110 time=13\n",
      "note_on channel=1 note=55 velocity=110 time=19\n",
      "note_on channel=1 note=49 velocity=0 time=2\n",
      "note_on channel=1 note=55 velocity=0 time=17\n",
      "note_on channel=1 note=49 velocity=110 time=0\n",
      "note_on channel=1 note=49 velocity=0 time=8\n",
      "note_on channel=1 note=49 velocity=111 time=12\n",
      "note_on channel=1 note=56 velocity=110 time=19\n",
      "note_on channel=1 note=56 velocity=0 time=18\n",
      "note_on channel=1 note=57 velocity=117 time=1\n",
      "note_on channel=1 note=49 velocity=0 time=13\n",
      "note_on channel=1 note=57 velocity=0 time=4\n",
      "note_on channel=1 note=47 velocity=111 time=2\n",
      "note_on channel=1 note=47 velocity=0 time=4\n",
      "note_on channel=1 note=47 velocity=111 time=15\n",
      "note_on channel=1 note=59 velocity=114 time=19\n",
      "note_on channel=1 note=47 velocity=0 time=4\n",
      "note_on channel=1 note=59 velocity=0 time=13\n",
      "note_on channel=1 note=47 velocity=106 time=2\n",
      "note_on channel=1 note=47 velocity=0 time=6\n",
      "note_on channel=1 note=47 velocity=108 time=13\n",
      "note_on channel=1 note=57 velocity=106 time=19\n",
      "note_on channel=1 note=47 velocity=0 time=3\n",
      "note_on channel=1 note=57 velocity=0 time=16\n",
      "note_on channel=1 note=47 velocity=114 time=0\n",
      "note_on channel=1 note=47 velocity=0 time=7\n",
      "note_on channel=1 note=47 velocity=106 time=12\n",
      "note_on channel=1 note=55 velocity=117 time=20\n",
      "note_on channel=1 note=47 velocity=0 time=1\n",
      "note_on channel=1 note=55 velocity=0 time=14\n",
      "note_on channel=1 note=46 velocity=111 time=4\n",
      "note_on channel=1 note=46 velocity=0 time=7\n",
      "note_on channel=1 note=45 velocity=114 time=12\n",
      "note_on channel=1 note=53 velocity=114 time=19\n",
      "pitchwheel channel=1 pitch=-256 time=7\n",
      "pitchwheel channel=1 pitch=0 time=1\n",
      "pitchwheel channel=1 pitch=128 time=1\n",
      "pitchwheel channel=1 pitch=512 time=1\n",
      "pitchwheel channel=1 pitch=768 time=1\n",
      "pitchwheel channel=1 pitch=1280 time=1\n",
      "pitchwheel channel=1 pitch=1536 time=1\n",
      "pitchwheel channel=1 pitch=1792 time=1\n",
      "pitchwheel channel=1 pitch=1408 time=1\n",
      "pitchwheel channel=1 pitch=256 time=1\n",
      "pitchwheel channel=1 pitch=384 time=10\n",
      "pitchwheel channel=1 pitch=640 time=1\n",
      "pitchwheel channel=1 pitch=512 time=1\n",
      "pitchwheel channel=1 pitch=1408 time=1\n",
      "pitchwheel channel=1 pitch=1152 time=1\n",
      "pitchwheel channel=1 pitch=1280 time=1\n",
      "pitchwheel channel=1 pitch=1408 time=1\n",
      "pitchwheel channel=1 pitch=2048 time=1\n",
      "pitchwheel channel=1 pitch=1920 time=2\n",
      "pitchwheel channel=1 pitch=896 time=1\n",
      "pitchwheel channel=1 pitch=0 time=1\n",
      "pitchwheel channel=1 pitch=128 time=11\n",
      "pitchwheel channel=1 pitch=768 time=1\n",
      "pitchwheel channel=1 pitch=896 time=1\n",
      "pitchwheel channel=1 pitch=1280 time=1\n",
      "pitchwheel channel=1 pitch=1536 time=2\n",
      "pitchwheel channel=1 pitch=1920 time=1\n",
      "pitchwheel channel=1 pitch=1536 time=1\n",
      "pitchwheel channel=1 pitch=896 time=1\n",
      "pitchwheel channel=1 pitch=384 time=1\n",
      "pitchwheel channel=1 pitch=0 time=1\n",
      "pitchwheel channel=1 pitch=768 time=12\n",
      "pitchwheel channel=1 pitch=1152 time=1\n",
      "pitchwheel channel=1 pitch=1408 time=1\n",
      "pitchwheel channel=1 pitch=1664 time=1\n",
      "pitchwheel channel=1 pitch=1792 time=1\n",
      "pitchwheel channel=1 pitch=1536 time=1\n",
      "pitchwheel channel=1 pitch=1664 time=1\n",
      "pitchwheel channel=1 pitch=512 time=2\n",
      "pitchwheel channel=1 pitch=0 time=1\n",
      "pitchwheel channel=1 pitch=512 time=12\n",
      "pitchwheel channel=1 pitch=1024 time=1\n",
      "pitchwheel channel=1 pitch=1152 time=1\n",
      "note_on channel=1 note=45 velocity=0 time=0\n",
      "pitchwheel channel=1 pitch=1280 time=1\n",
      "pitchwheel channel=1 pitch=0 time=1\n",
      "note_on channel=1 note=40 velocity=108 time=0\n",
      "note_on channel=1 note=53 velocity=0 time=3\n",
      "note_on channel=1 note=40 velocity=0 time=4\n",
      "note_on channel=1 note=40 velocity=107 time=12\n",
      "note_on channel=1 note=52 velocity=113 time=19\n",
      "note_on channel=1 note=40 velocity=0 time=9\n",
      "note_on channel=1 note=52 velocity=0 time=10\n",
      "note_on channel=1 note=40 velocity=105 time=1\n",
      "note_on channel=1 note=40 velocity=0 time=6\n",
      "note_on channel=1 note=40 velocity=111 time=13\n",
      "note_on channel=1 note=50 velocity=110 time=19\n",
      "note_on channel=1 note=40 velocity=0 time=3\n",
      "note_on channel=1 note=40 velocity=111 time=16\n",
      "note_on channel=1 note=50 velocity=0 time=0\n",
      "note_on channel=1 note=40 velocity=0 time=8\n",
      "note_on channel=1 note=40 velocity=114 time=11\n",
      "note_on channel=1 note=48 velocity=118 time=19\n",
      "note_on channel=1 note=40 velocity=0 time=1\n",
      "note_on channel=1 note=48 velocity=0 time=18\n",
      "note_on channel=1 note=40 velocity=106 time=0\n",
      "note_on channel=1 note=40 velocity=0 time=6\n",
      "note_on channel=1 note=40 velocity=108 time=13\n",
      "note_on channel=1 note=46 velocity=115 time=19\n",
      "note_on channel=1 note=40 velocity=0 time=1\n",
      "note_on channel=1 note=40 velocity=111 time=18\n",
      "note_on channel=1 note=46 velocity=0 time=3\n",
      "note_on channel=1 note=40 velocity=0 time=4\n",
      "note_on channel=1 note=40 velocity=111 time=12\n",
      "note_on channel=1 note=47 velocity=110 time=20\n",
      "note_on channel=1 note=47 velocity=0 time=18\n",
      "note_on channel=1 note=48 velocity=111 time=1\n",
      "note_on channel=1 note=40 velocity=0 time=10\n",
      "note_on channel=1 note=48 velocity=0 time=8\n",
      "note_on channel=1 note=40 velocity=110 time=1\n",
      "note_on channel=1 note=40 velocity=0 time=6\n",
      "note_on channel=1 note=40 velocity=108 time=13\n",
      "note_on channel=1 note=52 velocity=117 time=19\n",
      "note_on channel=1 note=40 velocity=0 time=14\n",
      "note_on channel=1 note=40 velocity=111 time=5\n",
      "note_on channel=1 note=52 velocity=0 time=2\n",
      "note_on channel=1 note=40 velocity=0 time=5\n",
      "note_on channel=1 note=40 velocity=108 time=12\n",
      "note_on channel=1 note=50 velocity=110 time=19\n",
      "note_on channel=1 note=40 velocity=0 time=5\n",
      "note_on channel=1 note=50 velocity=0 time=14\n",
      "note_on channel=1 note=40 velocity=114 time=0\n",
      "note_on channel=1 note=40 velocity=0 time=6\n",
      "note_on channel=1 note=40 velocity=115 time=13\n",
      "note_on channel=1 note=40 velocity=0 time=19\n",
      "note_on channel=1 note=64 velocity=112 time=0\n",
      "note_on channel=1 note=64 velocity=0 time=10\n",
      "note_on channel=1 note=67 velocity=105 time=0\n",
      "note_on channel=1 note=67 velocity=0 time=10\n",
      "note_on channel=1 note=59 velocity=112 time=0\n",
      "note_on channel=1 note=59 velocity=0 time=9\n",
      "note_on channel=1 note=55 velocity=103 time=0\n",
      "note_on channel=1 note=55 velocity=0 time=10\n",
      "note_on channel=1 note=64 velocity=111 time=0\n",
      "note_on channel=1 note=64 velocity=0 time=9\n",
      "note_on channel=1 note=59 velocity=102 time=0\n",
      "note_on channel=1 note=59 velocity=0 time=10\n",
      "note_on channel=1 note=67 velocity=113 time=0\n",
      "note_on channel=1 note=67 velocity=0 time=9\n",
      "note_on channel=1 note=64 velocity=103 time=0\n",
      "note_on channel=1 note=64 velocity=0 time=10\n",
      "note_on channel=1 note=67 velocity=111 time=0\n",
      "note_on channel=1 note=67 velocity=0 time=9\n",
      "note_on channel=1 note=64 velocity=101 time=0\n",
      "note_on channel=1 note=64 velocity=0 time=10\n",
      "note_on channel=1 note=59 velocity=112 time=0\n",
      "note_on channel=1 note=59 velocity=0 time=9\n",
      "note_on channel=1 note=55 velocity=103 time=0\n",
      "note_on channel=1 note=55 velocity=0 time=10\n",
      "note_on channel=1 note=64 velocity=110 time=0\n",
      "note_on channel=1 note=64 velocity=0 time=10\n",
      "note_on channel=1 note=67 velocity=100 time=0\n",
      "note_on channel=1 note=67 velocity=0 time=9\n",
      "note_on channel=1 note=71 velocity=113 time=0\n",
      "note_on channel=1 note=71 velocity=0 time=10\n",
      "note_on channel=1 note=76 velocity=103 time=0\n",
      "note_on channel=1 note=76 velocity=0 time=9\n",
      "note_on channel=1 note=40 velocity=108 time=0\n",
      "note_on channel=1 note=40 velocity=0 time=6\n",
      "note_on channel=1 note=40 velocity=114 time=13\n",
      "note_on channel=1 note=52 velocity=114 time=19\n",
      "note_on channel=1 note=40 velocity=0 time=3\n",
      "note_on channel=1 note=52 velocity=0 time=16\n",
      "note_on channel=1 note=40 velocity=110 time=0\n",
      "note_on channel=1 note=40 velocity=0 time=6\n",
      "note_on channel=1 note=40 velocity=110 time=14\n",
      "note_on channel=1 note=50 velocity=111 time=19\n",
      "note_on channel=1 note=40 velocity=0 time=2\n",
      "note_on channel=1 note=50 velocity=0 time=15\n",
      "note_on channel=1 note=40 velocity=104 time=2\n",
      "note_on channel=1 note=40 velocity=0 time=6\n",
      "note_on channel=1 note=40 velocity=111 time=13\n",
      "note_on channel=1 note=48 velocity=116 time=19\n",
      "note_on channel=1 note=40 velocity=0 time=0\n",
      "note_on channel=1 note=48 velocity=0 time=18\n",
      "note_on channel=1 note=40 velocity=108 time=1\n",
      "note_on channel=1 note=40 velocity=0 time=6\n",
      "note_on channel=1 note=40 velocity=110 time=13\n",
      "note_on channel=1 note=46 velocity=110 time=19\n",
      "note_on channel=1 note=40 velocity=0 time=2\n",
      "note_on channel=1 note=46 velocity=0 time=17\n",
      "note_on channel=1 note=40 velocity=110 time=0\n",
      "note_on channel=1 note=40 velocity=0 time=8\n",
      "note_on channel=1 note=40 velocity=111 time=11\n",
      "note_on channel=1 note=47 velocity=110 time=19\n",
      "note_on channel=1 note=47 velocity=0 time=19\n",
      "note_on channel=1 note=48 velocity=117 time=1\n",
      "note_on channel=1 note=40 velocity=0 time=12\n",
      "note_on channel=1 note=48 velocity=0 time=4\n",
      "note_on channel=1 note=40 velocity=111 time=3\n",
      "note_on channel=1 note=40 velocity=0 time=3\n",
      "note_on channel=1 note=40 velocity=111 time=16\n",
      "note_on channel=1 note=52 velocity=114 time=19\n",
      "note_on channel=1 note=40 velocity=0 time=4\n",
      "note_on channel=1 note=52 velocity=0 time=13\n",
      "note_on channel=1 note=40 velocity=106 time=2\n",
      "note_on channel=1 note=40 velocity=0 time=6\n",
      "note_on channel=1 note=40 velocity=108 time=13\n",
      "note_on channel=1 note=50 velocity=106 time=19\n",
      "note_on channel=1 note=40 velocity=0 time=3\n",
      "note_on channel=1 note=50 velocity=0 time=16\n",
      "note_on channel=1 note=40 velocity=114 time=0\n",
      "note_on channel=1 note=40 velocity=0 time=6\n",
      "note_on channel=1 note=40 velocity=106 time=13\n",
      "note_on channel=1 note=48 velocity=117 time=19\n",
      "note_on channel=1 note=40 velocity=0 time=1\n",
      "note_on channel=1 note=48 velocity=0 time=15\n",
      "note_on channel=1 note=40 velocity=111 time=3\n",
      "note_on channel=1 note=40 velocity=0 time=7\n",
      "note_on channel=1 note=40 velocity=114 time=13\n",
      "note_on channel=1 note=46 velocity=114 time=19\n",
      "pitchwheel channel=1 pitch=-256 time=7\n",
      "pitchwheel channel=1 pitch=128 time=2\n",
      "pitchwheel channel=1 pitch=512 time=1\n",
      "pitchwheel channel=1 pitch=896 time=1\n",
      "pitchwheel channel=1 pitch=1408 time=1\n",
      "pitchwheel channel=1 pitch=1536 time=1\n",
      "pitchwheel channel=1 pitch=1792 time=1\n",
      "pitchwheel channel=1 pitch=1408 time=1\n",
      "pitchwheel channel=1 pitch=256 time=1\n",
      "pitchwheel channel=1 pitch=384 time=10\n",
      "pitchwheel channel=1 pitch=640 time=1\n",
      "pitchwheel channel=1 pitch=512 time=1\n",
      "pitchwheel channel=1 pitch=1408 time=1\n",
      "pitchwheel channel=1 pitch=1152 time=1\n",
      "pitchwheel channel=1 pitch=1280 time=1\n",
      "pitchwheel channel=1 pitch=2048 time=2\n",
      "pitchwheel channel=1 pitch=1920 time=1\n",
      "pitchwheel channel=1 pitch=1536 time=1\n",
      "pitchwheel channel=1 pitch=896 time=1\n",
      "pitchwheel channel=1 pitch=0 time=1\n",
      "pitchwheel channel=1 pitch=128 time=11\n",
      "pitchwheel channel=1 pitch=768 time=1\n",
      "pitchwheel channel=1 pitch=1152 time=1\n",
      "pitchwheel channel=1 pitch=1024 time=1\n",
      "pitchwheel channel=1 pitch=1280 time=1\n",
      "pitchwheel channel=1 pitch=1536 time=1\n",
      "pitchwheel channel=1 pitch=2048 time=1\n",
      "pitchwheel channel=1 pitch=1920 time=1\n",
      "pitchwheel channel=1 pitch=896 time=1\n",
      "pitchwheel channel=1 pitch=384 time=1\n",
      "pitchwheel channel=1 pitch=0 time=1\n",
      "pitchwheel channel=1 pitch=768 time=12\n",
      "pitchwheel channel=1 pitch=1152 time=1\n",
      "pitchwheel channel=1 pitch=1408 time=1\n",
      "pitchwheel channel=1 pitch=1920 time=1\n",
      "pitchwheel channel=1 pitch=1792 time=1\n",
      "pitchwheel channel=1 pitch=1664 time=1\n",
      "pitchwheel channel=1 pitch=512 time=3\n",
      "pitchwheel channel=1 pitch=0 time=1\n",
      "pitchwheel channel=1 pitch=512 time=12\n",
      "pitchwheel channel=1 pitch=1024 time=1\n",
      "pitchwheel channel=1 pitch=1152 time=1\n",
      "note_on channel=1 note=40 velocity=0 time=0\n",
      "pitchwheel channel=1 pitch=1280 time=0\n",
      "pitchwheel channel=1 pitch=1536 time=1\n",
      "pitchwheel channel=1 pitch=0 time=1\n",
      "note_on channel=1 note=40 velocity=108 time=0\n",
      "note_on channel=1 note=46 velocity=0 time=3\n",
      "note_on channel=1 note=40 velocity=0 time=4\n",
      "note_on channel=1 note=40 velocity=107 time=12\n",
      "note_on channel=1 note=52 velocity=113 time=19\n",
      "note_on channel=1 note=40 velocity=0 time=9\n",
      "note_on channel=1 note=52 velocity=0 time=10\n",
      "note_on channel=1 note=40 velocity=105 time=0\n",
      "note_on channel=1 note=40 velocity=0 time=7\n",
      "note_on channel=1 note=40 velocity=111 time=12\n",
      "note_on channel=1 note=50 velocity=110 time=20\n",
      "note_on channel=1 note=40 velocity=0 time=3\n",
      "note_on channel=1 note=40 velocity=111 time=16\n",
      "note_on channel=1 note=50 velocity=0 time=0\n",
      "note_on channel=1 note=40 velocity=0 time=7\n",
      "note_on channel=1 note=40 velocity=114 time=12\n",
      "note_on channel=1 note=48 velocity=118 time=19\n",
      "note_on channel=1 note=40 velocity=0 time=1\n",
      "note_on channel=1 note=48 velocity=0 time=17\n",
      "note_on channel=1 note=40 velocity=106 time=1\n",
      "note_on channel=1 note=40 velocity=0 time=6\n",
      "note_on channel=1 note=40 velocity=108 time=13\n",
      "note_on channel=1 note=46 velocity=115 time=19\n",
      "note_on channel=1 note=40 velocity=0 time=1\n",
      "note_on channel=1 note=40 velocity=111 time=18\n",
      "note_on channel=1 note=46 velocity=0 time=3\n",
      "note_on channel=1 note=40 velocity=0 time=3\n",
      "note_on channel=1 note=40 velocity=111 time=13\n",
      "note_on channel=1 note=47 velocity=110 time=19\n",
      "note_on channel=1 note=47 velocity=0 time=19\n",
      "note_on channel=1 note=48 velocity=111 time=0\n",
      "note_on channel=1 note=40 velocity=0 time=11\n",
      "note_on channel=1 note=48 velocity=0 time=8\n",
      "note_on channel=1 note=40 velocity=110 time=1\n",
      "note_on channel=1 note=40 velocity=0 time=6\n",
      "note_on channel=1 note=40 velocity=108 time=13\n",
      "note_on channel=1 note=52 velocity=117 time=19\n",
      "note_on channel=1 note=40 velocity=0 time=14\n",
      "note_on channel=1 note=40 velocity=111 time=5\n",
      "note_on channel=1 note=52 velocity=0 time=2\n",
      "note_on channel=1 note=40 velocity=0 time=5\n",
      "note_on channel=1 note=40 velocity=108 time=12\n",
      "note_on channel=1 note=50 velocity=110 time=19\n",
      "note_on channel=1 note=40 velocity=0 time=5\n",
      "note_on channel=1 note=50 velocity=0 time=14\n",
      "note_on channel=1 note=40 velocity=114 time=0\n",
      "note_on channel=1 note=40 velocity=0 time=6\n",
      "note_on channel=1 note=40 velocity=115 time=13\n",
      "note_on channel=1 note=40 velocity=0 time=12\n",
      "note_on channel=1 note=63 velocity=112 time=7\n",
      "note_on channel=1 note=63 velocity=0 time=10\n",
      "note_on channel=1 note=60 velocity=105 time=0\n",
      "note_on channel=1 note=60 velocity=0 time=9\n",
      "note_on channel=1 note=59 velocity=112 time=0\n",
      "note_on channel=1 note=59 velocity=0 time=10\n",
      "note_on channel=1 note=54 velocity=103 time=0\n",
      "note_on channel=1 note=54 velocity=0 time=9\n",
      "note_on channel=1 note=66 velocity=111 time=0\n",
      "note_on channel=1 note=66 velocity=0 time=10\n",
      "note_on channel=1 note=63 velocity=102 time=0\n",
      "note_on channel=1 note=63 velocity=0 time=10\n",
      "note_on channel=1 note=59 velocity=113 time=0\n",
      "note_on channel=1 note=59 velocity=0 time=9\n",
      "note_on channel=1 note=57 velocity=103 time=0\n",
      "note_on channel=1 note=57 velocity=0 time=10\n",
      "note_on channel=1 note=69 velocity=111 time=0\n",
      "note_on channel=1 note=69 velocity=0 time=9\n",
      "note_on channel=1 note=66 velocity=101 time=0\n",
      "note_on channel=1 note=66 velocity=0 time=10\n",
      "note_on channel=1 note=63 velocity=112 time=0\n",
      "note_on channel=1 note=63 velocity=0 time=9\n",
      "note_on channel=1 note=59 velocity=103 time=0\n",
      "note_on channel=1 note=59 velocity=0 time=10\n",
      "note_on channel=1 note=71 velocity=110 time=0\n",
      "note_on channel=1 note=71 velocity=0 time=9\n",
      "note_on channel=1 note=69 velocity=100 time=0\n",
      "note_on channel=1 note=69 velocity=0 time=10\n",
      "note_on channel=1 note=66 velocity=113 time=0\n",
      "note_on channel=1 note=66 velocity=0 time=9\n",
      "note_on channel=1 note=63 velocity=103 time=0\n",
      "note_on channel=1 note=63 velocity=0 time=10\n",
      "note_on channel=1 note=40 velocity=108 time=0\n",
      "note_on channel=1 note=40 velocity=0 time=5\n",
      "note_on channel=1 note=40 velocity=114 time=14\n",
      "note_on channel=1 note=55 velocity=114 time=19\n",
      "note_on channel=1 note=40 velocity=0 time=3\n",
      "note_on channel=1 note=55 velocity=0 time=16\n",
      "note_on channel=1 note=40 velocity=110 time=0\n",
      "note_on channel=1 note=40 velocity=0 time=6\n",
      "note_on channel=1 note=40 velocity=110 time=13\n",
      "note_on channel=1 note=54 velocity=111 time=19\n",
      "note_on channel=1 note=40 velocity=0 time=3\n",
      "note_on channel=1 note=54 velocity=0 time=15\n",
      "note_on channel=1 note=40 velocity=104 time=2\n",
      "note_on channel=1 note=40 velocity=0 time=6\n",
      "note_on channel=1 note=40 velocity=111 time=13\n",
      "note_on channel=1 note=51 velocity=116 time=19\n",
      "note_on channel=1 note=40 velocity=0 time=0\n",
      "note_on channel=1 note=51 velocity=0 time=18\n",
      "note_on channel=1 note=40 velocity=108 time=1\n",
      "note_on channel=1 note=40 velocity=0 time=6\n",
      "note_on channel=1 note=40 velocity=110 time=13\n",
      "note_on channel=1 note=50 velocity=110 time=19\n",
      "note_on channel=1 note=40 velocity=0 time=1\n",
      "note_on channel=1 note=50 velocity=0 time=17\n",
      "note_on channel=1 note=40 velocity=110 time=1\n",
      "note_on channel=1 note=40 velocity=0 time=8\n",
      "note_on channel=1 note=40 velocity=111 time=11\n",
      "note_on channel=1 note=50 velocity=110 time=19\n",
      "note_on channel=1 note=50 velocity=0 time=19\n",
      "note_on channel=1 note=52 velocity=117 time=0\n",
      "note_on channel=1 note=40 velocity=0 time=13\n",
      "note_on channel=1 note=52 velocity=0 time=4\n",
      "note_on channel=1 note=40 velocity=111 time=2\n",
      "note_on channel=1 note=40 velocity=0 time=4\n",
      "note_on channel=1 note=40 velocity=111 time=16\n",
      "note_on channel=1 note=55 velocity=114 time=19\n",
      "note_on channel=1 note=40 velocity=0 time=4\n",
      "note_on channel=1 note=55 velocity=0 time=13\n",
      "note_on channel=1 note=40 velocity=106 time=2\n",
      "note_on channel=1 note=40 velocity=0 time=6\n",
      "note_on channel=1 note=40 velocity=108 time=13\n",
      "note_on channel=1 note=54 velocity=106 time=19\n",
      "note_on channel=1 note=40 velocity=0 time=3\n",
      "note_on channel=1 note=54 velocity=0 time=16\n",
      "note_on channel=1 note=40 velocity=114 time=0\n",
      "note_on channel=1 note=40 velocity=0 time=6\n",
      "note_on channel=1 note=40 velocity=106 time=13\n",
      "note_on channel=1 note=52 velocity=117 time=19\n",
      "note_on channel=1 note=40 velocity=0 time=1\n",
      "note_on channel=1 note=52 velocity=0 time=15\n",
      "note_on channel=1 note=40 velocity=111 time=3\n",
      "note_on channel=1 note=40 velocity=0 time=7\n",
      "note_on channel=1 note=40 velocity=114 time=12\n",
      "note_on channel=1 note=49 velocity=114 time=19\n",
      "pitchwheel channel=1 pitch=-256 time=7\n",
      "pitchwheel channel=1 pitch=-384 time=1\n",
      "pitchwheel channel=1 pitch=128 time=2\n",
      "pitchwheel channel=1 pitch=512 time=1\n",
      "pitchwheel channel=1 pitch=896 time=1\n",
      "pitchwheel channel=1 pitch=1408 time=1\n",
      "pitchwheel channel=1 pitch=1664 time=1\n",
      "pitchwheel channel=1 pitch=1536 time=1\n",
      "pitchwheel channel=1 pitch=768 time=1\n",
      "pitchwheel channel=1 pitch=0 time=1\n",
      "pitchwheel channel=1 pitch=384 time=10\n",
      "pitchwheel channel=1 pitch=512 time=2\n",
      "pitchwheel channel=1 pitch=1408 time=1\n",
      "pitchwheel channel=1 pitch=1152 time=1\n",
      "pitchwheel channel=1 pitch=1280 time=1\n",
      "pitchwheel channel=1 pitch=2048 time=2\n",
      "pitchwheel channel=1 pitch=1920 time=1\n",
      "pitchwheel channel=1 pitch=1536 time=1\n",
      "pitchwheel channel=1 pitch=384 time=1\n",
      "pitchwheel channel=1 pitch=128 time=12\n",
      "pitchwheel channel=1 pitch=768 time=1\n",
      "pitchwheel channel=1 pitch=1152 time=1\n",
      "pitchwheel channel=1 pitch=1024 time=1\n",
      "pitchwheel channel=1 pitch=1280 time=1\n",
      "pitchwheel channel=1 pitch=1536 time=1\n",
      "pitchwheel channel=1 pitch=2048 time=1\n",
      "pitchwheel channel=1 pitch=1536 time=1\n",
      "pitchwheel channel=1 pitch=768 time=1\n",
      "pitchwheel channel=1 pitch=128 time=1\n",
      "pitchwheel channel=1 pitch=768 time=12\n",
      "pitchwheel channel=1 pitch=1024 time=1\n",
      "pitchwheel channel=1 pitch=1408 time=2\n",
      "pitchwheel channel=1 pitch=1920 time=1\n",
      "pitchwheel channel=1 pitch=1792 time=1\n",
      "pitchwheel channel=1 pitch=1664 time=1\n",
      "pitchwheel channel=1 pitch=512 time=2\n",
      "pitchwheel channel=1 pitch=128 time=1\n",
      "pitchwheel channel=1 pitch=512 time=12\n",
      "pitchwheel channel=1 pitch=640 time=1\n",
      "pitchwheel channel=1 pitch=1152 time=1\n",
      "note_on channel=1 note=40 velocity=0 time=1\n",
      "pitchwheel channel=1 pitch=1280 time=0\n",
      "pitchwheel channel=1 pitch=1536 time=1\n",
      "pitchwheel channel=1 pitch=0 time=1\n",
      "note_on channel=1 note=49 velocity=0 time=0\n",
      "note_on channel=1 note=40 velocity=108 time=0\n",
      "note_on channel=1 note=40 velocity=0 time=6\n",
      "note_on channel=1 note=40 velocity=107 time=13\n",
      "note_on channel=1 note=55 velocity=113 time=19\n",
      "note_on channel=1 note=40 velocity=0 time=8\n",
      "note_on channel=1 note=55 velocity=0 time=11\n",
      "note_on channel=1 note=40 velocity=105 time=0\n",
      "note_on channel=1 note=40 velocity=0 time=7\n",
      "note_on channel=1 note=40 velocity=111 time=12\n",
      "note_on channel=1 note=54 velocity=110 time=19\n",
      "note_on channel=1 note=40 velocity=0 time=3\n",
      "note_on channel=1 note=40 velocity=111 time=16\n",
      "note_on channel=1 note=54 velocity=0 time=1\n",
      "note_on channel=1 note=40 velocity=0 time=7\n",
      "note_on channel=1 note=40 velocity=114 time=12\n",
      "note_on channel=1 note=51 velocity=118 time=19\n",
      "note_on channel=1 note=40 velocity=0 time=1\n",
      "note_on channel=1 note=51 velocity=0 time=17\n",
      "note_on channel=1 note=40 velocity=106 time=1\n",
      "note_on channel=1 note=40 velocity=0 time=6\n",
      "note_on channel=1 note=40 velocity=108 time=13\n",
      "note_on channel=1 note=50 velocity=115 time=19\n",
      "note_on channel=1 note=40 velocity=0 time=1\n",
      "note_on channel=1 note=40 velocity=111 time=18\n",
      "note_on channel=1 note=50 velocity=0 time=2\n",
      "note_on channel=1 note=40 velocity=0 time=4\n",
      "note_on channel=1 note=40 velocity=111 time=13\n",
      "note_on channel=1 note=50 velocity=110 time=19\n",
      "note_on channel=1 note=50 velocity=0 time=19\n",
      "note_on channel=1 note=52 velocity=111 time=0\n",
      "note_on channel=1 note=40 velocity=0 time=11\n",
      "note_on channel=1 note=52 velocity=0 time=8\n",
      "note_on channel=1 note=40 velocity=110 time=0\n",
      "note_on channel=1 note=40 velocity=0 time=7\n",
      "note_on channel=1 note=40 velocity=108 time=12\n",
      "note_on channel=1 note=55 velocity=117 time=20\n",
      "note_on channel=1 note=40 velocity=0 time=14\n",
      "note_on channel=1 note=40 velocity=111 time=5\n",
      "note_on channel=1 note=55 velocity=0 time=2\n",
      "note_on channel=1 note=40 velocity=0 time=4\n",
      "note_on channel=1 note=40 velocity=108 time=13\n",
      "note_on channel=1 note=54 velocity=110 time=19\n",
      "note_on channel=1 note=40 velocity=0 time=5\n",
      "note_on channel=1 note=54 velocity=0 time=14\n",
      "note_on channel=1 note=40 velocity=114 time=0\n",
      "note_on channel=1 note=40 velocity=0 time=6\n",
      "note_on channel=1 note=40 velocity=115 time=13\n",
      "note_on channel=1 note=40 velocity=0 time=11\n",
      "note_on channel=1 note=76 velocity=103 time=8\n",
      "note_on channel=1 note=76 velocity=0 time=10\n",
      "note_on channel=1 note=71 velocity=113 time=0\n",
      "note_on channel=1 note=71 velocity=0 time=9\n",
      "note_on channel=1 note=67 velocity=100 time=0\n",
      "note_on channel=1 note=67 velocity=0 time=10\n",
      "note_on channel=1 note=64 velocity=110 time=0\n",
      "note_on channel=1 note=64 velocity=0 time=9\n",
      "note_on channel=1 note=71 velocity=103 time=0\n",
      "note_on channel=1 note=71 velocity=0 time=10\n",
      "note_on channel=1 note=76 velocity=112 time=0\n",
      "note_on channel=1 note=76 velocity=0 time=9\n",
      "note_on channel=1 note=71 velocity=101 time=0\n",
      "note_on channel=1 note=71 velocity=0 time=10\n",
      "note_on channel=1 note=67 velocity=111 time=0\n",
      "note_on channel=1 note=67 velocity=0 time=9\n",
      "note_on channel=1 note=64 velocity=103 time=0\n",
      "note_on channel=1 note=64 velocity=0 time=10\n",
      "note_on channel=1 note=67 velocity=113 time=0\n",
      "note_on channel=1 note=67 velocity=0 time=10\n",
      "note_on channel=1 note=71 velocity=102 time=0\n",
      "note_on channel=1 note=71 velocity=0 time=9\n",
      "note_on channel=1 note=67 velocity=111 time=0\n",
      "note_on channel=1 note=67 velocity=0 time=10\n",
      "note_on channel=1 note=76 velocity=103 time=0\n",
      "note_on channel=1 note=76 velocity=0 time=9\n",
      "note_on channel=1 note=71 velocity=112 time=0\n",
      "note_on channel=1 note=71 velocity=0 time=10\n",
      "note_on channel=1 note=67 velocity=105 time=0\n",
      "note_on channel=1 note=67 velocity=0 time=9\n",
      "note_on channel=1 note=64 velocity=112 time=0\n",
      "note_on channel=1 note=64 velocity=0 time=10\n",
      "note_on channel=1 note=45 velocity=108 time=0\n",
      "note_on channel=1 note=45 velocity=0 time=5\n",
      "note_on channel=1 note=45 velocity=114 time=14\n",
      "note_on channel=1 note=60 velocity=114 time=19\n",
      "note_on channel=1 note=45 velocity=0 time=3\n",
      "note_on channel=1 note=60 velocity=0 time=16\n",
      "note_on channel=1 note=45 velocity=110 time=0\n",
      "note_on channel=1 note=45 velocity=0 time=6\n",
      "note_on channel=1 note=45 velocity=110 time=13\n",
      "note_on channel=1 note=59 velocity=111 time=19\n",
      "note_on channel=1 note=45 velocity=0 time=3\n",
      "note_on channel=1 note=59 velocity=0 time=14\n",
      "note_on channel=1 note=45 velocity=104 time=2\n",
      "note_on channel=1 note=45 velocity=0 time=7\n",
      "note_on channel=1 note=45 velocity=111 time=12\n",
      "note_on channel=1 note=56 velocity=116 time=20\n",
      "note_on channel=1 note=45 velocity=0 time=0\n",
      "note_on channel=1 note=56 velocity=0 time=18\n",
      "note_on channel=1 note=45 velocity=108 time=1\n",
      "note_on channel=1 note=45 velocity=0 time=6\n",
      "note_on channel=1 note=45 velocity=110 time=13\n",
      "note_on channel=1 note=55 velocity=110 time=19\n",
      "note_on channel=1 note=45 velocity=0 time=1\n",
      "note_on channel=1 note=55 velocity=0 time=17\n",
      "note_on channel=1 note=45 velocity=110 time=1\n",
      "note_on channel=1 note=45 velocity=0 time=8\n",
      "note_on channel=1 note=45 velocity=111 time=11\n",
      "note_on channel=1 note=55 velocity=110 time=19\n",
      "note_on channel=1 note=55 velocity=0 time=18\n",
      "note_on channel=1 note=57 velocity=117 time=1\n",
      "note_on channel=1 note=45 velocity=0 time=13\n",
      "note_on channel=1 note=57 velocity=0 time=4\n",
      "note_on channel=1 note=45 velocity=111 time=2\n",
      "note_on channel=1 note=45 velocity=0 time=4\n",
      "note_on channel=1 note=45 velocity=111 time=15\n",
      "note_on channel=1 note=60 velocity=114 time=19\n",
      "note_on channel=1 note=45 velocity=0 time=4\n",
      "note_on channel=1 note=60 velocity=0 time=14\n",
      "note_on channel=1 note=45 velocity=106 time=2\n",
      "note_on channel=1 note=45 velocity=0 time=6\n",
      "note_on channel=1 note=45 velocity=108 time=13\n",
      "note_on channel=1 note=59 velocity=106 time=19\n",
      "note_on channel=1 note=45 velocity=0 time=2\n",
      "note_on channel=1 note=59 velocity=0 time=16\n",
      "note_on channel=1 note=45 velocity=114 time=1\n",
      "note_on channel=1 note=45 velocity=0 time=6\n",
      "note_on channel=1 note=45 velocity=106 time=13\n",
      "note_on channel=1 note=57 velocity=117 time=19\n",
      "note_on channel=1 note=45 velocity=0 time=1\n",
      "note_on channel=1 note=57 velocity=0 time=15\n",
      "note_on channel=1 note=45 velocity=111 time=3\n",
      "note_on channel=1 note=45 velocity=0 time=7\n",
      "note_on channel=1 note=45 velocity=114 time=12\n",
      "note_on channel=1 note=55 velocity=114 time=19\n",
      "pitchwheel channel=1 pitch=-256 time=7\n",
      "pitchwheel channel=1 pitch=-384 time=1\n",
      "pitchwheel channel=1 pitch=128 time=2\n",
      "pitchwheel channel=1 pitch=768 time=1\n",
      "pitchwheel channel=1 pitch=896 time=1\n",
      "pitchwheel channel=1 pitch=1536 time=1\n",
      "pitchwheel channel=1 pitch=1920 time=1\n",
      "pitchwheel channel=1 pitch=1536 time=1\n",
      "pitchwheel channel=1 pitch=768 time=1\n",
      "pitchwheel channel=1 pitch=0 time=1\n",
      "pitchwheel channel=1 pitch=384 time=10\n",
      "pitchwheel channel=1 pitch=512 time=2\n",
      "pitchwheel channel=1 pitch=1024 time=1\n",
      "pitchwheel channel=1 pitch=1152 time=1\n",
      "pitchwheel channel=1 pitch=1408 time=1\n",
      "pitchwheel channel=1 pitch=2048 time=2\n",
      "pitchwheel channel=1 pitch=1920 time=1\n",
      "pitchwheel channel=1 pitch=1280 time=1\n",
      "pitchwheel channel=1 pitch=128 time=1\n",
      "pitchwheel channel=1 pitch=384 time=12\n",
      "pitchwheel channel=1 pitch=768 time=1\n",
      "pitchwheel channel=1 pitch=1152 time=1\n",
      "pitchwheel channel=1 pitch=1024 time=1\n",
      "pitchwheel channel=1 pitch=1280 time=1\n",
      "pitchwheel channel=1 pitch=1920 time=1\n",
      "pitchwheel channel=1 pitch=1536 time=1\n",
      "pitchwheel channel=1 pitch=1280 time=1\n",
      "pitchwheel channel=1 pitch=768 time=1\n",
      "pitchwheel channel=1 pitch=128 time=1\n",
      "pitchwheel channel=1 pitch=768 time=12\n",
      "pitchwheel channel=1 pitch=1024 time=1\n",
      "pitchwheel channel=1 pitch=1408 time=2\n",
      "pitchwheel channel=1 pitch=1920 time=1\n",
      "pitchwheel channel=1 pitch=1536 time=1\n",
      "pitchwheel channel=1 pitch=1792 time=1\n",
      "pitchwheel channel=1 pitch=512 time=2\n",
      "pitchwheel channel=1 pitch=0 time=1\n",
      "pitchwheel channel=1 pitch=512 time=12\n",
      "pitchwheel channel=1 pitch=640 time=1\n",
      "pitchwheel channel=1 pitch=1152 time=1\n",
      "note_on channel=1 note=45 velocity=0 time=0\n",
      "pitchwheel channel=1 pitch=1280 time=1\n",
      "pitchwheel channel=1 pitch=1408 time=1\n",
      "pitchwheel channel=1 pitch=0 time=1\n",
      "note_on channel=1 note=45 velocity=108 time=0\n",
      "note_on channel=1 note=55 velocity=0 time=3\n",
      "note_on channel=1 note=45 velocity=0 time=3\n",
      "note_on channel=1 note=45 velocity=107 time=13\n",
      "note_on channel=1 note=60 velocity=113 time=19\n",
      "note_on channel=1 note=45 velocity=0 time=8\n",
      "note_on channel=1 note=60 velocity=0 time=10\n",
      "note_on channel=1 note=45 velocity=105 time=1\n",
      "note_on channel=1 note=45 velocity=0 time=6\n",
      "note_on channel=1 note=45 velocity=111 time=13\n",
      "note_on channel=1 note=59 velocity=110 time=19\n",
      "note_on channel=1 note=45 velocity=0 time=3\n",
      "note_on channel=1 note=45 velocity=111 time=16\n",
      "note_on channel=1 note=59 velocity=0 time=0\n",
      "note_on channel=1 note=45 velocity=0 time=8\n",
      "note_on channel=1 note=45 velocity=114 time=11\n",
      "note_on channel=1 note=56 velocity=118 time=19\n",
      "note_on channel=1 note=45 velocity=0 time=2\n",
      "note_on channel=1 note=56 velocity=0 time=17\n",
      "note_on channel=1 note=45 velocity=106 time=1\n",
      "note_on channel=1 note=45 velocity=0 time=6\n",
      "note_on channel=1 note=45 velocity=108 time=13\n",
      "note_on channel=1 note=55 velocity=115 time=19\n",
      "note_on channel=1 note=45 velocity=0 time=1\n",
      "note_on channel=1 note=45 velocity=111 time=18\n",
      "note_on channel=1 note=55 velocity=0 time=2\n",
      "note_on channel=1 note=45 velocity=0 time=4\n",
      "note_on channel=1 note=45 velocity=111 time=13\n",
      "note_on channel=1 note=55 velocity=110 time=19\n",
      "note_on channel=1 note=55 velocity=0 time=19\n",
      "note_on channel=1 note=57 velocity=111 time=0\n",
      "note_on channel=1 note=45 velocity=0 time=11\n",
      "note_on channel=1 note=57 velocity=0 time=8\n",
      "note_on channel=1 note=45 velocity=110 time=0\n",
      "note_on channel=1 note=45 velocity=0 time=7\n",
      "note_on channel=1 note=45 velocity=108 time=12\n",
      "note_on channel=1 note=60 velocity=117 time=19\n",
      "note_on channel=1 note=45 velocity=0 time=15\n",
      "note_on channel=1 note=45 velocity=111 time=4\n",
      "note_on channel=1 note=60 velocity=0 time=3\n",
      "note_on channel=1 note=45 velocity=0 time=4\n",
      "note_on channel=1 note=45 velocity=108 time=13\n",
      "note_on channel=1 note=59 velocity=110 time=19\n",
      "note_on channel=1 note=45 velocity=0 time=5\n",
      "note_on channel=1 note=59 velocity=0 time=14\n",
      "note_on channel=1 note=45 velocity=114 time=0\n",
      "note_on channel=1 note=45 velocity=0 time=5\n",
      "note_on channel=1 note=45 velocity=115 time=14\n",
      "note_on channel=1 note=45 velocity=0 time=11\n",
      "note_on channel=1 note=64 velocity=112 time=8\n",
      "note_on channel=1 note=64 velocity=0 time=9\n",
      "note_on channel=1 note=62 velocity=105 time=0\n",
      "note_on channel=1 note=62 velocity=0 time=10\n",
      "note_on channel=1 note=60 velocity=112 time=0\n",
      "note_on channel=1 note=60 velocity=0 time=10\n",
      "note_on channel=1 note=64 velocity=103 time=0\n",
      "note_on channel=1 note=64 velocity=0 time=9\n",
      "note_on channel=1 note=60 velocity=111 time=0\n",
      "note_on channel=1 note=60 velocity=0 time=10\n",
      "note_on channel=1 note=57 velocity=102 time=0\n",
      "note_on channel=1 note=57 velocity=0 time=9\n",
      "note_on channel=1 note=60 velocity=113 time=0\n",
      "note_on channel=1 note=60 velocity=0 time=10\n",
      "note_on channel=1 note=64 velocity=103 time=0\n",
      "note_on channel=1 note=64 velocity=0 time=9\n",
      "note_on channel=1 note=69 velocity=111 time=0\n",
      "note_on channel=1 note=69 velocity=0 time=10\n",
      "note_on channel=1 note=64 velocity=101 time=0\n",
      "note_on channel=1 note=64 velocity=0 time=9\n",
      "note_on channel=1 note=60 velocity=112 time=0\n",
      "note_on channel=1 note=60 velocity=0 time=10\n",
      "note_on channel=1 note=64 velocity=103 time=0\n",
      "note_on channel=1 note=64 velocity=0 time=9\n",
      "note_on channel=1 note=60 velocity=110 time=0\n",
      "note_on channel=1 note=60 velocity=0 time=10\n",
      "note_on channel=1 note=64 velocity=100 time=0\n",
      "note_on channel=1 note=64 velocity=0 time=10\n",
      "note_on channel=1 note=60 velocity=113 time=0\n",
      "note_on channel=1 note=60 velocity=0 time=9\n",
      "note_on channel=1 note=57 velocity=103 time=0\n",
      "note_on channel=1 note=57 velocity=0 time=10\n",
      "note_on channel=1 note=40 velocity=108 time=0\n",
      "note_on channel=1 note=40 velocity=0 time=5\n",
      "note_on channel=1 note=40 velocity=114 time=14\n",
      "note_on channel=1 note=55 velocity=114 time=19\n",
      "note_on channel=1 note=40 velocity=0 time=2\n",
      "note_on channel=1 note=55 velocity=0 time=16\n",
      "note_on channel=1 note=40 velocity=110 time=1\n",
      "note_on channel=1 note=40 velocity=0 time=6\n",
      "note_on channel=1 note=40 velocity=110 time=13\n",
      "note_on channel=1 note=54 velocity=111 time=19\n",
      "note_on channel=1 note=40 velocity=0 time=3\n",
      "note_on channel=1 note=54 velocity=0 time=14\n",
      "note_on channel=1 note=40 velocity=104 time=2\n",
      "note_on channel=1 note=40 velocity=0 time=7\n",
      "note_on channel=1 note=40 velocity=111 time=12\n",
      "note_on channel=1 note=51 velocity=116 time=19\n",
      "note_on channel=1 note=40 velocity=0 time=1\n",
      "note_on channel=1 note=51 velocity=0 time=18\n",
      "note_on channel=1 note=40 velocity=108 time=0\n",
      "note_on channel=1 note=40 velocity=0 time=7\n",
      "note_on channel=1 note=40 velocity=110 time=13\n",
      "note_on channel=1 note=50 velocity=110 time=19\n",
      "note_on channel=1 note=40 velocity=0 time=1\n",
      "note_on channel=1 note=50 velocity=0 time=17\n",
      "note_on channel=1 note=40 velocity=110 time=1\n",
      "note_on channel=1 note=40 velocity=0 time=8\n",
      "note_on channel=1 note=40 velocity=111 time=11\n",
      "note_on channel=1 note=50 velocity=110 time=19\n",
      "note_on channel=1 note=50 velocity=0 time=18\n",
      "note_on channel=1 note=52 velocity=117 time=1\n",
      "note_on channel=1 note=40 velocity=0 time=13\n",
      "note_on channel=1 note=52 velocity=0 time=4\n",
      "note_on channel=1 note=40 velocity=111 time=2\n",
      "note_on channel=1 note=40 velocity=0 time=4\n",
      "note_on channel=1 note=40 velocity=111 time=15\n",
      "note_on channel=1 note=55 velocity=114 time=19\n",
      "note_on channel=1 note=40 velocity=0 time=4\n",
      "note_on channel=1 note=55 velocity=0 time=14\n",
      "note_on channel=1 note=40 velocity=106 time=1\n",
      "note_on channel=1 note=40 velocity=0 time=6\n",
      "note_on channel=1 note=40 velocity=108 time=13\n",
      "note_on channel=1 note=54 velocity=106 time=20\n",
      "note_on channel=1 note=40 velocity=0 time=2\n",
      "note_on channel=1 note=54 velocity=0 time=16\n",
      "note_on channel=1 note=40 velocity=114 time=1\n",
      "note_on channel=1 note=40 velocity=0 time=6\n",
      "note_on channel=1 note=40 velocity=106 time=13\n",
      "note_on channel=1 note=52 velocity=117 time=19\n",
      "note_on channel=1 note=40 velocity=0 time=1\n",
      "note_on channel=1 note=52 velocity=0 time=15\n",
      "note_on channel=1 note=40 velocity=111 time=3\n",
      "note_on channel=1 note=40 velocity=0 time=7\n",
      "note_on channel=1 note=40 velocity=114 time=12\n",
      "note_on channel=1 note=49 velocity=114 time=19\n",
      "pitchwheel channel=1 pitch=-256 time=7\n",
      "pitchwheel channel=1 pitch=0 time=1\n",
      "pitchwheel channel=1 pitch=128 time=1\n",
      "pitchwheel channel=1 pitch=512 time=1\n",
      "pitchwheel channel=1 pitch=768 time=1\n",
      "pitchwheel channel=1 pitch=896 time=1\n",
      "pitchwheel channel=1 pitch=1536 time=1\n",
      "pitchwheel channel=1 pitch=1920 time=1\n",
      "pitchwheel channel=1 pitch=1536 time=1\n",
      "pitchwheel channel=1 pitch=768 time=1\n",
      "pitchwheel channel=1 pitch=384 time=10\n",
      "pitchwheel channel=1 pitch=640 time=1\n",
      "pitchwheel channel=1 pitch=384 time=1\n",
      "pitchwheel channel=1 pitch=1024 time=1\n",
      "pitchwheel channel=1 pitch=1152 time=2\n",
      "pitchwheel channel=1 pitch=1408 time=1\n",
      "pitchwheel channel=1 pitch=2048 time=1\n",
      "pitchwheel channel=1 pitch=1920 time=2\n",
      "pitchwheel channel=1 pitch=1280 time=1\n",
      "pitchwheel channel=1 pitch=128 time=1\n",
      "pitchwheel channel=1 pitch=384 time=12\n",
      "pitchwheel channel=1 pitch=896 time=1\n",
      "pitchwheel channel=1 pitch=1280 time=1\n",
      "pitchwheel channel=1 pitch=1536 time=2\n",
      "pitchwheel channel=1 pitch=1920 time=1\n",
      "pitchwheel channel=1 pitch=1536 time=1\n",
      "pitchwheel channel=1 pitch=1280 time=1\n",
      "pitchwheel channel=1 pitch=384 time=1\n",
      "pitchwheel channel=1 pitch=0 time=1\n",
      "pitchwheel channel=1 pitch=768 time=12\n",
      "pitchwheel channel=1 pitch=1024 time=1\n",
      "pitchwheel channel=1 pitch=1408 time=2\n",
      "pitchwheel channel=1 pitch=1792 time=1\n",
      "pitchwheel channel=1 pitch=1536 time=1\n",
      "pitchwheel channel=1 pitch=1664 time=1\n",
      "pitchwheel channel=1 pitch=512 time=2\n",
      "pitchwheel channel=1 pitch=0 time=1\n",
      "pitchwheel channel=1 pitch=512 time=12\n",
      "pitchwheel channel=1 pitch=1024 time=1\n",
      "pitchwheel channel=1 pitch=1152 time=1\n",
      "note_on channel=1 note=40 velocity=0 time=0\n",
      "pitchwheel channel=1 pitch=1280 time=1\n",
      "pitchwheel channel=1 pitch=1408 time=1\n",
      "pitchwheel channel=1 pitch=0 time=1\n",
      "note_on channel=1 note=40 velocity=108 time=0\n",
      "note_on channel=1 note=49 velocity=0 time=3\n",
      "note_on channel=1 note=40 velocity=0 time=3\n",
      "note_on channel=1 note=40 velocity=107 time=13\n",
      "note_on channel=1 note=55 velocity=113 time=19\n",
      "note_on channel=1 note=40 velocity=0 time=8\n",
      "note_on channel=1 note=55 velocity=0 time=10\n",
      "note_on channel=1 note=40 velocity=105 time=1\n",
      "note_on channel=1 note=40 velocity=0 time=6\n",
      "note_on channel=1 note=40 velocity=111 time=13\n",
      "note_on channel=1 note=54 velocity=110 time=19\n",
      "note_on channel=1 note=40 velocity=0 time=3\n",
      "note_on channel=1 note=40 velocity=111 time=16\n",
      "note_on channel=1 note=54 velocity=0 time=0\n",
      "note_on channel=1 note=40 velocity=0 time=8\n",
      "note_on channel=1 note=40 velocity=114 time=11\n",
      "note_on channel=1 note=51 velocity=118 time=19\n",
      "note_on channel=1 note=40 velocity=0 time=2\n",
      "note_on channel=1 note=51 velocity=0 time=17\n",
      "note_on channel=1 note=40 velocity=106 time=0\n",
      "note_on channel=1 note=40 velocity=0 time=7\n",
      "note_on channel=1 note=40 velocity=108 time=12\n",
      "note_on channel=1 note=50 velocity=115 time=20\n",
      "note_on channel=1 note=40 velocity=0 time=1\n",
      "note_on channel=1 note=40 velocity=111 time=18\n",
      "note_on channel=1 note=50 velocity=0 time=2\n",
      "note_on channel=1 note=40 velocity=0 time=4\n",
      "note_on channel=1 note=40 velocity=111 time=13\n",
      "note_on channel=1 note=50 velocity=110 time=19\n",
      "note_on channel=1 note=50 velocity=0 time=19\n",
      "note_on channel=1 note=52 velocity=111 time=0\n",
      "note_on channel=1 note=40 velocity=0 time=11\n",
      "note_on channel=1 note=52 velocity=0 time=7\n",
      "note_on channel=1 note=40 velocity=110 time=1\n",
      "note_on channel=1 note=40 velocity=0 time=7\n",
      "note_on channel=1 note=40 velocity=108 time=12\n",
      "note_on channel=1 note=55 velocity=117 time=19\n",
      "note_on channel=1 note=40 velocity=0 time=14\n",
      "note_on channel=1 note=40 velocity=111 time=5\n",
      "note_on channel=1 note=55 velocity=0 time=3\n",
      "note_on channel=1 note=40 velocity=0 time=4\n",
      "note_on channel=1 note=40 velocity=108 time=12\n",
      "note_on channel=1 note=54 velocity=110 time=19\n",
      "note_on channel=1 note=40 velocity=0 time=5\n",
      "note_on channel=1 note=54 velocity=0 time=15\n",
      "note_on channel=1 note=40 velocity=114 time=0\n",
      "note_on channel=1 note=40 velocity=0 time=5\n",
      "note_on channel=1 note=40 velocity=115 time=14\n",
      "note_on channel=1 note=40 velocity=0 time=19\n",
      "note_on channel=1 note=52 velocity=117 time=0\n",
      "note_on channel=1 note=40 velocity=111 time=19\n",
      "note_on channel=1 note=40 velocity=0 time=7\n",
      "note_on channel=1 note=52 velocity=0 time=2\n",
      "note_on channel=1 note=40 velocity=114 time=10\n",
      "note_on channel=1 note=49 velocity=114 time=19\n",
      "pitchwheel channel=1 pitch=-256 time=7\n",
      "pitchwheel channel=1 pitch=0 time=1\n",
      "pitchwheel channel=1 pitch=128 time=1\n",
      "pitchwheel channel=1 pitch=512 time=1\n",
      "pitchwheel channel=1 pitch=768 time=1\n",
      "pitchwheel channel=1 pitch=896 time=1\n",
      "pitchwheel channel=1 pitch=1536 time=1\n",
      "pitchwheel channel=1 pitch=1920 time=1\n",
      "pitchwheel channel=1 pitch=1536 time=1\n",
      "pitchwheel channel=1 pitch=768 time=1\n",
      "pitchwheel channel=1 pitch=384 time=10\n",
      "pitchwheel channel=1 pitch=640 time=1\n",
      "pitchwheel channel=1 pitch=384 time=1\n",
      "pitchwheel channel=1 pitch=1024 time=1\n",
      "pitchwheel channel=1 pitch=1152 time=1\n",
      "pitchwheel channel=1 pitch=1280 time=1\n",
      "pitchwheel channel=1 pitch=1408 time=1\n",
      "pitchwheel channel=1 pitch=2048 time=1\n",
      "pitchwheel channel=1 pitch=1920 time=2\n",
      "pitchwheel channel=1 pitch=1280 time=1\n",
      "pitchwheel channel=1 pitch=128 time=1\n",
      "pitchwheel channel=1 pitch=384 time=12\n",
      "pitchwheel channel=1 pitch=896 time=1\n",
      "pitchwheel channel=1 pitch=1280 time=1\n",
      "pitchwheel channel=1 pitch=1536 time=2\n",
      "pitchwheel channel=1 pitch=1920 time=1\n",
      "pitchwheel channel=1 pitch=1536 time=1\n",
      "pitchwheel channel=1 pitch=1280 time=1\n",
      "pitchwheel channel=1 pitch=384 time=1\n",
      "pitchwheel channel=1 pitch=0 time=1\n",
      "pitchwheel channel=1 pitch=768 time=12\n",
      "pitchwheel channel=1 pitch=1152 time=1\n",
      "pitchwheel channel=1 pitch=1408 time=1\n",
      "pitchwheel channel=1 pitch=1664 time=1\n",
      "pitchwheel channel=1 pitch=1792 time=1\n",
      "pitchwheel channel=1 pitch=1536 time=1\n",
      "pitchwheel channel=1 pitch=1664 time=1\n",
      "pitchwheel channel=1 pitch=512 time=2\n",
      "pitchwheel channel=1 pitch=0 time=1\n",
      "pitchwheel channel=1 pitch=512 time=12\n",
      "pitchwheel channel=1 pitch=1024 time=1\n",
      "pitchwheel channel=1 pitch=1152 time=1\n",
      "note_on channel=1 note=40 velocity=0 time=0\n",
      "pitchwheel channel=1 pitch=1280 time=1\n",
      "pitchwheel channel=1 pitch=0 time=1\n",
      "note_on channel=1 note=49 velocity=0 time=0\n",
      "note_on channel=1 note=49 velocity=108 time=0\n",
      "note_on channel=1 note=49 velocity=0 time=6\n",
      "note_on channel=1 note=49 velocity=114 time=14\n",
      "note_on channel=1 note=67 velocity=114 time=19\n",
      "note_on channel=1 note=49 velocity=0 time=2\n",
      "note_on channel=1 note=67 velocity=0 time=16\n",
      "note_on channel=1 note=49 velocity=110 time=1\n",
      "note_on channel=1 note=49 velocity=0 time=6\n",
      "note_on channel=1 note=49 velocity=110 time=13\n",
      "note_on channel=1 note=66 velocity=111 time=19\n",
      "note_on channel=1 note=49 velocity=0 time=2\n",
      "note_on channel=1 note=66 velocity=0 time=15\n",
      "note_on channel=1 note=49 velocity=104 time=2\n",
      "note_on channel=1 note=49 velocity=0 time=6\n",
      "note_on channel=1 note=49 velocity=111 time=13\n",
      "note_on channel=1 note=64 velocity=116 time=19\n",
      "note_on channel=1 note=49 velocity=0 time=0\n",
      "note_on channel=1 note=64 velocity=0 time=19\n",
      "note_on channel=1 note=49 velocity=108 time=0\n",
      "note_on channel=1 note=49 velocity=0 time=6\n",
      "note_on channel=1 note=49 velocity=110 time=13\n",
      "note_on channel=1 note=61 velocity=110 time=19\n",
      "note_on channel=1 note=49 velocity=0 time=2\n",
      "note_on channel=1 note=61 velocity=0 time=17\n",
      "note_on channel=1 note=49 velocity=110 time=1\n",
      "note_on channel=1 note=49 velocity=0 time=8\n",
      "note_on channel=1 note=49 velocity=111 time=11\n",
      "note_on channel=1 note=61 velocity=110 time=19\n",
      "note_on channel=1 note=61 velocity=0 time=18\n",
      "note_on channel=1 note=64 velocity=117 time=1\n",
      "note_on channel=1 note=49 velocity=0 time=13\n",
      "note_on channel=1 note=64 velocity=0 time=4\n",
      "note_on channel=1 note=47 velocity=111 time=2\n",
      "note_on channel=1 note=47 velocity=0 time=4\n",
      "note_on channel=1 note=47 velocity=111 time=15\n",
      "note_on channel=1 note=66 velocity=114 time=19\n",
      "note_on channel=1 note=47 velocity=0 time=4\n",
      "note_on channel=1 note=66 velocity=0 time=13\n",
      "note_on channel=1 note=47 velocity=106 time=2\n",
      "note_on channel=1 note=47 velocity=0 time=6\n",
      "note_on channel=1 note=47 velocity=108 time=13\n",
      "note_on channel=1 note=64 velocity=106 time=19\n",
      "note_on channel=1 note=47 velocity=0 time=3\n",
      "note_on channel=1 note=64 velocity=0 time=16\n",
      "note_on channel=1 note=47 velocity=114 time=0\n",
      "note_on channel=1 note=47 velocity=0 time=7\n",
      "note_on channel=1 note=47 velocity=106 time=13\n",
      "note_on channel=1 note=63 velocity=117 time=19\n",
      "note_on channel=1 note=47 velocity=0 time=1\n",
      "note_on channel=1 note=63 velocity=0 time=15\n",
      "note_on channel=1 note=46 velocity=111 time=3\n",
      "note_on channel=1 note=46 velocity=0 time=7\n",
      "note_on channel=1 note=45 velocity=114 time=12\n",
      "note_on channel=1 note=59 velocity=114 time=19\n",
      "pitchwheel channel=1 pitch=-256 time=7\n",
      "pitchwheel channel=1 pitch=0 time=1\n",
      "pitchwheel channel=1 pitch=128 time=1\n",
      "pitchwheel channel=1 pitch=512 time=1\n",
      "pitchwheel channel=1 pitch=768 time=1\n",
      "pitchwheel channel=1 pitch=1280 time=1\n",
      "pitchwheel channel=1 pitch=1536 time=1\n",
      "pitchwheel channel=1 pitch=1792 time=1\n",
      "pitchwheel channel=1 pitch=1408 time=1\n",
      "pitchwheel channel=1 pitch=256 time=1\n",
      "pitchwheel channel=1 pitch=384 time=10\n",
      "pitchwheel channel=1 pitch=640 time=1\n",
      "pitchwheel channel=1 pitch=384 time=1\n",
      "pitchwheel channel=1 pitch=1024 time=1\n",
      "pitchwheel channel=1 pitch=1152 time=1\n",
      "pitchwheel channel=1 pitch=1280 time=1\n",
      "pitchwheel channel=1 pitch=1408 time=1\n",
      "pitchwheel channel=1 pitch=2048 time=1\n",
      "pitchwheel channel=1 pitch=1920 time=2\n",
      "pitchwheel channel=1 pitch=1280 time=1\n",
      "pitchwheel channel=1 pitch=128 time=1\n",
      "pitchwheel channel=1 pitch=384 time=11\n",
      "pitchwheel channel=1 pitch=768 time=1\n",
      "pitchwheel channel=1 pitch=896 time=1\n",
      "pitchwheel channel=1 pitch=1280 time=1\n",
      "pitchwheel channel=1 pitch=1536 time=2\n",
      "pitchwheel channel=1 pitch=1920 time=1\n",
      "pitchwheel channel=1 pitch=1536 time=1\n",
      "pitchwheel channel=1 pitch=896 time=1\n",
      "pitchwheel channel=1 pitch=384 time=1\n",
      "pitchwheel channel=1 pitch=0 time=1\n",
      "pitchwheel channel=1 pitch=768 time=12\n",
      "pitchwheel channel=1 pitch=1152 time=1\n",
      "pitchwheel channel=1 pitch=1408 time=1\n",
      "pitchwheel channel=1 pitch=1664 time=1\n",
      "pitchwheel channel=1 pitch=1792 time=1\n",
      "pitchwheel channel=1 pitch=1536 time=1\n",
      "pitchwheel channel=1 pitch=1664 time=1\n",
      "pitchwheel channel=1 pitch=512 time=2\n",
      "pitchwheel channel=1 pitch=0 time=1\n",
      "pitchwheel channel=1 pitch=512 time=12\n",
      "pitchwheel channel=1 pitch=1024 time=1\n",
      "pitchwheel channel=1 pitch=1152 time=1\n",
      "note_on channel=1 note=45 velocity=0 time=0\n",
      "pitchwheel channel=1 pitch=1280 time=1\n",
      "pitchwheel channel=1 pitch=0 time=1\n",
      "note_on channel=1 note=40 velocity=108 time=0\n",
      "note_on channel=1 note=59 velocity=0 time=3\n",
      "note_on channel=1 note=40 velocity=0 time=4\n",
      "note_on channel=1 note=40 velocity=107 time=12\n",
      "note_on channel=1 note=55 velocity=113 time=20\n",
      "note_on channel=1 note=40 velocity=0 time=8\n",
      "note_on channel=1 note=55 velocity=0 time=10\n",
      "note_on channel=1 note=40 velocity=105 time=1\n",
      "note_on channel=1 note=40 velocity=0 time=6\n",
      "note_on channel=1 note=40 velocity=111 time=13\n",
      "note_on channel=1 note=54 velocity=110 time=19\n",
      "note_on channel=1 note=40 velocity=0 time=3\n",
      "note_on channel=1 note=40 velocity=111 time=16\n",
      "note_on channel=1 note=54 velocity=0 time=0\n",
      "note_on channel=1 note=40 velocity=0 time=8\n",
      "note_on channel=1 note=40 velocity=114 time=11\n",
      "note_on channel=1 note=51 velocity=118 time=19\n",
      "note_on channel=1 note=40 velocity=0 time=2\n",
      "note_on channel=1 note=51 velocity=0 time=17\n",
      "note_on channel=1 note=40 velocity=106 time=0\n",
      "note_on channel=1 note=40 velocity=0 time=7\n",
      "note_on channel=1 note=40 velocity=108 time=12\n",
      "note_on channel=1 note=50 velocity=115 time=19\n",
      "note_on channel=1 note=40 velocity=0 time=1\n",
      "note_on channel=1 note=40 velocity=111 time=18\n",
      "note_on channel=1 note=50 velocity=0 time=3\n",
      "note_on channel=1 note=40 velocity=0 time=4\n",
      "note_on channel=1 note=40 velocity=111 time=13\n",
      "note_on channel=1 note=50 velocity=110 time=19\n",
      "note_on channel=1 note=50 velocity=0 time=19\n",
      "note_on channel=1 note=52 velocity=111 time=0\n",
      "note_on channel=1 note=40 velocity=0 time=10\n",
      "note_on channel=1 note=52 velocity=0 time=8\n",
      "note_on channel=1 note=40 velocity=110 time=1\n",
      "note_on channel=1 note=40 velocity=0 time=6\n",
      "note_on channel=1 note=40 velocity=108 time=13\n",
      "note_on channel=1 note=55 velocity=117 time=19\n",
      "note_on channel=1 note=40 velocity=0 time=14\n",
      "note_on channel=1 note=40 velocity=111 time=5\n",
      "note_on channel=1 note=55 velocity=0 time=3\n",
      "note_on channel=1 note=40 velocity=0 time=4\n",
      "note_on channel=1 note=40 velocity=108 time=12\n",
      "note_on channel=1 note=54 velocity=110 time=19\n",
      "note_on channel=1 note=40 velocity=0 time=5\n",
      "note_on channel=1 note=54 velocity=0 time=14\n",
      "note_on channel=1 note=40 velocity=114 time=0\n",
      "note_on channel=1 note=40 velocity=0 time=6\n",
      "note_on channel=1 note=40 velocity=115 time=13\n",
      "note_on channel=1 note=40 velocity=0 time=20\n",
      "note_on channel=1 note=69 velocity=112 time=0\n",
      "note_on channel=1 note=69 velocity=0 time=9\n",
      "note_on channel=1 note=66 velocity=105 time=0\n",
      "note_on channel=1 note=66 velocity=0 time=10\n",
      "note_on channel=1 note=63 velocity=112 time=0\n",
      "note_on channel=1 note=63 velocity=0 time=9\n",
      "note_on channel=1 note=59 velocity=103 time=0\n",
      "note_on channel=1 note=59 velocity=0 time=10\n",
      "note_on channel=1 note=57 velocity=111 time=0\n",
      "note_on channel=1 note=57 velocity=0 time=9\n",
      "note_on channel=1 note=54 velocity=102 time=0\n",
      "note_on channel=1 note=54 velocity=0 time=10\n",
      "note_on channel=1 note=51 velocity=113 time=0\n",
      "note_on channel=1 note=51 velocity=0 time=9\n",
      "note_on channel=1 note=47 velocity=103 time=0\n",
      "note_on channel=1 note=47 velocity=0 time=10\n",
      "note_on channel=1 note=71 velocity=111 time=0\n",
      "note_on channel=1 note=71 velocity=0 time=9\n",
      "note_on channel=1 note=69 velocity=101 time=0\n",
      "note_on channel=1 note=69 velocity=0 time=10\n",
      "note_on channel=1 note=66 velocity=112 time=0\n",
      "note_on channel=1 note=66 velocity=0 time=10\n",
      "note_on channel=1 note=63 velocity=103 time=0\n",
      "note_on channel=1 note=63 velocity=0 time=9\n",
      "note_on channel=1 note=59 velocity=110 time=0\n",
      "note_on channel=1 note=59 velocity=0 time=10\n",
      "note_on channel=1 note=57 velocity=100 time=0\n",
      "note_on channel=1 note=57 velocity=0 time=9\n",
      "note_on channel=1 note=54 velocity=113 time=0\n",
      "note_on channel=1 note=54 velocity=0 time=10\n",
      "note_on channel=1 note=51 velocity=103 time=0\n",
      "note_on channel=1 note=51 velocity=0 time=9\n",
      "<meta message end_of_track time=0>\n",
      "Track 3: \n",
      "program_change channel=2 program=34 time=0\n",
      "control_change channel=2 control=7 value=100 time=0\n",
      "control_change channel=2 control=10 value=64 time=0\n",
      "note_on channel=2 note=40 velocity=120 time=0\n",
      "note_on channel=2 note=40 velocity=0 time=13\n",
      "note_on channel=2 note=40 velocity=127 time=292\n",
      "note_on channel=2 note=40 velocity=0 time=19\n",
      "note_on channel=2 note=40 velocity=127 time=286\n",
      "note_on channel=2 note=40 velocity=0 time=14\n",
      "note_on channel=2 note=40 velocity=127 time=292\n",
      "note_on channel=2 note=40 velocity=0 time=17\n",
      "note_on channel=2 note=40 velocity=122 time=288\n",
      "note_on channel=2 note=40 velocity=0 time=16\n",
      "note_on channel=2 note=40 velocity=125 time=290\n",
      "note_on channel=2 note=40 velocity=0 time=19\n",
      "note_on channel=2 note=40 velocity=125 time=286\n",
      "note_on channel=2 note=40 velocity=0 time=21\n",
      "note_on channel=2 note=40 velocity=116 time=285\n",
      "note_on channel=2 note=40 velocity=0 time=26\n",
      "note_on channel=2 note=40 velocity=86 time=279\n",
      "note_on channel=2 note=40 velocity=0 time=14\n",
      "note_on channel=2 note=40 velocity=92 time=24\n",
      "note_on channel=2 note=40 velocity=0 time=15\n",
      "note_on channel=2 note=40 velocity=86 time=24\n",
      "note_on channel=2 note=40 velocity=0 time=15\n",
      "note_on channel=2 note=40 velocity=92 time=23\n",
      "note_on channel=2 note=40 velocity=0 time=15\n",
      "note_on channel=2 note=40 velocity=89 time=23\n",
      "note_on channel=2 note=40 velocity=0 time=16\n",
      "note_on channel=2 note=40 velocity=92 time=22\n",
      "note_on channel=2 note=40 velocity=0 time=16\n",
      "note_on channel=2 note=40 velocity=83 time=22\n",
      "note_on channel=2 note=40 velocity=0 time=16\n",
      "note_on channel=2 note=40 velocity=83 time=22\n",
      "note_on channel=2 note=40 velocity=0 time=17\n",
      "note_on channel=2 note=40 velocity=92 time=22\n",
      "note_on channel=2 note=40 velocity=0 time=16\n",
      "note_on channel=2 note=40 velocity=92 time=22\n",
      "note_on channel=2 note=40 velocity=0 time=16\n",
      "note_on channel=2 note=40 velocity=89 time=22\n",
      "note_on channel=2 note=40 velocity=0 time=15\n",
      "note_on channel=2 note=40 velocity=83 time=23\n",
      "note_on channel=2 note=40 velocity=0 time=17\n",
      "note_on channel=2 note=40 velocity=89 time=21\n",
      "note_on channel=2 note=40 velocity=0 time=16\n",
      "note_on channel=2 note=40 velocity=92 time=23\n",
      "note_on channel=2 note=40 velocity=0 time=16\n",
      "note_on channel=2 note=40 velocity=86 time=22\n",
      "note_on channel=2 note=40 velocity=0 time=16\n",
      "note_on channel=2 note=40 velocity=71 time=22\n",
      "note_on channel=2 note=40 velocity=0 time=17\n",
      "note_on channel=2 note=40 velocity=77 time=21\n",
      "note_on channel=2 note=40 velocity=0 time=18\n",
      "note_on channel=2 note=40 velocity=92 time=20\n",
      "note_on channel=2 note=40 velocity=0 time=16\n",
      "note_on channel=2 note=40 velocity=92 time=22\n",
      "note_on channel=2 note=40 velocity=0 time=17\n",
      "note_on channel=2 note=40 velocity=89 time=22\n",
      "note_on channel=2 note=40 velocity=0 time=16\n",
      "note_on channel=2 note=40 velocity=98 time=22\n",
      "note_on channel=2 note=40 velocity=0 time=16\n",
      "note_on channel=2 note=40 velocity=89 time=22\n",
      "note_on channel=2 note=40 velocity=0 time=17\n",
      "note_on channel=2 note=40 velocity=86 time=21\n",
      "note_on channel=2 note=40 velocity=0 time=15\n",
      "note_on channel=2 note=40 velocity=92 time=23\n",
      "note_on channel=2 note=40 velocity=0 time=18\n",
      "note_on channel=2 note=40 velocity=92 time=21\n",
      "note_on channel=2 note=40 velocity=0 time=16\n",
      "note_on channel=2 note=40 velocity=83 time=22\n",
      "note_on channel=2 note=40 velocity=0 time=16\n",
      "note_on channel=2 note=40 velocity=89 time=22\n",
      "note_on channel=2 note=40 velocity=0 time=17\n",
      "note_on channel=2 note=40 velocity=98 time=21\n",
      "note_on channel=2 note=40 velocity=0 time=16\n",
      "note_on channel=2 note=40 velocity=104 time=22\n",
      "note_on channel=2 note=40 velocity=0 time=17\n",
      "note_on channel=2 note=40 velocity=98 time=21\n",
      "note_on channel=2 note=40 velocity=0 time=16\n",
      "note_on channel=2 note=40 velocity=92 time=23\n",
      "note_on channel=2 note=40 velocity=0 time=15\n",
      "note_on channel=2 note=40 velocity=104 time=23\n",
      "note_on channel=2 note=40 velocity=0 time=15\n",
      "note_on channel=2 note=33 velocity=86 time=23\n",
      "note_on channel=2 note=33 velocity=0 time=14\n",
      "note_on channel=2 note=33 velocity=92 time=24\n",
      "note_on channel=2 note=33 velocity=0 time=15\n",
      "note_on channel=2 note=33 velocity=86 time=23\n",
      "note_on channel=2 note=33 velocity=0 time=15\n",
      "note_on channel=2 note=33 velocity=92 time=24\n",
      "note_on channel=2 note=33 velocity=0 time=15\n",
      "note_on channel=2 note=33 velocity=89 time=23\n",
      "note_on channel=2 note=33 velocity=0 time=16\n",
      "note_on channel=2 note=33 velocity=92 time=22\n",
      "note_on channel=2 note=33 velocity=0 time=16\n",
      "note_on channel=2 note=33 velocity=83 time=22\n",
      "note_on channel=2 note=33 velocity=0 time=16\n",
      "note_on channel=2 note=33 velocity=83 time=22\n",
      "note_on channel=2 note=33 velocity=0 time=17\n",
      "note_on channel=2 note=33 velocity=92 time=21\n",
      "note_on channel=2 note=33 velocity=0 time=17\n",
      "note_on channel=2 note=33 velocity=92 time=22\n",
      "note_on channel=2 note=33 velocity=0 time=16\n",
      "note_on channel=2 note=33 velocity=89 time=22\n",
      "note_on channel=2 note=33 velocity=0 time=15\n",
      "note_on channel=2 note=33 velocity=83 time=23\n",
      "note_on channel=2 note=33 velocity=0 time=16\n",
      "note_on channel=2 note=33 velocity=89 time=22\n",
      "note_on channel=2 note=33 velocity=0 time=16\n",
      "note_on channel=2 note=33 velocity=92 time=22\n",
      "note_on channel=2 note=33 velocity=0 time=17\n",
      "note_on channel=2 note=33 velocity=86 time=22\n",
      "note_on channel=2 note=33 velocity=0 time=16\n",
      "note_on channel=2 note=33 velocity=71 time=22\n",
      "note_on channel=2 note=33 velocity=0 time=17\n",
      "note_on channel=2 note=33 velocity=77 time=21\n",
      "note_on channel=2 note=33 velocity=0 time=18\n",
      "note_on channel=2 note=33 velocity=92 time=20\n",
      "note_on channel=2 note=33 velocity=0 time=16\n",
      "note_on channel=2 note=33 velocity=92 time=22\n",
      "note_on channel=2 note=33 velocity=0 time=17\n",
      "note_on channel=2 note=33 velocity=89 time=21\n",
      "note_on channel=2 note=33 velocity=0 time=17\n",
      "note_on channel=2 note=33 velocity=98 time=22\n",
      "note_on channel=2 note=33 velocity=0 time=16\n",
      "note_on channel=2 note=33 velocity=89 time=22\n",
      "note_on channel=2 note=33 velocity=0 time=17\n",
      "note_on channel=2 note=33 velocity=86 time=21\n",
      "note_on channel=2 note=33 velocity=0 time=15\n",
      "note_on channel=2 note=33 velocity=92 time=23\n",
      "note_on channel=2 note=33 velocity=0 time=17\n",
      "note_on channel=2 note=33 velocity=92 time=21\n",
      "note_on channel=2 note=33 velocity=0 time=17\n",
      "note_on channel=2 note=33 velocity=83 time=22\n",
      "note_on channel=2 note=33 velocity=0 time=16\n",
      "note_on channel=2 note=33 velocity=89 time=22\n",
      "note_on channel=2 note=33 velocity=0 time=17\n",
      "note_on channel=2 note=33 velocity=98 time=21\n",
      "note_on channel=2 note=33 velocity=0 time=16\n",
      "note_on channel=2 note=33 velocity=104 time=22\n",
      "note_on channel=2 note=33 velocity=0 time=17\n",
      "note_on channel=2 note=33 velocity=98 time=21\n",
      "note_on channel=2 note=33 velocity=0 time=16\n",
      "note_on channel=2 note=33 velocity=92 time=22\n",
      "note_on channel=2 note=33 velocity=0 time=16\n",
      "note_on channel=2 note=33 velocity=104 time=23\n",
      "note_on channel=2 note=33 velocity=0 time=15\n",
      "note_on channel=2 note=40 velocity=86 time=23\n",
      "note_on channel=2 note=40 velocity=0 time=14\n",
      "note_on channel=2 note=40 velocity=92 time=24\n",
      "note_on channel=2 note=40 velocity=0 time=14\n",
      "note_on channel=2 note=40 velocity=86 time=24\n",
      "note_on channel=2 note=40 velocity=0 time=15\n",
      "note_on channel=2 note=40 velocity=92 time=23\n",
      "note_on channel=2 note=40 velocity=0 time=16\n",
      "note_on channel=2 note=40 velocity=89 time=23\n",
      "note_on channel=2 note=40 velocity=0 time=16\n",
      "note_on channel=2 note=40 velocity=92 time=22\n",
      "note_on channel=2 note=40 velocity=0 time=16\n",
      "note_on channel=2 note=40 velocity=83 time=22\n",
      "note_on channel=2 note=40 velocity=0 time=16\n",
      "note_on channel=2 note=40 velocity=83 time=22\n",
      "note_on channel=2 note=40 velocity=0 time=17\n",
      "note_on channel=2 note=40 velocity=92 time=21\n",
      "note_on channel=2 note=40 velocity=0 time=16\n",
      "note_on channel=2 note=40 velocity=92 time=22\n",
      "note_on channel=2 note=40 velocity=0 time=17\n",
      "note_on channel=2 note=40 velocity=89 time=22\n",
      "note_on channel=2 note=40 velocity=0 time=15\n",
      "note_on channel=2 note=40 velocity=83 time=23\n",
      "note_on channel=2 note=40 velocity=0 time=16\n",
      "note_on channel=2 note=40 velocity=89 time=22\n",
      "note_on channel=2 note=40 velocity=0 time=16\n",
      "note_on channel=2 note=40 velocity=92 time=22\n",
      "note_on channel=2 note=40 velocity=0 time=17\n",
      "note_on channel=2 note=40 velocity=86 time=21\n",
      "note_on channel=2 note=40 velocity=0 time=17\n",
      "note_on channel=2 note=40 velocity=71 time=22\n",
      "note_on channel=2 note=40 velocity=0 time=16\n",
      "note_on channel=2 note=40 velocity=77 time=22\n",
      "note_on channel=2 note=40 velocity=0 time=18\n",
      "note_on channel=2 note=40 velocity=92 time=20\n",
      "note_on channel=2 note=40 velocity=0 time=15\n",
      "note_on channel=2 note=40 velocity=92 time=23\n",
      "note_on channel=2 note=40 velocity=0 time=17\n",
      "note_on channel=2 note=40 velocity=89 time=21\n",
      "note_on channel=2 note=40 velocity=0 time=16\n",
      "note_on channel=2 note=40 velocity=98 time=22\n",
      "note_on channel=2 note=40 velocity=0 time=17\n",
      "note_on channel=2 note=40 velocity=89 time=22\n",
      "note_on channel=2 note=40 velocity=0 time=16\n",
      "note_on channel=2 note=40 velocity=86 time=22\n",
      "note_on channel=2 note=40 velocity=0 time=15\n",
      "note_on channel=2 note=40 velocity=92 time=23\n",
      "note_on channel=2 note=40 velocity=0 time=17\n",
      "note_on channel=2 note=40 velocity=92 time=21\n",
      "note_on channel=2 note=40 velocity=0 time=17\n",
      "note_on channel=2 note=40 velocity=83 time=21\n",
      "note_on channel=2 note=40 velocity=0 time=16\n",
      "note_on channel=2 note=40 velocity=89 time=23\n",
      "note_on channel=2 note=40 velocity=0 time=17\n",
      "note_on channel=2 note=40 velocity=98 time=21\n",
      "note_on channel=2 note=40 velocity=0 time=16\n",
      "note_on channel=2 note=40 velocity=104 time=22\n",
      "note_on channel=2 note=40 velocity=0 time=17\n",
      "note_on channel=2 note=40 velocity=98 time=21\n",
      "note_on channel=2 note=40 velocity=0 time=15\n",
      "note_on channel=2 note=40 velocity=92 time=23\n",
      "note_on channel=2 note=40 velocity=0 time=16\n",
      "note_on channel=2 note=40 velocity=104 time=22\n",
      "note_on channel=2 note=40 velocity=0 time=16\n",
      "note_on channel=2 note=37 velocity=110 time=23\n",
      "note_on channel=2 note=37 velocity=0 time=19\n",
      "note_on channel=2 note=37 velocity=98 time=19\n",
      "note_on channel=2 note=37 velocity=0 time=24\n",
      "note_on channel=2 note=37 velocity=89 time=14\n",
      "note_on channel=2 note=37 velocity=0 time=24\n",
      "note_on channel=2 note=37 velocity=104 time=14\n",
      "note_on channel=2 note=37 velocity=0 time=22\n",
      "note_on channel=2 note=37 velocity=114 time=16\n",
      "note_on channel=2 note=37 velocity=0 time=22\n",
      "note_on channel=2 note=37 velocity=104 time=17\n",
      "note_on channel=2 note=37 velocity=0 time=23\n",
      "note_on channel=2 note=37 velocity=104 time=15\n",
      "note_on channel=2 note=37 velocity=0 time=24\n",
      "note_on channel=2 note=37 velocity=98 time=14\n",
      "note_on channel=2 note=37 velocity=0 time=23\n",
      "note_on channel=2 note=35 velocity=77 time=15\n",
      "note_on channel=2 note=35 velocity=0 time=25\n",
      "note_on channel=2 note=35 velocity=92 time=13\n",
      "note_on channel=2 note=35 velocity=0 time=24\n",
      "note_on channel=2 note=35 velocity=104 time=14\n",
      "note_on channel=2 note=35 velocity=0 time=23\n",
      "note_on channel=2 note=35 velocity=86 time=16\n",
      "note_on channel=2 note=35 velocity=0 time=21\n",
      "note_on channel=2 note=33 velocity=98 time=17\n",
      "note_on channel=2 note=33 velocity=0 time=23\n",
      "note_on channel=2 note=33 velocity=98 time=15\n",
      "note_on channel=2 note=33 velocity=0 time=23\n",
      "note_on channel=2 note=33 velocity=86 time=15\n",
      "note_on channel=2 note=33 velocity=0 time=23\n",
      "note_on channel=2 note=33 velocity=89 time=15\n",
      "note_on channel=2 note=33 velocity=0 time=24\n",
      "note_on channel=2 note=40 velocity=80 time=15\n",
      "note_on channel=2 note=40 velocity=0 time=22\n",
      "note_on channel=2 note=40 velocity=83 time=16\n",
      "note_on channel=2 note=40 velocity=0 time=25\n",
      "note_on channel=2 note=40 velocity=83 time=13\n",
      "note_on channel=2 note=40 velocity=0 time=23\n",
      "note_on channel=2 note=40 velocity=83 time=15\n",
      "note_on channel=2 note=40 velocity=0 time=25\n",
      "note_on channel=2 note=40 velocity=77 time=13\n",
      "note_on channel=2 note=40 velocity=0 time=24\n",
      "note_on channel=2 note=40 velocity=74 time=14\n",
      "note_on channel=2 note=40 velocity=0 time=23\n",
      "note_on channel=2 note=40 velocity=89 time=16\n",
      "note_on channel=2 note=40 velocity=0 time=24\n",
      "note_on channel=2 note=40 velocity=83 time=14\n",
      "note_on channel=2 note=40 velocity=0 time=24\n",
      "note_on channel=2 note=40 velocity=86 time=14\n",
      "note_on channel=2 note=40 velocity=0 time=22\n",
      "note_on channel=2 note=40 velocity=98 time=16\n",
      "note_on channel=2 note=40 velocity=0 time=22\n",
      "note_on channel=2 note=40 velocity=89 time=16\n",
      "note_on channel=2 note=40 velocity=0 time=24\n",
      "note_on channel=2 note=40 velocity=104 time=15\n",
      "note_on channel=2 note=40 velocity=0 time=27\n",
      "note_on channel=2 note=28 velocity=104 time=11\n",
      "note_on channel=2 note=28 velocity=0 time=19\n",
      "note_on channel=2 note=40 velocity=122 time=133\n",
      "note_on channel=2 note=40 velocity=0 time=16\n",
      "note_on channel=2 note=40 velocity=125 time=290\n",
      "note_on channel=2 note=40 velocity=0 time=19\n",
      "note_on channel=2 note=40 velocity=125 time=286\n",
      "note_on channel=2 note=40 velocity=0 time=21\n",
      "note_on channel=2 note=40 velocity=116 time=285\n",
      "note_on channel=2 note=40 velocity=0 time=26\n",
      "note_on channel=2 note=40 velocity=86 time=279\n",
      "note_on channel=2 note=40 velocity=0 time=14\n",
      "note_on channel=2 note=40 velocity=92 time=24\n",
      "note_on channel=2 note=40 velocity=0 time=15\n",
      "note_on channel=2 note=40 velocity=86 time=24\n",
      "note_on channel=2 note=40 velocity=0 time=15\n",
      "note_on channel=2 note=40 velocity=92 time=23\n",
      "note_on channel=2 note=40 velocity=0 time=15\n",
      "note_on channel=2 note=40 velocity=89 time=23\n",
      "note_on channel=2 note=40 velocity=0 time=16\n",
      "note_on channel=2 note=40 velocity=92 time=22\n",
      "note_on channel=2 note=40 velocity=0 time=16\n",
      "note_on channel=2 note=40 velocity=83 time=22\n",
      "note_on channel=2 note=40 velocity=0 time=16\n",
      "note_on channel=2 note=40 velocity=83 time=23\n",
      "note_on channel=2 note=40 velocity=0 time=16\n",
      "note_on channel=2 note=40 velocity=92 time=22\n",
      "note_on channel=2 note=40 velocity=0 time=16\n",
      "note_on channel=2 note=40 velocity=92 time=22\n",
      "note_on channel=2 note=40 velocity=0 time=17\n",
      "note_on channel=2 note=40 velocity=89 time=21\n",
      "note_on channel=2 note=40 velocity=0 time=16\n",
      "note_on channel=2 note=40 velocity=83 time=22\n",
      "note_on channel=2 note=40 velocity=0 time=17\n",
      "note_on channel=2 note=40 velocity=89 time=21\n",
      "note_on channel=2 note=40 velocity=0 time=16\n",
      "note_on channel=2 note=40 velocity=92 time=23\n",
      "note_on channel=2 note=40 velocity=0 time=16\n",
      "note_on channel=2 note=40 velocity=86 time=22\n",
      "note_on channel=2 note=40 velocity=0 time=16\n",
      "note_on channel=2 note=40 velocity=71 time=22\n",
      "note_on channel=2 note=40 velocity=0 time=17\n",
      "note_on channel=2 note=40 velocity=77 time=21\n",
      "note_on channel=2 note=40 velocity=0 time=18\n",
      "note_on channel=2 note=40 velocity=92 time=20\n",
      "note_on channel=2 note=40 velocity=0 time=16\n",
      "note_on channel=2 note=40 velocity=92 time=23\n",
      "note_on channel=2 note=40 velocity=0 time=16\n",
      "note_on channel=2 note=40 velocity=89 time=22\n",
      "note_on channel=2 note=40 velocity=0 time=16\n",
      "note_on channel=2 note=40 velocity=98 time=22\n",
      "note_on channel=2 note=40 velocity=0 time=16\n",
      "note_on channel=2 note=40 velocity=89 time=22\n",
      "note_on channel=2 note=40 velocity=0 time=17\n",
      "note_on channel=2 note=40 velocity=86 time=21\n",
      "note_on channel=2 note=40 velocity=0 time=16\n",
      "note_on channel=2 note=40 velocity=92 time=22\n",
      "note_on channel=2 note=40 velocity=0 time=18\n",
      "note_on channel=2 note=40 velocity=92 time=21\n",
      "note_on channel=2 note=40 velocity=0 time=16\n",
      "note_on channel=2 note=40 velocity=83 time=22\n",
      "note_on channel=2 note=40 velocity=0 time=16\n",
      "note_on channel=2 note=40 velocity=89 time=22\n",
      "note_on channel=2 note=40 velocity=0 time=17\n",
      "note_on channel=2 note=40 velocity=98 time=21\n",
      "note_on channel=2 note=40 velocity=0 time=16\n",
      "note_on channel=2 note=40 velocity=104 time=22\n",
      "note_on channel=2 note=40 velocity=0 time=17\n",
      "note_on channel=2 note=40 velocity=98 time=22\n",
      "note_on channel=2 note=40 velocity=0 time=15\n",
      "note_on channel=2 note=40 velocity=92 time=23\n",
      "note_on channel=2 note=40 velocity=0 time=15\n",
      "note_on channel=2 note=40 velocity=104 time=23\n",
      "note_on channel=2 note=40 velocity=0 time=16\n",
      "note_on channel=2 note=33 velocity=86 time=22\n",
      "note_on channel=2 note=33 velocity=0 time=14\n",
      "note_on channel=2 note=33 velocity=92 time=24\n",
      "note_on channel=2 note=33 velocity=0 time=15\n",
      "note_on channel=2 note=33 velocity=86 time=23\n",
      "note_on channel=2 note=33 velocity=0 time=16\n",
      "note_on channel=2 note=33 velocity=92 time=23\n",
      "note_on channel=2 note=33 velocity=0 time=15\n",
      "note_on channel=2 note=33 velocity=89 time=23\n",
      "note_on channel=2 note=33 velocity=0 time=16\n",
      "note_on channel=2 note=33 velocity=92 time=22\n",
      "note_on channel=2 note=33 velocity=0 time=16\n",
      "note_on channel=2 note=33 velocity=83 time=22\n",
      "note_on channel=2 note=33 velocity=0 time=16\n",
      "note_on channel=2 note=33 velocity=83 time=22\n",
      "note_on channel=2 note=33 velocity=0 time=17\n",
      "note_on channel=2 note=33 velocity=92 time=22\n",
      "note_on channel=2 note=33 velocity=0 time=16\n",
      "note_on channel=2 note=33 velocity=92 time=22\n",
      "note_on channel=2 note=33 velocity=0 time=16\n",
      "note_on channel=2 note=33 velocity=89 time=22\n",
      "note_on channel=2 note=33 velocity=0 time=15\n",
      "note_on channel=2 note=33 velocity=83 time=23\n",
      "note_on channel=2 note=33 velocity=0 time=17\n",
      "note_on channel=2 note=33 velocity=89 time=21\n",
      "note_on channel=2 note=33 velocity=0 time=16\n",
      "note_on channel=2 note=33 velocity=92 time=22\n",
      "note_on channel=2 note=33 velocity=0 time=17\n",
      "note_on channel=2 note=33 velocity=86 time=22\n",
      "note_on channel=2 note=33 velocity=0 time=16\n",
      "note_on channel=2 note=33 velocity=71 time=22\n",
      "note_on channel=2 note=33 velocity=0 time=17\n",
      "note_on channel=2 note=33 velocity=77 time=21\n",
      "note_on channel=2 note=33 velocity=0 time=18\n",
      "note_on channel=2 note=33 velocity=92 time=20\n",
      "note_on channel=2 note=33 velocity=0 time=16\n",
      "note_on channel=2 note=33 velocity=92 time=22\n",
      "note_on channel=2 note=33 velocity=0 time=17\n",
      "note_on channel=2 note=33 velocity=89 time=22\n",
      "note_on channel=2 note=33 velocity=0 time=16\n",
      "note_on channel=2 note=33 velocity=98 time=22\n",
      "note_on channel=2 note=33 velocity=0 time=16\n",
      "note_on channel=2 note=33 velocity=89 time=22\n",
      "note_on channel=2 note=33 velocity=0 time=17\n",
      "note_on channel=2 note=33 velocity=86 time=21\n",
      "note_on channel=2 note=33 velocity=0 time=15\n",
      "note_on channel=2 note=33 velocity=92 time=23\n",
      "note_on channel=2 note=33 velocity=0 time=18\n",
      "note_on channel=2 note=33 velocity=92 time=20\n",
      "note_on channel=2 note=33 velocity=0 time=17\n",
      "note_on channel=2 note=33 velocity=83 time=22\n",
      "note_on channel=2 note=33 velocity=0 time=16\n",
      "note_on channel=2 note=33 velocity=89 time=22\n",
      "note_on channel=2 note=33 velocity=0 time=17\n",
      "note_on channel=2 note=33 velocity=98 time=21\n",
      "note_on channel=2 note=33 velocity=0 time=16\n",
      "note_on channel=2 note=33 velocity=104 time=22\n",
      "note_on channel=2 note=33 velocity=0 time=17\n",
      "note_on channel=2 note=33 velocity=98 time=21\n",
      "note_on channel=2 note=33 velocity=0 time=16\n",
      "note_on channel=2 note=33 velocity=92 time=23\n",
      "note_on channel=2 note=33 velocity=0 time=15\n",
      "note_on channel=2 note=33 velocity=104 time=23\n",
      "note_on channel=2 note=33 velocity=0 time=15\n",
      "note_on channel=2 note=40 velocity=86 time=23\n",
      "note_on channel=2 note=40 velocity=0 time=14\n",
      "note_on channel=2 note=40 velocity=92 time=24\n",
      "note_on channel=2 note=40 velocity=0 time=15\n",
      "note_on channel=2 note=40 velocity=86 time=23\n",
      "note_on channel=2 note=40 velocity=0 time=15\n",
      "note_on channel=2 note=40 velocity=92 time=23\n",
      "note_on channel=2 note=40 velocity=0 time=16\n",
      "note_on channel=2 note=40 velocity=89 time=23\n",
      "note_on channel=2 note=40 velocity=0 time=16\n",
      "note_on channel=2 note=40 velocity=92 time=22\n",
      "note_on channel=2 note=40 velocity=0 time=16\n",
      "note_on channel=2 note=40 velocity=83 time=22\n",
      "note_on channel=2 note=40 velocity=0 time=16\n",
      "note_on channel=2 note=40 velocity=83 time=22\n",
      "note_on channel=2 note=40 velocity=0 time=17\n",
      "note_on channel=2 note=40 velocity=92 time=21\n",
      "note_on channel=2 note=40 velocity=0 time=16\n",
      "note_on channel=2 note=40 velocity=92 time=23\n",
      "note_on channel=2 note=40 velocity=0 time=16\n",
      "note_on channel=2 note=40 velocity=89 time=22\n",
      "note_on channel=2 note=40 velocity=0 time=15\n",
      "note_on channel=2 note=40 velocity=83 time=23\n",
      "note_on channel=2 note=40 velocity=0 time=16\n",
      "note_on channel=2 note=40 velocity=89 time=22\n",
      "note_on channel=2 note=40 velocity=0 time=16\n",
      "note_on channel=2 note=40 velocity=92 time=22\n",
      "note_on channel=2 note=40 velocity=0 time=17\n",
      "note_on channel=2 note=40 velocity=86 time=21\n",
      "note_on channel=2 note=40 velocity=0 time=17\n",
      "note_on channel=2 note=40 velocity=71 time=22\n",
      "note_on channel=2 note=40 velocity=0 time=16\n",
      "note_on channel=2 note=40 velocity=77 time=22\n",
      "note_on channel=2 note=40 velocity=0 time=18\n",
      "note_on channel=2 note=40 velocity=92 time=20\n",
      "note_on channel=2 note=40 velocity=0 time=15\n",
      "note_on channel=2 note=40 velocity=92 time=23\n",
      "note_on channel=2 note=40 velocity=0 time=17\n",
      "note_on channel=2 note=40 velocity=89 time=21\n",
      "note_on channel=2 note=40 velocity=0 time=16\n",
      "note_on channel=2 note=40 velocity=98 time=23\n",
      "note_on channel=2 note=40 velocity=0 time=16\n",
      "note_on channel=2 note=40 velocity=89 time=22\n",
      "note_on channel=2 note=40 velocity=0 time=17\n",
      "note_on channel=2 note=40 velocity=86 time=21\n",
      "note_on channel=2 note=40 velocity=0 time=15\n",
      "note_on channel=2 note=40 velocity=92 time=23\n",
      "note_on channel=2 note=40 velocity=0 time=17\n",
      "note_on channel=2 note=40 velocity=92 time=21\n",
      "note_on channel=2 note=40 velocity=0 time=17\n",
      "note_on channel=2 note=40 velocity=83 time=21\n",
      "note_on channel=2 note=40 velocity=0 time=17\n",
      "note_on channel=2 note=40 velocity=89 time=22\n",
      "note_on channel=2 note=40 velocity=0 time=17\n",
      "note_on channel=2 note=40 velocity=98 time=21\n",
      "note_on channel=2 note=40 velocity=0 time=16\n",
      "note_on channel=2 note=40 velocity=104 time=22\n",
      "note_on channel=2 note=40 velocity=0 time=17\n",
      "note_on channel=2 note=40 velocity=98 time=21\n",
      "note_on channel=2 note=40 velocity=0 time=15\n",
      "note_on channel=2 note=40 velocity=92 time=23\n",
      "note_on channel=2 note=40 velocity=0 time=16\n",
      "note_on channel=2 note=40 velocity=104 time=23\n",
      "note_on channel=2 note=40 velocity=0 time=15\n",
      "note_on channel=2 note=37 velocity=110 time=23\n",
      "note_on channel=2 note=37 velocity=0 time=19\n",
      "note_on channel=2 note=37 velocity=98 time=19\n",
      "note_on channel=2 note=37 velocity=0 time=24\n",
      "note_on channel=2 note=37 velocity=89 time=14\n",
      "note_on channel=2 note=37 velocity=0 time=24\n",
      "note_on channel=2 note=37 velocity=104 time=14\n",
      "note_on channel=2 note=37 velocity=0 time=22\n",
      "note_on channel=2 note=37 velocity=114 time=16\n",
      "note_on channel=2 note=37 velocity=0 time=22\n",
      "note_on channel=2 note=37 velocity=104 time=17\n",
      "note_on channel=2 note=37 velocity=0 time=23\n",
      "note_on channel=2 note=37 velocity=104 time=15\n",
      "note_on channel=2 note=37 velocity=0 time=24\n",
      "note_on channel=2 note=37 velocity=98 time=14\n",
      "note_on channel=2 note=37 velocity=0 time=23\n",
      "note_on channel=2 note=35 velocity=77 time=15\n",
      "note_on channel=2 note=35 velocity=0 time=25\n",
      "note_on channel=2 note=35 velocity=92 time=13\n",
      "note_on channel=2 note=35 velocity=0 time=24\n",
      "note_on channel=2 note=35 velocity=104 time=15\n",
      "note_on channel=2 note=35 velocity=0 time=22\n",
      "note_on channel=2 note=35 velocity=86 time=16\n",
      "note_on channel=2 note=35 velocity=0 time=22\n",
      "note_on channel=2 note=33 velocity=98 time=16\n",
      "note_on channel=2 note=33 velocity=0 time=23\n",
      "note_on channel=2 note=33 velocity=98 time=15\n",
      "note_on channel=2 note=33 velocity=0 time=23\n",
      "note_on channel=2 note=33 velocity=86 time=15\n",
      "note_on channel=2 note=33 velocity=0 time=23\n",
      "note_on channel=2 note=33 velocity=89 time=15\n",
      "note_on channel=2 note=33 velocity=0 time=24\n",
      "note_on channel=2 note=40 velocity=80 time=15\n",
      "note_on channel=2 note=40 velocity=0 time=22\n",
      "note_on channel=2 note=40 velocity=83 time=16\n",
      "note_on channel=2 note=40 velocity=0 time=25\n",
      "note_on channel=2 note=40 velocity=83 time=13\n",
      "note_on channel=2 note=40 velocity=0 time=23\n",
      "note_on channel=2 note=40 velocity=83 time=15\n",
      "note_on channel=2 note=40 velocity=0 time=25\n",
      "note_on channel=2 note=40 velocity=77 time=13\n",
      "note_on channel=2 note=40 velocity=0 time=24\n",
      "note_on channel=2 note=40 velocity=74 time=15\n",
      "note_on channel=2 note=40 velocity=0 time=22\n",
      "note_on channel=2 note=40 velocity=89 time=16\n",
      "note_on channel=2 note=40 velocity=0 time=24\n",
      "note_on channel=2 note=40 velocity=83 time=14\n",
      "note_on channel=2 note=40 velocity=0 time=24\n",
      "note_on channel=2 note=40 velocity=86 time=14\n",
      "note_on channel=2 note=40 velocity=0 time=22\n",
      "note_on channel=2 note=40 velocity=98 time=16\n",
      "note_on channel=2 note=40 velocity=0 time=22\n",
      "note_on channel=2 note=40 velocity=89 time=16\n",
      "note_on channel=2 note=40 velocity=0 time=24\n",
      "note_on channel=2 note=40 velocity=104 time=15\n",
      "note_on channel=2 note=40 velocity=0 time=27\n",
      "note_on channel=2 note=28 velocity=104 time=11\n",
      "note_on channel=2 note=28 velocity=0 time=19\n",
      "<meta message end_of_track time=0>\n",
      "Track 4: \n",
      "program_change channel=9 program=0 time=0\n",
      "control_change channel=9 control=7 value=100 time=0\n",
      "note_on channel=9 note=36 velocity=123 time=0\n",
      "note_on channel=9 note=40 velocity=115 time=0\n",
      "note_on channel=9 note=41 velocity=120 time=0\n",
      "note_on channel=9 note=36 velocity=0 time=17\n",
      "note_on channel=9 note=40 velocity=0 time=3\n",
      "note_on channel=9 note=41 velocity=0 time=1\n",
      "note_on channel=9 note=36 velocity=123 time=284\n",
      "note_on channel=9 note=40 velocity=123 time=0\n",
      "note_on channel=9 note=41 velocity=123 time=0\n",
      "note_on channel=9 note=36 velocity=0 time=15\n",
      "note_on channel=9 note=41 velocity=0 time=0\n",
      "note_on channel=9 note=40 velocity=0 time=2\n",
      "note_on channel=9 note=36 velocity=123 time=288\n",
      "note_on channel=9 note=40 velocity=123 time=0\n",
      "note_on channel=9 note=41 velocity=123 time=0\n",
      "note_on channel=9 note=36 velocity=0 time=14\n",
      "note_on channel=9 note=41 velocity=0 time=2\n",
      "note_on channel=9 note=40 velocity=0 time=1\n",
      "note_on channel=9 note=36 velocity=119 time=289\n",
      "note_on channel=9 note=40 velocity=119 time=0\n",
      "note_on channel=9 note=41 velocity=123 time=0\n",
      "note_on channel=9 note=36 velocity=0 time=14\n",
      "note_on channel=9 note=41 velocity=0 time=2\n",
      "note_on channel=9 note=40 velocity=0 time=2\n",
      "note_on channel=9 note=36 velocity=123 time=287\n",
      "note_on channel=9 note=40 velocity=123 time=0\n",
      "note_on channel=9 note=41 velocity=123 time=0\n",
      "note_on channel=9 note=49 velocity=71 time=0\n",
      "note_on channel=9 note=57 velocity=61 time=0\n",
      "note_on channel=9 note=36 velocity=0 time=12\n",
      "note_on channel=9 note=57 velocity=0 time=0\n",
      "note_on channel=9 note=49 velocity=0 time=1\n",
      "note_on channel=9 note=40 velocity=0 time=0\n",
      "note_on channel=9 note=41 velocity=0 time=1\n",
      "note_on channel=9 note=49 velocity=23 time=15\n",
      "note_on channel=9 note=57 velocity=23 time=0\n",
      "note_on channel=9 note=49 velocity=0 time=6\n",
      "note_on channel=9 note=57 velocity=0 time=0\n",
      "note_on channel=9 note=36 velocity=123 time=271\n",
      "note_on channel=9 note=40 velocity=123 time=0\n",
      "note_on channel=9 note=41 velocity=123 time=0\n",
      "note_on channel=9 note=49 velocity=70 time=0\n",
      "note_on channel=9 note=57 velocity=64 time=0\n",
      "note_on channel=9 note=57 velocity=0 time=13\n",
      "note_on channel=9 note=36 velocity=0 time=0\n",
      "note_on channel=9 note=49 velocity=0 time=0\n",
      "note_on channel=9 note=40 velocity=0 time=0\n",
      "note_on channel=9 note=41 velocity=0 time=1\n",
      "note_on channel=9 note=49 velocity=23 time=14\n",
      "note_on channel=9 note=57 velocity=23 time=0\n",
      "note_on channel=9 note=49 velocity=0 time=7\n",
      "note_on channel=9 note=57 velocity=0 time=0\n",
      "note_on channel=9 note=36 velocity=122 time=270\n",
      "note_on channel=9 note=40 velocity=121 time=0\n",
      "note_on channel=9 note=41 velocity=123 time=0\n",
      "note_on channel=9 note=49 velocity=74 time=0\n",
      "note_on channel=9 note=57 velocity=56 time=0\n",
      "note_on channel=9 note=57 velocity=0 time=11\n",
      "note_on channel=9 note=49 velocity=0 time=1\n",
      "note_on channel=9 note=36 velocity=0 time=3\n",
      "note_on channel=9 note=41 velocity=0 time=1\n",
      "note_on channel=9 note=40 velocity=0 time=1\n",
      "note_on channel=9 note=49 velocity=23 time=12\n",
      "note_on channel=9 note=57 velocity=23 time=0\n",
      "note_on channel=9 note=49 velocity=0 time=6\n",
      "note_on channel=9 note=57 velocity=0 time=0\n",
      "note_on channel=9 note=36 velocity=123 time=271\n",
      "note_on channel=9 note=40 velocity=123 time=0\n",
      "note_on channel=9 note=41 velocity=123 time=0\n",
      "note_on channel=9 note=49 velocity=74 time=0\n",
      "note_on channel=9 note=57 velocity=68 time=0\n",
      "note_on channel=9 note=57 velocity=0 time=10\n",
      "note_on channel=9 note=49 velocity=0 time=2\n",
      "note_on channel=9 note=36 velocity=0 time=1\n",
      "note_on channel=9 note=41 velocity=0 time=2\n",
      "note_on channel=9 note=40 velocity=0 time=1\n",
      "note_on channel=9 note=49 velocity=23 time=12\n",
      "note_on channel=9 note=57 velocity=23 time=0\n",
      "note_on channel=9 note=49 velocity=0 time=7\n",
      "note_on channel=9 note=57 velocity=0 time=0\n",
      "note_on channel=9 note=36 velocity=93 time=117\n",
      "note_on channel=9 note=40 velocity=90 time=0\n",
      "note_on channel=9 note=41 velocity=91 time=0\n",
      "note_on channel=9 note=41 velocity=0 time=9\n",
      "note_on channel=9 note=40 velocity=0 time=0\n",
      "note_on channel=9 note=36 velocity=0 time=0\n",
      "note_on channel=9 note=36 velocity=85 time=11\n",
      "note_on channel=9 note=40 velocity=81 time=0\n",
      "note_on channel=9 note=41 velocity=93 time=0\n",
      "note_on channel=9 note=41 velocity=0 time=7\n",
      "note_on channel=9 note=40 velocity=0 time=0\n",
      "note_on channel=9 note=36 velocity=0 time=1\n",
      "note_on channel=9 note=36 velocity=88 time=11\n",
      "note_on channel=9 note=40 velocity=88 time=0\n",
      "note_on channel=9 note=41 velocity=90 time=0\n",
      "note_on channel=9 note=36 velocity=0 time=9\n",
      "note_on channel=9 note=41 velocity=0 time=0\n",
      "note_on channel=9 note=40 velocity=0 time=1\n",
      "note_on channel=9 note=36 velocity=88 time=9\n",
      "note_on channel=9 note=40 velocity=73 time=0\n",
      "note_on channel=9 note=41 velocity=91 time=0\n",
      "note_on channel=9 note=41 velocity=0 time=8\n",
      "note_on channel=9 note=40 velocity=0 time=1\n",
      "note_on channel=9 note=36 velocity=0 time=1\n",
      "note_on channel=9 note=36 velocity=93 time=9\n",
      "note_on channel=9 note=40 velocity=88 time=0\n",
      "note_on channel=9 note=41 velocity=88 time=0\n",
      "note_on channel=9 note=36 velocity=0 time=8\n",
      "note_on channel=9 note=41 velocity=0 time=1\n",
      "note_on channel=9 note=40 velocity=0 time=0\n",
      "note_on channel=9 note=36 velocity=93 time=10\n",
      "note_on channel=9 note=40 velocity=82 time=0\n",
      "note_on channel=9 note=41 velocity=87 time=0\n",
      "note_on channel=9 note=41 velocity=0 time=9\n",
      "note_on channel=9 note=36 velocity=0 time=0\n",
      "note_on channel=9 note=40 velocity=0 time=0\n",
      "note_on channel=9 note=36 velocity=91 time=10\n",
      "note_on channel=9 note=40 velocity=91 time=0\n",
      "note_on channel=9 note=41 velocity=93 time=0\n",
      "note_on channel=9 note=36 velocity=0 time=8\n",
      "note_on channel=9 note=41 velocity=0 time=1\n",
      "note_on channel=9 note=40 velocity=0 time=1\n",
      "note_on channel=9 note=36 velocity=93 time=9\n",
      "note_on channel=9 note=40 velocity=90 time=0\n",
      "note_on channel=9 note=41 velocity=93 time=0\n",
      "note_on channel=9 note=40 velocity=0 time=9\n",
      "note_on channel=9 note=41 velocity=0 time=0\n",
      "note_on channel=9 note=36 velocity=0 time=0\n",
      "note_on channel=9 note=36 velocity=118 time=10\n",
      "note_on channel=9 note=46 velocity=72 time=1\n",
      "note_on channel=9 note=46 velocity=0 time=13\n",
      "note_on channel=9 note=36 velocity=0 time=2\n",
      "note_on channel=9 note=40 velocity=118 time=22\n",
      "note_on channel=9 note=46 velocity=85 time=2\n",
      "note_on channel=9 note=40 velocity=0 time=11\n",
      "note_on channel=9 note=46 velocity=0 time=2\n",
      "note_on channel=9 note=36 velocity=116 time=24\n",
      "note_on channel=9 note=46 velocity=81 time=2\n",
      "note_on channel=9 note=36 velocity=0 time=8\n",
      "note_on channel=9 note=46 velocity=0 time=6\n",
      "note_on channel=9 note=36 velocity=118 time=3\n",
      "note_on channel=9 note=36 velocity=0 time=12\n",
      "note_on channel=9 note=40 velocity=123 time=7\n",
      "note_on channel=9 note=46 velocity=81 time=2\n",
      "note_on channel=9 note=40 velocity=0 time=10\n",
      "note_on channel=9 note=46 velocity=0 time=4\n",
      "note_on channel=9 note=36 velocity=123 time=22\n",
      "note_on channel=9 note=46 velocity=75 time=1\n",
      "note_on channel=9 note=36 velocity=0 time=14\n",
      "note_on channel=9 note=46 velocity=0 time=1\n",
      "note_on channel=9 note=40 velocity=117 time=22\n",
      "note_on channel=9 note=46 velocity=72 time=3\n",
      "note_on channel=9 note=40 velocity=0 time=10\n",
      "note_on channel=9 note=46 velocity=0 time=4\n",
      "note_on channel=9 note=36 velocity=116 time=21\n",
      "note_on channel=9 note=46 velocity=75 time=2\n",
      "note_on channel=9 note=36 velocity=0 time=8\n",
      "note_on channel=9 note=46 velocity=0 time=5\n",
      "note_on channel=9 note=36 velocity=121 time=4\n",
      "note_on channel=9 note=36 velocity=0 time=12\n",
      "note_on channel=9 note=40 velocity=122 time=7\n",
      "note_on channel=9 note=46 velocity=78 time=2\n",
      "note_on channel=9 note=40 velocity=0 time=10\n",
      "note_on channel=9 note=46 velocity=0 time=4\n",
      "note_on channel=9 note=36 velocity=122 time=23\n",
      "note_on channel=9 note=46 velocity=68 time=1\n",
      "note_on channel=9 note=36 velocity=0 time=13\n",
      "note_on channel=9 note=46 velocity=0 time=0\n",
      "note_on channel=9 note=40 velocity=121 time=24\n",
      "note_on channel=9 note=46 velocity=72 time=2\n",
      "note_on channel=9 note=40 velocity=0 time=10\n",
      "note_on channel=9 note=46 velocity=0 time=2\n",
      "note_on channel=9 note=36 velocity=116 time=24\n",
      "note_on channel=9 note=46 velocity=65 time=4\n",
      "note_on channel=9 note=36 velocity=0 time=6\n",
      "note_on channel=9 note=46 velocity=0 time=7\n",
      "note_on channel=9 note=36 velocity=117 time=2\n",
      "note_on channel=9 note=36 velocity=0 time=12\n",
      "note_on channel=9 note=40 velocity=122 time=7\n",
      "note_on channel=9 note=46 velocity=75 time=3\n",
      "note_on channel=9 note=40 velocity=0 time=9\n",
      "note_on channel=9 note=46 velocity=0 time=3\n",
      "note_on channel=9 note=36 velocity=123 time=23\n",
      "note_on channel=9 note=46 velocity=75 time=0\n",
      "note_on channel=9 note=46 velocity=0 time=13\n",
      "note_on channel=9 note=36 velocity=0 time=3\n",
      "note_on channel=9 note=40 velocity=117 time=23\n",
      "note_on channel=9 note=46 velocity=69 time=0\n",
      "note_on channel=9 note=40 velocity=0 time=12\n",
      "note_on channel=9 note=46 velocity=0 time=0\n",
      "note_on channel=9 note=46 velocity=73 time=25\n",
      "note_on channel=9 note=36 velocity=121 time=1\n",
      "note_on channel=9 note=36 velocity=0 time=10\n",
      "note_on channel=9 note=46 velocity=0 time=2\n",
      "note_on channel=9 note=36 velocity=120 time=7\n",
      "note_on channel=9 note=36 velocity=0 time=12\n",
      "note_on channel=9 note=40 velocity=122 time=7\n",
      "note_on channel=9 note=46 velocity=71 time=1\n",
      "note_on channel=9 note=40 velocity=0 time=11\n",
      "note_on channel=9 note=46 velocity=0 time=2\n",
      "note_on channel=9 note=46 velocity=75 time=23\n",
      "note_on channel=9 note=36 velocity=122 time=1\n",
      "note_on channel=9 note=46 velocity=0 time=12\n",
      "note_on channel=9 note=36 velocity=0 time=3\n",
      "note_on channel=9 note=46 velocity=69 time=23\n",
      "note_on channel=9 note=40 velocity=121 time=0\n",
      "note_on channel=9 note=46 velocity=0 time=12\n",
      "note_on channel=9 note=40 velocity=0 time=1\n",
      "note_on channel=9 note=46 velocity=79 time=25\n",
      "note_on channel=9 note=36 velocity=122 time=0\n",
      "note_on channel=9 note=36 velocity=0 time=11\n",
      "note_on channel=9 note=46 velocity=0 time=2\n",
      "note_on channel=9 note=36 velocity=115 time=7\n",
      "note_on channel=9 note=36 velocity=0 time=11\n",
      "note_on channel=9 note=46 velocity=71 time=7\n",
      "note_on channel=9 note=40 velocity=123 time=1\n",
      "note_on channel=9 note=40 velocity=0 time=11\n",
      "note_on channel=9 note=46 velocity=0 time=2\n",
      "note_on channel=9 note=36 velocity=122 time=25\n",
      "note_on channel=9 note=46 velocity=65 time=1\n",
      "note_on channel=9 note=36 velocity=0 time=13\n",
      "note_on channel=9 note=46 velocity=0 time=0\n",
      "note_on channel=9 note=40 velocity=122 time=24\n",
      "note_on channel=9 note=46 velocity=75 time=1\n",
      "note_on channel=9 note=40 velocity=0 time=12\n",
      "note_on channel=9 note=46 velocity=0 time=0\n",
      "note_on channel=9 note=36 velocity=122 time=25\n",
      "note_on channel=9 note=46 velocity=72 time=0\n",
      "note_on channel=9 note=46 velocity=0 time=13\n",
      "note_on channel=9 note=36 velocity=0 time=2\n",
      "note_on channel=9 note=40 velocity=122 time=23\n",
      "note_on channel=9 note=46 velocity=71 time=2\n",
      "note_on channel=9 note=40 velocity=0 time=11\n",
      "note_on channel=9 note=46 velocity=0 time=1\n",
      "note_on channel=9 note=36 velocity=123 time=25\n",
      "note_on channel=9 note=46 velocity=72 time=0\n",
      "note_on channel=9 note=46 velocity=0 time=12\n",
      "note_on channel=9 note=36 velocity=0 time=2\n",
      "note_on channel=9 note=46 velocity=73 time=23\n",
      "note_on channel=9 note=40 velocity=123 time=1\n",
      "note_on channel=9 note=46 velocity=0 time=11\n",
      "note_on channel=9 note=40 velocity=0 time=2\n",
      "note_on channel=9 note=46 velocity=71 time=24\n",
      "note_on channel=9 note=36 velocity=122 time=1\n",
      "note_on channel=9 note=36 velocity=0 time=10\n",
      "note_on channel=9 note=46 velocity=0 time=3\n",
      "note_on channel=9 note=36 velocity=122 time=6\n",
      "note_on channel=9 note=36 velocity=0 time=12\n",
      "note_on channel=9 note=40 velocity=120 time=7\n",
      "note_on channel=9 note=46 velocity=73 time=1\n",
      "note_on channel=9 note=40 velocity=0 time=11\n",
      "note_on channel=9 note=46 velocity=0 time=1\n",
      "note_on channel=9 note=36 velocity=82 time=25\n",
      "note_on channel=9 note=50 velocity=91 time=1\n",
      "note_on channel=9 note=40 velocity=82 time=1\n",
      "note_on channel=9 note=36 velocity=0 time=3\n",
      "note_on channel=9 note=50 velocity=0 time=2\n",
      "note_on channel=9 note=40 velocity=0 time=1\n",
      "note_on channel=9 note=36 velocity=92 time=11\n",
      "note_on channel=9 note=36 velocity=0 time=6\n",
      "note_on channel=9 note=36 velocity=92 time=13\n",
      "note_on channel=9 note=40 velocity=85 time=2\n",
      "note_on channel=9 note=47 velocity=85 time=1\n",
      "note_on channel=9 note=36 velocity=0 time=3\n",
      "note_on channel=9 note=40 velocity=0 time=1\n",
      "note_on channel=9 note=47 velocity=0 time=2\n",
      "note_on channel=9 note=36 velocity=93 time=11\n",
      "note_on channel=9 note=36 velocity=0 time=6\n",
      "note_on channel=9 note=36 velocity=87 time=13\n",
      "note_on channel=9 note=45 velocity=93 time=3\n",
      "note_on channel=9 note=40 velocity=91 time=1\n",
      "note_on channel=9 note=36 velocity=0 time=2\n",
      "note_on channel=9 note=45 velocity=0 time=3\n",
      "note_on channel=9 note=40 velocity=0 time=0\n",
      "note_on channel=9 note=36 velocity=93 time=10\n",
      "note_on channel=9 note=36 velocity=0 time=6\n",
      "note_on channel=9 note=36 velocity=93 time=13\n",
      "note_on channel=9 note=40 velocity=90 time=3\n",
      "note_on channel=9 note=41 velocity=73 time=1\n",
      "note_on channel=9 note=36 velocity=0 time=2\n",
      "note_on channel=9 note=40 velocity=0 time=2\n",
      "note_on channel=9 note=41 velocity=0 time=1\n",
      "note_on channel=9 note=36 velocity=93 time=10\n",
      "note_on channel=9 note=40 velocity=91 time=2\n",
      "note_on channel=9 note=41 velocity=88 time=0\n",
      "note_on channel=9 note=36 velocity=0 time=4\n",
      "note_on channel=9 note=40 velocity=0 time=1\n",
      "note_on channel=9 note=41 velocity=0 time=2\n",
      "note_on channel=9 note=36 velocity=118 time=10\n",
      "note_on channel=9 note=51 velocity=112 time=0\n",
      "note_on channel=9 note=51 velocity=0 time=12\n",
      "note_on channel=9 note=36 velocity=0 time=4\n",
      "note_on channel=9 note=40 velocity=118 time=22\n",
      "note_on channel=9 note=51 velocity=116 time=0\n",
      "note_on channel=9 note=51 velocity=0 time=10\n",
      "note_on channel=9 note=40 velocity=0 time=3\n",
      "note_on channel=9 note=36 velocity=116 time=25\n",
      "note_on channel=9 note=51 velocity=116 time=0\n",
      "note_on channel=9 note=36 velocity=0 time=10\n",
      "note_on channel=9 note=51 velocity=0 time=2\n",
      "note_on channel=9 note=36 velocity=118 time=7\n",
      "note_on channel=9 note=36 velocity=0 time=13\n",
      "note_on channel=9 note=40 velocity=123 time=7\n",
      "note_on channel=9 note=51 velocity=110 time=0\n",
      "note_on channel=9 note=51 velocity=0 time=10\n",
      "note_on channel=9 note=40 velocity=0 time=1\n",
      "note_on channel=9 note=36 velocity=123 time=27\n",
      "note_on channel=9 note=51 velocity=117 time=0\n",
      "note_on channel=9 note=51 velocity=0 time=12\n",
      "note_on channel=9 note=36 velocity=0 time=2\n",
      "note_on channel=9 note=40 velocity=117 time=24\n",
      "note_on channel=9 note=51 velocity=119 time=0\n",
      "note_on channel=9 note=51 velocity=0 time=12\n",
      "note_on channel=9 note=40 velocity=0 time=0\n",
      "note_on channel=9 note=36 velocity=116 time=26\n",
      "note_on channel=9 note=51 velocity=111 time=0\n",
      "note_on channel=9 note=36 velocity=0 time=10\n",
      "note_on channel=9 note=51 velocity=0 time=3\n",
      "note_on channel=9 note=36 velocity=121 time=6\n",
      "note_on channel=9 note=36 velocity=0 time=12\n",
      "note_on channel=9 note=40 velocity=122 time=7\n",
      "note_on channel=9 note=51 velocity=111 time=0\n",
      "note_on channel=9 note=40 velocity=0 time=12\n",
      "note_on channel=9 note=51 velocity=0 time=1\n",
      "note_on channel=9 note=36 velocity=122 time=25\n",
      "note_on channel=9 note=51 velocity=108 time=0\n",
      "note_on channel=9 note=51 velocity=0 time=12\n",
      "note_on channel=9 note=36 velocity=0 time=3\n",
      "note_on channel=9 note=40 velocity=121 time=24\n",
      "note_on channel=9 note=51 velocity=111 time=0\n",
      "note_on channel=9 note=51 velocity=0 time=11\n",
      "note_on channel=9 note=40 velocity=0 time=1\n",
      "note_on channel=9 note=36 velocity=116 time=26\n",
      "note_on channel=9 note=51 velocity=101 time=0\n",
      "note_on channel=9 note=36 velocity=0 time=10\n",
      "note_on channel=9 note=51 velocity=0 time=2\n",
      "note_on channel=9 note=36 velocity=117 time=7\n",
      "note_on channel=9 note=36 velocity=0 time=11\n",
      "note_on channel=9 note=40 velocity=122 time=8\n",
      "note_on channel=9 note=51 velocity=112 time=0\n",
      "note_on channel=9 note=40 velocity=0 time=12\n",
      "note_on channel=9 note=51 velocity=0 time=1\n",
      "note_on channel=9 note=36 velocity=123 time=25\n",
      "note_on channel=9 note=51 velocity=105 time=0\n",
      "note_on channel=9 note=51 velocity=0 time=12\n",
      "note_on channel=9 note=36 velocity=0 time=3\n",
      "note_on channel=9 note=40 velocity=117 time=23\n",
      "note_on channel=9 note=51 velocity=108 time=0\n",
      "note_on channel=9 note=51 velocity=0 time=12\n",
      "note_on channel=9 note=40 velocity=0 time=1\n",
      "note_on channel=9 note=36 velocity=121 time=26\n",
      "note_on channel=9 note=51 velocity=117 time=0\n",
      "note_on channel=9 note=36 velocity=0 time=10\n",
      "note_on channel=9 note=51 velocity=0 time=1\n",
      "note_on channel=9 note=36 velocity=120 time=8\n",
      "note_on channel=9 note=36 velocity=0 time=12\n",
      "note_on channel=9 note=40 velocity=122 time=7\n",
      "note_on channel=9 note=51 velocity=108 time=0\n",
      "note_on channel=9 note=40 velocity=0 time=11\n",
      "note_on channel=9 note=51 velocity=0 time=1\n",
      "note_on channel=9 note=36 velocity=122 time=26\n",
      "note_on channel=9 note=51 velocity=107 time=0\n",
      "note_on channel=9 note=51 velocity=0 time=12\n",
      "note_on channel=9 note=36 velocity=0 time=3\n",
      "note_on channel=9 note=40 velocity=121 time=23\n",
      "note_on channel=9 note=51 velocity=115 time=0\n",
      "note_on channel=9 note=51 velocity=0 time=12\n"
     ]
    },
    {
     "name": "stdout",
     "output_type": "stream",
     "text": [
      "note_on channel=9 note=40 velocity=0 time=0\n",
      "note_on channel=9 note=36 velocity=122 time=26\n",
      "note_on channel=9 note=51 velocity=107 time=0\n",
      "note_on channel=9 note=36 velocity=0 time=11\n",
      "note_on channel=9 note=51 velocity=0 time=2\n",
      "note_on channel=9 note=36 velocity=115 time=6\n",
      "note_on channel=9 note=36 velocity=0 time=12\n",
      "note_on channel=9 note=40 velocity=123 time=7\n",
      "note_on channel=9 note=51 velocity=114 time=0\n",
      "note_on channel=9 note=40 velocity=0 time=11\n",
      "note_on channel=9 note=51 velocity=0 time=1\n",
      "note_on channel=9 note=36 velocity=122 time=27\n",
      "note_on channel=9 note=51 velocity=110 time=0\n",
      "note_on channel=9 note=51 velocity=0 time=12\n",
      "note_on channel=9 note=36 velocity=0 time=2\n",
      "note_on channel=9 note=40 velocity=122 time=24\n",
      "note_on channel=9 note=51 velocity=119 time=0\n",
      "note_on channel=9 note=51 velocity=0 time=11\n",
      "note_on channel=9 note=40 velocity=0 time=2\n",
      "note_on channel=9 note=36 velocity=122 time=25\n",
      "note_on channel=9 note=51 velocity=110 time=0\n",
      "note_on channel=9 note=51 velocity=0 time=12\n",
      "note_on channel=9 note=36 velocity=0 time=2\n",
      "note_on channel=9 note=40 velocity=122 time=24\n",
      "note_on channel=9 note=51 velocity=110 time=0\n",
      "note_on channel=9 note=51 velocity=0 time=12\n",
      "note_on channel=9 note=40 velocity=0 time=1\n",
      "note_on channel=9 note=36 velocity=123 time=25\n",
      "note_on channel=9 note=51 velocity=119 time=0\n",
      "note_on channel=9 note=51 velocity=0 time=12\n",
      "note_on channel=9 note=36 velocity=0 time=3\n",
      "note_on channel=9 note=40 velocity=123 time=24\n",
      "note_on channel=9 note=51 velocity=115 time=0\n",
      "note_on channel=9 note=51 velocity=0 time=11\n",
      "note_on channel=9 note=40 velocity=0 time=2\n",
      "note_on channel=9 note=36 velocity=122 time=25\n",
      "note_on channel=9 note=51 velocity=119 time=0\n",
      "note_on channel=9 note=36 velocity=0 time=10\n",
      "note_on channel=9 note=51 velocity=0 time=3\n",
      "note_on channel=9 note=36 velocity=122 time=6\n",
      "note_on channel=9 note=36 velocity=0 time=12\n",
      "note_on channel=9 note=40 velocity=120 time=7\n",
      "note_on channel=9 note=51 velocity=117 time=0\n",
      "note_on channel=9 note=51 velocity=0 time=12\n",
      "note_on channel=9 note=40 velocity=0 time=0\n",
      "note_on channel=9 note=51 velocity=113 time=26\n",
      "note_on channel=9 note=40 velocity=82 time=2\n",
      "note_on channel=9 note=40 velocity=0 time=3\n",
      "note_on channel=9 note=40 velocity=88 time=5\n",
      "note_on channel=9 note=51 velocity=0 time=1\n",
      "note_on channel=9 note=40 velocity=0 time=2\n",
      "note_on channel=9 note=36 velocity=79 time=7\n",
      "note_on channel=9 note=36 velocity=0 time=3\n",
      "note_on channel=9 note=40 velocity=93 time=15\n",
      "note_on channel=9 note=40 velocity=0 time=4\n",
      "note_on channel=9 note=36 velocity=88 time=16\n",
      "note_on channel=9 note=36 velocity=0 time=3\n",
      "note_on channel=9 note=36 velocity=86 time=6\n",
      "note_on channel=9 note=36 velocity=0 time=4\n",
      "note_on channel=9 note=40 velocity=93 time=6\n",
      "note_on channel=9 note=40 velocity=0 time=4\n",
      "note_on channel=9 note=40 velocity=87 time=5\n",
      "note_on channel=9 note=40 velocity=0 time=5\n",
      "note_on channel=9 note=36 velocity=86 time=6\n",
      "note_on channel=9 note=36 velocity=0 time=3\n",
      "note_on channel=9 note=36 velocity=93 time=6\n",
      "note_on channel=9 note=36 velocity=0 time=4\n",
      "note_on channel=9 note=40 velocity=93 time=6\n",
      "note_on channel=9 note=40 velocity=0 time=4\n",
      "note_on channel=9 note=40 velocity=88 time=6\n",
      "note_on channel=9 note=40 velocity=0 time=4\n",
      "note_on channel=9 note=36 velocity=93 time=5\n",
      "note_on channel=9 note=36 velocity=0 time=3\n",
      "note_on channel=9 note=36 velocity=118 time=15\n",
      "note_on channel=9 note=46 velocity=72 time=0\n",
      "note_on channel=9 note=46 velocity=0 time=14\n",
      "note_on channel=9 note=36 velocity=0 time=1\n",
      "note_on channel=9 note=40 velocity=118 time=23\n",
      "note_on channel=9 note=46 velocity=85 time=1\n",
      "note_on channel=9 note=40 velocity=0 time=12\n",
      "note_on channel=9 note=46 velocity=0 time=2\n",
      "note_on channel=9 note=36 velocity=116 time=23\n",
      "note_on channel=9 note=46 velocity=81 time=2\n",
      "note_on channel=9 note=36 velocity=0 time=8\n",
      "note_on channel=9 note=46 velocity=0 time=6\n",
      "note_on channel=9 note=36 velocity=118 time=3\n",
      "note_on channel=9 note=36 velocity=0 time=13\n",
      "note_on channel=9 note=40 velocity=123 time=6\n",
      "note_on channel=9 note=46 velocity=81 time=3\n",
      "note_on channel=9 note=40 velocity=0 time=9\n",
      "note_on channel=9 note=46 velocity=0 time=4\n",
      "note_on channel=9 note=36 velocity=123 time=23\n",
      "note_on channel=9 note=46 velocity=75 time=1\n",
      "note_on channel=9 note=36 velocity=0 time=13\n",
      "note_on channel=9 note=46 velocity=0 time=1\n",
      "note_on channel=9 note=40 velocity=117 time=23\n",
      "note_on channel=9 note=46 velocity=72 time=2\n",
      "note_on channel=9 note=40 velocity=0 time=10\n",
      "note_on channel=9 note=46 velocity=0 time=4\n",
      "note_on channel=9 note=36 velocity=116 time=22\n",
      "note_on channel=9 note=46 velocity=75 time=1\n",
      "note_on channel=9 note=36 velocity=0 time=9\n",
      "note_on channel=9 note=46 velocity=0 time=5\n",
      "note_on channel=9 note=36 velocity=121 time=4\n",
      "note_on channel=9 note=36 velocity=0 time=11\n",
      "note_on channel=9 note=40 velocity=122 time=8\n",
      "note_on channel=9 note=46 velocity=78 time=2\n",
      "note_on channel=9 note=40 velocity=0 time=10\n",
      "note_on channel=9 note=46 velocity=0 time=3\n",
      "note_on channel=9 note=36 velocity=122 time=23\n",
      "note_on channel=9 note=46 velocity=68 time=1\n",
      "note_on channel=9 note=36 velocity=0 time=14\n",
      "note_on channel=9 note=46 velocity=0 time=0\n",
      "note_on channel=9 note=40 velocity=121 time=23\n",
      "note_on channel=9 note=46 velocity=72 time=2\n",
      "note_on channel=9 note=40 velocity=0 time=11\n",
      "note_on channel=9 note=46 velocity=0 time=2\n",
      "note_on channel=9 note=36 velocity=116 time=24\n",
      "note_on channel=9 note=46 velocity=65 time=4\n",
      "note_on channel=9 note=36 velocity=0 time=6\n",
      "note_on channel=9 note=46 velocity=0 time=7\n",
      "note_on channel=9 note=36 velocity=117 time=2\n",
      "note_on channel=9 note=36 velocity=0 time=11\n",
      "note_on channel=9 note=40 velocity=122 time=8\n",
      "note_on channel=9 note=46 velocity=75 time=3\n",
      "note_on channel=9 note=40 velocity=0 time=9\n",
      "note_on channel=9 note=46 velocity=0 time=3\n",
      "note_on channel=9 note=36 velocity=123 time=23\n",
      "note_on channel=9 note=46 velocity=75 time=0\n",
      "note_on channel=9 note=46 velocity=0 time=13\n",
      "note_on channel=9 note=36 velocity=0 time=2\n",
      "note_on channel=9 note=40 velocity=117 time=23\n",
      "note_on channel=9 note=46 velocity=69 time=1\n",
      "note_on channel=9 note=40 velocity=0 time=12\n",
      "note_on channel=9 note=46 velocity=0 time=0\n",
      "note_on channel=9 note=46 velocity=73 time=25\n",
      "note_on channel=9 note=36 velocity=121 time=0\n",
      "note_on channel=9 note=36 velocity=0 time=10\n",
      "note_on channel=9 note=46 velocity=0 time=3\n",
      "note_on channel=9 note=36 velocity=120 time=6\n",
      "note_on channel=9 note=36 velocity=0 time=13\n",
      "note_on channel=9 note=40 velocity=122 time=7\n",
      "note_on channel=9 note=46 velocity=71 time=1\n",
      "note_on channel=9 note=40 velocity=0 time=10\n",
      "note_on channel=9 note=46 velocity=0 time=3\n",
      "note_on channel=9 note=46 velocity=75 time=23\n",
      "note_on channel=9 note=36 velocity=122 time=1\n",
      "note_on channel=9 note=46 velocity=0 time=12\n",
      "note_on channel=9 note=36 velocity=0 time=3\n",
      "note_on channel=9 note=46 velocity=69 time=22\n",
      "note_on channel=9 note=40 velocity=121 time=1\n",
      "note_on channel=9 note=46 velocity=0 time=12\n",
      "note_on channel=9 note=40 velocity=0 time=0\n",
      "note_on channel=9 note=46 velocity=79 time=26\n",
      "note_on channel=9 note=36 velocity=122 time=0\n",
      "note_on channel=9 note=36 velocity=0 time=11\n",
      "note_on channel=9 note=46 velocity=0 time=1\n",
      "note_on channel=9 note=36 velocity=115 time=7\n",
      "note_on channel=9 note=36 velocity=0 time=12\n",
      "note_on channel=9 note=46 velocity=71 time=7\n",
      "note_on channel=9 note=40 velocity=123 time=0\n",
      "note_on channel=9 note=40 velocity=0 time=11\n",
      "note_on channel=9 note=46 velocity=0 time=3\n",
      "note_on channel=9 note=36 velocity=122 time=24\n",
      "note_on channel=9 note=46 velocity=65 time=2\n",
      "note_on channel=9 note=36 velocity=0 time=12\n",
      "note_on channel=9 note=46 velocity=0 time=1\n",
      "note_on channel=9 note=40 velocity=122 time=24\n",
      "note_on channel=9 note=46 velocity=75 time=1\n",
      "note_on channel=9 note=40 velocity=0 time=12\n",
      "note_on channel=9 note=46 velocity=0 time=0\n",
      "note_on channel=9 note=36 velocity=122 time=25\n",
      "note_on channel=9 note=46 velocity=72 time=0\n",
      "note_on channel=9 note=46 velocity=0 time=12\n",
      "note_on channel=9 note=36 velocity=0 time=2\n",
      "note_on channel=9 note=40 velocity=122 time=24\n",
      "note_on channel=9 note=46 velocity=71 time=2\n",
      "note_on channel=9 note=40 velocity=0 time=11\n",
      "note_on channel=9 note=46 velocity=0 time=1\n",
      "note_on channel=9 note=36 velocity=123 time=24\n",
      "note_on channel=9 note=46 velocity=72 time=1\n",
      "note_on channel=9 note=46 velocity=0 time=12\n",
      "note_on channel=9 note=36 velocity=0 time=1\n",
      "note_on channel=9 note=46 velocity=73 time=23\n",
      "note_on channel=9 note=40 velocity=123 time=1\n",
      "note_on channel=9 note=46 velocity=0 time=11\n",
      "note_on channel=9 note=40 velocity=0 time=3\n",
      "note_on channel=9 note=46 velocity=71 time=24\n",
      "note_on channel=9 note=36 velocity=122 time=1\n",
      "note_on channel=9 note=36 velocity=0 time=10\n",
      "note_on channel=9 note=46 velocity=0 time=3\n",
      "note_on channel=9 note=36 velocity=122 time=6\n",
      "note_on channel=9 note=36 velocity=0 time=12\n",
      "note_on channel=9 note=40 velocity=120 time=7\n",
      "note_on channel=9 note=46 velocity=73 time=1\n",
      "note_on channel=9 note=40 velocity=0 time=11\n",
      "note_on channel=9 note=46 velocity=0 time=1\n",
      "note_on channel=9 note=38 velocity=85 time=25\n",
      "note_on channel=9 note=40 velocity=92 time=0\n",
      "note_on channel=9 note=38 velocity=0 time=2\n",
      "note_on channel=9 note=40 velocity=0 time=1\n",
      "note_on channel=9 note=36 velocity=86 time=14\n",
      "note_on channel=9 note=36 velocity=0 time=3\n",
      "note_on channel=9 note=38 velocity=82 time=16\n",
      "note_on channel=9 note=40 velocity=92 time=1\n",
      "note_on channel=9 note=38 velocity=0 time=1\n",
      "note_on channel=9 note=40 velocity=0 time=1\n",
      "note_on channel=9 note=36 velocity=91 time=17\n",
      "note_on channel=9 note=36 velocity=0 time=3\n",
      "note_on channel=9 note=38 velocity=79 time=17\n",
      "note_on channel=9 note=40 velocity=88 time=0\n",
      "note_on channel=9 note=38 velocity=0 time=2\n",
      "note_on channel=9 note=40 velocity=0 time=1\n",
      "note_on channel=9 note=38 velocity=79 time=5\n",
      "note_on channel=9 note=40 velocity=90 time=1\n",
      "note_on channel=9 note=38 velocity=0 time=1\n",
      "note_on channel=9 note=40 velocity=0 time=2\n",
      "note_on channel=9 note=36 velocity=93 time=7\n",
      "note_on channel=9 note=36 velocity=0 time=3\n",
      "note_on channel=9 note=38 velocity=87 time=15\n",
      "note_on channel=9 note=40 velocity=93 time=1\n",
      "note_on channel=9 note=38 velocity=0 time=1\n",
      "note_on channel=9 note=40 velocity=0 time=1\n",
      "note_on channel=9 note=36 velocity=93 time=16\n",
      "note_on channel=9 note=36 velocity=0 time=2\n",
      "note_on channel=9 note=36 velocity=118 time=19\n",
      "note_on channel=9 note=57 velocity=79 time=0\n",
      "note_on channel=9 note=57 velocity=0 time=12\n",
      "note_on channel=9 note=36 velocity=0 time=3\n",
      "note_on channel=9 note=53 velocity=123 time=22\n",
      "note_on channel=9 note=40 velocity=118 time=1\n",
      "note_on channel=9 note=53 velocity=0 time=4\n",
      "note_on channel=9 note=40 velocity=0 time=9\n",
      "note_on channel=9 note=53 velocity=125 time=24\n",
      "note_on channel=9 note=36 velocity=116 time=1\n",
      "note_on channel=9 note=53 velocity=0 time=3\n",
      "note_on channel=9 note=36 velocity=0 time=7\n",
      "note_on channel=9 note=36 velocity=118 time=9\n",
      "note_on channel=9 note=36 velocity=0 time=13\n",
      "note_on channel=9 note=53 velocity=122 time=5\n",
      "note_on channel=9 note=40 velocity=123 time=1\n",
      "note_on channel=9 note=53 velocity=0 time=3\n",
      "note_on channel=9 note=40 velocity=0 time=9\n",
      "note_on channel=9 note=53 velocity=124 time=26\n",
      "note_on channel=9 note=36 velocity=123 time=0\n",
      "note_on channel=9 note=53 velocity=0 time=4\n",
      "note_on channel=9 note=36 velocity=0 time=11\n",
      "note_on channel=9 note=40 velocity=117 time=24\n",
      "note_on channel=9 note=53 velocity=114 time=0\n",
      "note_on channel=9 note=53 velocity=0 time=4\n",
      "note_on channel=9 note=40 velocity=0 time=8\n",
      "note_on channel=9 note=36 velocity=116 time=26\n",
      "note_on channel=9 note=53 velocity=120 time=0\n",
      "note_on channel=9 note=53 velocity=0 time=4\n",
      "note_on channel=9 note=36 velocity=0 time=6\n",
      "note_on channel=9 note=36 velocity=121 time=9\n",
      "note_on channel=9 note=36 velocity=0 time=11\n",
      "note_on channel=9 note=53 velocity=124 time=7\n",
      "note_on channel=9 note=40 velocity=122 time=1\n",
      "note_on channel=9 note=53 velocity=0 time=3\n",
      "note_on channel=9 note=40 velocity=0 time=9\n",
      "note_on channel=9 note=36 velocity=122 time=26\n",
      "note_on channel=9 note=49 velocity=79 time=0\n",
      "note_on channel=9 note=36 velocity=0 time=14\n",
      "note_on channel=9 note=49 velocity=0 time=2\n",
      "note_on channel=9 note=53 velocity=124 time=21\n",
      "note_on channel=9 note=40 velocity=121 time=1\n",
      "note_on channel=9 note=53 velocity=0 time=4\n",
      "note_on channel=9 note=40 velocity=0 time=9\n",
      "note_on channel=9 note=53 velocity=119 time=24\n",
      "note_on channel=9 note=36 velocity=116 time=1\n",
      "note_on channel=9 note=53 velocity=0 time=4\n",
      "note_on channel=9 note=36 velocity=0 time=6\n",
      "note_on channel=9 note=36 velocity=117 time=10\n",
      "note_on channel=9 note=36 velocity=0 time=11\n",
      "note_on channel=9 note=53 velocity=124 time=6\n",
      "note_on channel=9 note=40 velocity=122 time=2\n",
      "note_on channel=9 note=53 velocity=0 time=2\n",
      "note_on channel=9 note=40 velocity=0 time=10\n",
      "note_on channel=9 note=53 velocity=125 time=25\n",
      "note_on channel=9 note=36 velocity=123 time=1\n",
      "note_on channel=9 note=53 velocity=0 time=4\n",
      "note_on channel=9 note=36 velocity=0 time=11\n",
      "note_on channel=9 note=53 velocity=125 time=23\n",
      "note_on channel=9 note=40 velocity=117 time=0\n",
      "note_on channel=9 note=53 velocity=0 time=4\n",
      "note_on channel=9 note=40 velocity=0 time=8\n",
      "note_on channel=9 note=53 velocity=125 time=26\n",
      "note_on channel=9 note=36 velocity=121 time=0\n",
      "note_on channel=9 note=53 velocity=0 time=4\n",
      "note_on channel=9 note=36 velocity=0 time=6\n",
      "note_on channel=9 note=36 velocity=120 time=9\n",
      "note_on channel=9 note=36 velocity=0 time=13\n",
      "note_on channel=9 note=40 velocity=122 time=6\n",
      "note_on channel=9 note=53 velocity=125 time=0\n",
      "note_on channel=9 note=53 velocity=0 time=5\n",
      "note_on channel=9 note=40 velocity=0 time=7\n",
      "note_on channel=9 note=36 velocity=122 time=27\n",
      "note_on channel=9 note=57 velocity=79 time=0\n",
      "note_on channel=9 note=57 velocity=0 time=12\n",
      "note_on channel=9 note=36 velocity=0 time=3\n",
      "note_on channel=9 note=53 velocity=125 time=22\n",
      "note_on channel=9 note=40 velocity=121 time=1\n",
      "note_on channel=9 note=53 velocity=0 time=3\n",
      "note_on channel=9 note=40 velocity=0 time=9\n",
      "note_on channel=9 note=36 velocity=122 time=26\n",
      "note_on channel=9 note=53 velocity=125 time=0\n",
      "note_on channel=9 note=53 velocity=0 time=5\n",
      "note_on channel=9 note=36 velocity=0 time=5\n",
      "note_on channel=9 note=36 velocity=115 time=9\n",
      "note_on channel=9 note=36 velocity=0 time=12\n",
      "note_on channel=9 note=53 velocity=124 time=5\n",
      "note_on channel=9 note=40 velocity=123 time=2\n",
      "note_on channel=9 note=53 velocity=0 time=3\n",
      "note_on channel=9 note=40 velocity=0 time=8\n",
      "note_on channel=9 note=53 velocity=124 time=26\n",
      "note_on channel=9 note=36 velocity=122 time=1\n",
      "note_on channel=9 note=53 velocity=0 time=4\n",
      "note_on channel=9 note=36 velocity=0 time=10\n",
      "note_on channel=9 note=53 velocity=125 time=23\n",
      "note_on channel=9 note=40 velocity=122 time=1\n",
      "note_on channel=9 note=53 velocity=0 time=4\n",
      "note_on channel=9 note=40 velocity=0 time=9\n",
      "note_on channel=9 note=53 velocity=125 time=25\n",
      "note_on channel=9 note=36 velocity=122 time=1\n",
      "note_on channel=9 note=53 velocity=0 time=4\n",
      "note_on channel=9 note=36 velocity=0 time=10\n",
      "note_on channel=9 note=53 velocity=119 time=24\n",
      "note_on channel=9 note=40 velocity=122 time=0\n",
      "note_on channel=9 note=53 velocity=0 time=3\n",
      "note_on channel=9 note=40 velocity=0 time=10\n",
      "note_on channel=9 note=36 velocity=123 time=25\n",
      "note_on channel=9 note=53 velocity=124 time=0\n",
      "note_on channel=9 note=53 velocity=0 time=4\n",
      "note_on channel=9 note=36 velocity=0 time=10\n",
      "note_on channel=9 note=40 velocity=123 time=24\n",
      "note_on channel=9 note=53 velocity=125 time=1\n",
      "note_on channel=9 note=53 velocity=0 time=4\n",
      "note_on channel=9 note=40 velocity=0 time=9\n",
      "note_on channel=9 note=36 velocity=122 time=24\n",
      "note_on channel=9 note=53 velocity=124 time=1\n",
      "note_on channel=9 note=53 velocity=0 time=4\n",
      "note_on channel=9 note=36 velocity=0 time=6\n",
      "note_on channel=9 note=36 velocity=122 time=8\n",
      "note_on channel=9 note=36 velocity=0 time=13\n",
      "note_on channel=9 note=53 velocity=125 time=6\n",
      "note_on channel=9 note=40 velocity=120 time=1\n",
      "note_on channel=9 note=53 velocity=0 time=3\n",
      "note_on channel=9 note=40 velocity=0 time=8\n",
      "note_on channel=9 note=36 velocity=99 time=27\n",
      "note_on channel=9 note=38 velocity=116 time=0\n",
      "note_on channel=9 note=53 velocity=125 time=0\n",
      "note_on channel=9 note=40 velocity=122 time=0\n",
      "note_on channel=9 note=36 velocity=0 time=3\n",
      "note_on channel=9 note=38 velocity=0 time=1\n",
      "note_on channel=9 note=53 velocity=0 time=0\n",
      "note_on channel=9 note=40 velocity=0 time=1\n",
      "note_on channel=9 note=36 velocity=123 time=147\n",
      "note_on channel=9 note=40 velocity=123 time=0\n",
      "note_on channel=9 note=41 velocity=123 time=0\n",
      "note_on channel=9 note=49 velocity=71 time=0\n",
      "note_on channel=9 note=57 velocity=61 time=0\n",
      "note_on channel=9 note=36 velocity=0 time=12\n",
      "note_on channel=9 note=57 velocity=0 time=1\n",
      "note_on channel=9 note=49 velocity=0 time=0\n",
      "note_on channel=9 note=40 velocity=0 time=0\n",
      "note_on channel=9 note=41 velocity=0 time=1\n",
      "note_on channel=9 note=49 velocity=23 time=15\n",
      "note_on channel=9 note=57 velocity=23 time=0\n",
      "note_on channel=9 note=49 velocity=0 time=6\n",
      "note_on channel=9 note=57 velocity=0 time=0\n",
      "note_on channel=9 note=36 velocity=123 time=271\n",
      "note_on channel=9 note=40 velocity=123 time=0\n",
      "note_on channel=9 note=41 velocity=123 time=0\n",
      "note_on channel=9 note=49 velocity=70 time=0\n",
      "note_on channel=9 note=57 velocity=64 time=0\n",
      "note_on channel=9 note=57 velocity=0 time=13\n",
      "note_on channel=9 note=36 velocity=0 time=0\n",
      "note_on channel=9 note=49 velocity=0 time=0\n",
      "note_on channel=9 note=40 velocity=0 time=1\n",
      "note_on channel=9 note=41 velocity=0 time=0\n",
      "note_on channel=9 note=49 velocity=23 time=15\n",
      "note_on channel=9 note=57 velocity=23 time=0\n",
      "note_on channel=9 note=49 velocity=0 time=6\n",
      "note_on channel=9 note=57 velocity=0 time=0\n",
      "note_on channel=9 note=36 velocity=122 time=270\n",
      "note_on channel=9 note=40 velocity=121 time=0\n",
      "note_on channel=9 note=41 velocity=123 time=0\n",
      "note_on channel=9 note=49 velocity=74 time=0\n",
      "note_on channel=9 note=57 velocity=56 time=0\n",
      "note_on channel=9 note=57 velocity=0 time=11\n",
      "note_on channel=9 note=49 velocity=0 time=1\n",
      "note_on channel=9 note=36 velocity=0 time=3\n",
      "note_on channel=9 note=41 velocity=0 time=1\n",
      "note_on channel=9 note=40 velocity=0 time=1\n",
      "note_on channel=9 note=49 velocity=23 time=12\n",
      "note_on channel=9 note=57 velocity=23 time=0\n",
      "note_on channel=9 note=49 velocity=0 time=6\n",
      "note_on channel=9 note=57 velocity=0 time=0\n",
      "note_on channel=9 note=36 velocity=123 time=271\n",
      "note_on channel=9 note=40 velocity=123 time=0\n",
      "note_on channel=9 note=41 velocity=123 time=0\n",
      "note_on channel=9 note=49 velocity=74 time=0\n",
      "note_on channel=9 note=57 velocity=68 time=0\n",
      "note_on channel=9 note=57 velocity=0 time=11\n",
      "note_on channel=9 note=49 velocity=0 time=1\n",
      "note_on channel=9 note=36 velocity=0 time=1\n",
      "note_on channel=9 note=41 velocity=0 time=2\n",
      "note_on channel=9 note=40 velocity=0 time=1\n",
      "note_on channel=9 note=49 velocity=23 time=12\n",
      "note_on channel=9 note=57 velocity=23 time=0\n",
      "note_on channel=9 note=49 velocity=0 time=7\n",
      "note_on channel=9 note=57 velocity=0 time=0\n",
      "note_on channel=9 note=40 velocity=90 time=118\n",
      "note_on channel=9 note=41 velocity=91 time=0\n",
      "note_on channel=9 note=41 velocity=0 time=8\n",
      "note_on channel=9 note=40 velocity=0 time=0\n",
      "note_on channel=9 note=36 velocity=93 time=11\n",
      "note_on channel=9 note=36 velocity=0 time=9\n",
      "note_on channel=9 note=40 velocity=88 time=10\n",
      "note_on channel=9 note=41 velocity=90 time=0\n",
      "note_on channel=9 note=41 velocity=0 time=9\n",
      "note_on channel=9 note=40 velocity=0 time=1\n",
      "note_on channel=9 note=36 velocity=88 time=9\n",
      "note_on channel=9 note=36 velocity=0 time=9\n",
      "note_on channel=9 note=36 velocity=93 time=10\n",
      "note_on channel=9 note=40 velocity=88 time=0\n",
      "note_on channel=9 note=41 velocity=88 time=0\n",
      "note_on channel=9 note=36 velocity=0 time=8\n",
      "note_on channel=9 note=41 velocity=0 time=1\n",
      "note_on channel=9 note=40 velocity=0 time=0\n",
      "note_on channel=9 note=36 velocity=93 time=10\n",
      "note_on channel=9 note=40 velocity=82 time=0\n",
      "note_on channel=9 note=41 velocity=87 time=0\n",
      "note_on channel=9 note=41 velocity=0 time=9\n",
      "note_on channel=9 note=36 velocity=0 time=0\n",
      "note_on channel=9 note=40 velocity=0 time=0\n",
      "note_on channel=9 note=36 velocity=91 time=10\n",
      "note_on channel=9 note=40 velocity=91 time=0\n",
      "note_on channel=9 note=41 velocity=93 time=0\n",
      "note_on channel=9 note=36 velocity=0 time=8\n",
      "note_on channel=9 note=41 velocity=0 time=1\n",
      "note_on channel=9 note=40 velocity=0 time=1\n",
      "note_on channel=9 note=36 velocity=93 time=9\n",
      "note_on channel=9 note=40 velocity=90 time=0\n",
      "note_on channel=9 note=41 velocity=93 time=0\n",
      "note_on channel=9 note=40 velocity=0 time=9\n",
      "note_on channel=9 note=41 velocity=0 time=0\n",
      "note_on channel=9 note=36 velocity=0 time=0\n",
      "note_on channel=9 note=36 velocity=118 time=10\n",
      "note_on channel=9 note=46 velocity=72 time=1\n",
      "note_on channel=9 note=46 velocity=0 time=13\n",
      "note_on channel=9 note=36 velocity=0 time=2\n",
      "note_on channel=9 note=40 velocity=118 time=22\n",
      "note_on channel=9 note=46 velocity=85 time=2\n",
      "note_on channel=9 note=40 velocity=0 time=11\n",
      "note_on channel=9 note=46 velocity=0 time=3\n",
      "note_on channel=9 note=36 velocity=116 time=23\n",
      "note_on channel=9 note=46 velocity=81 time=2\n",
      "note_on channel=9 note=36 velocity=0 time=8\n",
      "note_on channel=9 note=46 velocity=0 time=6\n",
      "note_on channel=9 note=36 velocity=118 time=3\n",
      "note_on channel=9 note=36 velocity=0 time=12\n",
      "note_on channel=9 note=40 velocity=123 time=7\n",
      "note_on channel=9 note=46 velocity=81 time=3\n",
      "note_on channel=9 note=40 velocity=0 time=9\n",
      "note_on channel=9 note=46 velocity=0 time=4\n",
      "note_on channel=9 note=36 velocity=123 time=22\n",
      "note_on channel=9 note=46 velocity=75 time=2\n",
      "note_on channel=9 note=36 velocity=0 time=13\n",
      "note_on channel=9 note=46 velocity=0 time=1\n",
      "note_on channel=9 note=40 velocity=117 time=22\n",
      "note_on channel=9 note=46 velocity=72 time=3\n",
      "note_on channel=9 note=40 velocity=0 time=10\n",
      "note_on channel=9 note=46 velocity=0 time=4\n",
      "note_on channel=9 note=36 velocity=116 time=21\n",
      "note_on channel=9 note=46 velocity=75 time=2\n",
      "note_on channel=9 note=36 velocity=0 time=8\n",
      "note_on channel=9 note=46 velocity=0 time=5\n",
      "note_on channel=9 note=36 velocity=121 time=4\n",
      "note_on channel=9 note=36 velocity=0 time=12\n",
      "note_on channel=9 note=40 velocity=122 time=8\n",
      "note_on channel=9 note=46 velocity=78 time=1\n",
      "note_on channel=9 note=40 velocity=0 time=10\n",
      "note_on channel=9 note=46 velocity=0 time=4\n",
      "note_on channel=9 note=36 velocity=122 time=23\n",
      "note_on channel=9 note=46 velocity=68 time=1\n",
      "note_on channel=9 note=36 velocity=0 time=13\n",
      "note_on channel=9 note=46 velocity=0 time=0\n",
      "note_on channel=9 note=40 velocity=121 time=24\n",
      "note_on channel=9 note=46 velocity=72 time=2\n",
      "note_on channel=9 note=40 velocity=0 time=10\n",
      "note_on channel=9 note=46 velocity=0 time=2\n",
      "note_on channel=9 note=36 velocity=116 time=24\n",
      "note_on channel=9 note=46 velocity=65 time=4\n",
      "note_on channel=9 note=36 velocity=0 time=6\n",
      "note_on channel=9 note=46 velocity=0 time=7\n",
      "note_on channel=9 note=36 velocity=117 time=2\n",
      "note_on channel=9 note=36 velocity=0 time=12\n",
      "note_on channel=9 note=40 velocity=122 time=7\n",
      "note_on channel=9 note=46 velocity=75 time=3\n",
      "note_on channel=9 note=40 velocity=0 time=10\n",
      "note_on channel=9 note=46 velocity=0 time=3\n",
      "note_on channel=9 note=36 velocity=123 time=22\n",
      "note_on channel=9 note=46 velocity=75 time=0\n",
      "note_on channel=9 note=46 velocity=0 time=13\n",
      "note_on channel=9 note=36 velocity=0 time=3\n",
      "note_on channel=9 note=40 velocity=117 time=23\n",
      "note_on channel=9 note=46 velocity=69 time=0\n",
      "note_on channel=9 note=40 velocity=0 time=12\n",
      "note_on channel=9 note=46 velocity=0 time=1\n",
      "note_on channel=9 note=46 velocity=73 time=25\n",
      "note_on channel=9 note=36 velocity=121 time=0\n",
      "note_on channel=9 note=36 velocity=0 time=10\n",
      "note_on channel=9 note=46 velocity=0 time=3\n",
      "note_on channel=9 note=36 velocity=120 time=6\n",
      "note_on channel=9 note=36 velocity=0 time=12\n",
      "note_on channel=9 note=40 velocity=122 time=7\n",
      "note_on channel=9 note=46 velocity=71 time=1\n",
      "note_on channel=9 note=40 velocity=0 time=11\n",
      "note_on channel=9 note=46 velocity=0 time=2\n",
      "note_on channel=9 note=46 velocity=75 time=24\n",
      "note_on channel=9 note=36 velocity=122 time=0\n",
      "note_on channel=9 note=46 velocity=0 time=12\n",
      "note_on channel=9 note=36 velocity=0 time=3\n",
      "note_on channel=9 note=46 velocity=69 time=23\n",
      "note_on channel=9 note=40 velocity=121 time=0\n",
      "note_on channel=9 note=46 velocity=0 time=12\n",
      "note_on channel=9 note=40 velocity=0 time=1\n",
      "note_on channel=9 note=46 velocity=79 time=25\n",
      "note_on channel=9 note=36 velocity=122 time=1\n",
      "note_on channel=9 note=36 velocity=0 time=10\n",
      "note_on channel=9 note=46 velocity=0 time=2\n",
      "note_on channel=9 note=36 velocity=115 time=7\n",
      "note_on channel=9 note=36 velocity=0 time=12\n",
      "note_on channel=9 note=46 velocity=71 time=6\n",
      "note_on channel=9 note=40 velocity=123 time=1\n",
      "note_on channel=9 note=40 velocity=0 time=11\n",
      "note_on channel=9 note=46 velocity=0 time=2\n",
      "note_on channel=9 note=36 velocity=122 time=25\n",
      "note_on channel=9 note=46 velocity=65 time=1\n",
      "note_on channel=9 note=36 velocity=0 time=13\n",
      "note_on channel=9 note=46 velocity=0 time=0\n",
      "note_on channel=9 note=40 velocity=122 time=24\n",
      "note_on channel=9 note=46 velocity=75 time=1\n",
      "note_on channel=9 note=40 velocity=0 time=12\n",
      "note_on channel=9 note=46 velocity=0 time=0\n",
      "note_on channel=9 note=36 velocity=122 time=25\n",
      "note_on channel=9 note=46 velocity=72 time=0\n",
      "note_on channel=9 note=46 velocity=0 time=13\n",
      "note_on channel=9 note=36 velocity=0 time=2\n",
      "note_on channel=9 note=40 velocity=122 time=23\n",
      "note_on channel=9 note=46 velocity=71 time=2\n",
      "note_on channel=9 note=40 velocity=0 time=12\n",
      "note_on channel=9 note=46 velocity=0 time=0\n",
      "note_on channel=9 note=36 velocity=123 time=25\n",
      "note_on channel=9 note=46 velocity=72 time=0\n",
      "note_on channel=9 note=46 velocity=0 time=12\n",
      "note_on channel=9 note=36 velocity=0 time=2\n",
      "note_on channel=9 note=46 velocity=73 time=23\n",
      "note_on channel=9 note=40 velocity=123 time=1\n",
      "note_on channel=9 note=46 velocity=0 time=11\n",
      "note_on channel=9 note=40 velocity=0 time=2\n",
      "note_on channel=9 note=46 velocity=71 time=25\n",
      "note_on channel=9 note=36 velocity=122 time=0\n",
      "note_on channel=9 note=36 velocity=0 time=10\n",
      "note_on channel=9 note=46 velocity=0 time=3\n",
      "note_on channel=9 note=36 velocity=122 time=6\n",
      "note_on channel=9 note=36 velocity=0 time=12\n",
      "note_on channel=9 note=40 velocity=120 time=7\n",
      "note_on channel=9 note=46 velocity=73 time=1\n",
      "note_on channel=9 note=40 velocity=0 time=11\n",
      "note_on channel=9 note=46 velocity=0 time=1\n",
      "note_on channel=9 note=36 velocity=82 time=25\n",
      "note_on channel=9 note=50 velocity=91 time=1\n",
      "note_on channel=9 note=40 velocity=82 time=1\n",
      "note_on channel=9 note=36 velocity=0 time=3\n",
      "note_on channel=9 note=50 velocity=0 time=2\n",
      "note_on channel=9 note=40 velocity=0 time=1\n",
      "note_on channel=9 note=36 velocity=92 time=11\n",
      "note_on channel=9 note=36 velocity=0 time=6\n",
      "note_on channel=9 note=36 velocity=92 time=14\n",
      "note_on channel=9 note=40 velocity=85 time=1\n",
      "note_on channel=9 note=47 velocity=85 time=1\n",
      "note_on channel=9 note=36 velocity=0 time=3\n",
      "note_on channel=9 note=40 velocity=0 time=1\n",
      "note_on channel=9 note=47 velocity=0 time=2\n",
      "note_on channel=9 note=36 velocity=93 time=11\n",
      "note_on channel=9 note=36 velocity=0 time=6\n",
      "note_on channel=9 note=36 velocity=87 time=13\n",
      "note_on channel=9 note=45 velocity=93 time=3\n",
      "note_on channel=9 note=40 velocity=91 time=1\n",
      "note_on channel=9 note=36 velocity=0 time=2\n",
      "note_on channel=9 note=45 velocity=0 time=3\n",
      "note_on channel=9 note=40 velocity=0 time=0\n",
      "note_on channel=9 note=36 velocity=93 time=10\n",
      "note_on channel=9 note=36 velocity=0 time=6\n",
      "note_on channel=9 note=36 velocity=93 time=13\n",
      "note_on channel=9 note=40 velocity=90 time=3\n",
      "note_on channel=9 note=41 velocity=73 time=1\n",
      "note_on channel=9 note=36 velocity=0 time=2\n",
      "note_on channel=9 note=40 velocity=0 time=2\n",
      "note_on channel=9 note=41 velocity=0 time=1\n",
      "note_on channel=9 note=36 velocity=93 time=10\n",
      "note_on channel=9 note=36 velocity=0 time=7\n",
      "note_on channel=9 note=36 velocity=118 time=12\n",
      "note_on channel=9 note=51 velocity=112 time=0\n",
      "note_on channel=9 note=51 velocity=0 time=12\n",
      "note_on channel=9 note=36 velocity=0 time=4\n",
      "note_on channel=9 note=40 velocity=118 time=22\n",
      "note_on channel=9 note=51 velocity=116 time=0\n",
      "note_on channel=9 note=51 velocity=0 time=11\n",
      "note_on channel=9 note=40 velocity=0 time=2\n",
      "note_on channel=9 note=36 velocity=116 time=25\n",
      "note_on channel=9 note=51 velocity=116 time=0\n",
      "note_on channel=9 note=36 velocity=0 time=11\n",
      "note_on channel=9 note=51 velocity=0 time=1\n",
      "note_on channel=9 note=36 velocity=118 time=8\n",
      "note_on channel=9 note=36 velocity=0 time=12\n",
      "note_on channel=9 note=40 velocity=123 time=7\n",
      "note_on channel=9 note=51 velocity=110 time=0\n",
      "note_on channel=9 note=51 velocity=0 time=11\n",
      "note_on channel=9 note=40 velocity=0 time=1\n",
      "note_on channel=9 note=36 velocity=123 time=26\n",
      "note_on channel=9 note=51 velocity=117 time=0\n",
      "note_on channel=9 note=51 velocity=0 time=12\n",
      "note_on channel=9 note=36 velocity=0 time=2\n",
      "note_on channel=9 note=40 velocity=117 time=24\n",
      "note_on channel=9 note=51 velocity=119 time=0\n",
      "note_on channel=9 note=51 velocity=0 time=12\n",
      "note_on channel=9 note=40 velocity=0 time=0\n",
      "note_on channel=9 note=36 velocity=116 time=26\n",
      "note_on channel=9 note=51 velocity=111 time=0\n",
      "note_on channel=9 note=36 velocity=0 time=10\n",
      "note_on channel=9 note=51 velocity=0 time=3\n",
      "note_on channel=9 note=36 velocity=121 time=6\n",
      "note_on channel=9 note=36 velocity=0 time=12\n",
      "note_on channel=9 note=40 velocity=122 time=7\n",
      "note_on channel=9 note=51 velocity=111 time=0\n",
      "note_on channel=9 note=40 velocity=0 time=12\n",
      "note_on channel=9 note=51 velocity=0 time=1\n",
      "note_on channel=9 note=36 velocity=122 time=26\n",
      "note_on channel=9 note=51 velocity=108 time=0\n",
      "note_on channel=9 note=51 velocity=0 time=11\n",
      "note_on channel=9 note=36 velocity=0 time=3\n",
      "note_on channel=9 note=40 velocity=121 time=24\n",
      "note_on channel=9 note=51 velocity=111 time=0\n",
      "note_on channel=9 note=51 velocity=0 time=11\n",
      "note_on channel=9 note=40 velocity=0 time=1\n",
      "note_on channel=9 note=36 velocity=116 time=26\n",
      "note_on channel=9 note=51 velocity=101 time=0\n",
      "note_on channel=9 note=36 velocity=0 time=10\n",
      "note_on channel=9 note=51 velocity=0 time=2\n",
      "note_on channel=9 note=36 velocity=117 time=7\n",
      "note_on channel=9 note=36 velocity=0 time=11\n",
      "note_on channel=9 note=40 velocity=122 time=8\n",
      "note_on channel=9 note=51 velocity=112 time=0\n",
      "note_on channel=9 note=40 velocity=0 time=12\n",
      "note_on channel=9 note=51 velocity=0 time=1\n",
      "note_on channel=9 note=36 velocity=123 time=25\n",
      "note_on channel=9 note=51 velocity=105 time=0\n",
      "note_on channel=9 note=51 velocity=0 time=12\n",
      "note_on channel=9 note=36 velocity=0 time=4\n",
      "note_on channel=9 note=40 velocity=117 time=22\n",
      "note_on channel=9 note=51 velocity=108 time=0\n",
      "note_on channel=9 note=51 velocity=0 time=12\n",
      "note_on channel=9 note=40 velocity=0 time=1\n",
      "note_on channel=9 note=36 velocity=121 time=26\n",
      "note_on channel=9 note=51 velocity=117 time=0\n",
      "note_on channel=9 note=36 velocity=0 time=10\n",
      "note_on channel=9 note=51 velocity=0 time=2\n",
      "note_on channel=9 note=36 velocity=120 time=7\n",
      "note_on channel=9 note=36 velocity=0 time=12\n",
      "note_on channel=9 note=40 velocity=122 time=7\n",
      "note_on channel=9 note=51 velocity=108 time=0\n",
      "note_on channel=9 note=40 velocity=0 time=12\n",
      "note_on channel=9 note=51 velocity=0 time=0\n",
      "note_on channel=9 note=36 velocity=122 time=26\n",
      "note_on channel=9 note=51 velocity=107 time=0\n",
      "note_on channel=9 note=51 velocity=0 time=12\n",
      "note_on channel=9 note=36 velocity=0 time=3\n",
      "note_on channel=9 note=40 velocity=121 time=23\n",
      "note_on channel=9 note=51 velocity=115 time=0\n",
      "note_on channel=9 note=51 velocity=0 time=12\n",
      "note_on channel=9 note=40 velocity=0 time=0\n",
      "note_on channel=9 note=36 velocity=122 time=26\n",
      "note_on channel=9 note=51 velocity=107 time=0\n",
      "note_on channel=9 note=36 velocity=0 time=11\n",
      "note_on channel=9 note=51 velocity=0 time=2\n",
      "note_on channel=9 note=36 velocity=115 time=6\n",
      "note_on channel=9 note=36 velocity=0 time=12\n",
      "note_on channel=9 note=40 velocity=123 time=8\n",
      "note_on channel=9 note=51 velocity=114 time=0\n",
      "note_on channel=9 note=40 velocity=0 time=10\n",
      "note_on channel=9 note=51 velocity=0 time=1\n",
      "note_on channel=9 note=36 velocity=122 time=27\n",
      "note_on channel=9 note=51 velocity=110 time=0\n",
      "note_on channel=9 note=51 velocity=0 time=12\n",
      "note_on channel=9 note=36 velocity=0 time=2\n",
      "note_on channel=9 note=40 velocity=122 time=24\n",
      "note_on channel=9 note=51 velocity=119 time=0\n",
      "note_on channel=9 note=51 velocity=0 time=11\n",
      "note_on channel=9 note=40 velocity=0 time=2\n",
      "note_on channel=9 note=36 velocity=122 time=25\n",
      "note_on channel=9 note=51 velocity=110 time=0\n",
      "note_on channel=9 note=51 velocity=0 time=12\n",
      "note_on channel=9 note=36 velocity=0 time=3\n",
      "note_on channel=9 note=40 velocity=122 time=23\n",
      "note_on channel=9 note=51 velocity=110 time=0\n",
      "note_on channel=9 note=51 velocity=0 time=12\n",
      "note_on channel=9 note=40 velocity=0 time=1\n",
      "note_on channel=9 note=36 velocity=123 time=25\n",
      "note_on channel=9 note=51 velocity=119 time=0\n",
      "note_on channel=9 note=51 velocity=0 time=12\n",
      "note_on channel=9 note=36 velocity=0 time=3\n",
      "note_on channel=9 note=40 velocity=123 time=24\n",
      "note_on channel=9 note=51 velocity=115 time=0\n",
      "note_on channel=9 note=51 velocity=0 time=12\n",
      "note_on channel=9 note=40 velocity=0 time=1\n",
      "note_on channel=9 note=36 velocity=122 time=25\n",
      "note_on channel=9 note=51 velocity=119 time=0\n",
      "note_on channel=9 note=36 velocity=0 time=10\n",
      "note_on channel=9 note=51 velocity=0 time=3\n",
      "note_on channel=9 note=36 velocity=122 time=6\n",
      "note_on channel=9 note=36 velocity=0 time=12\n",
      "note_on channel=9 note=40 velocity=120 time=7\n",
      "note_on channel=9 note=51 velocity=117 time=0\n",
      "note_on channel=9 note=51 velocity=0 time=12\n",
      "note_on channel=9 note=40 velocity=0 time=0\n",
      "note_on channel=9 note=51 velocity=113 time=26\n",
      "note_on channel=9 note=40 velocity=82 time=2\n",
      "note_on channel=9 note=40 velocity=0 time=3\n",
      "note_on channel=9 note=51 velocity=0 time=6\n",
      "note_on channel=9 note=36 velocity=79 time=9\n",
      "note_on channel=9 note=36 velocity=0 time=3\n",
      "note_on channel=9 note=40 velocity=93 time=15\n",
      "note_on channel=9 note=40 velocity=0 time=4\n",
      "note_on channel=9 note=36 velocity=88 time=16\n",
      "note_on channel=9 note=36 velocity=0 time=3\n",
      "note_on channel=9 note=36 velocity=86 time=6\n",
      "note_on channel=9 note=36 velocity=0 time=4\n",
      "note_on channel=9 note=40 velocity=93 time=6\n",
      "note_on channel=9 note=40 velocity=0 time=4\n",
      "note_on channel=9 note=40 velocity=87 time=5\n",
      "note_on channel=9 note=40 velocity=0 time=5\n",
      "note_on channel=9 note=36 velocity=86 time=6\n",
      "note_on channel=9 note=36 velocity=0 time=3\n",
      "note_on channel=9 note=40 velocity=93 time=16\n",
      "note_on channel=9 note=40 velocity=0 time=4\n",
      "note_on channel=9 note=36 velocity=93 time=15\n",
      "note_on channel=9 note=36 velocity=0 time=4\n",
      "note_on channel=9 note=36 velocity=88 time=4\n",
      "note_on channel=9 note=36 velocity=0 time=4\n",
      "note_on channel=9 note=36 velocity=118 time=6\n",
      "note_on channel=9 note=46 velocity=72 time=0\n",
      "note_on channel=9 note=46 velocity=0 time=14\n",
      "note_on channel=9 note=36 velocity=0 time=2\n",
      "note_on channel=9 note=40 velocity=118 time=22\n",
      "note_on channel=9 note=46 velocity=85 time=1\n",
      "note_on channel=9 note=40 velocity=0 time=12\n",
      "note_on channel=9 note=46 velocity=0 time=2\n",
      "note_on channel=9 note=36 velocity=116 time=23\n",
      "note_on channel=9 note=46 velocity=81 time=2\n",
      "note_on channel=9 note=36 velocity=0 time=8\n",
      "note_on channel=9 note=46 velocity=0 time=7\n",
      "note_on channel=9 note=36 velocity=118 time=2\n",
      "note_on channel=9 note=36 velocity=0 time=13\n",
      "note_on channel=9 note=40 velocity=123 time=6\n",
      "note_on channel=9 note=46 velocity=81 time=3\n",
      "note_on channel=9 note=40 velocity=0 time=9\n",
      "note_on channel=9 note=46 velocity=0 time=4\n",
      "note_on channel=9 note=36 velocity=123 time=23\n",
      "note_on channel=9 note=46 velocity=75 time=1\n",
      "note_on channel=9 note=36 velocity=0 time=13\n",
      "note_on channel=9 note=46 velocity=0 time=1\n",
      "note_on channel=9 note=40 velocity=117 time=23\n",
      "note_on channel=9 note=46 velocity=72 time=3\n",
      "note_on channel=9 note=40 velocity=0 time=9\n",
      "note_on channel=9 note=46 velocity=0 time=4\n",
      "note_on channel=9 note=36 velocity=116 time=22\n",
      "note_on channel=9 note=46 velocity=75 time=1\n",
      "note_on channel=9 note=36 velocity=0 time=9\n",
      "note_on channel=9 note=46 velocity=0 time=5\n",
      "note_on channel=9 note=36 velocity=121 time=4\n",
      "note_on channel=9 note=36 velocity=0 time=12\n",
      "note_on channel=9 note=40 velocity=122 time=7\n",
      "note_on channel=9 note=46 velocity=78 time=2\n",
      "note_on channel=9 note=40 velocity=0 time=10\n",
      "note_on channel=9 note=46 velocity=0 time=3\n",
      "note_on channel=9 note=36 velocity=122 time=23\n",
      "note_on channel=9 note=46 velocity=68 time=1\n",
      "note_on channel=9 note=36 velocity=0 time=14\n",
      "note_on channel=9 note=46 velocity=0 time=0\n",
      "note_on channel=9 note=40 velocity=121 time=24\n",
      "note_on channel=9 note=46 velocity=72 time=1\n",
      "note_on channel=9 note=40 velocity=0 time=11\n",
      "note_on channel=9 note=46 velocity=0 time=2\n",
      "note_on channel=9 note=36 velocity=116 time=24\n",
      "note_on channel=9 note=46 velocity=65 time=4\n",
      "note_on channel=9 note=36 velocity=0 time=6\n",
      "note_on channel=9 note=46 velocity=0 time=7\n",
      "note_on channel=9 note=36 velocity=117 time=2\n",
      "note_on channel=9 note=36 velocity=0 time=11\n",
      "note_on channel=9 note=40 velocity=122 time=8\n",
      "note_on channel=9 note=46 velocity=75 time=3\n",
      "note_on channel=9 note=40 velocity=0 time=9\n",
      "note_on channel=9 note=46 velocity=0 time=3\n",
      "note_on channel=9 note=36 velocity=123 time=23\n",
      "note_on channel=9 note=46 velocity=75 time=0\n",
      "note_on channel=9 note=46 velocity=0 time=13\n",
      "note_on channel=9 note=36 velocity=0 time=2\n",
      "note_on channel=9 note=40 velocity=117 time=23\n",
      "note_on channel=9 note=46 velocity=69 time=1\n",
      "note_on channel=9 note=40 velocity=0 time=12\n",
      "note_on channel=9 note=46 velocity=0 time=0\n",
      "note_on channel=9 note=46 velocity=73 time=25\n",
      "note_on channel=9 note=36 velocity=121 time=0\n",
      "note_on channel=9 note=36 velocity=0 time=11\n",
      "note_on channel=9 note=46 velocity=0 time=2\n",
      "note_on channel=9 note=36 velocity=120 time=7\n",
      "note_on channel=9 note=36 velocity=0 time=12\n",
      "note_on channel=9 note=40 velocity=122 time=7\n",
      "note_on channel=9 note=46 velocity=71 time=1\n",
      "note_on channel=9 note=40 velocity=0 time=10\n",
      "note_on channel=9 note=46 velocity=0 time=3\n",
      "note_on channel=9 note=46 velocity=75 time=23\n",
      "note_on channel=9 note=36 velocity=122 time=1\n",
      "note_on channel=9 note=46 velocity=0 time=12\n",
      "note_on channel=9 note=36 velocity=0 time=3\n",
      "note_on channel=9 note=46 velocity=69 time=22\n",
      "note_on channel=9 note=40 velocity=121 time=1\n",
      "note_on channel=9 note=46 velocity=0 time=12\n",
      "note_on channel=9 note=40 velocity=0 time=0\n",
      "note_on channel=9 note=46 velocity=79 time=26\n",
      "note_on channel=9 note=36 velocity=122 time=0\n",
      "note_on channel=9 note=36 velocity=0 time=11\n",
      "note_on channel=9 note=46 velocity=0 time=1\n",
      "note_on channel=9 note=36 velocity=115 time=7\n",
      "note_on channel=9 note=36 velocity=0 time=12\n",
      "note_on channel=9 note=46 velocity=71 time=7\n",
      "note_on channel=9 note=40 velocity=123 time=0\n",
      "note_on channel=9 note=40 velocity=0 time=11\n",
      "note_on channel=9 note=46 velocity=0 time=3\n",
      "note_on channel=9 note=36 velocity=122 time=25\n",
      "note_on channel=9 note=46 velocity=65 time=1\n",
      "note_on channel=9 note=36 velocity=0 time=12\n",
      "note_on channel=9 note=46 velocity=0 time=1\n",
      "note_on channel=9 note=40 velocity=122 time=24\n",
      "note_on channel=9 note=46 velocity=75 time=1\n",
      "note_on channel=9 note=40 velocity=0 time=12\n",
      "note_on channel=9 note=46 velocity=0 time=0\n",
      "note_on channel=9 note=36 velocity=122 time=25\n",
      "note_on channel=9 note=46 velocity=72 time=0\n",
      "note_on channel=9 note=46 velocity=0 time=12\n",
      "note_on channel=9 note=36 velocity=0 time=2\n",
      "note_on channel=9 note=40 velocity=122 time=24\n",
      "note_on channel=9 note=46 velocity=71 time=2\n",
      "note_on channel=9 note=40 velocity=0 time=11\n",
      "note_on channel=9 note=46 velocity=0 time=1\n",
      "note_on channel=9 note=36 velocity=123 time=24\n",
      "note_on channel=9 note=46 velocity=72 time=1\n",
      "note_on channel=9 note=46 velocity=0 time=12\n",
      "note_on channel=9 note=36 velocity=0 time=2\n",
      "note_on channel=9 note=46 velocity=73 time=22\n",
      "note_on channel=9 note=40 velocity=123 time=1\n",
      "note_on channel=9 note=46 velocity=0 time=12\n",
      "note_on channel=9 note=40 velocity=0 time=2\n",
      "note_on channel=9 note=46 velocity=71 time=24\n",
      "note_on channel=9 note=36 velocity=122 time=1\n",
      "note_on channel=9 note=36 velocity=0 time=10\n",
      "note_on channel=9 note=46 velocity=0 time=3\n",
      "note_on channel=9 note=36 velocity=122 time=6\n",
      "note_on channel=9 note=36 velocity=0 time=12\n",
      "note_on channel=9 note=40 velocity=120 time=7\n",
      "note_on channel=9 note=46 velocity=73 time=1\n",
      "note_on channel=9 note=40 velocity=0 time=11\n",
      "note_on channel=9 note=46 velocity=0 time=1\n",
      "note_on channel=9 note=38 velocity=85 time=25\n",
      "note_on channel=9 note=40 velocity=92 time=0\n",
      "note_on channel=9 note=38 velocity=0 time=2\n",
      "note_on channel=9 note=40 velocity=0 time=1\n",
      "note_on channel=9 note=36 velocity=86 time=14\n",
      "note_on channel=9 note=36 velocity=0 time=3\n",
      "note_on channel=9 note=38 velocity=82 time=16\n",
      "note_on channel=9 note=40 velocity=92 time=1\n",
      "note_on channel=9 note=38 velocity=0 time=1\n",
      "note_on channel=9 note=40 velocity=0 time=1\n",
      "note_on channel=9 note=36 velocity=91 time=17\n",
      "note_on channel=9 note=36 velocity=0 time=3\n",
      "note_on channel=9 note=38 velocity=79 time=17\n",
      "note_on channel=9 note=40 velocity=88 time=1\n",
      "note_on channel=9 note=38 velocity=0 time=1\n",
      "note_on channel=9 note=40 velocity=0 time=1\n",
      "note_on channel=9 note=38 velocity=79 time=5\n",
      "note_on channel=9 note=40 velocity=90 time=1\n",
      "note_on channel=9 note=38 velocity=0 time=1\n",
      "note_on channel=9 note=40 velocity=0 time=2\n",
      "note_on channel=9 note=36 velocity=93 time=7\n",
      "note_on channel=9 note=36 velocity=0 time=3\n",
      "note_on channel=9 note=38 velocity=87 time=15\n",
      "note_on channel=9 note=40 velocity=93 time=1\n",
      "note_on channel=9 note=38 velocity=0 time=1\n",
      "note_on channel=9 note=40 velocity=0 time=1\n",
      "note_on channel=9 note=36 velocity=93 time=16\n",
      "note_on channel=9 note=36 velocity=0 time=3\n",
      "note_on channel=9 note=36 velocity=118 time=18\n",
      "note_on channel=9 note=57 velocity=79 time=0\n",
      "note_on channel=9 note=57 velocity=0 time=12\n",
      "note_on channel=9 note=36 velocity=0 time=3\n",
      "note_on channel=9 note=53 velocity=123 time=22\n",
      "note_on channel=9 note=40 velocity=118 time=1\n",
      "note_on channel=9 note=53 velocity=0 time=4\n",
      "note_on channel=9 note=40 velocity=0 time=9\n",
      "note_on channel=9 note=53 velocity=125 time=24\n",
      "note_on channel=9 note=36 velocity=116 time=1\n",
      "note_on channel=9 note=53 velocity=0 time=3\n",
      "note_on channel=9 note=36 velocity=0 time=7\n",
      "note_on channel=9 note=36 velocity=118 time=9\n",
      "note_on channel=9 note=36 velocity=0 time=13\n",
      "note_on channel=9 note=53 velocity=122 time=5\n",
      "note_on channel=9 note=40 velocity=123 time=1\n",
      "note_on channel=9 note=53 velocity=0 time=3\n",
      "note_on channel=9 note=40 velocity=0 time=9\n",
      "note_on channel=9 note=53 velocity=124 time=26\n",
      "note_on channel=9 note=36 velocity=123 time=0\n",
      "note_on channel=9 note=53 velocity=0 time=4\n",
      "note_on channel=9 note=36 velocity=0 time=11\n",
      "note_on channel=9 note=40 velocity=117 time=24\n",
      "note_on channel=9 note=53 velocity=114 time=0\n",
      "note_on channel=9 note=53 velocity=0 time=4\n",
      "note_on channel=9 note=40 velocity=0 time=8\n",
      "note_on channel=9 note=36 velocity=116 time=26\n",
      "note_on channel=9 note=53 velocity=120 time=0\n",
      "note_on channel=9 note=53 velocity=0 time=4\n",
      "note_on channel=9 note=36 velocity=0 time=6\n",
      "note_on channel=9 note=36 velocity=121 time=9\n",
      "note_on channel=9 note=36 velocity=0 time=11\n",
      "note_on channel=9 note=53 velocity=124 time=7\n",
      "note_on channel=9 note=40 velocity=122 time=1\n",
      "note_on channel=9 note=53 velocity=0 time=3\n",
      "note_on channel=9 note=40 velocity=0 time=9\n",
      "note_on channel=9 note=36 velocity=122 time=26\n",
      "note_on channel=9 note=49 velocity=79 time=0\n",
      "note_on channel=9 note=36 velocity=0 time=14\n",
      "note_on channel=9 note=49 velocity=0 time=2\n",
      "note_on channel=9 note=53 velocity=124 time=22\n",
      "note_on channel=9 note=40 velocity=121 time=0\n",
      "note_on channel=9 note=53 velocity=0 time=4\n",
      "note_on channel=9 note=40 velocity=0 time=9\n",
      "note_on channel=9 note=53 velocity=119 time=25\n",
      "note_on channel=9 note=36 velocity=116 time=1\n",
      "note_on channel=9 note=53 velocity=0 time=3\n",
      "note_on channel=9 note=36 velocity=0 time=6\n",
      "note_on channel=9 note=36 velocity=117 time=10\n",
      "note_on channel=9 note=36 velocity=0 time=11\n",
      "note_on channel=9 note=53 velocity=124 time=6\n",
      "note_on channel=9 note=40 velocity=122 time=2\n",
      "note_on channel=9 note=53 velocity=0 time=2\n",
      "note_on channel=9 note=40 velocity=0 time=10\n",
      "note_on channel=9 note=53 velocity=125 time=25\n",
      "note_on channel=9 note=36 velocity=123 time=1\n",
      "note_on channel=9 note=53 velocity=0 time=4\n",
      "note_on channel=9 note=36 velocity=0 time=11\n",
      "note_on channel=9 note=53 velocity=125 time=23\n",
      "note_on channel=9 note=40 velocity=117 time=0\n",
      "note_on channel=9 note=53 velocity=0 time=4\n",
      "note_on channel=9 note=40 velocity=0 time=9\n",
      "note_on channel=9 note=53 velocity=125 time=25\n",
      "note_on channel=9 note=36 velocity=121 time=0\n",
      "note_on channel=9 note=53 velocity=0 time=4\n",
      "note_on channel=9 note=36 velocity=0 time=6\n",
      "note_on channel=9 note=36 velocity=120 time=9\n",
      "note_on channel=9 note=36 velocity=0 time=13\n",
      "note_on channel=9 note=40 velocity=122 time=6\n",
      "note_on channel=9 note=53 velocity=125 time=0\n",
      "note_on channel=9 note=53 velocity=0 time=5\n",
      "note_on channel=9 note=40 velocity=0 time=7\n",
      "note_on channel=9 note=36 velocity=122 time=27\n",
      "note_on channel=9 note=57 velocity=79 time=0\n",
      "note_on channel=9 note=57 velocity=0 time=12\n",
      "note_on channel=9 note=36 velocity=0 time=3\n",
      "note_on channel=9 note=53 velocity=125 time=22\n",
      "note_on channel=9 note=40 velocity=121 time=1\n",
      "note_on channel=9 note=53 velocity=0 time=3\n",
      "note_on channel=9 note=40 velocity=0 time=9\n",
      "note_on channel=9 note=36 velocity=122 time=26\n",
      "note_on channel=9 note=53 velocity=125 time=0\n",
      "note_on channel=9 note=53 velocity=0 time=5\n",
      "note_on channel=9 note=36 velocity=0 time=5\n",
      "note_on channel=9 note=36 velocity=115 time=9\n",
      "note_on channel=9 note=36 velocity=0 time=12\n",
      "note_on channel=9 note=53 velocity=124 time=5\n",
      "note_on channel=9 note=40 velocity=123 time=2\n",
      "note_on channel=9 note=53 velocity=0 time=3\n",
      "note_on channel=9 note=40 velocity=0 time=8\n",
      "note_on channel=9 note=53 velocity=124 time=26\n",
      "note_on channel=9 note=36 velocity=122 time=1\n",
      "note_on channel=9 note=53 velocity=0 time=4\n",
      "note_on channel=9 note=36 velocity=0 time=10\n",
      "note_on channel=9 note=53 velocity=125 time=24\n",
      "note_on channel=9 note=40 velocity=122 time=1\n",
      "note_on channel=9 note=53 velocity=0 time=3\n",
      "note_on channel=9 note=40 velocity=0 time=9\n",
      "note_on channel=9 note=53 velocity=125 time=25\n",
      "note_on channel=9 note=36 velocity=122 time=1\n",
      "note_on channel=9 note=53 velocity=0 time=4\n",
      "note_on channel=9 note=36 velocity=0 time=10\n",
      "note_on channel=9 note=53 velocity=119 time=24\n",
      "note_on channel=9 note=40 velocity=122 time=0\n",
      "note_on channel=9 note=53 velocity=0 time=3\n",
      "note_on channel=9 note=40 velocity=0 time=10\n",
      "note_on channel=9 note=36 velocity=123 time=25\n",
      "note_on channel=9 note=53 velocity=124 time=0\n",
      "note_on channel=9 note=53 velocity=0 time=4\n",
      "note_on channel=9 note=36 velocity=0 time=10\n",
      "note_on channel=9 note=40 velocity=123 time=24\n",
      "note_on channel=9 note=53 velocity=125 time=1\n",
      "note_on channel=9 note=53 velocity=0 time=4\n",
      "note_on channel=9 note=40 velocity=0 time=9\n",
      "note_on channel=9 note=36 velocity=122 time=24\n",
      "note_on channel=9 note=53 velocity=124 time=1\n",
      "note_on channel=9 note=53 velocity=0 time=4\n",
      "note_on channel=9 note=36 velocity=0 time=6\n",
      "note_on channel=9 note=36 velocity=122 time=9\n",
      "note_on channel=9 note=36 velocity=0 time=12\n",
      "note_on channel=9 note=53 velocity=125 time=6\n",
      "note_on channel=9 note=40 velocity=120 time=1\n",
      "note_on channel=9 note=53 velocity=0 time=3\n",
      "note_on channel=9 note=40 velocity=0 time=9\n",
      "note_on channel=9 note=36 velocity=99 time=26\n",
      "note_on channel=9 note=38 velocity=116 time=0\n",
      "note_on channel=9 note=53 velocity=125 time=0\n",
      "note_on channel=9 note=40 velocity=122 time=1\n",
      "note_on channel=9 note=36 velocity=0 time=3\n",
      "note_on channel=9 note=38 velocity=0 time=0\n",
      "note_on channel=9 note=53 velocity=0 time=0\n",
      "note_on channel=9 note=40 velocity=0 time=1\n",
      "<meta message end_of_track time=0>\n"
     ]
    }
   ],
   "source": [
    "alltracks=[[]]\n",
    "for i,track in enumerate(mid.tracks):\n",
    "    print('Track {}: {}'.format(i,track.name))\n",
    "    alltracks.append([])\n",
    "    for msg in track:\n",
    "        alltracks[i].append(msg)\n",
    "        print(msg)"
   ]
  },
  {
   "cell_type": "code",
   "execution_count": 41,
   "metadata": {},
   "outputs": [
    {
     "name": "stdout",
     "output_type": "stream",
     "text": [
      "[<meta message track_name name='Quick MUS->MID ! for WinTex' time=0>, <message program_change channel=0 program=30 time=0>, <message control_change channel=0 control=7 value=100 time=0>, <message control_change channel=0 control=10 value=24 time=0>, <message control_change channel=0 control=7 value=100 time=0>, <message control_change channel=0 control=10 value=24 time=0>, <message note_on channel=0 note=40 velocity=108 time=1221>, <message note_on channel=0 note=40 velocity=0 time=6>, <message note_on channel=0 note=40 velocity=114 time=13>, <message note_on channel=0 note=52 velocity=114 time=20>, <message note_on channel=0 note=40 velocity=0 time=2>, <message note_on channel=0 note=52 velocity=0 time=16>, <message note_on channel=0 note=40 velocity=110 time=1>, <message note_on channel=0 note=40 velocity=0 time=6>, <message note_on channel=0 note=40 velocity=110 time=13>, <message note_on channel=0 note=50 velocity=111 time=19>, <message note_on channel=0 note=40 velocity=0 time=2>, <message note_on channel=0 note=50 velocity=0 time=15>, <message note_on channel=0 note=40 velocity=104 time=2>, <message note_on channel=0 note=40 velocity=0 time=6>, <message note_on channel=0 note=40 velocity=111 time=13>, <message note_on channel=0 note=48 velocity=116 time=19>, <message note_on channel=0 note=40 velocity=0 time=0>, <message note_on channel=0 note=48 velocity=0 time=18>, <message note_on channel=0 note=40 velocity=108 time=1>, <message note_on channel=0 note=40 velocity=0 time=6>, <message note_on channel=0 note=40 velocity=110 time=13>, <message note_on channel=0 note=46 velocity=110 time=19>, <message note_on channel=0 note=40 velocity=0 time=2>, <message note_on channel=0 note=46 velocity=0 time=17>, <message note_on channel=0 note=40 velocity=110 time=0>, <message note_on channel=0 note=40 velocity=0 time=8>, <message note_on channel=0 note=40 velocity=111 time=12>, <message note_on channel=0 note=47 velocity=110 time=19>, <message note_on channel=0 note=47 velocity=0 time=18>, <message note_on channel=0 note=48 velocity=117 time=1>, <message note_on channel=0 note=40 velocity=0 time=13>, <message note_on channel=0 note=48 velocity=0 time=4>, <message note_on channel=0 note=40 velocity=111 time=2>, <message note_on channel=0 note=40 velocity=0 time=4>, <message note_on channel=0 note=40 velocity=111 time=15>, <message note_on channel=0 note=52 velocity=114 time=19>, <message note_on channel=0 note=40 velocity=0 time=4>, <message note_on channel=0 note=52 velocity=0 time=13>, <message note_on channel=0 note=40 velocity=106 time=2>, <message note_on channel=0 note=40 velocity=0 time=6>, <message note_on channel=0 note=40 velocity=108 time=13>, <message note_on channel=0 note=50 velocity=106 time=19>, <message note_on channel=0 note=40 velocity=0 time=3>, <message note_on channel=0 note=50 velocity=0 time=16>, <message note_on channel=0 note=40 velocity=114 time=0>, <message note_on channel=0 note=40 velocity=0 time=6>, <message note_on channel=0 note=40 velocity=106 time=13>, <message note_on channel=0 note=48 velocity=117 time=20>, <message note_on channel=0 note=40 velocity=0 time=0>, <message note_on channel=0 note=48 velocity=0 time=15>, <message note_on channel=0 note=40 velocity=111 time=4>, <message note_on channel=0 note=40 velocity=0 time=7>, <message note_on channel=0 note=40 velocity=114 time=12>, <message note_on channel=0 note=46 velocity=114 time=19>, <message pitchwheel channel=0 pitch=-256 time=8>, <message pitchwheel channel=0 pitch=128 time=2>, <message pitchwheel channel=0 pitch=512 time=1>, <message pitchwheel channel=0 pitch=896 time=1>, <message pitchwheel channel=0 pitch=1408 time=1>, <message pitchwheel channel=0 pitch=1664 time=1>, <message pitchwheel channel=0 pitch=1536 time=1>, <message pitchwheel channel=0 pitch=768 time=1>, <message pitchwheel channel=0 pitch=0 time=1>, <message pitchwheel channel=0 pitch=384 time=10>, <message pitchwheel channel=0 pitch=512 time=2>, <message pitchwheel channel=0 pitch=1408 time=1>, <message pitchwheel channel=0 pitch=1152 time=1>, <message pitchwheel channel=0 pitch=1280 time=1>, <message pitchwheel channel=0 pitch=2048 time=2>, <message pitchwheel channel=0 pitch=1920 time=1>, <message pitchwheel channel=0 pitch=1536 time=1>, <message pitchwheel channel=0 pitch=896 time=1>, <message pitchwheel channel=0 pitch=0 time=1>, <message pitchwheel channel=0 pitch=128 time=11>, <message pitchwheel channel=0 pitch=768 time=1>, <message pitchwheel channel=0 pitch=1152 time=1>, <message pitchwheel channel=0 pitch=1024 time=1>, <message pitchwheel channel=0 pitch=1280 time=1>, <message pitchwheel channel=0 pitch=1536 time=1>, <message pitchwheel channel=0 pitch=2048 time=1>, <message pitchwheel channel=0 pitch=1536 time=1>, <message pitchwheel channel=0 pitch=768 time=1>, <message pitchwheel channel=0 pitch=128 time=1>, <message pitchwheel channel=0 pitch=768 time=13>, <message pitchwheel channel=0 pitch=1152 time=1>, <message pitchwheel channel=0 pitch=1408 time=1>, <message pitchwheel channel=0 pitch=1920 time=1>, <message pitchwheel channel=0 pitch=1792 time=1>, <message pitchwheel channel=0 pitch=1664 time=1>, <message pitchwheel channel=0 pitch=512 time=3>, <message pitchwheel channel=0 pitch=0 time=1>, <message pitchwheel channel=0 pitch=512 time=11>, <message pitchwheel channel=0 pitch=640 time=1>, <message pitchwheel channel=0 pitch=1152 time=1>, <message note_on channel=0 note=40 velocity=0 time=0>, <message pitchwheel channel=0 pitch=1280 time=1>, <message pitchwheel channel=0 pitch=1536 time=1>, <message pitchwheel channel=0 pitch=0 time=0>, <message note_on channel=0 note=40 velocity=108 time=0>, <message note_on channel=0 note=46 velocity=0 time=3>, <message note_on channel=0 note=40 velocity=0 time=4>, <message note_on channel=0 note=40 velocity=107 time=12>, <message note_on channel=0 note=52 velocity=113 time=19>, <message note_on channel=0 note=40 velocity=0 time=9>, <message note_on channel=0 note=52 velocity=0 time=10>, <message note_on channel=0 note=40 velocity=105 time=1>, <message note_on channel=0 note=40 velocity=0 time=6>, <message note_on channel=0 note=40 velocity=111 time=13>, <message note_on channel=0 note=50 velocity=110 time=19>, <message note_on channel=0 note=40 velocity=0 time=3>, <message note_on channel=0 note=40 velocity=111 time=16>, <message note_on channel=0 note=50 velocity=0 time=0>, <message note_on channel=0 note=40 velocity=0 time=8>, <message note_on channel=0 note=40 velocity=114 time=11>, <message note_on channel=0 note=48 velocity=118 time=19>, <message note_on channel=0 note=40 velocity=0 time=1>, <message note_on channel=0 note=48 velocity=0 time=17>, <message note_on channel=0 note=40 velocity=106 time=1>, <message note_on channel=0 note=40 velocity=0 time=6>, <message note_on channel=0 note=40 velocity=108 time=13>, <message note_on channel=0 note=46 velocity=115 time=19>, <message note_on channel=0 note=40 velocity=0 time=1>, <message note_on channel=0 note=40 velocity=111 time=18>, <message note_on channel=0 note=46 velocity=0 time=3>, <message note_on channel=0 note=40 velocity=0 time=3>, <message note_on channel=0 note=40 velocity=111 time=13>, <message note_on channel=0 note=47 velocity=110 time=20>, <message note_on channel=0 note=47 velocity=0 time=18>, <message note_on channel=0 note=48 velocity=111 time=1>, <message note_on channel=0 note=40 velocity=0 time=10>, <message note_on channel=0 note=48 velocity=0 time=8>, <message note_on channel=0 note=40 velocity=110 time=1>, <message note_on channel=0 note=40 velocity=0 time=6>, <message note_on channel=0 note=40 velocity=108 time=13>, <message note_on channel=0 note=52 velocity=117 time=19>, <message note_on channel=0 note=40 velocity=0 time=14>, <message note_on channel=0 note=40 velocity=111 time=5>, <message note_on channel=0 note=52 velocity=0 time=2>, <message note_on channel=0 note=40 velocity=0 time=5>, <message note_on channel=0 note=40 velocity=108 time=12>, <message note_on channel=0 note=50 velocity=110 time=19>, <message note_on channel=0 note=40 velocity=0 time=5>, <message note_on channel=0 note=50 velocity=0 time=14>, <message note_on channel=0 note=40 velocity=114 time=0>, <message note_on channel=0 note=40 velocity=0 time=6>, <message note_on channel=0 note=40 velocity=115 time=13>, <message note_on channel=0 note=40 velocity=0 time=12>, <message note_on channel=0 note=63 velocity=112 time=7>, <message note_on channel=0 note=63 velocity=0 time=10>, <message note_on channel=0 note=60 velocity=105 time=0>, <message note_on channel=0 note=60 velocity=0 time=10>, <message note_on channel=0 note=59 velocity=112 time=0>, <message note_on channel=0 note=59 velocity=0 time=9>, <message note_on channel=0 note=63 velocity=103 time=0>, <message note_on channel=0 note=63 velocity=0 time=10>, <message note_on channel=0 note=66 velocity=111 time=0>, <message note_on channel=0 note=66 velocity=0 time=9>, <message note_on channel=0 note=64 velocity=102 time=0>, <message note_on channel=0 note=64 velocity=0 time=10>, <message note_on channel=0 note=63 velocity=113 time=0>, <message note_on channel=0 note=63 velocity=0 time=9>, <message note_on channel=0 note=59 velocity=103 time=0>, <message note_on channel=0 note=59 velocity=0 time=10>, <message note_on channel=0 note=63 velocity=111 time=0>, <message note_on channel=0 note=63 velocity=0 time=9>, <message note_on channel=0 note=64 velocity=101 time=0>, <message note_on channel=0 note=64 velocity=0 time=10>, <message note_on channel=0 note=66 velocity=112 time=0>, <message note_on channel=0 note=66 velocity=0 time=9>, <message note_on channel=0 note=67 velocity=103 time=0>, <message note_on channel=0 note=67 velocity=0 time=10>, <message note_on channel=0 note=66 velocity=110 time=0>, <message note_on channel=0 note=66 velocity=0 time=10>, <message note_on channel=0 note=64 velocity=100 time=0>, <message note_on channel=0 note=64 velocity=0 time=9>, <message note_on channel=0 note=63 velocity=113 time=0>, <message note_on channel=0 note=63 velocity=0 time=10>, <message note_on channel=0 note=59 velocity=103 time=0>, <message note_on channel=0 note=59 velocity=0 time=9>, <message note_on channel=0 note=40 velocity=108 time=0>, <message note_on channel=0 note=40 velocity=0 time=6>, <message note_on channel=0 note=40 velocity=114 time=13>, <message note_on channel=0 note=52 velocity=114 time=19>, <message note_on channel=0 note=40 velocity=0 time=3>, <message note_on channel=0 note=52 velocity=0 time=16>, <message note_on channel=0 note=40 velocity=110 time=0>, <message note_on channel=0 note=40 velocity=0 time=6>, <message note_on channel=0 note=40 velocity=110 time=14>, <message note_on channel=0 note=50 velocity=111 time=19>, <message note_on channel=0 note=40 velocity=0 time=2>, <message note_on channel=0 note=50 velocity=0 time=15>, <message note_on channel=0 note=40 velocity=104 time=2>, <message note_on channel=0 note=40 velocity=0 time=6>, <message note_on channel=0 note=40 velocity=111 time=13>, <message note_on channel=0 note=48 velocity=116 time=19>, <message note_on channel=0 note=40 velocity=0 time=0>, <message note_on channel=0 note=48 velocity=0 time=18>, <message note_on channel=0 note=40 velocity=108 time=1>, <message note_on channel=0 note=40 velocity=0 time=6>, <message note_on channel=0 note=40 velocity=110 time=13>, <message note_on channel=0 note=46 velocity=110 time=19>, <message note_on channel=0 note=40 velocity=0 time=2>, <message note_on channel=0 note=46 velocity=0 time=16>, <message note_on channel=0 note=40 velocity=110 time=1>, <message note_on channel=0 note=40 velocity=0 time=8>, <message note_on channel=0 note=40 velocity=111 time=11>, <message note_on channel=0 note=47 velocity=110 time=19>, <message note_on channel=0 note=47 velocity=0 time=19>, <message note_on channel=0 note=48 velocity=117 time=1>, <message note_on channel=0 note=40 velocity=0 time=12>, <message note_on channel=0 note=48 velocity=0 time=4>, <message note_on channel=0 note=40 velocity=111 time=3>, <message note_on channel=0 note=40 velocity=0 time=3>, <message note_on channel=0 note=40 velocity=111 time=16>, <message note_on channel=0 note=52 velocity=114 time=19>, <message note_on channel=0 note=40 velocity=0 time=4>, <message note_on channel=0 note=52 velocity=0 time=13>, <message note_on channel=0 note=40 velocity=106 time=2>, <message note_on channel=0 note=40 velocity=0 time=6>, <message note_on channel=0 note=40 velocity=108 time=13>, <message note_on channel=0 note=50 velocity=106 time=19>, <message note_on channel=0 note=40 velocity=0 time=3>, <message note_on channel=0 note=50 velocity=0 time=16>, <message note_on channel=0 note=40 velocity=114 time=0>, <message note_on channel=0 note=40 velocity=0 time=6>, <message note_on channel=0 note=40 velocity=106 time=13>, <message note_on channel=0 note=48 velocity=117 time=19>, <message note_on channel=0 note=40 velocity=0 time=1>, <message note_on channel=0 note=48 velocity=0 time=15>, <message note_on channel=0 note=40 velocity=111 time=3>, <message note_on channel=0 note=40 velocity=0 time=7>, <message note_on channel=0 note=40 velocity=114 time=13>, <message note_on channel=0 note=46 velocity=114 time=19>, <message pitchwheel channel=0 pitch=-256 time=7>, <message pitchwheel channel=0 pitch=-384 time=1>, <message pitchwheel channel=0 pitch=128 time=2>, <message pitchwheel channel=0 pitch=512 time=1>, <message pitchwheel channel=0 pitch=896 time=1>, <message pitchwheel channel=0 pitch=1408 time=1>, <message pitchwheel channel=0 pitch=1664 time=1>, <message pitchwheel channel=0 pitch=1536 time=1>, <message pitchwheel channel=0 pitch=768 time=1>, <message pitchwheel channel=0 pitch=0 time=1>, <message pitchwheel channel=0 pitch=384 time=10>, <message pitchwheel channel=0 pitch=512 time=2>, <message pitchwheel channel=0 pitch=1024 time=1>, <message pitchwheel channel=0 pitch=1152 time=1>, <message pitchwheel channel=0 pitch=1408 time=1>, <message pitchwheel channel=0 pitch=2048 time=2>, <message pitchwheel channel=0 pitch=1920 time=1>, <message pitchwheel channel=0 pitch=1536 time=1>, <message pitchwheel channel=0 pitch=384 time=1>, <message pitchwheel channel=0 pitch=128 time=12>, <message pitchwheel channel=0 pitch=768 time=1>, <message pitchwheel channel=0 pitch=1152 time=1>, <message pitchwheel channel=0 pitch=1024 time=1>, <message pitchwheel channel=0 pitch=1280 time=1>, <message pitchwheel channel=0 pitch=1920 time=1>, <message pitchwheel channel=0 pitch=1536 time=1>, <message pitchwheel channel=0 pitch=1280 time=1>, <message pitchwheel channel=0 pitch=768 time=1>, <message pitchwheel channel=0 pitch=128 time=1>, <message pitchwheel channel=0 pitch=768 time=12>, <message pitchwheel channel=0 pitch=1024 time=1>, <message pitchwheel channel=0 pitch=1408 time=2>, <message pitchwheel channel=0 pitch=1920 time=1>, <message pitchwheel channel=0 pitch=1792 time=1>, <message pitchwheel channel=0 pitch=1664 time=1>, <message pitchwheel channel=0 pitch=512 time=2>, <message pitchwheel channel=0 pitch=128 time=1>, <message pitchwheel channel=0 pitch=512 time=12>, <message pitchwheel channel=0 pitch=640 time=1>, <message pitchwheel channel=0 pitch=1152 time=1>, <message note_on channel=0 note=40 velocity=0 time=0>, <message pitchwheel channel=0 pitch=1280 time=1>, <message pitchwheel channel=0 pitch=1408 time=1>, <message pitchwheel channel=0 pitch=0 time=0>, <message note_on channel=0 note=40 velocity=108 time=0>, <message note_on channel=0 note=46 velocity=0 time=3>, <message note_on channel=0 note=40 velocity=0 time=4>, <message note_on channel=0 note=40 velocity=107 time=12>, <message note_on channel=0 note=52 velocity=113 time=19>, <message note_on channel=0 note=40 velocity=0 time=9>, <message note_on channel=0 note=52 velocity=0 time=10>, <message note_on channel=0 note=40 velocity=105 time=0>, <message note_on channel=0 note=40 velocity=0 time=7>, <message note_on channel=0 note=40 velocity=111 time=12>, <message note_on channel=0 note=50 velocity=110 time=20>, <message note_on channel=0 note=40 velocity=0 time=2>, <message note_on channel=0 note=40 velocity=111 time=17>, <message note_on channel=0 note=50 velocity=0 time=0>, <message note_on channel=0 note=40 velocity=0 time=7>, <message note_on channel=0 note=40 velocity=114 time=12>, <message note_on channel=0 note=48 velocity=118 time=19>, <message note_on channel=0 note=40 velocity=0 time=1>, <message note_on channel=0 note=48 velocity=0 time=17>, <message note_on channel=0 note=40 velocity=106 time=1>, <message note_on channel=0 note=40 velocity=0 time=6>, <message note_on channel=0 note=40 velocity=108 time=13>, <message note_on channel=0 note=46 velocity=115 time=19>, <message note_on channel=0 note=40 velocity=0 time=1>, <message note_on channel=0 note=40 velocity=111 time=18>, <message note_on channel=0 note=46 velocity=0 time=3>, <message note_on channel=0 note=40 velocity=0 time=3>, <message note_on channel=0 note=40 velocity=111 time=13>, <message note_on channel=0 note=47 velocity=110 time=19>, <message note_on channel=0 note=47 velocity=0 time=19>, <message note_on channel=0 note=48 velocity=111 time=0>, <message note_on channel=0 note=40 velocity=0 time=11>, <message note_on channel=0 note=48 velocity=0 time=8>, <message note_on channel=0 note=40 velocity=110 time=1>, <message note_on channel=0 note=40 velocity=0 time=6>, <message note_on channel=0 note=40 velocity=108 time=13>, <message note_on channel=0 note=52 velocity=117 time=19>, <message note_on channel=0 note=40 velocity=0 time=14>, <message note_on channel=0 note=40 velocity=111 time=5>, <message note_on channel=0 note=52 velocity=0 time=2>, <message note_on channel=0 note=40 velocity=0 time=5>, <message note_on channel=0 note=40 velocity=108 time=12>, <message note_on channel=0 note=50 velocity=110 time=19>, <message note_on channel=0 note=40 velocity=0 time=5>, <message note_on channel=0 note=50 velocity=0 time=14>, <message note_on channel=0 note=40 velocity=114 time=0>, <message note_on channel=0 note=40 velocity=0 time=6>, <message note_on channel=0 note=40 velocity=115 time=13>, <message note_on channel=0 note=40 velocity=0 time=11>, <message note_on channel=0 note=67 velocity=112 time=8>, <message note_on channel=0 note=67 velocity=0 time=10>, <message note_on channel=0 note=64 velocity=105 time=0>, <message note_on channel=0 note=64 velocity=0 time=9>, <message note_on channel=0 note=59 velocity=112 time=0>, <message note_on channel=0 note=59 velocity=0 time=10>, <message note_on channel=0 note=64 velocity=103 time=0>, <message note_on channel=0 note=64 velocity=0 time=9>, <message note_on channel=0 note=67 velocity=111 time=0>, <message note_on channel=0 note=67 velocity=0 time=10>, <message note_on channel=0 note=64 velocity=102 time=0>, <message note_on channel=0 note=64 velocity=0 time=10>, <message note_on channel=0 note=67 velocity=113 time=0>, <message note_on channel=0 note=67 velocity=0 time=9>, <message note_on channel=0 note=71 velocity=103 time=0>, <message note_on channel=0 note=71 velocity=0 time=10>, <message note_on channel=0 note=67 velocity=111 time=0>, <message note_on channel=0 note=67 velocity=0 time=9>, <message note_on channel=0 note=64 velocity=101 time=0>, <message note_on channel=0 note=64 velocity=0 time=10>, <message note_on channel=0 note=67 velocity=112 time=0>, <message note_on channel=0 note=67 velocity=0 time=9>, <message note_on channel=0 note=64 velocity=103 time=0>, <message note_on channel=0 note=64 velocity=0 time=10>, <message note_on channel=0 note=67 velocity=110 time=0>, <message note_on channel=0 note=67 velocity=0 time=9>, <message note_on channel=0 note=71 velocity=100 time=0>, <message note_on channel=0 note=71 velocity=0 time=10>, <message note_on channel=0 note=76 velocity=113 time=0>, <message note_on channel=0 note=76 velocity=0 time=9>, <message note_on channel=0 note=79 velocity=103 time=0>, <message note_on channel=0 note=79 velocity=0 time=10>, <message note_on channel=0 note=45 velocity=108 time=0>, <message note_on channel=0 note=45 velocity=0 time=5>, <message note_on channel=0 note=45 velocity=114 time=14>, <message note_on channel=0 note=57 velocity=114 time=19>, <message note_on channel=0 note=45 velocity=0 time=3>, <message note_on channel=0 note=57 velocity=0 time=16>, <message note_on channel=0 note=45 velocity=110 time=0>, <message note_on channel=0 note=45 velocity=0 time=6>, <message note_on channel=0 note=45 velocity=110 time=13>, <message note_on channel=0 note=55 velocity=111 time=19>, <message note_on channel=0 note=45 velocity=0 time=3>, <message note_on channel=0 note=55 velocity=0 time=15>, <message note_on channel=0 note=45 velocity=104 time=2>, <message note_on channel=0 note=45 velocity=0 time=6>, <message note_on channel=0 note=45 velocity=111 time=13>, <message note_on channel=0 note=53 velocity=116 time=19>, <message note_on channel=0 note=45 velocity=0 time=0>, <message note_on channel=0 note=53 velocity=0 time=18>, <message note_on channel=0 note=45 velocity=108 time=1>, <message note_on channel=0 note=45 velocity=0 time=6>, <message note_on channel=0 note=45 velocity=110 time=13>, <message note_on channel=0 note=51 velocity=110 time=19>, <message note_on channel=0 note=45 velocity=0 time=1>, <message note_on channel=0 note=51 velocity=0 time=17>, <message note_on channel=0 note=45 velocity=110 time=1>, <message note_on channel=0 note=45 velocity=0 time=8>, <message note_on channel=0 note=45 velocity=111 time=11>, <message note_on channel=0 note=52 velocity=110 time=19>, <message note_on channel=0 note=52 velocity=0 time=19>, <message note_on channel=0 note=53 velocity=117 time=0>, <message note_on channel=0 note=45 velocity=0 time=13>, <message note_on channel=0 note=53 velocity=0 time=4>, <message note_on channel=0 note=45 velocity=111 time=2>, <message note_on channel=0 note=45 velocity=0 time=4>, <message note_on channel=0 note=45 velocity=111 time=16>, <message note_on channel=0 note=57 velocity=114 time=19>, <message note_on channel=0 note=45 velocity=0 time=4>, <message note_on channel=0 note=57 velocity=0 time=13>, <message note_on channel=0 note=45 velocity=106 time=2>, <message note_on channel=0 note=45 velocity=0 time=6>, <message note_on channel=0 note=45 velocity=108 time=13>, <message note_on channel=0 note=55 velocity=106 time=19>, <message note_on channel=0 note=45 velocity=0 time=2>, <message note_on channel=0 note=55 velocity=0 time=17>, <message note_on channel=0 note=45 velocity=114 time=0>, <message note_on channel=0 note=45 velocity=0 time=6>, <message note_on channel=0 note=45 velocity=106 time=13>, <message note_on channel=0 note=53 velocity=117 time=19>, <message note_on channel=0 note=45 velocity=0 time=1>, <message note_on channel=0 note=53 velocity=0 time=15>, <message note_on channel=0 note=45 velocity=111 time=3>, <message note_on channel=0 note=45 velocity=0 time=7>, <message note_on channel=0 note=45 velocity=114 time=12>, <message note_on channel=0 note=51 velocity=114 time=19>, <message pitchwheel channel=0 pitch=-256 time=8>, <message pitchwheel channel=0 pitch=-384 time=1>, <message pitchwheel channel=0 pitch=128 time=2>, <message pitchwheel channel=0 pitch=768 time=1>, <message pitchwheel channel=0 pitch=896 time=1>, <message pitchwheel channel=0 pitch=1536 time=1>, <message pitchwheel channel=0 pitch=1920 time=1>, <message pitchwheel channel=0 pitch=1536 time=1>, <message pitchwheel channel=0 pitch=768 time=1>, <message pitchwheel channel=0 pitch=0 time=1>, <message pitchwheel channel=0 pitch=384 time=9>, <message pitchwheel channel=0 pitch=640 time=1>, <message pitchwheel channel=0 pitch=384 time=1>, <message pitchwheel channel=0 pitch=1024 time=1>, <message pitchwheel channel=0 pitch=1152 time=2>, <message pitchwheel channel=0 pitch=1408 time=1>, <message pitchwheel channel=0 pitch=2048 time=1>, <message pitchwheel channel=0 pitch=1920 time=2>, <message pitchwheel channel=0 pitch=1280 time=1>, <message pitchwheel channel=0 pitch=128 time=1>, <message pitchwheel channel=0 pitch=384 time=12>, <message pitchwheel channel=0 pitch=768 time=1>, <message pitchwheel channel=0 pitch=1152 time=1>, <message pitchwheel channel=0 pitch=1024 time=1>, <message pitchwheel channel=0 pitch=1280 time=1>, <message pitchwheel channel=0 pitch=1920 time=1>, <message pitchwheel channel=0 pitch=1536 time=1>, <message pitchwheel channel=0 pitch=1280 time=1>, <message pitchwheel channel=0 pitch=384 time=1>, <message pitchwheel channel=0 pitch=0 time=1>, <message pitchwheel channel=0 pitch=768 time=12>, <message pitchwheel channel=0 pitch=1024 time=1>, <message pitchwheel channel=0 pitch=1408 time=2>, <message pitchwheel channel=0 pitch=1920 time=1>, <message pitchwheel channel=0 pitch=1536 time=1>, <message pitchwheel channel=0 pitch=1792 time=1>, <message pitchwheel channel=0 pitch=512 time=2>, <message pitchwheel channel=0 pitch=0 time=1>, <message pitchwheel channel=0 pitch=512 time=12>, <message pitchwheel channel=0 pitch=1024 time=1>, <message pitchwheel channel=0 pitch=1152 time=0>, <message note_on channel=0 note=45 velocity=0 time=0>, <message pitchwheel channel=0 pitch=1280 time=2>, <message pitchwheel channel=0 pitch=1408 time=1>, <message pitchwheel channel=0 pitch=0 time=0>, <message note_on channel=0 note=45 velocity=108 time=0>, <message note_on channel=0 note=51 velocity=0 time=3>, <message note_on channel=0 note=45 velocity=0 time=3>, <message note_on channel=0 note=45 velocity=107 time=13>, <message note_on channel=0 note=57 velocity=113 time=19>, <message note_on channel=0 note=45 velocity=0 time=8>, <message note_on channel=0 note=57 velocity=0 time=11>, <message note_on channel=0 note=45 velocity=105 time=0>, <message note_on channel=0 note=45 velocity=0 time=7>, <message note_on channel=0 note=45 velocity=111 time=12>, <message note_on channel=0 note=55 velocity=110 time=19>, <message note_on channel=0 note=45 velocity=0 time=3>, <message note_on channel=0 note=45 velocity=111 time=16>, <message note_on channel=0 note=55 velocity=0 time=1>, <message note_on channel=0 note=45 velocity=0 time=7>, <message note_on channel=0 note=45 velocity=114 time=12>, <message note_on channel=0 note=53 velocity=118 time=19>, <message note_on channel=0 note=45 velocity=0 time=1>, <message note_on channel=0 note=53 velocity=0 time=17>, <message note_on channel=0 note=45 velocity=106 time=1>, <message note_on channel=0 note=45 velocity=0 time=6>, <message note_on channel=0 note=45 velocity=108 time=13>, <message note_on channel=0 note=51 velocity=115 time=19>, <message note_on channel=0 note=45 velocity=0 time=1>, <message note_on channel=0 note=45 velocity=111 time=18>, <message note_on channel=0 note=51 velocity=0 time=2>, <message note_on channel=0 note=45 velocity=0 time=4>, <message note_on channel=0 note=45 velocity=111 time=13>, <message note_on channel=0 note=52 velocity=110 time=19>, <message note_on channel=0 note=52 velocity=0 time=19>, <message note_on channel=0 note=53 velocity=111 time=0>, <message note_on channel=0 note=45 velocity=0 time=11>, <message note_on channel=0 note=53 velocity=0 time=8>, <message note_on channel=0 note=45 velocity=110 time=0>, <message note_on channel=0 note=45 velocity=0 time=7>, <message note_on channel=0 note=45 velocity=108 time=12>, <message note_on channel=0 note=57 velocity=117 time=20>, <message note_on channel=0 note=45 velocity=0 time=14>, <message note_on channel=0 note=45 velocity=111 time=5>, <message note_on channel=0 note=57 velocity=0 time=2>, <message note_on channel=0 note=45 velocity=0 time=4>, <message note_on channel=0 note=45 velocity=108 time=13>, <message note_on channel=0 note=55 velocity=110 time=19>, <message note_on channel=0 note=45 velocity=0 time=5>, <message note_on channel=0 note=55 velocity=0 time=14>, <message note_on channel=0 note=45 velocity=114 time=0>, <message note_on channel=0 note=45 velocity=0 time=5>, <message note_on channel=0 note=45 velocity=115 time=14>, <message note_on channel=0 note=45 velocity=0 time=11>, <message note_on channel=0 note=69 velocity=112 time=8>, <message note_on channel=0 note=69 velocity=0 time=10>, <message note_on channel=0 note=65 velocity=105 time=0>, <message note_on channel=0 note=65 velocity=0 time=9>, <message note_on channel=0 note=64 velocity=112 time=0>, <message note_on channel=0 note=64 velocity=0 time=10>, <message note_on channel=0 note=69 velocity=103 time=0>, <message note_on channel=0 note=69 velocity=0 time=9>, <message note_on channel=0 note=64 velocity=111 time=0>, <message note_on channel=0 note=64 velocity=0 time=10>, <message note_on channel=0 note=60 velocity=102 time=0>, <message note_on channel=0 note=60 velocity=0 time=9>, <message note_on channel=0 note=64 velocity=113 time=0>, <message note_on channel=0 note=64 velocity=0 time=10>, <message note_on channel=0 note=69 velocity=103 time=0>, <message note_on channel=0 note=69 velocity=0 time=9>, <message note_on channel=0 note=72 velocity=111 time=0>, <message note_on channel=0 note=72 velocity=0 time=10>, <message note_on channel=0 note=69 velocity=101 time=0>, <message note_on channel=0 note=69 velocity=0 time=10>, <message note_on channel=0 note=64 velocity=112 time=0>, <message note_on channel=0 note=64 velocity=0 time=9>, <message note_on channel=0 note=69 velocity=103 time=0>, <message note_on channel=0 note=69 velocity=0 time=10>, <message note_on channel=0 note=64 velocity=110 time=0>, <message note_on channel=0 note=64 velocity=0 time=9>, <message note_on channel=0 note=69 velocity=100 time=0>, <message note_on channel=0 note=69 velocity=0 time=10>, <message note_on channel=0 note=64 velocity=113 time=0>, <message note_on channel=0 note=64 velocity=0 time=9>, <message note_on channel=0 note=60 velocity=103 time=0>, <message note_on channel=0 note=60 velocity=0 time=10>, <message note_on channel=0 note=40 velocity=108 time=0>, <message note_on channel=0 note=40 velocity=0 time=5>, <message note_on channel=0 note=40 velocity=114 time=14>, <message note_on channel=0 note=52 velocity=114 time=19>, <message note_on channel=0 note=40 velocity=0 time=3>, <message note_on channel=0 note=52 velocity=0 time=15>, <message note_on channel=0 note=40 velocity=110 time=1>, <message note_on channel=0 note=40 velocity=0 time=6>, <message note_on channel=0 note=40 velocity=110 time=13>, <message note_on channel=0 note=50 velocity=111 time=19>, <message note_on channel=0 note=40 velocity=0 time=3>, <message note_on channel=0 note=50 velocity=0 time=14>, <message note_on channel=0 note=40 velocity=104 time=2>, <message note_on channel=0 note=40 velocity=0 time=7>, <message note_on channel=0 note=40 velocity=111 time=12>, <message note_on channel=0 note=48 velocity=116 time=20>, <message note_on channel=0 note=40 velocity=0 time=0>, <message note_on channel=0 note=48 velocity=0 time=18>, <message note_on channel=0 note=40 velocity=108 time=1>, <message note_on channel=0 note=40 velocity=0 time=6>, <message note_on channel=0 note=40 velocity=110 time=13>, <message note_on channel=0 note=46 velocity=110 time=19>, <message note_on channel=0 note=40 velocity=0 time=1>, <message note_on channel=0 note=46 velocity=0 time=17>, <message note_on channel=0 note=40 velocity=110 time=1>, <message note_on channel=0 note=40 velocity=0 time=8>, <message note_on channel=0 note=40 velocity=111 time=11>, <message note_on channel=0 note=47 velocity=110 time=19>, <message note_on channel=0 note=47 velocity=0 time=18>, <message note_on channel=0 note=48 velocity=117 time=1>, <message note_on channel=0 note=40 velocity=0 time=13>, <message note_on channel=0 note=48 velocity=0 time=4>, <message note_on channel=0 note=40 velocity=111 time=2>, <message note_on channel=0 note=40 velocity=0 time=4>, <message note_on channel=0 note=40 velocity=111 time=15>, <message note_on channel=0 note=52 velocity=114 time=19>, <message note_on channel=0 note=40 velocity=0 time=4>, <message note_on channel=0 note=52 velocity=0 time=14>, <message note_on channel=0 note=40 velocity=106 time=2>, <message note_on channel=0 note=40 velocity=0 time=5>, <message note_on channel=0 note=40 velocity=108 time=14>, <message note_on channel=0 note=50 velocity=106 time=19>, <message note_on channel=0 note=40 velocity=0 time=2>, <message note_on channel=0 note=50 velocity=0 time=16>, <message note_on channel=0 note=40 velocity=114 time=1>, <message note_on channel=0 note=40 velocity=0 time=6>, <message note_on channel=0 note=40 velocity=106 time=13>, <message note_on channel=0 note=48 velocity=117 time=19>, <message note_on channel=0 note=40 velocity=0 time=1>, <message note_on channel=0 note=48 velocity=0 time=15>, <message note_on channel=0 note=40 velocity=111 time=3>, <message note_on channel=0 note=40 velocity=0 time=7>, <message note_on channel=0 note=40 velocity=114 time=12>, <message note_on channel=0 note=46 velocity=114 time=19>, <message pitchwheel channel=0 pitch=-256 time=8>, <message pitchwheel channel=0 pitch=0 time=1>, <message pitchwheel channel=0 pitch=128 time=1>, <message pitchwheel channel=0 pitch=512 time=1>, <message pitchwheel channel=0 pitch=768 time=1>, <message pitchwheel channel=0 pitch=896 time=1>, <message pitchwheel channel=0 pitch=1536 time=1>, <message pitchwheel channel=0 pitch=1920 time=1>, <message pitchwheel channel=0 pitch=1536 time=1>, <message pitchwheel channel=0 pitch=768 time=1>, <message pitchwheel channel=0 pitch=384 time=10>, <message pitchwheel channel=0 pitch=640 time=1>, <message pitchwheel channel=0 pitch=384 time=1>, <message pitchwheel channel=0 pitch=1024 time=1>, <message pitchwheel channel=0 pitch=1152 time=1>, <message pitchwheel channel=0 pitch=1280 time=1>, <message pitchwheel channel=0 pitch=1408 time=1>, <message pitchwheel channel=0 pitch=2048 time=1>, <message pitchwheel channel=0 pitch=1920 time=2>, <message pitchwheel channel=0 pitch=1280 time=1>, <message pitchwheel channel=0 pitch=128 time=1>, <message pitchwheel channel=0 pitch=384 time=12>, <message pitchwheel channel=0 pitch=896 time=1>, <message pitchwheel channel=0 pitch=1280 time=1>, <message pitchwheel channel=0 pitch=1536 time=2>, <message pitchwheel channel=0 pitch=1920 time=1>, <message pitchwheel channel=0 pitch=1536 time=1>, <message pitchwheel channel=0 pitch=1280 time=1>, <message pitchwheel channel=0 pitch=384 time=1>, <message pitchwheel channel=0 pitch=0 time=1>, <message pitchwheel channel=0 pitch=768 time=12>, <message pitchwheel channel=0 pitch=1152 time=1>, <message pitchwheel channel=0 pitch=1408 time=1>, <message pitchwheel channel=0 pitch=1664 time=1>, <message pitchwheel channel=0 pitch=1792 time=1>, <message pitchwheel channel=0 pitch=1536 time=1>, <message pitchwheel channel=0 pitch=1664 time=1>, <message pitchwheel channel=0 pitch=512 time=2>, <message pitchwheel channel=0 pitch=0 time=1>, <message pitchwheel channel=0 pitch=512 time=12>, <message pitchwheel channel=0 pitch=1024 time=1>, <message pitchwheel channel=0 pitch=1152 time=0>, <message note_on channel=0 note=40 velocity=0 time=0>, <message pitchwheel channel=0 pitch=1280 time=2>, <message pitchwheel channel=0 pitch=0 time=1>, <message note_on channel=0 note=40 velocity=108 time=0>, <message note_on channel=0 note=46 velocity=0 time=3>, <message note_on channel=0 note=40 velocity=0 time=3>, <message note_on channel=0 note=40 velocity=107 time=13>, <message note_on channel=0 note=52 velocity=113 time=19>, <message note_on channel=0 note=40 velocity=0 time=8>, <message note_on channel=0 note=52 velocity=0 time=10>, <message note_on channel=0 note=40 velocity=105 time=1>, <message note_on channel=0 note=40 velocity=0 time=6>, <message note_on channel=0 note=40 velocity=111 time=13>, <message note_on channel=0 note=50 velocity=110 time=19>, <message note_on channel=0 note=40 velocity=0 time=3>, <message note_on channel=0 note=40 velocity=111 time=16>, <message note_on channel=0 note=50 velocity=0 time=0>, <message note_on channel=0 note=40 velocity=0 time=8>, <message note_on channel=0 note=40 velocity=114 time=11>, <message note_on channel=0 note=48 velocity=118 time=19>, <message note_on channel=0 note=40 velocity=0 time=2>, <message note_on channel=0 note=48 velocity=0 time=17>, <message note_on channel=0 note=40 velocity=106 time=1>, <message note_on channel=0 note=40 velocity=0 time=6>, <message note_on channel=0 note=40 velocity=108 time=13>, <message note_on channel=0 note=46 velocity=115 time=19>, <message note_on channel=0 note=40 velocity=0 time=1>, <message note_on channel=0 note=40 velocity=111 time=18>, <message note_on channel=0 note=46 velocity=0 time=2>, <message note_on channel=0 note=40 velocity=0 time=4>, <message note_on channel=0 note=40 velocity=111 time=13>, <message note_on channel=0 note=47 velocity=110 time=19>, <message note_on channel=0 note=47 velocity=0 time=19>, <message note_on channel=0 note=48 velocity=111 time=0>, <message note_on channel=0 note=40 velocity=0 time=11>, <message note_on channel=0 note=48 velocity=0 time=8>, <message note_on channel=0 note=40 velocity=110 time=0>, <message note_on channel=0 note=40 velocity=0 time=7>, <message note_on channel=0 note=40 velocity=108 time=12>, <message note_on channel=0 note=52 velocity=117 time=19>, <message note_on channel=0 note=40 velocity=0 time=14>, <message note_on channel=0 note=40 velocity=111 time=5>, <message note_on channel=0 note=52 velocity=0 time=3>, <message note_on channel=0 note=40 velocity=0 time=4>, <message note_on channel=0 note=40 velocity=108 time=13>, <message note_on channel=0 note=50 velocity=110 time=19>, <message note_on channel=0 note=40 velocity=0 time=5>, <message note_on channel=0 note=50 velocity=0 time=14>, <message note_on channel=0 note=40 velocity=114 time=0>, <message note_on channel=0 note=40 velocity=0 time=5>, <message note_on channel=0 note=40 velocity=115 time=14>, <message note_on channel=0 note=40 velocity=0 time=19>, <message note_on channel=0 note=48 velocity=117 time=0>, <message note_on channel=0 note=40 velocity=111 time=19>, <message note_on channel=0 note=40 velocity=0 time=7>, <message note_on channel=0 note=48 velocity=0 time=3>, <message note_on channel=0 note=40 velocity=114 time=9>, <message note_on channel=0 note=46 velocity=114 time=19>, <message pitchwheel channel=0 pitch=-256 time=8>, <message pitchwheel channel=0 pitch=0 time=1>, <message pitchwheel channel=0 pitch=128 time=1>, <message pitchwheel channel=0 pitch=512 time=1>, <message pitchwheel channel=0 pitch=768 time=1>, <message pitchwheel channel=0 pitch=1280 time=1>, <message pitchwheel channel=0 pitch=1536 time=1>, <message pitchwheel channel=0 pitch=1792 time=1>, <message pitchwheel channel=0 pitch=1408 time=1>, <message pitchwheel channel=0 pitch=256 time=1>, <message pitchwheel channel=0 pitch=384 time=10>, <message pitchwheel channel=0 pitch=640 time=1>, <message pitchwheel channel=0 pitch=384 time=1>, <message pitchwheel channel=0 pitch=1024 time=1>, <message pitchwheel channel=0 pitch=1152 time=1>, <message pitchwheel channel=0 pitch=1280 time=1>, <message pitchwheel channel=0 pitch=1408 time=1>, <message pitchwheel channel=0 pitch=2048 time=1>, <message pitchwheel channel=0 pitch=1920 time=2>, <message pitchwheel channel=0 pitch=1280 time=1>, <message pitchwheel channel=0 pitch=128 time=1>, <message pitchwheel channel=0 pitch=384 time=11>, <message pitchwheel channel=0 pitch=768 time=1>, <message pitchwheel channel=0 pitch=896 time=1>, <message pitchwheel channel=0 pitch=1280 time=1>, <message pitchwheel channel=0 pitch=1536 time=2>, <message pitchwheel channel=0 pitch=1920 time=1>, <message pitchwheel channel=0 pitch=1536 time=1>, <message pitchwheel channel=0 pitch=896 time=1>, <message pitchwheel channel=0 pitch=384 time=1>, <message pitchwheel channel=0 pitch=0 time=1>, <message pitchwheel channel=0 pitch=768 time=12>, <message pitchwheel channel=0 pitch=1152 time=1>, <message pitchwheel channel=0 pitch=1408 time=1>, <message pitchwheel channel=0 pitch=1664 time=1>, <message pitchwheel channel=0 pitch=1792 time=1>, <message pitchwheel channel=0 pitch=1536 time=1>, <message pitchwheel channel=0 pitch=1664 time=1>, <message pitchwheel channel=0 pitch=512 time=2>, <message pitchwheel channel=0 pitch=0 time=1>, <message pitchwheel channel=0 pitch=512 time=12>, <message pitchwheel channel=0 pitch=1024 time=1>, <message pitchwheel channel=0 pitch=1152 time=0>, <message note_on channel=0 note=40 velocity=0 time=0>, <message pitchwheel channel=0 pitch=1280 time=2>, <message pitchwheel channel=0 pitch=0 time=1>, <message note_on channel=0 note=46 velocity=0 time=0>, <message note_on channel=0 note=49 velocity=108 time=0>, <message note_on channel=0 note=49 velocity=0 time=5>, <message note_on channel=0 note=49 velocity=114 time=14>, <message note_on channel=0 note=61 velocity=114 time=19>, <message note_on channel=0 note=49 velocity=0 time=2>, <message note_on channel=0 note=61 velocity=0 time=16>, <message note_on channel=0 note=49 velocity=110 time=1>, <message note_on channel=0 note=49 velocity=0 time=6>, <message note_on channel=0 note=49 velocity=110 time=13>, <message note_on channel=0 note=59 velocity=111 time=19>, <message note_on channel=0 note=49 velocity=0 time=2>, <message note_on channel=0 note=59 velocity=0 time=15>, <message note_on channel=0 note=49 velocity=104 time=2>, <message note_on channel=0 note=49 velocity=0 time=7>, <message note_on channel=0 note=49 velocity=111 time=12>, <message note_on channel=0 note=57 velocity=116 time=19>, <message note_on channel=0 note=49 velocity=0 time=1>, <message note_on channel=0 note=57 velocity=0 time=18>, <message note_on channel=0 note=49 velocity=108 time=0>, <message note_on channel=0 note=49 velocity=0 time=7>, <message note_on channel=0 note=49 velocity=110 time=13>, <message note_on channel=0 note=55 velocity=110 time=19>, <message note_on channel=0 note=49 velocity=0 time=1>, <message note_on channel=0 note=55 velocity=0 time=17>, <message note_on channel=0 note=49 velocity=110 time=1>, <message note_on channel=0 note=49 velocity=0 time=8>, <message note_on channel=0 note=49 velocity=111 time=11>, <message note_on channel=0 note=56 velocity=110 time=19>, <message note_on channel=0 note=56 velocity=0 time=18>, <message note_on channel=0 note=57 velocity=117 time=1>, <message note_on channel=0 note=49 velocity=0 time=13>, <message note_on channel=0 note=57 velocity=0 time=4>, <message note_on channel=0 note=47 velocity=111 time=2>, <message note_on channel=0 note=47 velocity=0 time=4>, <message note_on channel=0 note=47 velocity=111 time=15>, <message note_on channel=0 note=59 velocity=114 time=19>, <message note_on channel=0 note=47 velocity=0 time=4>, <message note_on channel=0 note=59 velocity=0 time=14>, <message note_on channel=0 note=47 velocity=106 time=1>, <message note_on channel=0 note=47 velocity=0 time=6>, <message note_on channel=0 note=47 velocity=108 time=13>, <message note_on channel=0 note=57 velocity=106 time=20>, <message note_on channel=0 note=47 velocity=0 time=2>, <message note_on channel=0 note=57 velocity=0 time=16>, <message note_on channel=0 note=47 velocity=114 time=1>, <message note_on channel=0 note=47 velocity=0 time=6>, <message note_on channel=0 note=47 velocity=106 time=13>, <message note_on channel=0 note=55 velocity=117 time=19>, <message note_on channel=0 note=47 velocity=0 time=1>, <message note_on channel=0 note=55 velocity=0 time=15>, <message note_on channel=0 note=46 velocity=111 time=3>, <message note_on channel=0 note=46 velocity=0 time=9>, <message note_on channel=0 note=45 velocity=114 time=10>, <message note_on channel=0 note=53 velocity=114 time=19>, <message pitchwheel channel=0 pitch=-256 time=8>, <message pitchwheel channel=0 pitch=0 time=1>, <message pitchwheel channel=0 pitch=128 time=1>, <message pitchwheel channel=0 pitch=512 time=1>, <message pitchwheel channel=0 pitch=768 time=1>, <message pitchwheel channel=0 pitch=1280 time=1>, <message pitchwheel channel=0 pitch=1536 time=1>, <message pitchwheel channel=0 pitch=1792 time=1>, <message pitchwheel channel=0 pitch=1408 time=1>, <message pitchwheel channel=0 pitch=256 time=1>, <message pitchwheel channel=0 pitch=384 time=10>, <message pitchwheel channel=0 pitch=640 time=1>, <message pitchwheel channel=0 pitch=512 time=1>, <message pitchwheel channel=0 pitch=1408 time=1>, <message pitchwheel channel=0 pitch=1152 time=1>, <message pitchwheel channel=0 pitch=1280 time=1>, <message pitchwheel channel=0 pitch=1408 time=1>, <message pitchwheel channel=0 pitch=2048 time=1>, <message pitchwheel channel=0 pitch=1920 time=2>, <message pitchwheel channel=0 pitch=896 time=1>, <message pitchwheel channel=0 pitch=0 time=1>, <message pitchwheel channel=0 pitch=128 time=11>, <message pitchwheel channel=0 pitch=768 time=1>, <message pitchwheel channel=0 pitch=896 time=1>, <message pitchwheel channel=0 pitch=1280 time=1>, <message pitchwheel channel=0 pitch=1536 time=2>, <message pitchwheel channel=0 pitch=1920 time=1>, <message pitchwheel channel=0 pitch=1536 time=1>, <message pitchwheel channel=0 pitch=896 time=1>, <message pitchwheel channel=0 pitch=384 time=1>, <message pitchwheel channel=0 pitch=0 time=1>, <message pitchwheel channel=0 pitch=768 time=12>, <message pitchwheel channel=0 pitch=1152 time=1>, <message pitchwheel channel=0 pitch=1408 time=1>, <message pitchwheel channel=0 pitch=1664 time=1>, <message pitchwheel channel=0 pitch=1792 time=1>, <message pitchwheel channel=0 pitch=1536 time=1>, <message pitchwheel channel=0 pitch=1664 time=1>, <message pitchwheel channel=0 pitch=512 time=2>, <message pitchwheel channel=0 pitch=0 time=1>, <message pitchwheel channel=0 pitch=512 time=12>, <message pitchwheel channel=0 pitch=1024 time=1>, <message pitchwheel channel=0 pitch=1152 time=0>, <message note_on channel=0 note=45 velocity=0 time=0>, <message pitchwheel channel=0 pitch=1280 time=2>, <message pitchwheel channel=0 pitch=0 time=1>, <message note_on channel=0 note=40 velocity=108 time=0>, <message note_on channel=0 note=53 velocity=0 time=2>, <message note_on channel=0 note=40 velocity=0 time=4>, <message note_on channel=0 note=40 velocity=107 time=13>, <message note_on channel=0 note=52 velocity=113 time=19>, <message note_on channel=0 note=40 velocity=0 time=8>, <message note_on channel=0 note=52 velocity=0 time=10>, <message note_on channel=0 note=40 velocity=105 time=1>, <message note_on channel=0 note=40 velocity=0 time=6>, <message note_on channel=0 note=40 velocity=111 time=13>, <message note_on channel=0 note=50 velocity=110 time=19>, <message note_on channel=0 note=40 velocity=0 time=3>, <message note_on channel=0 note=40 velocity=111 time=16>, <message note_on channel=0 note=50 velocity=0 time=0>, <message note_on channel=0 note=40 velocity=0 time=8>, <message note_on channel=0 note=40 velocity=114 time=11>, <message note_on channel=0 note=48 velocity=118 time=19>, <message note_on channel=0 note=40 velocity=0 time=2>, <message note_on channel=0 note=48 velocity=0 time=17>, <message note_on channel=0 note=40 velocity=106 time=0>, <message note_on channel=0 note=40 velocity=0 time=7>, <message note_on channel=0 note=40 velocity=108 time=12>, <message note_on channel=0 note=46 velocity=115 time=20>, <message note_on channel=0 note=40 velocity=0 time=0>, <message note_on channel=0 note=40 velocity=111 time=19>, <message note_on channel=0 note=46 velocity=0 time=2>, <message note_on channel=0 note=40 velocity=0 time=4>, <message note_on channel=0 note=40 velocity=111 time=13>, <message note_on channel=0 note=47 velocity=110 time=19>, <message note_on channel=0 note=47 velocity=0 time=19>, <message note_on channel=0 note=48 velocity=111 time=0>, <message note_on channel=0 note=40 velocity=0 time=11>, <message note_on channel=0 note=48 velocity=0 time=7>, <message note_on channel=0 note=40 velocity=110 time=1>, <message note_on channel=0 note=40 velocity=0 time=7>, <message note_on channel=0 note=40 velocity=108 time=12>, <message note_on channel=0 note=52 velocity=117 time=19>, <message note_on channel=0 note=40 velocity=0 time=14>, <message note_on channel=0 note=40 velocity=111 time=5>, <message note_on channel=0 note=52 velocity=0 time=3>, <message note_on channel=0 note=40 velocity=0 time=4>, <message note_on channel=0 note=40 velocity=108 time=12>, <message note_on channel=0 note=50 velocity=110 time=19>, <message note_on channel=0 note=40 velocity=0 time=5>, <message note_on channel=0 note=50 velocity=0 time=15>, <message note_on channel=0 note=40 velocity=114 time=0>, <message note_on channel=0 note=40 velocity=0 time=5>, <message note_on channel=0 note=40 velocity=115 time=14>, <message note_on channel=0 note=40 velocity=0 time=19>, <message note_on channel=0 note=67 velocity=112 time=0>, <message note_on channel=0 note=67 velocity=0 time=9>, <message note_on channel=0 note=71 velocity=105 time=0>, <message note_on channel=0 note=71 velocity=0 time=10>, <message note_on channel=0 note=64 velocity=112 time=0>, <message note_on channel=0 note=64 velocity=0 time=9>, <message note_on channel=0 note=59 velocity=103 time=0>, <message note_on channel=0 note=59 velocity=0 time=10>, <message note_on channel=0 note=67 velocity=111 time=0>, <message note_on channel=0 note=67 velocity=0 time=9>, <message note_on channel=0 note=64 velocity=102 time=0>, <message note_on channel=0 note=64 velocity=0 time=10>, <message note_on channel=0 note=71 velocity=113 time=0>, <message note_on channel=0 note=71 velocity=0 time=10>, <message note_on channel=0 note=67 velocity=103 time=0>, <message note_on channel=0 note=67 velocity=0 time=9>, <message note_on channel=0 note=71 velocity=111 time=0>, <message note_on channel=0 note=71 velocity=0 time=10>, <message note_on channel=0 note=67 velocity=101 time=0>, <message note_on channel=0 note=67 velocity=0 time=9>, <message note_on channel=0 note=64 velocity=112 time=0>, <message note_on channel=0 note=64 velocity=0 time=10>, <message note_on channel=0 note=59 velocity=103 time=0>, <message note_on channel=0 note=59 velocity=0 time=9>, <message note_on channel=0 note=67 velocity=110 time=0>, <message note_on channel=0 note=67 velocity=0 time=10>, <message note_on channel=0 note=71 velocity=100 time=0>, <message note_on channel=0 note=71 velocity=0 time=9>, <message note_on channel=0 note=76 velocity=113 time=0>, <message note_on channel=0 note=76 velocity=0 time=10>, <message note_on channel=0 note=79 velocity=103 time=0>, <message note_on channel=0 note=79 velocity=0 time=9>, <message note_on channel=0 note=40 velocity=108 time=0>, <message note_on channel=0 note=40 velocity=0 time=6>, <message note_on channel=0 note=40 velocity=114 time=14>, <message note_on channel=0 note=52 velocity=114 time=19>, <message note_on channel=0 note=40 velocity=0 time=2>, <message note_on channel=0 note=52 velocity=0 time=16>, <message note_on channel=0 note=40 velocity=110 time=1>, <message note_on channel=0 note=40 velocity=0 time=6>, <message note_on channel=0 note=40 velocity=110 time=13>, <message note_on channel=0 note=50 velocity=111 time=19>, <message note_on channel=0 note=40 velocity=0 time=2>, <message note_on channel=0 note=50 velocity=0 time=15>, <message note_on channel=0 note=40 velocity=104 time=2>, <message note_on channel=0 note=40 velocity=0 time=6>, <message note_on channel=0 note=40 velocity=111 time=13>, <message note_on channel=0 note=48 velocity=116 time=19>, <message note_on channel=0 note=40 velocity=0 time=0>, <message note_on channel=0 note=48 velocity=0 time=18>, <message note_on channel=0 note=40 velocity=108 time=1>, <message note_on channel=0 note=40 velocity=0 time=6>, <message note_on channel=0 note=40 velocity=110 time=13>, <message note_on channel=0 note=46 velocity=110 time=19>, <message note_on channel=0 note=40 velocity=0 time=2>, <message note_on channel=0 note=46 velocity=0 time=17>, <message note_on channel=0 note=40 velocity=110 time=1>, <message note_on channel=0 note=40 velocity=0 time=7>, <message note_on channel=0 note=40 velocity=111 time=12>, <message note_on channel=0 note=47 velocity=110 time=19>, <message note_on channel=0 note=47 velocity=0 time=18>, <message note_on channel=0 note=48 velocity=117 time=1>, <message note_on channel=0 note=40 velocity=0 time=13>, <message note_on channel=0 note=48 velocity=0 time=4>, <message note_on channel=0 note=40 velocity=111 time=2>, <message note_on channel=0 note=40 velocity=0 time=4>, <message note_on channel=0 note=40 velocity=111 time=15>, <message note_on channel=0 note=52 velocity=114 time=19>, <message note_on channel=0 note=40 velocity=0 time=4>, <message note_on channel=0 note=52 velocity=0 time=13>, <message note_on channel=0 note=40 velocity=106 time=2>, <message note_on channel=0 note=40 velocity=0 time=6>, <message note_on channel=0 note=40 velocity=108 time=13>, <message note_on channel=0 note=50 velocity=106 time=19>, <message note_on channel=0 note=40 velocity=0 time=3>, <message note_on channel=0 note=50 velocity=0 time=16>, <message note_on channel=0 note=40 velocity=114 time=0>, <message note_on channel=0 note=40 velocity=0 time=7>, <message note_on channel=0 note=40 velocity=106 time=13>, <message note_on channel=0 note=48 velocity=117 time=19>, <message note_on channel=0 note=40 velocity=0 time=1>, <message note_on channel=0 note=48 velocity=0 time=15>, <message note_on channel=0 note=40 velocity=111 time=3>, <message note_on channel=0 note=40 velocity=0 time=7>, <message note_on channel=0 note=40 velocity=114 time=12>, <message note_on channel=0 note=46 velocity=114 time=19>, <message pitchwheel channel=0 pitch=-256 time=8>, <message pitchwheel channel=0 pitch=128 time=2>, <message pitchwheel channel=0 pitch=512 time=1>, <message pitchwheel channel=0 pitch=896 time=1>, <message pitchwheel channel=0 pitch=1408 time=1>, <message pitchwheel channel=0 pitch=1536 time=1>, <message pitchwheel channel=0 pitch=1792 time=1>, <message pitchwheel channel=0 pitch=1408 time=1>, <message pitchwheel channel=0 pitch=256 time=1>, <message pitchwheel channel=0 pitch=384 time=10>, <message pitchwheel channel=0 pitch=640 time=1>, <message pitchwheel channel=0 pitch=512 time=1>, <message pitchwheel channel=0 pitch=1408 time=1>, <message pitchwheel channel=0 pitch=1152 time=1>, <message pitchwheel channel=0 pitch=1280 time=1>, <message pitchwheel channel=0 pitch=2048 time=2>, <message pitchwheel channel=0 pitch=1920 time=1>, <message pitchwheel channel=0 pitch=1536 time=1>, <message pitchwheel channel=0 pitch=896 time=1>, <message pitchwheel channel=0 pitch=0 time=1>, <message pitchwheel channel=0 pitch=128 time=11>, <message pitchwheel channel=0 pitch=768 time=1>, <message pitchwheel channel=0 pitch=1152 time=1>, <message pitchwheel channel=0 pitch=1024 time=1>, <message pitchwheel channel=0 pitch=1280 time=1>, <message pitchwheel channel=0 pitch=1536 time=1>, <message pitchwheel channel=0 pitch=2048 time=1>, <message pitchwheel channel=0 pitch=1920 time=1>, <message pitchwheel channel=0 pitch=896 time=1>, <message pitchwheel channel=0 pitch=384 time=1>, <message pitchwheel channel=0 pitch=0 time=1>, <message pitchwheel channel=0 pitch=768 time=12>, <message pitchwheel channel=0 pitch=1152 time=1>, <message pitchwheel channel=0 pitch=1408 time=1>, <message pitchwheel channel=0 pitch=1920 time=1>, <message pitchwheel channel=0 pitch=1792 time=1>, <message pitchwheel channel=0 pitch=1664 time=1>, <message pitchwheel channel=0 pitch=512 time=3>, <message pitchwheel channel=0 pitch=0 time=1>, <message pitchwheel channel=0 pitch=512 time=12>, <message pitchwheel channel=0 pitch=1024 time=1>, <message pitchwheel channel=0 pitch=1152 time=0>, <message note_on channel=0 note=40 velocity=0 time=0>, <message pitchwheel channel=0 pitch=1280 time=1>, <message pitchwheel channel=0 pitch=1536 time=1>, <message pitchwheel channel=0 pitch=0 time=0>, <message note_on channel=0 note=40 velocity=108 time=0>, <message note_on channel=0 note=46 velocity=0 time=3>, <message note_on channel=0 note=40 velocity=0 time=4>, <message note_on channel=0 note=40 velocity=107 time=12>, <message note_on channel=0 note=52 velocity=113 time=20>, <message note_on channel=0 note=40 velocity=0 time=8>, <message note_on channel=0 note=52 velocity=0 time=10>, <message note_on channel=0 note=40 velocity=105 time=1>, <message note_on channel=0 note=40 velocity=0 time=6>, <message note_on channel=0 note=40 velocity=111 time=13>, <message note_on channel=0 note=50 velocity=110 time=19>, <message note_on channel=0 note=40 velocity=0 time=3>, <message note_on channel=0 note=40 velocity=111 time=16>, <message note_on channel=0 note=50 velocity=0 time=0>, <message note_on channel=0 note=40 velocity=0 time=8>, <message note_on channel=0 note=40 velocity=114 time=11>, <message note_on channel=0 note=48 velocity=118 time=19>, <message note_on channel=0 note=40 velocity=0 time=1>, <message note_on channel=0 note=48 velocity=0 time=18>, <message note_on channel=0 note=40 velocity=106 time=0>, <message note_on channel=0 note=40 velocity=0 time=7>, <message note_on channel=0 note=40 velocity=108 time=12>, <message note_on channel=0 note=46 velocity=115 time=19>, <message note_on channel=0 note=40 velocity=0 time=1>, <message note_on channel=0 note=40 velocity=111 time=18>, <message note_on channel=0 note=46 velocity=0 time=3>, <message note_on channel=0 note=40 velocity=0 time=4>, <message note_on channel=0 note=40 velocity=111 time=13>, <message note_on channel=0 note=47 velocity=110 time=19>, <message note_on channel=0 note=47 velocity=0 time=18>, <message note_on channel=0 note=48 velocity=111 time=1>, <message note_on channel=0 note=40 velocity=0 time=10>, <message note_on channel=0 note=48 velocity=0 time=8>, <message note_on channel=0 note=40 velocity=110 time=1>, <message note_on channel=0 note=40 velocity=0 time=6>, <message note_on channel=0 note=40 velocity=108 time=13>, <message note_on channel=0 note=52 velocity=117 time=19>, <message note_on channel=0 note=40 velocity=0 time=14>, <message note_on channel=0 note=40 velocity=111 time=5>, <message note_on channel=0 note=52 velocity=0 time=2>, <message note_on channel=0 note=40 velocity=0 time=5>, <message note_on channel=0 note=40 velocity=108 time=12>, <message note_on channel=0 note=50 velocity=110 time=19>, <message note_on channel=0 note=40 velocity=0 time=5>, <message note_on channel=0 note=50 velocity=0 time=14>, <message note_on channel=0 note=40 velocity=114 time=0>, <message note_on channel=0 note=40 velocity=0 time=6>, <message note_on channel=0 note=40 velocity=115 time=13>, <message note_on channel=0 note=40 velocity=0 time=12>, <message note_on channel=0 note=66 velocity=112 time=8>, <message note_on channel=0 note=66 velocity=0 time=9>, <message note_on channel=0 note=64 velocity=105 time=0>, <message note_on channel=0 note=64 velocity=0 time=10>, <message note_on channel=0 note=63 velocity=112 time=0>, <message note_on channel=0 note=63 velocity=0 time=9>, <message note_on channel=0 note=59 velocity=103 time=0>, <message note_on channel=0 note=59 velocity=0 time=10>, <message note_on channel=0 note=69 velocity=111 time=0>, <message note_on channel=0 note=69 velocity=0 time=9>, <message note_on channel=0 note=66 velocity=102 time=0>, <message note_on channel=0 note=66 velocity=0 time=10>, <message note_on channel=0 note=63 velocity=113 time=0>, <message note_on channel=0 note=63 velocity=0 time=9>, <message note_on channel=0 note=59 velocity=103 time=0>, <message note_on channel=0 note=59 velocity=0 time=10>, <message note_on channel=0 note=71 velocity=111 time=0>, <message note_on channel=0 note=71 velocity=0 time=9>, <message note_on channel=0 note=69 velocity=101 time=0>, <message note_on channel=0 note=69 velocity=0 time=10>, <message note_on channel=0 note=66 velocity=112 time=0>, <message note_on channel=0 note=66 velocity=0 time=10>, <message note_on channel=0 note=63 velocity=103 time=0>, <message note_on channel=0 note=63 velocity=0 time=9>, <message note_on channel=0 note=75 velocity=110 time=0>, <message note_on channel=0 note=75 velocity=0 time=10>, <message note_on channel=0 note=73 velocity=100 time=0>, <message note_on channel=0 note=73 velocity=0 time=9>, <message note_on channel=0 note=71 velocity=113 time=0>, <message note_on channel=0 note=71 velocity=0 time=10>, <message note_on channel=0 note=69 velocity=103 time=0>, <message note_on channel=0 note=69 velocity=0 time=9>, <message note_on channel=0 note=40 velocity=108 time=0>, <message note_on channel=0 note=40 velocity=0 time=6>, <message note_on channel=0 note=40 velocity=114 time=13>, <message note_on channel=0 note=52 velocity=114 time=19>, <message note_on channel=0 note=40 velocity=0 time=3>, <message note_on channel=0 note=52 velocity=0 time=16>, <message note_on channel=0 note=40 velocity=110 time=1>, <message note_on channel=0 note=40 velocity=0 time=5>, <message note_on channel=0 note=40 velocity=110 time=14>, <message note_on channel=0 note=50 velocity=111 time=19>, <message note_on channel=0 note=40 velocity=0 time=2>, <message note_on channel=0 note=50 velocity=0 time=15>, <message note_on channel=0 note=40 velocity=104 time=2>, <message note_on channel=0 note=40 velocity=0 time=6>, <message note_on channel=0 note=40 velocity=111 time=13>, <message note_on channel=0 note=48 velocity=116 time=19>, <message note_on channel=0 note=40 velocity=0 time=0>, <message note_on channel=0 note=48 velocity=0 time=18>, <message note_on channel=0 note=40 velocity=108 time=1>, <message note_on channel=0 note=40 velocity=0 time=6>, <message note_on channel=0 note=40 velocity=110 time=13>, <message note_on channel=0 note=46 velocity=110 time=19>, <message note_on channel=0 note=40 velocity=0 time=2>, <message note_on channel=0 note=46 velocity=0 time=17>, <message note_on channel=0 note=40 velocity=110 time=0>, <message note_on channel=0 note=40 velocity=0 time=8>, <message note_on channel=0 note=40 velocity=111 time=11>, <message note_on channel=0 note=47 velocity=110 time=20>, <message note_on channel=0 note=47 velocity=0 time=18>, <message note_on channel=0 note=48 velocity=117 time=1>, <message note_on channel=0 note=40 velocity=0 time=13>, <message note_on channel=0 note=48 velocity=0 time=3>, <message note_on channel=0 note=40 velocity=111 time=3>, <message note_on channel=0 note=40 velocity=0 time=3>, <message note_on channel=0 note=40 velocity=111 time=16>, <message note_on channel=0 note=52 velocity=114 time=19>, <message note_on channel=0 note=40 velocity=0 time=4>, <message note_on channel=0 note=52 velocity=0 time=13>, <message note_on channel=0 note=40 velocity=106 time=2>, <message note_on channel=0 note=40 velocity=0 time=6>, <message note_on channel=0 note=40 velocity=108 time=13>, <message note_on channel=0 note=50 velocity=106 time=19>, <message note_on channel=0 note=40 velocity=0 time=3>, <message note_on channel=0 note=50 velocity=0 time=16>, <message note_on channel=0 note=40 velocity=114 time=0>, <message note_on channel=0 note=40 velocity=0 time=6>, <message note_on channel=0 note=40 velocity=106 time=13>, <message note_on channel=0 note=48 velocity=117 time=19>, <message note_on channel=0 note=40 velocity=0 time=1>, <message note_on channel=0 note=48 velocity=0 time=15>, <message note_on channel=0 note=40 velocity=111 time=4>, <message note_on channel=0 note=40 velocity=0 time=6>, <message note_on channel=0 note=40 velocity=114 time=13>, <message note_on channel=0 note=46 velocity=114 time=19>, <message pitchwheel channel=0 pitch=-256 time=7>, <message pitchwheel channel=0 pitch=-384 time=1>, <message pitchwheel channel=0 pitch=128 time=2>, <message pitchwheel channel=0 pitch=512 time=1>, <message pitchwheel channel=0 pitch=896 time=1>, <message pitchwheel channel=0 pitch=1408 time=1>, <message pitchwheel channel=0 pitch=1664 time=1>, <message pitchwheel channel=0 pitch=1536 time=1>, <message pitchwheel channel=0 pitch=768 time=1>, <message pitchwheel channel=0 pitch=0 time=1>, <message pitchwheel channel=0 pitch=384 time=10>, <message pitchwheel channel=0 pitch=512 time=2>, <message pitchwheel channel=0 pitch=1408 time=1>, <message pitchwheel channel=0 pitch=1152 time=1>, <message pitchwheel channel=0 pitch=1280 time=1>, <message pitchwheel channel=0 pitch=2048 time=2>, <message pitchwheel channel=0 pitch=1920 time=1>, <message pitchwheel channel=0 pitch=1536 time=1>, <message pitchwheel channel=0 pitch=384 time=1>, <message pitchwheel channel=0 pitch=128 time=12>, <message pitchwheel channel=0 pitch=768 time=1>, <message pitchwheel channel=0 pitch=1152 time=1>, <message pitchwheel channel=0 pitch=1024 time=1>, <message pitchwheel channel=0 pitch=1280 time=1>, <message pitchwheel channel=0 pitch=1536 time=1>, <message pitchwheel channel=0 pitch=2048 time=1>, <message pitchwheel channel=0 pitch=1536 time=1>, <message pitchwheel channel=0 pitch=768 time=1>, <message pitchwheel channel=0 pitch=128 time=1>, <message pitchwheel channel=0 pitch=768 time=12>, <message pitchwheel channel=0 pitch=1024 time=1>, <message pitchwheel channel=0 pitch=1408 time=2>, <message pitchwheel channel=0 pitch=1920 time=1>, <message pitchwheel channel=0 pitch=1792 time=1>, <message pitchwheel channel=0 pitch=1664 time=1>, <message pitchwheel channel=0 pitch=512 time=2>, <message pitchwheel channel=0 pitch=128 time=1>, <message pitchwheel channel=0 pitch=512 time=12>, <message pitchwheel channel=0 pitch=640 time=1>, <message pitchwheel channel=0 pitch=1152 time=1>, <message note_on channel=0 note=40 velocity=0 time=0>, <message pitchwheel channel=0 pitch=1280 time=1>, <message pitchwheel channel=0 pitch=1536 time=1>, <message pitchwheel channel=0 pitch=0 time=0>, <message note_on channel=0 note=40 velocity=108 time=0>, <message note_on channel=0 note=46 velocity=0 time=3>, <message note_on channel=0 note=40 velocity=0 time=4>, <message note_on channel=0 note=40 velocity=107 time=12>, <message note_on channel=0 note=52 velocity=113 time=19>, <message note_on channel=0 note=40 velocity=0 time=9>, <message note_on channel=0 note=52 velocity=0 time=10>, <message note_on channel=0 note=40 velocity=105 time=0>, <message note_on channel=0 note=40 velocity=0 time=7>, <message note_on channel=0 note=40 velocity=111 time=13>, <message note_on channel=0 note=50 velocity=110 time=19>, <message note_on channel=0 note=40 velocity=0 time=3>, <message note_on channel=0 note=40 velocity=111 time=16>, <message note_on channel=0 note=50 velocity=0 time=0>, <message note_on channel=0 note=40 velocity=0 time=7>, <message note_on channel=0 note=40 velocity=114 time=12>, <message note_on channel=0 note=48 velocity=118 time=19>, <message note_on channel=0 note=40 velocity=0 time=1>, <message note_on channel=0 note=48 velocity=0 time=17>, <message note_on channel=0 note=40 velocity=106 time=1>, <message note_on channel=0 note=40 velocity=0 time=6>, <message note_on channel=0 note=40 velocity=108 time=13>, <message note_on channel=0 note=46 velocity=115 time=19>, <message note_on channel=0 note=40 velocity=0 time=1>, <message note_on channel=0 note=40 velocity=111 time=18>, <message note_on channel=0 note=46 velocity=0 time=3>, <message note_on channel=0 note=40 velocity=0 time=3>, <message note_on channel=0 note=40 velocity=111 time=13>, <message note_on channel=0 note=47 velocity=110 time=19>, <message note_on channel=0 note=47 velocity=0 time=19>, <message note_on channel=0 note=48 velocity=111 time=1>, <message note_on channel=0 note=40 velocity=0 time=10>, <message note_on channel=0 note=48 velocity=0 time=8>, <message note_on channel=0 note=40 velocity=110 time=1>, <message note_on channel=0 note=40 velocity=0 time=6>, <message note_on channel=0 note=40 velocity=108 time=13>, <message note_on channel=0 note=52 velocity=117 time=19>, <message note_on channel=0 note=40 velocity=0 time=14>, <message note_on channel=0 note=40 velocity=111 time=5>, <message note_on channel=0 note=52 velocity=0 time=2>, <message note_on channel=0 note=40 velocity=0 time=5>, <message note_on channel=0 note=40 velocity=108 time=12>, <message note_on channel=0 note=50 velocity=110 time=19>, <message note_on channel=0 note=40 velocity=0 time=5>, <message note_on channel=0 note=50 velocity=0 time=14>, <message note_on channel=0 note=40 velocity=114 time=0>, <message note_on channel=0 note=40 velocity=0 time=6>, <message note_on channel=0 note=40 velocity=115 time=13>, <message note_on channel=0 note=40 velocity=0 time=12>, <message note_on channel=0 note=79 velocity=103 time=7>, <message note_on channel=0 note=79 velocity=0 time=10>, <message note_on channel=0 note=76 velocity=113 time=0>, <message note_on channel=0 note=76 velocity=0 time=9>, <message note_on channel=0 note=71 velocity=100 time=0>, <message note_on channel=0 note=71 velocity=0 time=10>, <message note_on channel=0 note=67 velocity=110 time=0>, <message note_on channel=0 note=67 velocity=0 time=10>, <message note_on channel=0 note=76 velocity=103 time=0>, <message note_on channel=0 note=76 velocity=0 time=9>, <message note_on channel=0 note=79 velocity=112 time=0>, <message note_on channel=0 note=79 velocity=0 time=10>, <message note_on channel=0 note=76 velocity=101 time=0>, <message note_on channel=0 note=76 velocity=0 time=9>, <message note_on channel=0 note=71 velocity=111 time=0>, <message note_on channel=0 note=71 velocity=0 time=10>, <message note_on channel=0 note=67 velocity=103 time=0>, <message note_on channel=0 note=67 velocity=0 time=9>, <message note_on channel=0 note=71 velocity=113 time=0>, <message note_on channel=0 note=71 velocity=0 time=10>, <message note_on channel=0 note=76 velocity=102 time=0>, <message note_on channel=0 note=76 velocity=0 time=9>, <message note_on channel=0 note=71 velocity=111 time=0>, <message note_on channel=0 note=71 velocity=0 time=10>, <message note_on channel=0 note=79 velocity=103 time=0>, <message note_on channel=0 note=79 velocity=0 time=9>, <message note_on channel=0 note=76 velocity=112 time=0>, <message note_on channel=0 note=76 velocity=0 time=10>, <message note_on channel=0 note=71 velocity=105 time=0>, <message note_on channel=0 note=71 velocity=0 time=10>, <message note_on channel=0 note=67 velocity=112 time=0>, <message note_on channel=0 note=67 velocity=0 time=9>, <message note_on channel=0 note=45 velocity=108 time=0>, <message note_on channel=0 note=45 velocity=0 time=5>, <message note_on channel=0 note=45 velocity=114 time=14>, <message note_on channel=0 note=57 velocity=114 time=19>, <message note_on channel=0 note=45 velocity=0 time=3>, <message note_on channel=0 note=57 velocity=0 time=16>, <message note_on channel=0 note=45 velocity=110 time=0>, <message note_on channel=0 note=45 velocity=0 time=6>, <message note_on channel=0 note=45 velocity=110 time=13>, <message note_on channel=0 note=55 velocity=111 time=20>, <message note_on channel=0 note=45 velocity=0 time=2>, <message note_on channel=0 note=55 velocity=0 time=15>, <message note_on channel=0 note=45 velocity=104 time=2>, <message note_on channel=0 note=45 velocity=0 time=6>, <message note_on channel=0 note=45 velocity=111 time=13>, <message note_on channel=0 note=53 velocity=116 time=19>, <message note_on channel=0 note=45 velocity=0 time=0>, <message note_on channel=0 note=53 velocity=0 time=18>, <message note_on channel=0 note=45 velocity=108 time=1>, <message note_on channel=0 note=45 velocity=0 time=6>, <message note_on channel=0 note=45 velocity=110 time=13>, <message note_on channel=0 note=51 velocity=110 time=19>, <message note_on channel=0 note=45 velocity=0 time=1>, <message note_on channel=0 note=51 velocity=0 time=17>, <message note_on channel=0 note=45 velocity=110 time=1>, <message note_on channel=0 note=45 velocity=0 time=8>, <message note_on channel=0 note=45 velocity=111 time=11>, <message note_on channel=0 note=52 velocity=110 time=19>, <message note_on channel=0 note=52 velocity=0 time=19>, <message note_on channel=0 note=53 velocity=117 time=0>, <message note_on channel=0 note=45 velocity=0 time=13>, <message note_on channel=0 note=53 velocity=0 time=4>, <message note_on channel=0 note=45 velocity=111 time=3>, <message note_on channel=0 note=45 velocity=0 time=3>, <message note_on channel=0 note=45 velocity=111 time=16>, <message note_on channel=0 note=57 velocity=114 time=19>, <message note_on channel=0 note=45 velocity=0 time=4>, <message note_on channel=0 note=57 velocity=0 time=13>, <message note_on channel=0 note=45 velocity=106 time=2>, <message note_on channel=0 note=45 velocity=0 time=6>, <message note_on channel=0 note=45 velocity=108 time=13>, <message note_on channel=0 note=55 velocity=106 time=19>, <message note_on channel=0 note=45 velocity=0 time=3>, <message note_on channel=0 note=55 velocity=0 time=16>, <message note_on channel=0 note=45 velocity=114 time=0>, <message note_on channel=0 note=45 velocity=0 time=6>, <message note_on channel=0 note=45 velocity=106 time=13>, <message note_on channel=0 note=53 velocity=117 time=19>, <message note_on channel=0 note=45 velocity=0 time=1>, <message note_on channel=0 note=53 velocity=0 time=15>, <message note_on channel=0 note=45 velocity=111 time=3>, <message note_on channel=0 note=45 velocity=0 time=7>, <message note_on channel=0 note=45 velocity=114 time=12>, <message note_on channel=0 note=51 velocity=114 time=20>, <message pitchwheel channel=0 pitch=-256 time=7>, <message pitchwheel channel=0 pitch=-384 time=1>, <message pitchwheel channel=0 pitch=128 time=2>, <message pitchwheel channel=0 pitch=768 time=1>, <message pitchwheel channel=0 pitch=896 time=1>, <message pitchwheel channel=0 pitch=1536 time=1>, <message pitchwheel channel=0 pitch=1920 time=1>, <message pitchwheel channel=0 pitch=1536 time=1>, <message pitchwheel channel=0 pitch=768 time=1>, <message pitchwheel channel=0 pitch=0 time=1>, <message pitchwheel channel=0 pitch=384 time=10>, <message pitchwheel channel=0 pitch=512 time=2>, <message pitchwheel channel=0 pitch=1024 time=1>, <message pitchwheel channel=0 pitch=1152 time=1>, <message pitchwheel channel=0 pitch=1408 time=1>, <message pitchwheel channel=0 pitch=2048 time=2>, <message pitchwheel channel=0 pitch=1920 time=1>, <message pitchwheel channel=0 pitch=1280 time=1>, <message pitchwheel channel=0 pitch=128 time=1>, <message pitchwheel channel=0 pitch=384 time=12>, <message pitchwheel channel=0 pitch=768 time=1>, <message pitchwheel channel=0 pitch=1152 time=1>, <message pitchwheel channel=0 pitch=1024 time=1>, <message pitchwheel channel=0 pitch=1280 time=1>, <message pitchwheel channel=0 pitch=1920 time=1>, <message pitchwheel channel=0 pitch=1536 time=1>, <message pitchwheel channel=0 pitch=1280 time=1>, <message pitchwheel channel=0 pitch=768 time=1>, <message pitchwheel channel=0 pitch=128 time=1>, <message pitchwheel channel=0 pitch=768 time=12>, <message pitchwheel channel=0 pitch=1024 time=1>, <message pitchwheel channel=0 pitch=1408 time=2>, <message pitchwheel channel=0 pitch=1920 time=1>, <message pitchwheel channel=0 pitch=1536 time=1>, <message pitchwheel channel=0 pitch=1792 time=1>, <message pitchwheel channel=0 pitch=512 time=2>, <message pitchwheel channel=0 pitch=0 time=1>, <message pitchwheel channel=0 pitch=512 time=12>, <message pitchwheel channel=0 pitch=640 time=1>, <message pitchwheel channel=0 pitch=1152 time=1>, <message note_on channel=0 note=45 velocity=0 time=0>, <message pitchwheel channel=0 pitch=1280 time=1>, <message pitchwheel channel=0 pitch=1408 time=1>, <message pitchwheel channel=0 pitch=0 time=0>, <message note_on channel=0 note=45 velocity=108 time=0>, <message note_on channel=0 note=51 velocity=0 time=3>, <message note_on channel=0 note=45 velocity=0 time=4>, <message note_on channel=0 note=45 velocity=107 time=12>, <message note_on channel=0 note=57 velocity=113 time=19>, <message note_on channel=0 note=45 velocity=0 time=8>, <message note_on channel=0 note=57 velocity=0 time=11>, <message note_on channel=0 note=45 velocity=105 time=0>, <message note_on channel=0 note=45 velocity=0 time=7>, <message note_on channel=0 note=45 velocity=111 time=12>, <message note_on channel=0 note=55 velocity=110 time=19>, <message note_on channel=0 note=45 velocity=0 time=3>, <message note_on channel=0 note=45 velocity=111 time=17>, <message note_on channel=0 note=55 velocity=0 time=0>, <message note_on channel=0 note=45 velocity=0 time=7>, <message note_on channel=0 note=45 velocity=114 time=12>, <message note_on channel=0 note=53 velocity=118 time=19>, <message note_on channel=0 note=45 velocity=0 time=1>, <message note_on channel=0 note=53 velocity=0 time=17>, <message note_on channel=0 note=45 velocity=106 time=1>, <message note_on channel=0 note=45 velocity=0 time=6>, <message note_on channel=0 note=45 velocity=108 time=13>, <message note_on channel=0 note=51 velocity=115 time=19>, <message note_on channel=0 note=45 velocity=0 time=1>, <message note_on channel=0 note=45 velocity=111 time=18>, <message note_on channel=0 note=51 velocity=0 time=2>, <message note_on channel=0 note=45 velocity=0 time=4>, <message note_on channel=0 note=45 velocity=111 time=13>, <message note_on channel=0 note=52 velocity=110 time=19>, <message note_on channel=0 note=52 velocity=0 time=19>, <message note_on channel=0 note=53 velocity=111 time=0>, <message note_on channel=0 note=45 velocity=0 time=11>, <message note_on channel=0 note=53 velocity=0 time=8>, <message note_on channel=0 note=45 velocity=110 time=0>, <message note_on channel=0 note=45 velocity=0 time=7>, <message note_on channel=0 note=45 velocity=108 time=13>, <message note_on channel=0 note=57 velocity=117 time=19>, <message note_on channel=0 note=45 velocity=0 time=14>, <message note_on channel=0 note=45 velocity=111 time=5>, <message note_on channel=0 note=57 velocity=0 time=2>, <message note_on channel=0 note=45 velocity=0 time=4>, <message note_on channel=0 note=45 velocity=108 time=13>, <message note_on channel=0 note=55 velocity=110 time=19>, <message note_on channel=0 note=45 velocity=0 time=5>, <message note_on channel=0 note=55 velocity=0 time=14>, <message note_on channel=0 note=45 velocity=114 time=0>, <message note_on channel=0 note=45 velocity=0 time=6>, <message note_on channel=0 note=45 velocity=115 time=13>, <message note_on channel=0 note=45 velocity=0 time=11>, <message note_on channel=0 note=69 velocity=112 time=8>, <message note_on channel=0 note=69 velocity=0 time=10>, <message note_on channel=0 note=65 velocity=105 time=0>, <message note_on channel=0 note=65 velocity=0 time=9>, <message note_on channel=0 note=64 velocity=112 time=0>, <message note_on channel=0 note=64 velocity=0 time=10>, <message note_on channel=0 note=69 velocity=103 time=0>, <message note_on channel=0 note=69 velocity=0 time=9>, <message note_on channel=0 note=64 velocity=111 time=0>, <message note_on channel=0 note=64 velocity=0 time=10>, <message note_on channel=0 note=60 velocity=102 time=0>, <message note_on channel=0 note=60 velocity=0 time=9>, <message note_on channel=0 note=64 velocity=113 time=0>, <message note_on channel=0 note=64 velocity=0 time=10>, <message note_on channel=0 note=69 velocity=103 time=0>, <message note_on channel=0 note=69 velocity=0 time=10>, <message note_on channel=0 note=72 velocity=111 time=0>, <message note_on channel=0 note=72 velocity=0 time=9>, <message note_on channel=0 note=69 velocity=101 time=0>, <message note_on channel=0 note=69 velocity=0 time=10>, <message note_on channel=0 note=64 velocity=112 time=0>, <message note_on channel=0 note=64 velocity=0 time=9>, <message note_on channel=0 note=69 velocity=103 time=0>, <message note_on channel=0 note=69 velocity=0 time=10>, <message note_on channel=0 note=64 velocity=110 time=0>, <message note_on channel=0 note=64 velocity=0 time=9>, <message note_on channel=0 note=69 velocity=100 time=0>, <message note_on channel=0 note=69 velocity=0 time=10>, <message note_on channel=0 note=64 velocity=113 time=0>, <message note_on channel=0 note=64 velocity=0 time=9>, <message note_on channel=0 note=60 velocity=103 time=0>, <message note_on channel=0 note=60 velocity=0 time=10>, <message note_on channel=0 note=40 velocity=108 time=0>, <message note_on channel=0 note=40 velocity=0 time=5>, <message note_on channel=0 note=40 velocity=114 time=14>, <message note_on channel=0 note=52 velocity=114 time=19>, <message note_on channel=0 note=40 velocity=0 time=3>, <message note_on channel=0 note=52 velocity=0 time=16>, <message note_on channel=0 note=40 velocity=110 time=0>, <message note_on channel=0 note=40 velocity=0 time=6>, <message note_on channel=0 note=40 velocity=110 time=13>, <message note_on channel=0 note=50 velocity=111 time=19>, <message note_on channel=0 note=40 velocity=0 time=3>, <message note_on channel=0 note=50 velocity=0 time=14>, <message note_on channel=0 note=40 velocity=104 time=2>, <message note_on channel=0 note=40 velocity=0 time=7>, <message note_on channel=0 note=40 velocity=111 time=13>, <message note_on channel=0 note=48 velocity=116 time=19>, <message note_on channel=0 note=40 velocity=0 time=0>, <message note_on channel=0 note=48 velocity=0 time=18>, <message note_on channel=0 note=40 velocity=108 time=1>, <message note_on channel=0 note=40 velocity=0 time=6>, <message note_on channel=0 note=40 velocity=110 time=13>, <message note_on channel=0 note=46 velocity=110 time=19>, <message note_on channel=0 note=40 velocity=0 time=1>, <message note_on channel=0 note=46 velocity=0 time=17>, <message note_on channel=0 note=40 velocity=110 time=1>, <message note_on channel=0 note=40 velocity=0 time=8>, <message note_on channel=0 note=40 velocity=111 time=11>, <message note_on channel=0 note=47 velocity=110 time=19>, <message note_on channel=0 note=47 velocity=0 time=18>, <message note_on channel=0 note=48 velocity=117 time=1>, <message note_on channel=0 note=40 velocity=0 time=13>, <message note_on channel=0 note=48 velocity=0 time=4>, <message note_on channel=0 note=40 velocity=111 time=2>, <message note_on channel=0 note=40 velocity=0 time=4>, <message note_on channel=0 note=40 velocity=111 time=15>, <message note_on channel=0 note=52 velocity=114 time=20>, <message note_on channel=0 note=40 velocity=0 time=3>, <message note_on channel=0 note=52 velocity=0 time=14>, <message note_on channel=0 note=40 velocity=106 time=2>, <message note_on channel=0 note=40 velocity=0 time=6>, <message note_on channel=0 note=40 velocity=108 time=13>, <message note_on channel=0 note=50 velocity=106 time=19>, <message note_on channel=0 note=40 velocity=0 time=2>, <message note_on channel=0 note=50 velocity=0 time=16>, <message note_on channel=0 note=40 velocity=114 time=1>, <message note_on channel=0 note=40 velocity=0 time=6>, <message note_on channel=0 note=40 velocity=106 time=13>, <message note_on channel=0 note=48 velocity=117 time=19>, <message note_on channel=0 note=40 velocity=0 time=1>, <message note_on channel=0 note=48 velocity=0 time=15>, <message note_on channel=0 note=40 velocity=111 time=3>, <message note_on channel=0 note=40 velocity=0 time=7>, <message note_on channel=0 note=40 velocity=114 time=12>, <message note_on channel=0 note=46 velocity=114 time=19>, <message pitchwheel channel=0 pitch=-256 time=8>, <message pitchwheel channel=0 pitch=0 time=1>, <message pitchwheel channel=0 pitch=128 time=1>, <message pitchwheel channel=0 pitch=512 time=1>, <message pitchwheel channel=0 pitch=768 time=1>, <message pitchwheel channel=0 pitch=896 time=1>, <message pitchwheel channel=0 pitch=1536 time=1>, <message pitchwheel channel=0 pitch=1920 time=1>, <message pitchwheel channel=0 pitch=1536 time=1>, <message pitchwheel channel=0 pitch=768 time=1>, <message pitchwheel channel=0 pitch=384 time=10>, <message pitchwheel channel=0 pitch=640 time=1>, <message pitchwheel channel=0 pitch=384 time=1>, <message pitchwheel channel=0 pitch=1024 time=1>, <message pitchwheel channel=0 pitch=1152 time=2>, <message pitchwheel channel=0 pitch=1408 time=1>, <message pitchwheel channel=0 pitch=2048 time=1>, <message pitchwheel channel=0 pitch=1920 time=2>, <message pitchwheel channel=0 pitch=1280 time=1>, <message pitchwheel channel=0 pitch=128 time=1>, <message pitchwheel channel=0 pitch=384 time=12>, <message pitchwheel channel=0 pitch=896 time=1>, <message pitchwheel channel=0 pitch=1280 time=1>, <message pitchwheel channel=0 pitch=1536 time=2>, <message pitchwheel channel=0 pitch=1920 time=1>, <message pitchwheel channel=0 pitch=1536 time=1>, <message pitchwheel channel=0 pitch=1280 time=1>, <message pitchwheel channel=0 pitch=384 time=1>, <message pitchwheel channel=0 pitch=0 time=1>, <message pitchwheel channel=0 pitch=768 time=12>, <message pitchwheel channel=0 pitch=1024 time=1>, <message pitchwheel channel=0 pitch=1408 time=2>, <message pitchwheel channel=0 pitch=1792 time=1>, <message pitchwheel channel=0 pitch=1536 time=1>, <message pitchwheel channel=0 pitch=1664 time=1>, <message pitchwheel channel=0 pitch=512 time=2>, <message pitchwheel channel=0 pitch=0 time=1>, <message pitchwheel channel=0 pitch=512 time=12>, <message pitchwheel channel=0 pitch=1024 time=1>, <message pitchwheel channel=0 pitch=1152 time=0>, <message note_on channel=0 note=40 velocity=0 time=0>, <message pitchwheel channel=0 pitch=1280 time=2>, <message pitchwheel channel=0 pitch=1408 time=1>, <message pitchwheel channel=0 pitch=0 time=0>, <message note_on channel=0 note=40 velocity=108 time=0>, <message note_on channel=0 note=46 velocity=0 time=3>, <message note_on channel=0 note=40 velocity=0 time=3>, <message note_on channel=0 note=40 velocity=107 time=13>, <message note_on channel=0 note=52 velocity=113 time=19>, <message note_on channel=0 note=40 velocity=0 time=8>, <message note_on channel=0 note=52 velocity=0 time=10>, <message note_on channel=0 note=40 velocity=105 time=1>, <message note_on channel=0 note=40 velocity=0 time=6>, <message note_on channel=0 note=40 velocity=111 time=13>, <message note_on channel=0 note=50 velocity=110 time=19>, <message note_on channel=0 note=40 velocity=0 time=3>, <message note_on channel=0 note=40 velocity=111 time=16>, <message note_on channel=0 note=50 velocity=0 time=1>, <message note_on channel=0 note=40 velocity=0 time=7>, <message note_on channel=0 note=40 velocity=114 time=11>, <message note_on channel=0 note=48 velocity=118 time=20>, <message note_on channel=0 note=40 velocity=0 time=1>, <message note_on channel=0 note=48 velocity=0 time=17>, <message note_on channel=0 note=40 velocity=106 time=1>, <message note_on channel=0 note=40 velocity=0 time=6>, <message note_on channel=0 note=40 velocity=108 time=13>, <message note_on channel=0 note=46 velocity=115 time=19>, <message note_on channel=0 note=40 velocity=0 time=1>, <message note_on channel=0 note=40 velocity=111 time=18>, <message note_on channel=0 note=46 velocity=0 time=2>, <message note_on channel=0 note=40 velocity=0 time=4>, <message note_on channel=0 note=40 velocity=111 time=13>, <message note_on channel=0 note=47 velocity=110 time=19>, <message note_on channel=0 note=47 velocity=0 time=19>, <message note_on channel=0 note=48 velocity=111 time=0>, <message note_on channel=0 note=40 velocity=0 time=11>, <message note_on channel=0 note=48 velocity=0 time=8>, <message note_on channel=0 note=40 velocity=110 time=0>, <message note_on channel=0 note=40 velocity=0 time=7>, <message note_on channel=0 note=40 velocity=108 time=12>, <message note_on channel=0 note=52 velocity=117 time=19>, <message note_on channel=0 note=40 velocity=0 time=15>, <message note_on channel=0 note=40 velocity=111 time=5>, <message note_on channel=0 note=52 velocity=0 time=2>, <message note_on channel=0 note=40 velocity=0 time=4>, <message note_on channel=0 note=40 velocity=108 time=13>, <message note_on channel=0 note=50 velocity=110 time=19>, <message note_on channel=0 note=40 velocity=0 time=5>, <message note_on channel=0 note=50 velocity=0 time=14>, <message note_on channel=0 note=40 velocity=114 time=0>, <message note_on channel=0 note=40 velocity=0 time=5>, <message note_on channel=0 note=40 velocity=115 time=14>, <message note_on channel=0 note=40 velocity=0 time=19>, <message note_on channel=0 note=48 velocity=117 time=0>, <message note_on channel=0 note=40 velocity=111 time=19>, <message note_on channel=0 note=40 velocity=0 time=7>, <message note_on channel=0 note=48 velocity=0 time=3>, <message note_on channel=0 note=40 velocity=114 time=9>, <message note_on channel=0 note=46 velocity=114 time=19>, <message pitchwheel channel=0 pitch=-256 time=8>, <message pitchwheel channel=0 pitch=0 time=1>, <message pitchwheel channel=0 pitch=128 time=1>, <message pitchwheel channel=0 pitch=512 time=1>, <message pitchwheel channel=0 pitch=768 time=1>, <message pitchwheel channel=0 pitch=896 time=1>, <message pitchwheel channel=0 pitch=1536 time=1>, <message pitchwheel channel=0 pitch=1920 time=1>, <message pitchwheel channel=0 pitch=1536 time=1>, <message pitchwheel channel=0 pitch=768 time=1>, <message pitchwheel channel=0 pitch=384 time=10>, <message pitchwheel channel=0 pitch=640 time=1>, <message pitchwheel channel=0 pitch=384 time=1>, <message pitchwheel channel=0 pitch=1024 time=1>, <message pitchwheel channel=0 pitch=1152 time=1>, <message pitchwheel channel=0 pitch=1280 time=1>, <message pitchwheel channel=0 pitch=1408 time=1>, <message pitchwheel channel=0 pitch=2048 time=1>, <message pitchwheel channel=0 pitch=1920 time=2>, <message pitchwheel channel=0 pitch=1280 time=1>, <message pitchwheel channel=0 pitch=128 time=1>, <message pitchwheel channel=0 pitch=384 time=12>, <message pitchwheel channel=0 pitch=896 time=1>, <message pitchwheel channel=0 pitch=1280 time=1>, <message pitchwheel channel=0 pitch=1536 time=2>, <message pitchwheel channel=0 pitch=1920 time=1>, <message pitchwheel channel=0 pitch=1536 time=1>, <message pitchwheel channel=0 pitch=1280 time=1>, <message pitchwheel channel=0 pitch=384 time=1>, <message pitchwheel channel=0 pitch=0 time=1>, <message pitchwheel channel=0 pitch=768 time=12>, <message pitchwheel channel=0 pitch=1152 time=1>, <message pitchwheel channel=0 pitch=1408 time=1>, <message pitchwheel channel=0 pitch=1664 time=1>, <message pitchwheel channel=0 pitch=1792 time=1>, <message pitchwheel channel=0 pitch=1536 time=1>, <message pitchwheel channel=0 pitch=1664 time=1>, <message pitchwheel channel=0 pitch=512 time=2>, <message pitchwheel channel=0 pitch=0 time=1>, <message pitchwheel channel=0 pitch=512 time=12>, <message pitchwheel channel=0 pitch=1024 time=1>, <message pitchwheel channel=0 pitch=1152 time=0>, <message note_on channel=0 note=40 velocity=0 time=0>, <message pitchwheel channel=0 pitch=1280 time=2>, <message pitchwheel channel=0 pitch=0 time=1>, <message note_on channel=0 note=46 velocity=0 time=0>, <message note_on channel=0 note=49 velocity=108 time=0>, <message note_on channel=0 note=49 velocity=0 time=5>, <message note_on channel=0 note=49 velocity=114 time=14>, <message note_on channel=0 note=61 velocity=114 time=19>, <message note_on channel=0 note=49 velocity=0 time=2>, <message note_on channel=0 note=61 velocity=0 time=16>, <message note_on channel=0 note=49 velocity=110 time=1>, <message note_on channel=0 note=49 velocity=0 time=6>, <message note_on channel=0 note=49 velocity=110 time=13>, <message note_on channel=0 note=59 velocity=111 time=19>, <message note_on channel=0 note=49 velocity=0 time=3>, <message note_on channel=0 note=59 velocity=0 time=14>, <message note_on channel=0 note=49 velocity=104 time=2>, <message note_on channel=0 note=49 velocity=0 time=7>, <message note_on channel=0 note=49 velocity=111 time=12>, <message note_on channel=0 note=57 velocity=116 time=19>, <message note_on channel=0 note=49 velocity=0 time=1>, <message note_on channel=0 note=57 velocity=0 time=18>, <message note_on channel=0 note=49 velocity=108 time=1>, <message note_on channel=0 note=49 velocity=0 time=6>, <message note_on channel=0 note=49 velocity=110 time=13>, <message note_on channel=0 note=55 velocity=110 time=19>, <message note_on channel=0 note=49 velocity=0 time=1>, <message note_on channel=0 note=55 velocity=0 time=17>, <message note_on channel=0 note=49 velocity=110 time=1>, <message note_on channel=0 note=49 velocity=0 time=8>, <message note_on channel=0 note=49 velocity=111 time=11>, <message note_on channel=0 note=56 velocity=110 time=19>, <message note_on channel=0 note=56 velocity=0 time=18>, <message note_on channel=0 note=57 velocity=117 time=1>, <message note_on channel=0 note=49 velocity=0 time=13>, <message note_on channel=0 note=57 velocity=0 time=4>, <message note_on channel=0 note=47 velocity=111 time=2>, <message note_on channel=0 note=47 velocity=0 time=4>, <message note_on channel=0 note=47 velocity=111 time=15>, <message note_on channel=0 note=59 velocity=114 time=19>, <message note_on channel=0 note=47 velocity=0 time=4>, <message note_on channel=0 note=59 velocity=0 time=14>, <message note_on channel=0 note=47 velocity=106 time=1>, <message note_on channel=0 note=47 velocity=0 time=6>, <message note_on channel=0 note=47 velocity=108 time=14>, <message note_on channel=0 note=57 velocity=106 time=19>, <message note_on channel=0 note=47 velocity=0 time=2>, <message note_on channel=0 note=57 velocity=0 time=16>, <message note_on channel=0 note=47 velocity=114 time=1>, <message note_on channel=0 note=47 velocity=0 time=6>, <message note_on channel=0 note=47 velocity=106 time=13>, <message note_on channel=0 note=55 velocity=117 time=19>, <message note_on channel=0 note=47 velocity=0 time=1>, <message note_on channel=0 note=55 velocity=0 time=15>, <message note_on channel=0 note=46 velocity=111 time=3>, <message note_on channel=0 note=46 velocity=0 time=10>, <message note_on channel=0 note=45 velocity=114 time=9>, <message note_on channel=0 note=53 velocity=114 time=19>, <message pitchwheel channel=0 pitch=-256 time=8>, <message pitchwheel channel=0 pitch=0 time=1>, <message pitchwheel channel=0 pitch=128 time=1>, <message pitchwheel channel=0 pitch=512 time=1>, <message pitchwheel channel=0 pitch=768 time=1>, <message pitchwheel channel=0 pitch=1280 time=1>, <message pitchwheel channel=0 pitch=1536 time=1>, <message pitchwheel channel=0 pitch=1792 time=1>, <message pitchwheel channel=0 pitch=1408 time=1>, <message pitchwheel channel=0 pitch=256 time=1>, <message pitchwheel channel=0 pitch=384 time=10>, <message pitchwheel channel=0 pitch=640 time=1>, <message pitchwheel channel=0 pitch=384 time=1>, <message pitchwheel channel=0 pitch=1024 time=1>, <message pitchwheel channel=0 pitch=1152 time=1>, <message pitchwheel channel=0 pitch=1280 time=1>, <message pitchwheel channel=0 pitch=1408 time=1>, <message pitchwheel channel=0 pitch=2048 time=1>, <message pitchwheel channel=0 pitch=1920 time=2>, <message pitchwheel channel=0 pitch=1280 time=1>, <message pitchwheel channel=0 pitch=128 time=1>, <message pitchwheel channel=0 pitch=384 time=11>, <message pitchwheel channel=0 pitch=768 time=1>, <message pitchwheel channel=0 pitch=896 time=1>, <message pitchwheel channel=0 pitch=1280 time=1>, <message pitchwheel channel=0 pitch=1536 time=2>, <message pitchwheel channel=0 pitch=1920 time=1>, <message pitchwheel channel=0 pitch=1536 time=1>, <message pitchwheel channel=0 pitch=896 time=1>, <message pitchwheel channel=0 pitch=384 time=1>, <message pitchwheel channel=0 pitch=0 time=1>, <message pitchwheel channel=0 pitch=768 time=12>, <message pitchwheel channel=0 pitch=1152 time=1>, <message pitchwheel channel=0 pitch=1408 time=1>, <message pitchwheel channel=0 pitch=1664 time=1>, <message pitchwheel channel=0 pitch=1792 time=1>, <message pitchwheel channel=0 pitch=1536 time=1>, <message pitchwheel channel=0 pitch=1664 time=1>, <message pitchwheel channel=0 pitch=512 time=2>, <message pitchwheel channel=0 pitch=0 time=1>, <message pitchwheel channel=0 pitch=512 time=12>, <message pitchwheel channel=0 pitch=1024 time=1>, <message pitchwheel channel=0 pitch=1152 time=0>, <message note_on channel=0 note=45 velocity=0 time=0>, <message pitchwheel channel=0 pitch=1280 time=2>, <message pitchwheel channel=0 pitch=0 time=1>, <message note_on channel=0 note=40 velocity=108 time=0>, <message note_on channel=0 note=53 velocity=0 time=3>, <message note_on channel=0 note=40 velocity=0 time=3>, <message note_on channel=0 note=40 velocity=107 time=13>, <message note_on channel=0 note=52 velocity=113 time=19>, <message note_on channel=0 note=40 velocity=0 time=8>, <message note_on channel=0 note=52 velocity=0 time=10>, <message note_on channel=0 note=40 velocity=105 time=1>, <message note_on channel=0 note=40 velocity=0 time=6>, <message note_on channel=0 note=40 velocity=111 time=13>, <message note_on channel=0 note=50 velocity=110 time=19>, <message note_on channel=0 note=40 velocity=0 time=3>, <message note_on channel=0 note=40 velocity=111 time=16>, <message note_on channel=0 note=50 velocity=0 time=0>, <message note_on channel=0 note=40 velocity=0 time=8>, <message note_on channel=0 note=40 velocity=114 time=11>, <message note_on channel=0 note=48 velocity=118 time=19>, <message note_on channel=0 note=40 velocity=0 time=2>, <message note_on channel=0 note=48 velocity=0 time=17>, <message note_on channel=0 note=40 velocity=106 time=0>, <message note_on channel=0 note=40 velocity=0 time=7>, <message note_on channel=0 note=40 velocity=108 time=13>, <message note_on channel=0 note=46 velocity=115 time=19>, <message note_on channel=0 note=40 velocity=0 time=1>, <message note_on channel=0 note=40 velocity=111 time=18>, <message note_on channel=0 note=46 velocity=0 time=2>, <message note_on channel=0 note=40 velocity=0 time=4>, <message note_on channel=0 note=40 velocity=111 time=13>, <message note_on channel=0 note=47 velocity=110 time=19>, <message note_on channel=0 note=47 velocity=0 time=19>, <message note_on channel=0 note=48 velocity=111 time=0>, <message note_on channel=0 note=40 velocity=0 time=11>, <message note_on channel=0 note=48 velocity=0 time=7>, <message note_on channel=0 note=40 velocity=110 time=1>, <message note_on channel=0 note=40 velocity=0 time=7>, <message note_on channel=0 note=40 velocity=108 time=12>, <message note_on channel=0 note=52 velocity=117 time=19>, <message note_on channel=0 note=40 velocity=0 time=14>, <message note_on channel=0 note=40 velocity=111 time=5>, <message note_on channel=0 note=52 velocity=0 time=3>, <message note_on channel=0 note=40 velocity=0 time=4>, <message note_on channel=0 note=40 velocity=108 time=12>, <message note_on channel=0 note=50 velocity=110 time=20>, <message note_on channel=0 note=40 velocity=0 time=4>, <message note_on channel=0 note=50 velocity=0 time=15>, <message note_on channel=0 note=40 velocity=114 time=0>, <message note_on channel=0 note=40 velocity=0 time=5>, <message note_on channel=0 note=40 velocity=115 time=14>, <message note_on channel=0 note=40 velocity=0 time=19>, <message note_on channel=0 note=71 velocity=112 time=0>, <message note_on channel=0 note=71 velocity=0 time=9>, <message note_on channel=0 note=69 velocity=105 time=0>, <message note_on channel=0 note=69 velocity=0 time=10>, <message note_on channel=0 note=66 velocity=112 time=0>, <message note_on channel=0 note=66 velocity=0 time=9>, <message note_on channel=0 note=63 velocity=103 time=0>, <message note_on channel=0 note=63 velocity=0 time=10>, <message note_on channel=0 note=59 velocity=111 time=0>, <message note_on channel=0 note=59 velocity=0 time=10>, <message note_on channel=0 note=57 velocity=102 time=0>, <message note_on channel=0 note=57 velocity=0 time=9>, <message note_on channel=0 note=54 velocity=113 time=0>, <message note_on channel=0 note=54 velocity=0 time=10>, <message note_on channel=0 note=51 velocity=103 time=0>, <message note_on channel=0 note=51 velocity=0 time=9>, <message note_on channel=0 note=75 velocity=111 time=0>, <message note_on channel=0 note=75 velocity=0 time=10>, <message note_on channel=0 note=73 velocity=101 time=0>, <message note_on channel=0 note=73 velocity=0 time=9>, <message note_on channel=0 note=71 velocity=112 time=0>, <message note_on channel=0 note=71 velocity=0 time=10>, <message note_on channel=0 note=69 velocity=103 time=0>, <message note_on channel=0 note=69 velocity=0 time=9>, <message note_on channel=0 note=66 velocity=110 time=0>, <message note_on channel=0 note=66 velocity=0 time=10>, <message note_on channel=0 note=63 velocity=100 time=0>, <message note_on channel=0 note=63 velocity=0 time=9>, <message note_on channel=0 note=59 velocity=113 time=0>, <message note_on channel=0 note=59 velocity=0 time=10>, <message note_on channel=0 note=57 velocity=103 time=0>, <message note_on channel=0 note=57 velocity=0 time=10>, <meta message end_of_track time=0>]\n"
     ]
    }
   ],
   "source": [
    "print(alltracks[1])\n"
   ]
  },
  {
   "cell_type": "code",
   "execution_count": 51,
   "metadata": {},
   "outputs": [
    {
     "name": "stdout",
     "output_type": "stream",
     "text": [
      "['control_change', 'channel=1', 'control=7', 'value=100', 'time=0']\n",
      "['control_change', ['channel', '1'], '7', '100', '0']\n"
     ]
    },
    {
     "ename": "ValueError",
     "evalue": "setting an array element with a sequence",
     "output_type": "error",
     "traceback": [
      "\u001b[1;31m---------------------------------------------------------------------------\u001b[0m",
      "\u001b[1;31mValueError\u001b[0m                                Traceback (most recent call last)",
      "\u001b[1;32m<ipython-input-51-122de04e296a>\u001b[0m in \u001b[0;36m<module>\u001b[1;34m()\u001b[0m\n\u001b[0;32m     10\u001b[0m     \u001b[0mmsg\u001b[0m\u001b[1;33m=\u001b[0m\u001b[0msplitMessage\u001b[0m\u001b[1;33m(\u001b[0m\u001b[0mmsg\u001b[0m\u001b[1;33m)\u001b[0m\u001b[1;33m\u001b[0m\u001b[0m\n\u001b[0;32m     11\u001b[0m     \u001b[0mprint\u001b[0m\u001b[1;33m(\u001b[0m\u001b[0mmsg\u001b[0m\u001b[1;33m)\u001b[0m\u001b[1;33m\u001b[0m\u001b[0m\n\u001b[1;32m---> 12\u001b[1;33m     \u001b[0mtrack2\u001b[0m \u001b[1;33m=\u001b[0m \u001b[0mnp\u001b[0m\u001b[1;33m.\u001b[0m\u001b[0mappend\u001b[0m\u001b[1;33m(\u001b[0m\u001b[0mtrack2\u001b[0m\u001b[1;33m,\u001b[0m\u001b[0mmsg\u001b[0m\u001b[1;33m)\u001b[0m\u001b[1;33m\u001b[0m\u001b[0m\n\u001b[0m\u001b[0;32m     13\u001b[0m \u001b[1;33m\u001b[0m\u001b[0m\n\u001b[0;32m     14\u001b[0m \u001b[0mtrack2\u001b[0m \u001b[1;33m=\u001b[0m \u001b[0mnp\u001b[0m\u001b[1;33m.\u001b[0m\u001b[0mreshape\u001b[0m\u001b[1;33m(\u001b[0m\u001b[0mtrack2\u001b[0m\u001b[1;33m,\u001b[0m\u001b[1;33m(\u001b[0m\u001b[0mnp\u001b[0m\u001b[1;33m.\u001b[0m\u001b[0msize\u001b[0m\u001b[1;33m(\u001b[0m\u001b[0mtrack2\u001b[0m\u001b[1;33m)\u001b[0m\u001b[1;33m//\u001b[0m\u001b[1;36m4\u001b[0m\u001b[1;33m,\u001b[0m\u001b[1;36m4\u001b[0m\u001b[1;33m)\u001b[0m\u001b[1;33m)\u001b[0m\u001b[1;33m\u001b[0m\u001b[0m\n",
      "\u001b[1;32mC:\\ProgramData\\Anaconda3\\lib\\site-packages\\numpy\\lib\\function_base.py\u001b[0m in \u001b[0;36mappend\u001b[1;34m(arr, values, axis)\u001b[0m\n\u001b[0;32m   5143\u001b[0m         \u001b[1;32mif\u001b[0m \u001b[0marr\u001b[0m\u001b[1;33m.\u001b[0m\u001b[0mndim\u001b[0m \u001b[1;33m!=\u001b[0m \u001b[1;36m1\u001b[0m\u001b[1;33m:\u001b[0m\u001b[1;33m\u001b[0m\u001b[0m\n\u001b[0;32m   5144\u001b[0m             \u001b[0marr\u001b[0m \u001b[1;33m=\u001b[0m \u001b[0marr\u001b[0m\u001b[1;33m.\u001b[0m\u001b[0mravel\u001b[0m\u001b[1;33m(\u001b[0m\u001b[1;33m)\u001b[0m\u001b[1;33m\u001b[0m\u001b[0m\n\u001b[1;32m-> 5145\u001b[1;33m         \u001b[0mvalues\u001b[0m \u001b[1;33m=\u001b[0m \u001b[0mravel\u001b[0m\u001b[1;33m(\u001b[0m\u001b[0mvalues\u001b[0m\u001b[1;33m)\u001b[0m\u001b[1;33m\u001b[0m\u001b[0m\n\u001b[0m\u001b[0;32m   5146\u001b[0m         \u001b[0maxis\u001b[0m \u001b[1;33m=\u001b[0m \u001b[0marr\u001b[0m\u001b[1;33m.\u001b[0m\u001b[0mndim\u001b[0m\u001b[1;33m-\u001b[0m\u001b[1;36m1\u001b[0m\u001b[1;33m\u001b[0m\u001b[0m\n\u001b[0;32m   5147\u001b[0m     \u001b[1;32mreturn\u001b[0m \u001b[0mconcatenate\u001b[0m\u001b[1;33m(\u001b[0m\u001b[1;33m(\u001b[0m\u001b[0marr\u001b[0m\u001b[1;33m,\u001b[0m \u001b[0mvalues\u001b[0m\u001b[1;33m)\u001b[0m\u001b[1;33m,\u001b[0m \u001b[0maxis\u001b[0m\u001b[1;33m=\u001b[0m\u001b[0maxis\u001b[0m\u001b[1;33m)\u001b[0m\u001b[1;33m\u001b[0m\u001b[0m\n",
      "\u001b[1;32mC:\\ProgramData\\Anaconda3\\lib\\site-packages\\numpy\\core\\fromnumeric.py\u001b[0m in \u001b[0;36mravel\u001b[1;34m(a, order)\u001b[0m\n\u001b[0;32m   1482\u001b[0m         \u001b[1;32mreturn\u001b[0m \u001b[0masarray\u001b[0m\u001b[1;33m(\u001b[0m\u001b[0ma\u001b[0m\u001b[1;33m)\u001b[0m\u001b[1;33m.\u001b[0m\u001b[0mravel\u001b[0m\u001b[1;33m(\u001b[0m\u001b[0morder\u001b[0m\u001b[1;33m=\u001b[0m\u001b[0morder\u001b[0m\u001b[1;33m)\u001b[0m\u001b[1;33m\u001b[0m\u001b[0m\n\u001b[0;32m   1483\u001b[0m     \u001b[1;32melse\u001b[0m\u001b[1;33m:\u001b[0m\u001b[1;33m\u001b[0m\u001b[0m\n\u001b[1;32m-> 1484\u001b[1;33m         \u001b[1;32mreturn\u001b[0m \u001b[0masanyarray\u001b[0m\u001b[1;33m(\u001b[0m\u001b[0ma\u001b[0m\u001b[1;33m)\u001b[0m\u001b[1;33m.\u001b[0m\u001b[0mravel\u001b[0m\u001b[1;33m(\u001b[0m\u001b[0morder\u001b[0m\u001b[1;33m=\u001b[0m\u001b[0morder\u001b[0m\u001b[1;33m)\u001b[0m\u001b[1;33m\u001b[0m\u001b[0m\n\u001b[0m\u001b[0;32m   1485\u001b[0m \u001b[1;33m\u001b[0m\u001b[0m\n\u001b[0;32m   1486\u001b[0m \u001b[1;33m\u001b[0m\u001b[0m\n",
      "\u001b[1;32mC:\\ProgramData\\Anaconda3\\lib\\site-packages\\numpy\\core\\numeric.py\u001b[0m in \u001b[0;36masanyarray\u001b[1;34m(a, dtype, order)\u001b[0m\n\u001b[0;32m    581\u001b[0m \u001b[1;33m\u001b[0m\u001b[0m\n\u001b[0;32m    582\u001b[0m     \"\"\"\n\u001b[1;32m--> 583\u001b[1;33m     \u001b[1;32mreturn\u001b[0m \u001b[0marray\u001b[0m\u001b[1;33m(\u001b[0m\u001b[0ma\u001b[0m\u001b[1;33m,\u001b[0m \u001b[0mdtype\u001b[0m\u001b[1;33m,\u001b[0m \u001b[0mcopy\u001b[0m\u001b[1;33m=\u001b[0m\u001b[1;32mFalse\u001b[0m\u001b[1;33m,\u001b[0m \u001b[0morder\u001b[0m\u001b[1;33m=\u001b[0m\u001b[0morder\u001b[0m\u001b[1;33m,\u001b[0m \u001b[0msubok\u001b[0m\u001b[1;33m=\u001b[0m\u001b[1;32mTrue\u001b[0m\u001b[1;33m)\u001b[0m\u001b[1;33m\u001b[0m\u001b[0m\n\u001b[0m\u001b[0;32m    584\u001b[0m \u001b[1;33m\u001b[0m\u001b[0m\n\u001b[0;32m    585\u001b[0m \u001b[1;33m\u001b[0m\u001b[0m\n",
      "\u001b[1;31mValueError\u001b[0m: setting an array element with a sequence"
     ]
    }
   ],
   "source": [
    "track2 = np.empty((0))\n",
    "msg=\"\"\n",
    "for msgNum in range(np.size(alltracks[2])):\n",
    "    msg = str(alltracks[2][msgNum]).split(\" \")\n",
    "    if(msg[0]==\"meta\"):\n",
    "        continue\n",
    "    if(msg[0]==\"program_change\"):\n",
    "        continue\n",
    "    print(msg)\n",
    "    msg=splitMessage(msg)\n",
    "    print(msg)\n",
    "    track2 = np.append(track2,msg)\n",
    "    \n",
    "track2 = np.reshape(track2,(np.size(track2)//4,4))\n",
    "print(track2[1])"
   ]
  },
  {
   "cell_type": "code",
   "execution_count": null,
   "metadata": {
    "collapsed": true
   },
   "outputs": [],
   "source": []
  },
  {
   "cell_type": "code",
   "execution_count": null,
   "metadata": {
    "collapsed": true
   },
   "outputs": [],
   "source": []
  }
 ],
 "metadata": {
  "kernelspec": {
   "display_name": "Python 3",
   "language": "python",
   "name": "python3"
  },
  "language_info": {
   "codemirror_mode": {
    "name": "ipython",
    "version": 3
   },
   "file_extension": ".py",
   "mimetype": "text/x-python",
   "name": "python",
   "nbconvert_exporter": "python",
   "pygments_lexer": "ipython3",
   "version": "3.6.1"
  }
 },
 "nbformat": 4,
 "nbformat_minor": 2
}
